%
M48
M72
T01C0.0197
T02C0.0320
T03C0.0354
T04C0.0394
T05C0.0400
T06C0.0551
T07C0.1102
%
T01
X4219Y8553
X5319Y8453
X6219Y8253
X6919Y8153
X8369Y7353
X10169Y9003
X9619Y10353
X11619Y13353
X13369Y11603
X15369Y8053
X15269Y6953
X16569Y6653
X16369Y8603
X16369Y10353
X16369Y11603
X18469Y9493
X19229Y9493
X19369Y7653
X19969Y7153
X20219Y6253
X20569Y5503
X21019Y6553
X14969Y15603
X14494Y16478
X15919Y18053
X16494Y17228
X16869Y16728
X17869Y17228
X18119Y16353
X20869Y18353
X20869Y19853
X19919Y20853
X18869Y22353
X18869Y23603
X18019Y26003
X19629Y26713
X20529Y27973
X19609Y28353
X17719Y27953
X17729Y29133
X14669Y24353
X13869Y24353
X12919Y24153
X13119Y22853
X13519Y22153
X13919Y23053
X15469Y22353
X16469Y21553
X16419Y24203
X13869Y25853
X12319Y27703
X10119Y24353
X11119Y24153
X10119Y22353
X10719Y21228
X11619Y21228
X12744Y21228
X12669Y19253
X13069Y18603
X10269Y18503
X8969Y18003
X8769Y16903
X10269Y16853
X8769Y20853
X6419Y21603
X5219Y23153
X4369Y24353
X4369Y21603
X6369Y19603
X6369Y15853
X4069Y14953
X6369Y10353
X13869Y7603
X21244Y15853
X21419Y25553
X7919Y25053
X7369Y24353
T02
X12619Y9353
X13119Y8603
X12119Y8603
T03
X14252Y28056
X15985Y28056
T04
X22223Y24297
X22223Y24297
X22223Y19179
X22223Y19179
X13370Y6383
X11992Y6383
X10614Y6383
X9236Y6383
X7858Y6383
X6480Y6383
T05
X4175Y9303
X4275Y10303
X4175Y11303
X4275Y12303
X14494Y12684
X14494Y13684
X14494Y14684
X15494Y14684
X15494Y13684
X15494Y12684
X11512Y29103
X10512Y29103
X9512Y29103
X8512Y29103
X7512Y29103
X6512Y29103
T06
X15887Y5853
T07
X3181Y5719
X3181Y29144
X22355Y29144
X22355Y5719
M30
