G75*
%MOIN*%
%OFA0B0*%
%FSLAX24Y24*%
%IPPOS*%
%LPD*%
%AMOC8*
5,1,8,0,0,1.08239X$1,22.5*
%
%ADD10C,0.0080*%
D10*
X002499Y002410D02*
X002499Y002570D01*
X002552Y002624D01*
X002712Y002624D01*
X002712Y002410D01*
X002867Y002463D02*
X002867Y002570D01*
X002920Y002624D01*
X003027Y002624D01*
X003080Y002570D01*
X003080Y002463D01*
X003027Y002410D01*
X002920Y002410D01*
X002867Y002463D01*
X003219Y002410D02*
X003326Y002410D01*
X003273Y002410D02*
X003273Y002624D01*
X003326Y002624D01*
X003273Y002730D02*
X003273Y002784D01*
X003481Y002624D02*
X003641Y002624D01*
X003694Y002570D01*
X003641Y002517D01*
X003534Y002517D01*
X003481Y002463D01*
X003534Y002410D01*
X003694Y002410D01*
X003849Y002410D02*
X003849Y002570D01*
X003902Y002624D01*
X004063Y002624D01*
X004063Y002410D01*
X004217Y002410D02*
X004378Y002410D01*
X004431Y002463D01*
X004378Y002517D01*
X004217Y002517D01*
X004217Y002570D02*
X004217Y002410D01*
X004217Y002570D02*
X004271Y002624D01*
X004378Y002624D01*
X004586Y002570D02*
X004586Y002463D01*
X004639Y002410D01*
X004799Y002410D01*
X004799Y002303D02*
X004799Y002624D01*
X004639Y002624D01*
X004586Y002570D01*
X004954Y002624D02*
X005168Y002410D01*
X005322Y002410D02*
X005536Y002410D01*
X005536Y002730D01*
X005322Y002730D01*
X005168Y002624D02*
X004954Y002410D01*
X005069Y002024D02*
X005122Y002024D01*
X005229Y001917D01*
X005229Y001810D02*
X005229Y002024D01*
X005384Y001970D02*
X005384Y001863D01*
X005437Y001810D01*
X005544Y001810D01*
X005597Y001863D01*
X005597Y001970D01*
X005544Y002024D01*
X005437Y002024D01*
X005384Y001970D01*
X005736Y002024D02*
X005843Y002024D01*
X005789Y002077D02*
X005789Y001863D01*
X005736Y001810D01*
X005982Y001810D02*
X006088Y001810D01*
X006035Y001810D02*
X006035Y002024D01*
X006088Y002024D01*
X006035Y002130D02*
X006035Y002184D01*
X006243Y001970D02*
X006243Y001810D01*
X006243Y001970D02*
X006296Y002024D01*
X006457Y002024D01*
X006457Y001810D01*
X006611Y001863D02*
X006611Y001970D01*
X006665Y002024D01*
X006772Y002024D01*
X006825Y001970D01*
X006825Y001863D01*
X006772Y001810D01*
X006665Y001810D01*
X006611Y001863D01*
X006980Y001810D02*
X006980Y002130D01*
X007086Y002024D01*
X007193Y002130D01*
X007193Y001810D01*
X007348Y001810D02*
X007508Y001810D01*
X007562Y001863D01*
X007562Y002024D01*
X007716Y002024D02*
X007876Y002024D01*
X007930Y001970D01*
X007930Y001863D01*
X007876Y001810D01*
X007716Y001810D01*
X007716Y001757D02*
X007716Y002024D01*
X007716Y001757D02*
X007770Y001703D01*
X007823Y001703D01*
X008077Y002024D02*
X008130Y002024D01*
X008237Y001917D01*
X008237Y001810D02*
X008237Y002024D01*
X008392Y001970D02*
X008392Y001917D01*
X008605Y001917D01*
X008605Y001970D02*
X008605Y001863D01*
X008552Y001810D01*
X008445Y001810D01*
X008392Y001970D02*
X008445Y002024D01*
X008552Y002024D01*
X008605Y001970D01*
X008760Y001970D02*
X008760Y001810D01*
X008760Y001970D02*
X008813Y002024D01*
X008973Y002024D01*
X008973Y001810D01*
X009128Y001810D02*
X009342Y001810D01*
X009342Y002130D01*
X009128Y002130D01*
X009235Y001970D02*
X009342Y001970D01*
X009497Y001970D02*
X009497Y001810D01*
X009497Y001970D02*
X009550Y002024D01*
X009710Y002024D01*
X009710Y001810D01*
X009865Y001917D02*
X010078Y001917D01*
X010078Y001970D02*
X010078Y001863D01*
X010025Y001810D01*
X009918Y001810D01*
X009865Y001917D02*
X009865Y001970D01*
X009918Y002024D01*
X010025Y002024D01*
X010078Y001970D01*
X010233Y001970D02*
X010233Y001863D01*
X010287Y001810D01*
X010447Y001810D01*
X010447Y001703D02*
X010447Y002024D01*
X010287Y002024D01*
X010233Y001970D01*
X010601Y001863D02*
X010655Y001810D01*
X010762Y001810D01*
X010815Y001863D01*
X010815Y002077D01*
X010762Y002130D01*
X010655Y002130D01*
X010601Y002077D01*
X010601Y001863D01*
X010601Y002410D02*
X010708Y002517D01*
X010655Y002517D02*
X010815Y002517D01*
X010815Y002410D02*
X010815Y002730D01*
X010655Y002730D01*
X010601Y002677D01*
X010601Y002570D01*
X010655Y002517D01*
X010447Y002463D02*
X010393Y002517D01*
X010233Y002517D01*
X010233Y002570D02*
X010233Y002410D01*
X010393Y002410D01*
X010447Y002463D01*
X010287Y002624D02*
X010233Y002570D01*
X010287Y002624D02*
X010393Y002624D01*
X010078Y002570D02*
X010025Y002624D01*
X009865Y002624D01*
X009918Y002517D02*
X010025Y002517D01*
X010078Y002570D01*
X010078Y002410D02*
X009918Y002410D01*
X009865Y002463D01*
X009918Y002517D01*
X009710Y002624D02*
X009710Y002303D01*
X009710Y002410D02*
X009550Y002410D01*
X009497Y002463D01*
X009497Y002570D01*
X009550Y002624D01*
X009710Y002624D01*
X009342Y002624D02*
X009182Y002624D01*
X009128Y002570D01*
X009128Y002463D01*
X009182Y002410D01*
X009342Y002410D01*
X009342Y002730D01*
X009288Y003010D02*
X009182Y003010D01*
X009128Y003063D01*
X009128Y003277D01*
X009182Y003330D01*
X009288Y003330D01*
X009342Y003277D01*
X009342Y003224D01*
X009288Y003170D01*
X009128Y003170D01*
X008973Y003117D02*
X008813Y003117D01*
X008760Y003170D01*
X008760Y003277D01*
X008813Y003330D01*
X008973Y003330D01*
X008973Y003010D01*
X009288Y003010D02*
X009342Y003063D01*
X009497Y003063D02*
X009497Y003117D01*
X009550Y003170D01*
X009710Y003170D01*
X009710Y003063D01*
X009657Y003010D01*
X009550Y003010D01*
X009497Y003063D01*
X009603Y003277D02*
X009710Y003170D01*
X009603Y003277D02*
X009497Y003330D01*
X009865Y003330D02*
X009865Y003010D01*
X009972Y003224D02*
X009865Y003330D01*
X009972Y003224D02*
X010078Y003330D01*
X010078Y003010D01*
X010340Y003170D02*
X010447Y003170D01*
X010447Y003010D02*
X010447Y003330D01*
X010233Y003330D01*
X010601Y003277D02*
X010601Y003170D01*
X010655Y003117D01*
X010815Y003117D01*
X010708Y003117D02*
X010601Y003010D01*
X010815Y003010D02*
X010815Y003330D01*
X010655Y003330D01*
X010601Y003277D01*
X008973Y002570D02*
X008973Y002463D01*
X008920Y002410D01*
X008813Y002410D01*
X008760Y002517D02*
X008973Y002517D01*
X008973Y002570D02*
X008920Y002624D01*
X008813Y002624D01*
X008760Y002570D01*
X008760Y002517D01*
X008605Y002517D02*
X008498Y002624D01*
X008445Y002624D01*
X008298Y002624D02*
X008298Y002410D01*
X008298Y002517D02*
X008191Y002624D01*
X008138Y002624D01*
X007991Y002624D02*
X007991Y002463D01*
X007938Y002410D01*
X007778Y002410D01*
X007778Y002357D02*
X007831Y002303D01*
X007885Y002303D01*
X007778Y002357D02*
X007778Y002624D01*
X007623Y002730D02*
X007463Y002730D01*
X007409Y002677D01*
X007409Y002570D01*
X007463Y002517D01*
X007623Y002517D01*
X007623Y002410D02*
X007623Y002730D01*
X007570Y003010D02*
X007463Y003010D01*
X007409Y003063D01*
X007409Y003117D01*
X007463Y003170D01*
X007516Y003170D01*
X007463Y003170D02*
X007409Y003224D01*
X007409Y003277D01*
X007463Y003330D01*
X007570Y003330D01*
X007623Y003277D01*
X007778Y003330D02*
X007778Y003117D01*
X007884Y003010D01*
X007991Y003117D01*
X007991Y003330D01*
X007623Y003063D02*
X007570Y003010D01*
X007255Y002624D02*
X007201Y002624D01*
X007201Y002410D01*
X007148Y002410D02*
X007255Y002410D01*
X007201Y002730D02*
X007201Y002784D01*
X006886Y003010D02*
X006886Y003330D01*
X006673Y003010D01*
X006673Y003330D01*
X006518Y003170D02*
X006518Y003063D01*
X006465Y003010D01*
X006358Y003010D01*
X006304Y003063D01*
X006304Y003170D01*
X006358Y003224D01*
X006465Y003224D01*
X006518Y003170D01*
X006150Y003224D02*
X006043Y003010D01*
X005936Y003224D01*
X005781Y003224D02*
X005675Y003330D01*
X005675Y003010D01*
X005781Y003010D02*
X005568Y003010D01*
X005413Y003170D02*
X005200Y003170D01*
X005253Y003010D02*
X005253Y003330D01*
X005413Y003170D01*
X005429Y002570D02*
X005536Y002570D01*
X006059Y002730D02*
X006272Y002730D01*
X006272Y002410D01*
X006272Y002570D02*
X006166Y002570D01*
X006427Y002570D02*
X006481Y002517D01*
X006641Y002517D01*
X006534Y002517D02*
X006427Y002410D01*
X006427Y002570D02*
X006427Y002677D01*
X006481Y002730D01*
X006641Y002730D01*
X006641Y002410D01*
X007348Y002024D02*
X007348Y001757D01*
X007401Y001703D01*
X007455Y001703D01*
X008605Y002410D02*
X008605Y002624D01*
X008605Y003010D02*
X008498Y003010D01*
X008552Y003010D02*
X008552Y003224D01*
X008605Y003224D01*
X008552Y003330D02*
X008552Y003384D01*
X004922Y001863D02*
X004922Y001810D01*
X004869Y001810D01*
X004869Y001863D01*
X004922Y001863D01*
X004738Y001863D02*
X004684Y001810D01*
X004578Y001810D01*
X004524Y001863D01*
X004524Y001970D01*
X004578Y002024D01*
X004684Y002024D01*
X004738Y001970D01*
X004738Y001863D01*
X004369Y001810D02*
X004369Y002024D01*
X004263Y002024D02*
X004369Y001917D01*
X004263Y002024D02*
X004209Y002024D01*
X004063Y001970D02*
X004063Y001863D01*
X004009Y001810D01*
X003849Y001810D01*
X003849Y001757D02*
X003849Y002024D01*
X004009Y002024D01*
X004063Y001970D01*
X003956Y001703D02*
X003902Y001703D01*
X003849Y001757D01*
M02*
