G75*
%MOIN*%
%OFA0B0*%
%FSLAX24Y24*%
%IPPOS*%
%LPD*%
%AMOC8*
5,1,8,0,0,1.08239X$1,22.5*
%
%ADD10R,0.1000X0.0500*%
%ADD11R,0.0315X0.0315*%
%ADD12R,0.0394X0.0433*%
%ADD13R,0.0433X0.0394*%
%ADD14R,0.0220X0.0500*%
%ADD15R,0.0500X0.0220*%
D10*
X003175Y000538D03*
X003175Y001325D03*
X003175Y002113D03*
X003175Y002900D03*
X003175Y003687D03*
X003175Y004475D03*
X003175Y005262D03*
X009475Y005262D03*
X009475Y004475D03*
X009475Y003687D03*
X009475Y002900D03*
X009475Y002113D03*
X009475Y001325D03*
X009475Y000538D03*
D11*
X010675Y006230D03*
X010675Y006820D03*
D12*
X010210Y006100D03*
X009540Y006100D03*
X009010Y006100D03*
X008340Y006100D03*
X008340Y006900D03*
X009010Y006900D03*
X010675Y004235D03*
X010675Y003565D03*
X010500Y001985D03*
X010500Y001315D03*
X007450Y010040D03*
X007450Y010710D03*
D13*
X006510Y010750D03*
X005840Y010750D03*
X004185Y010750D03*
X003515Y010750D03*
X009540Y006900D03*
X010210Y006900D03*
D14*
X006402Y006635D03*
X006087Y006635D03*
X005772Y006635D03*
X005457Y006635D03*
X005143Y006635D03*
X004828Y006635D03*
X004513Y006635D03*
X004198Y006635D03*
X004198Y010015D03*
X004513Y010015D03*
X004828Y010015D03*
X005143Y010015D03*
X005457Y010015D03*
X005772Y010015D03*
X006087Y010015D03*
X006402Y010015D03*
D15*
X006990Y009427D03*
X006990Y009112D03*
X006990Y008797D03*
X006990Y008482D03*
X006990Y008168D03*
X006990Y007853D03*
X006990Y007538D03*
X006990Y007223D03*
X003610Y007223D03*
X003610Y007538D03*
X003610Y007853D03*
X003610Y008168D03*
X003610Y008482D03*
X003610Y008797D03*
X003610Y009112D03*
X003610Y009427D03*
M02*
