%
M48
M72
T01C0.0197
T02C0.0240
T03C0.0276
T04C0.0280
T05C0.0320
T06C0.0354
T07C0.0360
T08C0.0400
T09C0.0520
T10C0.0560
T11C0.0591
T12C0.0787
T13C0.1102
T14C0.1181
T15C0.1260
%
T01
X2444Y4823
X6774Y4035
X12483Y4035
X8349Y9154
X8349Y11516
X11499Y13878
X13475Y9742
X20475Y13867
X20475Y14492
X25350Y12617
X23475Y9742
X25672Y4823
X33546Y2461
X37089Y2461
X35850Y12492
X35908Y15846
X35908Y18996
X33546Y24114
X29975Y24992
X29609Y27264
X25771Y28445
X21834Y22835
X21834Y21555
X22100Y19742
X18290Y26181
X12483Y24114
X12877Y19734
X2444Y9154
T02
X14229Y13984
X16229Y13984
T03
X28212Y4327
X28527Y3815
X28842Y4327
X29157Y3815
X29472Y4327
T04
X21440Y8607
X21440Y9307
X19668Y9307
X19668Y8607
X17897Y8607
X17897Y9307
X17897Y7338
X17897Y6638
X5200Y13626
X5200Y14326
X2976Y12089
X2276Y12089
X7562Y20051
X7562Y20751
X7562Y21993
X7562Y22693
X3089Y24213
X2389Y24213
X12396Y23167
X12396Y22467
X17146Y22467
X17146Y23167
T05
X15775Y24292
X14775Y24292
X13775Y24292
X10975Y24292
X9975Y24292
X8975Y24292
X6141Y22841
X5172Y22841
X4204Y22841
X3231Y22858
X2247Y22858
X2247Y19858
X1656Y18921
X3231Y19858
X4204Y19841
X5172Y19841
X6141Y19841
X5963Y18492
X7725Y18742
X8725Y18742
X9725Y18742
X10725Y18742
X11725Y18742
X12725Y18742
X13725Y18742
X14725Y18742
X15725Y18742
X16725Y18742
X17725Y18742
X18725Y18742
X19725Y18742
X20725Y18742
X20521Y21317
X19521Y21317
X18521Y21317
X15775Y21292
X14775Y21292
X13775Y21292
X13656Y19783
X14656Y19783
X10975Y21292
X9975Y21292
X8975Y21292
X8725Y15742
X7725Y15742
X6676Y14476
X6676Y13476
X5963Y15492
X3526Y14476
X2776Y13976
X3526Y13476
X3955Y10992
X6955Y10992
X9725Y15742
X10725Y15742
X11725Y15742
X12725Y15742
X13725Y15742
X14725Y15742
X15725Y15742
X16725Y15742
X17725Y15742
X18725Y15742
X19725Y15742
X20725Y15742
X15475Y12242
X14475Y12242
X13475Y12242
X12475Y12242
X19725Y7492
X20725Y7492
X20725Y6492
X19725Y6492
X21725Y6492
X22725Y6492
X22725Y7492
X21725Y7492
X23725Y7492
X23725Y6492
X24691Y9688
X25691Y9688
X27370Y9490
X27370Y10499
X30370Y10499
X30370Y9490
X31985Y17006
X32985Y17006
X33985Y17006
X34985Y17006
X34985Y20006
X33985Y20006
X32985Y20006
X31985Y20006
X32048Y21175
X32046Y22146
X32048Y23175
X32048Y24175
X35048Y24175
X35048Y23175
X35046Y22146
X35048Y21175
X36786Y21949
X37286Y22699
X37786Y21949
X37786Y23917
X37286Y24667
X37286Y25530
X36786Y26280
X37786Y26280
X36786Y23917
X26960Y23228
X25960Y23228
X26975Y22146
X23975Y22146
X20521Y24317
X19521Y24317
X18521Y24317
X1656Y15921
T06
X2869Y15689
X2869Y18689
T07
X4513Y17992
X4513Y16992
X4513Y15992
X19591Y25626
X19591Y26626
X20591Y26626
X21591Y26626
X21591Y25626
X20591Y25626
X22591Y25626
X23591Y25626
X23591Y26626
X22591Y26626
T08
X22725Y23988
X21725Y23988
X23725Y23988
X30987Y27264
X30987Y28264
X37680Y28264
X37680Y27264
X37680Y13500
X37680Y12500
X37188Y10925
X36188Y10925
X35188Y10925
X34188Y10925
X33188Y10925
X32188Y10925
X30987Y12500
X30987Y13500
X29350Y12617
X28350Y12617
X28350Y11617
X29350Y11617
X26445Y11635
X25445Y11635
X24445Y11635
X23445Y11635
X22445Y11635
X21445Y11635
X28414Y7413
X29414Y7413
X29398Y6207
X28398Y6207
X23725Y4992
X22725Y4992
X21725Y4992
X20725Y4992
X19725Y4992
X18725Y4992
X17725Y4992
X16725Y4992
X15725Y4992
X14725Y4992
X13725Y4992
X12725Y4992
X11725Y4992
X10725Y4992
X9725Y4992
X8725Y4992
X7725Y4992
X6725Y4992
X5725Y4992
X4725Y4992
X1656Y13862
X1656Y14862
X4725Y23988
X5725Y23988
X6725Y23988
T09
X28231Y21949
T10
X2365Y2126
X3743Y2126
X5121Y2126
X6499Y2126
X7877Y2126
X9255Y2126
X10633Y2118
X12011Y2118
X13389Y2118
X14767Y2118
X16145Y2118
X17523Y2118
X18900Y2118
X20278Y2118
X21656Y2118
X23034Y2118
X24412Y2118
X25790Y2118
X26460Y30315
X25082Y30315
X23704Y30315
X22326Y30315
X27837Y30315
X29215Y30315
X30593Y30315
X31971Y30315
X33349Y30315
X34727Y30315
X36105Y30315
X37483Y30315
T11
X20776Y30739
X18807Y30739
X16839Y30739
X15604Y30729
X13636Y30729
X11667Y30729
X10404Y30729
X8436Y30729
X6467Y30729
X6428Y28761
X7491Y28761
X9381Y28761
X10444Y28761
X11628Y28761
X12691Y28761
X14581Y28761
X15644Y28761
X16799Y28770
X17862Y28770
X19752Y28770
X20815Y28770
T12
X27405Y2299
X30279Y2299
T13
X25528Y6835
X25528Y26126
X3975Y30298
X2086Y28960
X2694Y26126
T14
X2694Y6835
T15
X3975Y27838
M30
