G75*
%MOIN*%
%OFA0B0*%
%FSLAX25Y25*%
%IPPOS*%
%LPD*%
%AMOC8*
5,1,8,0,0,1.08239X$1,22.5*
%
%ADD10C,0.11424*%
%ADD11C,0.07800*%
%ADD12C,0.06306*%
%ADD13C,0.04337*%
%ADD14C,0.09000*%
%ADD15R,0.07800X0.07800*%
%ADD16C,0.03943*%
%ADD17OC8,0.09061*%
%ADD18C,0.00640*%
%ADD19OC8,0.07800*%
D10*
X0031815Y0057193D03*
X0031815Y0291445D03*
X0223547Y0291445D03*
X0223547Y0057193D03*
D11*
X0131185Y0086031D03*
X0126185Y0093531D03*
X0121185Y0086031D03*
X0042748Y0103031D03*
X0041748Y0113031D03*
X0042748Y0123031D03*
X0065122Y0291031D03*
X0075122Y0291031D03*
X0085122Y0291031D03*
X0095122Y0291031D03*
X0105122Y0291031D03*
X0115122Y0291031D03*
D12*
X0222234Y0244742D02*
X0222234Y0241198D01*
X0222234Y0193560D02*
X0222234Y0190017D01*
D13*
X0222234Y0191789D03*
X0222234Y0242970D03*
D14*
X0133697Y0063831D03*
X0119917Y0063831D03*
X0106138Y0063831D03*
X0092358Y0063831D03*
X0078579Y0063831D03*
X0064799Y0063831D03*
D15*
X0041748Y0093031D03*
D16*
X0142524Y0280559D03*
X0159846Y0280559D03*
D17*
X0158872Y0058531D03*
D18*
X0169742Y0066411D02*
X0175502Y0066411D01*
X0175502Y0050651D01*
X0169742Y0050651D01*
X0169742Y0066411D01*
X0169742Y0051290D02*
X0175502Y0051290D01*
X0175502Y0051929D02*
X0169742Y0051929D01*
X0169742Y0052568D02*
X0175502Y0052568D01*
X0175502Y0053207D02*
X0169742Y0053207D01*
X0169742Y0053846D02*
X0175502Y0053846D01*
X0175502Y0054485D02*
X0169742Y0054485D01*
X0169742Y0055124D02*
X0175502Y0055124D01*
X0175502Y0055763D02*
X0169742Y0055763D01*
X0169742Y0056402D02*
X0175502Y0056402D01*
X0175502Y0057041D02*
X0169742Y0057041D01*
X0169742Y0057680D02*
X0175502Y0057680D01*
X0175502Y0058319D02*
X0169742Y0058319D01*
X0169742Y0058958D02*
X0175502Y0058958D01*
X0175502Y0059597D02*
X0169742Y0059597D01*
X0169742Y0060236D02*
X0175502Y0060236D01*
X0175502Y0060875D02*
X0169742Y0060875D01*
X0169742Y0061514D02*
X0175502Y0061514D01*
X0175502Y0062153D02*
X0169742Y0062153D01*
X0169742Y0062792D02*
X0175502Y0062792D01*
X0175502Y0063431D02*
X0169742Y0063431D01*
X0169742Y0064070D02*
X0175502Y0064070D01*
X0175502Y0064709D02*
X0169742Y0064709D01*
X0169742Y0065348D02*
X0175502Y0065348D01*
X0175502Y0065987D02*
X0169742Y0065987D01*
X0189742Y0066411D02*
X0195502Y0066411D01*
X0195502Y0050651D01*
X0189742Y0050651D01*
X0189742Y0066411D01*
X0189742Y0051290D02*
X0195502Y0051290D01*
X0195502Y0051929D02*
X0189742Y0051929D01*
X0189742Y0052568D02*
X0195502Y0052568D01*
X0195502Y0053207D02*
X0189742Y0053207D01*
X0189742Y0053846D02*
X0195502Y0053846D01*
X0195502Y0054485D02*
X0189742Y0054485D01*
X0189742Y0055124D02*
X0195502Y0055124D01*
X0195502Y0055763D02*
X0189742Y0055763D01*
X0189742Y0056402D02*
X0195502Y0056402D01*
X0195502Y0057041D02*
X0189742Y0057041D01*
X0189742Y0057680D02*
X0195502Y0057680D01*
X0195502Y0058319D02*
X0189742Y0058319D01*
X0189742Y0058958D02*
X0195502Y0058958D01*
X0195502Y0059597D02*
X0189742Y0059597D01*
X0189742Y0060236D02*
X0195502Y0060236D01*
X0195502Y0060875D02*
X0189742Y0060875D01*
X0189742Y0061514D02*
X0195502Y0061514D01*
X0195502Y0062153D02*
X0189742Y0062153D01*
X0189742Y0062792D02*
X0195502Y0062792D01*
X0195502Y0063431D02*
X0189742Y0063431D01*
X0189742Y0064070D02*
X0195502Y0064070D01*
X0195502Y0064709D02*
X0189742Y0064709D01*
X0189742Y0065348D02*
X0195502Y0065348D01*
X0195502Y0065987D02*
X0189742Y0065987D01*
D19*
X0154935Y0126844D03*
X0154935Y0136844D03*
X0154935Y0146844D03*
X0144935Y0146844D03*
X0144935Y0136844D03*
X0144935Y0126844D03*
M02*
