G75*
%MOIN*%
%OFA0B0*%
%FSLAX25Y25*%
%IPPOS*%
%LPD*%
%AMOC8*
5,1,8,0,0,1.08239X$1,22.5*
%
%ADD10C,0.00374*%
%ADD11C,0.00370*%
%ADD12C,0.00354*%
%ADD13C,0.00767*%
%ADD14C,0.00348*%
%ADD15C,0.00452*%
%ADD16C,0.00740*%
%ADD17C,0.00360*%
%ADD18C,0.00491*%
%ADD19C,0.00480*%
%ADD20C,0.00413*%
%ADD21C,0.00500*%
%ADD22C,0.00342*%
D10*
X0040063Y0070504D02*
X0040063Y0073866D01*
X0040063Y0070504D02*
X0036307Y0070504D01*
X0036307Y0073866D01*
X0040063Y0073866D01*
X0040063Y0070877D02*
X0036307Y0070877D01*
X0036307Y0071250D02*
X0040063Y0071250D01*
X0040063Y0071623D02*
X0036307Y0071623D01*
X0036307Y0071996D02*
X0040063Y0071996D01*
X0040063Y0072369D02*
X0036307Y0072369D01*
X0036307Y0072742D02*
X0040063Y0072742D01*
X0040063Y0073115D02*
X0036307Y0073115D01*
X0036307Y0073488D02*
X0040063Y0073488D01*
X0040063Y0073861D02*
X0036307Y0073861D01*
X0040063Y0077197D02*
X0040063Y0080559D01*
X0040063Y0077197D02*
X0036307Y0077197D01*
X0036307Y0080559D01*
X0040063Y0080559D01*
X0040063Y0077570D02*
X0036307Y0077570D01*
X0036307Y0077943D02*
X0040063Y0077943D01*
X0040063Y0078316D02*
X0036307Y0078316D01*
X0036307Y0078689D02*
X0040063Y0078689D01*
X0040063Y0079062D02*
X0036307Y0079062D01*
X0036307Y0079435D02*
X0040063Y0079435D01*
X0040063Y0079808D02*
X0036307Y0079808D01*
X0036307Y0080181D02*
X0040063Y0080181D01*
X0040063Y0080554D02*
X0036307Y0080554D01*
X0051063Y0080559D02*
X0051063Y0077197D01*
X0047307Y0077197D01*
X0047307Y0080559D01*
X0051063Y0080559D01*
X0051063Y0077570D02*
X0047307Y0077570D01*
X0047307Y0077943D02*
X0051063Y0077943D01*
X0051063Y0078316D02*
X0047307Y0078316D01*
X0047307Y0078689D02*
X0051063Y0078689D01*
X0051063Y0079062D02*
X0047307Y0079062D01*
X0047307Y0079435D02*
X0051063Y0079435D01*
X0051063Y0079808D02*
X0047307Y0079808D01*
X0047307Y0080181D02*
X0051063Y0080181D01*
X0051063Y0080554D02*
X0047307Y0080554D01*
X0051063Y0073866D02*
X0051063Y0070504D01*
X0047307Y0070504D01*
X0047307Y0073866D01*
X0051063Y0073866D01*
X0051063Y0070877D02*
X0047307Y0070877D01*
X0047307Y0071250D02*
X0051063Y0071250D01*
X0051063Y0071623D02*
X0047307Y0071623D01*
X0047307Y0071996D02*
X0051063Y0071996D01*
X0051063Y0072369D02*
X0047307Y0072369D01*
X0047307Y0072742D02*
X0051063Y0072742D01*
X0051063Y0073115D02*
X0047307Y0073115D01*
X0047307Y0073488D02*
X0051063Y0073488D01*
X0051063Y0073861D02*
X0047307Y0073861D01*
X0061807Y0116004D02*
X0061807Y0119366D01*
X0065563Y0119366D01*
X0065563Y0116004D01*
X0061807Y0116004D01*
X0061807Y0116377D02*
X0065563Y0116377D01*
X0065563Y0116750D02*
X0061807Y0116750D01*
X0061807Y0117123D02*
X0065563Y0117123D01*
X0065563Y0117496D02*
X0061807Y0117496D01*
X0061807Y0117869D02*
X0065563Y0117869D01*
X0065563Y0118242D02*
X0061807Y0118242D01*
X0061807Y0118615D02*
X0065563Y0118615D01*
X0065563Y0118988D02*
X0061807Y0118988D01*
X0061807Y0119361D02*
X0065563Y0119361D01*
X0061807Y0122697D02*
X0061807Y0126059D01*
X0065563Y0126059D01*
X0065563Y0122697D01*
X0061807Y0122697D01*
X0061807Y0123070D02*
X0065563Y0123070D01*
X0065563Y0123443D02*
X0061807Y0123443D01*
X0061807Y0123816D02*
X0065563Y0123816D01*
X0065563Y0124189D02*
X0061807Y0124189D01*
X0061807Y0124562D02*
X0065563Y0124562D01*
X0065563Y0124935D02*
X0061807Y0124935D01*
X0061807Y0125308D02*
X0065563Y0125308D01*
X0065563Y0125681D02*
X0061807Y0125681D01*
X0061807Y0126054D02*
X0065563Y0126054D01*
X0086866Y0095756D02*
X0086866Y0092000D01*
X0083504Y0092000D01*
X0083504Y0095756D01*
X0086866Y0095756D01*
X0086866Y0092373D02*
X0083504Y0092373D01*
X0083504Y0092746D02*
X0086866Y0092746D01*
X0086866Y0093119D02*
X0083504Y0093119D01*
X0083504Y0093492D02*
X0086866Y0093492D01*
X0086866Y0093865D02*
X0083504Y0093865D01*
X0083504Y0094238D02*
X0086866Y0094238D01*
X0086866Y0094611D02*
X0083504Y0094611D01*
X0083504Y0094984D02*
X0086866Y0094984D01*
X0086866Y0095357D02*
X0083504Y0095357D01*
X0083504Y0095730D02*
X0086866Y0095730D01*
X0086866Y0089063D02*
X0086866Y0085307D01*
X0083504Y0085307D01*
X0083504Y0089063D01*
X0086866Y0089063D01*
X0086866Y0085680D02*
X0083504Y0085680D01*
X0083504Y0086053D02*
X0086866Y0086053D01*
X0086866Y0086426D02*
X0083504Y0086426D01*
X0083504Y0086799D02*
X0086866Y0086799D01*
X0086866Y0087172D02*
X0083504Y0087172D01*
X0083504Y0087545D02*
X0086866Y0087545D01*
X0086866Y0087918D02*
X0083504Y0087918D01*
X0083504Y0088291D02*
X0086866Y0088291D01*
X0086866Y0088664D02*
X0083504Y0088664D01*
X0083504Y0089037D02*
X0086866Y0089037D01*
X0126158Y0107909D02*
X0129520Y0107909D01*
X0129520Y0104153D01*
X0126158Y0104153D01*
X0126158Y0107909D01*
X0126158Y0104526D02*
X0129520Y0104526D01*
X0129520Y0104899D02*
X0126158Y0104899D01*
X0126158Y0105272D02*
X0129520Y0105272D01*
X0129520Y0105645D02*
X0126158Y0105645D01*
X0126158Y0106018D02*
X0129520Y0106018D01*
X0129520Y0106391D02*
X0126158Y0106391D01*
X0126158Y0106764D02*
X0129520Y0106764D01*
X0129520Y0107137D02*
X0126158Y0107137D01*
X0126158Y0107510D02*
X0129520Y0107510D01*
X0129520Y0107883D02*
X0126158Y0107883D01*
X0132850Y0107909D02*
X0136212Y0107909D01*
X0136212Y0104153D01*
X0132850Y0104153D01*
X0132850Y0107909D01*
X0132850Y0104526D02*
X0136212Y0104526D01*
X0136212Y0104899D02*
X0132850Y0104899D01*
X0132850Y0105272D02*
X0136212Y0105272D01*
X0136212Y0105645D02*
X0132850Y0105645D01*
X0132850Y0106018D02*
X0136212Y0106018D01*
X0136212Y0106391D02*
X0132850Y0106391D01*
X0132850Y0106764D02*
X0136212Y0106764D01*
X0136212Y0107137D02*
X0132850Y0107137D01*
X0132850Y0107510D02*
X0136212Y0107510D01*
X0136212Y0107883D02*
X0132850Y0107883D01*
X0148063Y0098559D02*
X0148063Y0095197D01*
X0144307Y0095197D01*
X0144307Y0098559D01*
X0148063Y0098559D01*
X0148063Y0095570D02*
X0144307Y0095570D01*
X0144307Y0095943D02*
X0148063Y0095943D01*
X0148063Y0096316D02*
X0144307Y0096316D01*
X0144307Y0096689D02*
X0148063Y0096689D01*
X0148063Y0097062D02*
X0144307Y0097062D01*
X0144307Y0097435D02*
X0148063Y0097435D01*
X0148063Y0097808D02*
X0144307Y0097808D01*
X0144307Y0098181D02*
X0148063Y0098181D01*
X0148063Y0098554D02*
X0144307Y0098554D01*
X0148063Y0091866D02*
X0148063Y0088504D01*
X0144307Y0088504D01*
X0144307Y0091866D01*
X0148063Y0091866D01*
X0148063Y0088877D02*
X0144307Y0088877D01*
X0144307Y0089250D02*
X0148063Y0089250D01*
X0148063Y0089623D02*
X0144307Y0089623D01*
X0144307Y0089996D02*
X0148063Y0089996D01*
X0148063Y0090369D02*
X0144307Y0090369D01*
X0144307Y0090742D02*
X0148063Y0090742D01*
X0148063Y0091115D02*
X0144307Y0091115D01*
X0144307Y0091488D02*
X0148063Y0091488D01*
X0148063Y0091861D02*
X0144307Y0091861D01*
X0154504Y0092063D02*
X0154504Y0088307D01*
X0154504Y0092063D02*
X0157866Y0092063D01*
X0157866Y0088307D01*
X0154504Y0088307D01*
X0154504Y0088680D02*
X0157866Y0088680D01*
X0157866Y0089053D02*
X0154504Y0089053D01*
X0154504Y0089426D02*
X0157866Y0089426D01*
X0157866Y0089799D02*
X0154504Y0089799D01*
X0154504Y0090172D02*
X0157866Y0090172D01*
X0157866Y0090545D02*
X0154504Y0090545D01*
X0154504Y0090918D02*
X0157866Y0090918D01*
X0157866Y0091291D02*
X0154504Y0091291D01*
X0154504Y0091664D02*
X0157866Y0091664D01*
X0157866Y0092037D02*
X0154504Y0092037D01*
X0154504Y0095000D02*
X0154504Y0098756D01*
X0157866Y0098756D01*
X0157866Y0095000D01*
X0154504Y0095000D01*
X0154504Y0095373D02*
X0157866Y0095373D01*
X0157866Y0095746D02*
X0154504Y0095746D01*
X0154504Y0096119D02*
X0157866Y0096119D01*
X0157866Y0096492D02*
X0154504Y0096492D01*
X0154504Y0096865D02*
X0157866Y0096865D01*
X0157866Y0097238D02*
X0154504Y0097238D01*
X0154504Y0097611D02*
X0157866Y0097611D01*
X0157866Y0097984D02*
X0154504Y0097984D01*
X0154504Y0098357D02*
X0157866Y0098357D01*
X0157866Y0098730D02*
X0154504Y0098730D01*
X0161158Y0075409D02*
X0164520Y0075409D01*
X0164520Y0071653D01*
X0161158Y0071653D01*
X0161158Y0075409D01*
X0161158Y0072026D02*
X0164520Y0072026D01*
X0164520Y0072399D02*
X0161158Y0072399D01*
X0161158Y0072772D02*
X0164520Y0072772D01*
X0164520Y0073145D02*
X0161158Y0073145D01*
X0161158Y0073518D02*
X0164520Y0073518D01*
X0164520Y0073891D02*
X0161158Y0073891D01*
X0161158Y0074264D02*
X0164520Y0074264D01*
X0164520Y0074637D02*
X0161158Y0074637D01*
X0161158Y0075010D02*
X0164520Y0075010D01*
X0164520Y0075383D02*
X0161158Y0075383D01*
X0167850Y0075409D02*
X0171212Y0075409D01*
X0171212Y0071653D01*
X0167850Y0071653D01*
X0167850Y0075409D01*
X0167850Y0072026D02*
X0171212Y0072026D01*
X0171212Y0072399D02*
X0167850Y0072399D01*
X0167850Y0072772D02*
X0171212Y0072772D01*
X0171212Y0073145D02*
X0167850Y0073145D01*
X0167850Y0073518D02*
X0171212Y0073518D01*
X0171212Y0073891D02*
X0167850Y0073891D01*
X0167850Y0074264D02*
X0171212Y0074264D01*
X0171212Y0074637D02*
X0167850Y0074637D01*
X0167850Y0075010D02*
X0171212Y0075010D01*
X0171212Y0075383D02*
X0167850Y0075383D01*
X0173658Y0071653D02*
X0177020Y0071653D01*
X0173658Y0071653D02*
X0173658Y0075409D01*
X0177020Y0075409D01*
X0177020Y0071653D01*
X0177020Y0072026D02*
X0173658Y0072026D01*
X0173658Y0072399D02*
X0177020Y0072399D01*
X0177020Y0072772D02*
X0173658Y0072772D01*
X0173658Y0073145D02*
X0177020Y0073145D01*
X0177020Y0073518D02*
X0173658Y0073518D01*
X0173658Y0073891D02*
X0177020Y0073891D01*
X0177020Y0074264D02*
X0173658Y0074264D01*
X0173658Y0074637D02*
X0177020Y0074637D01*
X0177020Y0075010D02*
X0173658Y0075010D01*
X0173658Y0075383D02*
X0177020Y0075383D01*
X0180350Y0071653D02*
X0183712Y0071653D01*
X0180350Y0071653D02*
X0180350Y0075409D01*
X0183712Y0075409D01*
X0183712Y0071653D01*
X0183712Y0072026D02*
X0180350Y0072026D01*
X0180350Y0072399D02*
X0183712Y0072399D01*
X0183712Y0072772D02*
X0180350Y0072772D01*
X0180350Y0073145D02*
X0183712Y0073145D01*
X0183712Y0073518D02*
X0180350Y0073518D01*
X0180350Y0073891D02*
X0183712Y0073891D01*
X0183712Y0074264D02*
X0180350Y0074264D01*
X0180350Y0074637D02*
X0183712Y0074637D01*
X0183712Y0075010D02*
X0180350Y0075010D01*
X0180350Y0075383D02*
X0183712Y0075383D01*
X0131807Y0141004D02*
X0131807Y0144366D01*
X0135563Y0144366D01*
X0135563Y0141004D01*
X0131807Y0141004D01*
X0131807Y0141377D02*
X0135563Y0141377D01*
X0135563Y0141750D02*
X0131807Y0141750D01*
X0131807Y0142123D02*
X0135563Y0142123D01*
X0135563Y0142496D02*
X0131807Y0142496D01*
X0131807Y0142869D02*
X0135563Y0142869D01*
X0135563Y0143242D02*
X0131807Y0143242D01*
X0131807Y0143615D02*
X0135563Y0143615D01*
X0135563Y0143988D02*
X0131807Y0143988D01*
X0131807Y0144361D02*
X0135563Y0144361D01*
X0131807Y0147697D02*
X0131807Y0151059D01*
X0135563Y0151059D01*
X0135563Y0147697D01*
X0131807Y0147697D01*
X0131807Y0148070D02*
X0135563Y0148070D01*
X0135563Y0148443D02*
X0131807Y0148443D01*
X0131807Y0148816D02*
X0135563Y0148816D01*
X0135563Y0149189D02*
X0131807Y0149189D01*
X0131807Y0149562D02*
X0135563Y0149562D01*
X0135563Y0149935D02*
X0131807Y0149935D01*
X0131807Y0150308D02*
X0135563Y0150308D01*
X0135563Y0150681D02*
X0131807Y0150681D01*
X0131807Y0151054D02*
X0135563Y0151054D01*
X0111409Y0162712D02*
X0107653Y0162712D01*
X0111409Y0162712D02*
X0111409Y0159350D01*
X0107653Y0159350D01*
X0107653Y0162712D01*
X0107653Y0159723D02*
X0111409Y0159723D01*
X0111409Y0160096D02*
X0107653Y0160096D01*
X0107653Y0160469D02*
X0111409Y0160469D01*
X0111409Y0160842D02*
X0107653Y0160842D01*
X0107653Y0161215D02*
X0111409Y0161215D01*
X0111409Y0161588D02*
X0107653Y0161588D01*
X0107653Y0161961D02*
X0111409Y0161961D01*
X0111409Y0162334D02*
X0107653Y0162334D01*
X0107653Y0162707D02*
X0111409Y0162707D01*
X0104717Y0162712D02*
X0100961Y0162712D01*
X0104717Y0162712D02*
X0104717Y0159350D01*
X0100961Y0159350D01*
X0100961Y0162712D01*
X0100961Y0159723D02*
X0104717Y0159723D01*
X0104717Y0160096D02*
X0100961Y0160096D01*
X0100961Y0160469D02*
X0104717Y0160469D01*
X0104717Y0160842D02*
X0100961Y0160842D01*
X0100961Y0161215D02*
X0104717Y0161215D01*
X0104717Y0161588D02*
X0100961Y0161588D01*
X0100961Y0161961D02*
X0104717Y0161961D01*
X0104717Y0162334D02*
X0100961Y0162334D01*
X0100961Y0162707D02*
X0104717Y0162707D01*
X0096409Y0162712D02*
X0092653Y0162712D01*
X0096409Y0162712D02*
X0096409Y0159350D01*
X0092653Y0159350D01*
X0092653Y0162712D01*
X0092653Y0159723D02*
X0096409Y0159723D01*
X0096409Y0160096D02*
X0092653Y0160096D01*
X0092653Y0160469D02*
X0096409Y0160469D01*
X0096409Y0160842D02*
X0092653Y0160842D01*
X0092653Y0161215D02*
X0096409Y0161215D01*
X0096409Y0161588D02*
X0092653Y0161588D01*
X0092653Y0161961D02*
X0096409Y0161961D01*
X0096409Y0162334D02*
X0092653Y0162334D01*
X0092653Y0162707D02*
X0096409Y0162707D01*
X0089717Y0162712D02*
X0085961Y0162712D01*
X0089717Y0162712D02*
X0089717Y0159350D01*
X0085961Y0159350D01*
X0085961Y0162712D01*
X0085961Y0159723D02*
X0089717Y0159723D01*
X0089717Y0160096D02*
X0085961Y0160096D01*
X0085961Y0160469D02*
X0089717Y0160469D01*
X0089717Y0160842D02*
X0085961Y0160842D01*
X0085961Y0161215D02*
X0089717Y0161215D01*
X0089717Y0161588D02*
X0085961Y0161588D01*
X0085961Y0161961D02*
X0089717Y0161961D01*
X0089717Y0162334D02*
X0085961Y0162334D01*
X0085961Y0162707D02*
X0089717Y0162707D01*
X0099366Y0188307D02*
X0099366Y0192063D01*
X0099366Y0188307D02*
X0096004Y0188307D01*
X0096004Y0192063D01*
X0099366Y0192063D01*
X0099366Y0188680D02*
X0096004Y0188680D01*
X0096004Y0189053D02*
X0099366Y0189053D01*
X0099366Y0189426D02*
X0096004Y0189426D01*
X0096004Y0189799D02*
X0099366Y0189799D01*
X0099366Y0190172D02*
X0096004Y0190172D01*
X0096004Y0190545D02*
X0099366Y0190545D01*
X0099366Y0190918D02*
X0096004Y0190918D01*
X0096004Y0191291D02*
X0099366Y0191291D01*
X0099366Y0191664D02*
X0096004Y0191664D01*
X0096004Y0192037D02*
X0099366Y0192037D01*
X0099366Y0195000D02*
X0099366Y0198756D01*
X0099366Y0195000D02*
X0096004Y0195000D01*
X0096004Y0198756D01*
X0099366Y0198756D01*
X0099366Y0195373D02*
X0096004Y0195373D01*
X0096004Y0195746D02*
X0099366Y0195746D01*
X0099366Y0196119D02*
X0096004Y0196119D01*
X0096004Y0196492D02*
X0099366Y0196492D01*
X0099366Y0196865D02*
X0096004Y0196865D01*
X0096004Y0197238D02*
X0099366Y0197238D01*
X0099366Y0197611D02*
X0096004Y0197611D01*
X0096004Y0197984D02*
X0099366Y0197984D01*
X0099366Y0198357D02*
X0096004Y0198357D01*
X0096004Y0198730D02*
X0099366Y0198730D01*
X0061807Y0253504D02*
X0061807Y0256866D01*
X0065563Y0256866D01*
X0065563Y0253504D01*
X0061807Y0253504D01*
X0061807Y0253877D02*
X0065563Y0253877D01*
X0065563Y0254250D02*
X0061807Y0254250D01*
X0061807Y0254623D02*
X0065563Y0254623D01*
X0065563Y0254996D02*
X0061807Y0254996D01*
X0061807Y0255369D02*
X0065563Y0255369D01*
X0065563Y0255742D02*
X0061807Y0255742D01*
X0061807Y0256115D02*
X0065563Y0256115D01*
X0065563Y0256488D02*
X0061807Y0256488D01*
X0061807Y0256861D02*
X0065563Y0256861D01*
X0061807Y0260197D02*
X0061807Y0263559D01*
X0065563Y0263559D01*
X0065563Y0260197D01*
X0061807Y0260197D01*
X0061807Y0260570D02*
X0065563Y0260570D01*
X0065563Y0260943D02*
X0061807Y0260943D01*
X0061807Y0261316D02*
X0065563Y0261316D01*
X0065563Y0261689D02*
X0061807Y0261689D01*
X0061807Y0262062D02*
X0065563Y0262062D01*
X0065563Y0262435D02*
X0061807Y0262435D01*
X0061807Y0262808D02*
X0065563Y0262808D01*
X0065563Y0263181D02*
X0061807Y0263181D01*
X0061807Y0263554D02*
X0065563Y0263554D01*
X0065366Y0268307D02*
X0065366Y0272063D01*
X0065366Y0268307D02*
X0062004Y0268307D01*
X0062004Y0272063D01*
X0065366Y0272063D01*
X0065366Y0268680D02*
X0062004Y0268680D01*
X0062004Y0269053D02*
X0065366Y0269053D01*
X0065366Y0269426D02*
X0062004Y0269426D01*
X0062004Y0269799D02*
X0065366Y0269799D01*
X0065366Y0270172D02*
X0062004Y0270172D01*
X0062004Y0270545D02*
X0065366Y0270545D01*
X0065366Y0270918D02*
X0062004Y0270918D01*
X0062004Y0271291D02*
X0065366Y0271291D01*
X0065366Y0271664D02*
X0062004Y0271664D01*
X0062004Y0272037D02*
X0065366Y0272037D01*
X0065366Y0275000D02*
X0065366Y0278756D01*
X0065366Y0275000D02*
X0062004Y0275000D01*
X0062004Y0278756D01*
X0065366Y0278756D01*
X0065366Y0275373D02*
X0062004Y0275373D01*
X0062004Y0275746D02*
X0065366Y0275746D01*
X0065366Y0276119D02*
X0062004Y0276119D01*
X0062004Y0276492D02*
X0065366Y0276492D01*
X0065366Y0276865D02*
X0062004Y0276865D01*
X0062004Y0277238D02*
X0065366Y0277238D01*
X0065366Y0277611D02*
X0062004Y0277611D01*
X0062004Y0277984D02*
X0065366Y0277984D01*
X0065366Y0278357D02*
X0062004Y0278357D01*
X0062004Y0278730D02*
X0065366Y0278730D01*
X0157866Y0196256D02*
X0157866Y0192500D01*
X0154504Y0192500D01*
X0154504Y0196256D01*
X0157866Y0196256D01*
X0157866Y0192873D02*
X0154504Y0192873D01*
X0154504Y0193246D02*
X0157866Y0193246D01*
X0157866Y0193619D02*
X0154504Y0193619D01*
X0154504Y0193992D02*
X0157866Y0193992D01*
X0157866Y0194365D02*
X0154504Y0194365D01*
X0154504Y0194738D02*
X0157866Y0194738D01*
X0157866Y0195111D02*
X0154504Y0195111D01*
X0154504Y0195484D02*
X0157866Y0195484D01*
X0157866Y0195857D02*
X0154504Y0195857D01*
X0154504Y0196230D02*
X0157866Y0196230D01*
X0157866Y0189563D02*
X0157866Y0185807D01*
X0154504Y0185807D01*
X0154504Y0189563D01*
X0157866Y0189563D01*
X0157866Y0186180D02*
X0154504Y0186180D01*
X0154504Y0186553D02*
X0157866Y0186553D01*
X0157866Y0186926D02*
X0154504Y0186926D01*
X0154504Y0187299D02*
X0157866Y0187299D01*
X0157866Y0187672D02*
X0154504Y0187672D01*
X0154504Y0188045D02*
X0157866Y0188045D01*
X0157866Y0188418D02*
X0154504Y0188418D01*
X0154504Y0188791D02*
X0157866Y0188791D01*
X0157866Y0189164D02*
X0154504Y0189164D01*
X0154504Y0189537D02*
X0157866Y0189537D01*
X0170366Y0189563D02*
X0170366Y0185807D01*
X0167004Y0185807D01*
X0167004Y0189563D01*
X0170366Y0189563D01*
X0170366Y0186180D02*
X0167004Y0186180D01*
X0167004Y0186553D02*
X0170366Y0186553D01*
X0170366Y0186926D02*
X0167004Y0186926D01*
X0167004Y0187299D02*
X0170366Y0187299D01*
X0170366Y0187672D02*
X0167004Y0187672D01*
X0167004Y0188045D02*
X0170366Y0188045D01*
X0170366Y0188418D02*
X0167004Y0188418D01*
X0167004Y0188791D02*
X0170366Y0188791D01*
X0170366Y0189164D02*
X0167004Y0189164D01*
X0167004Y0189537D02*
X0170366Y0189537D01*
X0170366Y0192500D02*
X0170366Y0196256D01*
X0170366Y0192500D02*
X0167004Y0192500D01*
X0167004Y0196256D01*
X0170366Y0196256D01*
X0170366Y0192873D02*
X0167004Y0192873D01*
X0167004Y0193246D02*
X0170366Y0193246D01*
X0170366Y0193619D02*
X0167004Y0193619D01*
X0167004Y0193992D02*
X0170366Y0193992D01*
X0170366Y0194365D02*
X0167004Y0194365D01*
X0167004Y0194738D02*
X0170366Y0194738D01*
X0170366Y0195111D02*
X0167004Y0195111D01*
X0167004Y0195484D02*
X0170366Y0195484D01*
X0170366Y0195857D02*
X0167004Y0195857D01*
X0167004Y0196230D02*
X0170366Y0196230D01*
X0157004Y0243307D02*
X0157004Y0247063D01*
X0160366Y0247063D01*
X0160366Y0243307D01*
X0157004Y0243307D01*
X0157004Y0243680D02*
X0160366Y0243680D01*
X0160366Y0244053D02*
X0157004Y0244053D01*
X0157004Y0244426D02*
X0160366Y0244426D01*
X0160366Y0244799D02*
X0157004Y0244799D01*
X0157004Y0245172D02*
X0160366Y0245172D01*
X0160366Y0245545D02*
X0157004Y0245545D01*
X0157004Y0245918D02*
X0160366Y0245918D01*
X0160366Y0246291D02*
X0157004Y0246291D01*
X0157004Y0246664D02*
X0160366Y0246664D01*
X0160366Y0247037D02*
X0157004Y0247037D01*
X0157004Y0250000D02*
X0157004Y0253756D01*
X0160366Y0253756D01*
X0160366Y0250000D01*
X0157004Y0250000D01*
X0157004Y0250373D02*
X0160366Y0250373D01*
X0160366Y0250746D02*
X0157004Y0250746D01*
X0157004Y0251119D02*
X0160366Y0251119D01*
X0160366Y0251492D02*
X0157004Y0251492D01*
X0157004Y0251865D02*
X0160366Y0251865D01*
X0160366Y0252238D02*
X0157004Y0252238D01*
X0157004Y0252611D02*
X0160366Y0252611D01*
X0160366Y0252984D02*
X0157004Y0252984D01*
X0157004Y0253357D02*
X0160366Y0253357D01*
X0160366Y0253730D02*
X0157004Y0253730D01*
X0182866Y0265807D02*
X0182866Y0269563D01*
X0182866Y0265807D02*
X0179504Y0265807D01*
X0179504Y0269563D01*
X0182866Y0269563D01*
X0182866Y0266180D02*
X0179504Y0266180D01*
X0179504Y0266553D02*
X0182866Y0266553D01*
X0182866Y0266926D02*
X0179504Y0266926D01*
X0179504Y0267299D02*
X0182866Y0267299D01*
X0182866Y0267672D02*
X0179504Y0267672D01*
X0179504Y0268045D02*
X0182866Y0268045D01*
X0182866Y0268418D02*
X0179504Y0268418D01*
X0179504Y0268791D02*
X0182866Y0268791D01*
X0182866Y0269164D02*
X0179504Y0269164D01*
X0179504Y0269537D02*
X0182866Y0269537D01*
X0182866Y0272500D02*
X0182866Y0276256D01*
X0182866Y0272500D02*
X0179504Y0272500D01*
X0179504Y0276256D01*
X0182866Y0276256D01*
X0182866Y0272873D02*
X0179504Y0272873D01*
X0179504Y0273246D02*
X0182866Y0273246D01*
X0182866Y0273619D02*
X0179504Y0273619D01*
X0179504Y0273992D02*
X0182866Y0273992D01*
X0182866Y0274365D02*
X0179504Y0274365D01*
X0179504Y0274738D02*
X0182866Y0274738D01*
X0182866Y0275111D02*
X0179504Y0275111D01*
X0179504Y0275484D02*
X0182866Y0275484D01*
X0182866Y0275857D02*
X0179504Y0275857D01*
X0179504Y0276230D02*
X0182866Y0276230D01*
X0192004Y0253756D02*
X0192004Y0250000D01*
X0192004Y0253756D02*
X0195366Y0253756D01*
X0195366Y0250000D01*
X0192004Y0250000D01*
X0192004Y0250373D02*
X0195366Y0250373D01*
X0195366Y0250746D02*
X0192004Y0250746D01*
X0192004Y0251119D02*
X0195366Y0251119D01*
X0195366Y0251492D02*
X0192004Y0251492D01*
X0192004Y0251865D02*
X0195366Y0251865D01*
X0195366Y0252238D02*
X0192004Y0252238D01*
X0192004Y0252611D02*
X0195366Y0252611D01*
X0195366Y0252984D02*
X0192004Y0252984D01*
X0192004Y0253357D02*
X0195366Y0253357D01*
X0195366Y0253730D02*
X0192004Y0253730D01*
X0192004Y0247063D02*
X0192004Y0243307D01*
X0192004Y0247063D02*
X0195366Y0247063D01*
X0195366Y0243307D01*
X0192004Y0243307D01*
X0192004Y0243680D02*
X0195366Y0243680D01*
X0195366Y0244053D02*
X0192004Y0244053D01*
X0192004Y0244426D02*
X0195366Y0244426D01*
X0195366Y0244799D02*
X0192004Y0244799D01*
X0192004Y0245172D02*
X0195366Y0245172D01*
X0195366Y0245545D02*
X0192004Y0245545D01*
X0192004Y0245918D02*
X0195366Y0245918D01*
X0195366Y0246291D02*
X0192004Y0246291D01*
X0192004Y0246664D02*
X0195366Y0246664D01*
X0195366Y0247037D02*
X0192004Y0247037D01*
X0210366Y0265807D02*
X0210366Y0269563D01*
X0210366Y0265807D02*
X0207004Y0265807D01*
X0207004Y0269563D01*
X0210366Y0269563D01*
X0210366Y0266180D02*
X0207004Y0266180D01*
X0207004Y0266553D02*
X0210366Y0266553D01*
X0210366Y0266926D02*
X0207004Y0266926D01*
X0207004Y0267299D02*
X0210366Y0267299D01*
X0210366Y0267672D02*
X0207004Y0267672D01*
X0207004Y0268045D02*
X0210366Y0268045D01*
X0210366Y0268418D02*
X0207004Y0268418D01*
X0207004Y0268791D02*
X0210366Y0268791D01*
X0210366Y0269164D02*
X0207004Y0269164D01*
X0207004Y0269537D02*
X0210366Y0269537D01*
X0210366Y0272500D02*
X0210366Y0276256D01*
X0210366Y0272500D02*
X0207004Y0272500D01*
X0207004Y0276256D01*
X0210366Y0276256D01*
X0210366Y0272873D02*
X0207004Y0272873D01*
X0207004Y0273246D02*
X0210366Y0273246D01*
X0210366Y0273619D02*
X0207004Y0273619D01*
X0207004Y0273992D02*
X0210366Y0273992D01*
X0210366Y0274365D02*
X0207004Y0274365D01*
X0207004Y0274738D02*
X0210366Y0274738D01*
X0210366Y0275111D02*
X0207004Y0275111D01*
X0207004Y0275484D02*
X0210366Y0275484D01*
X0210366Y0275857D02*
X0207004Y0275857D01*
X0207004Y0276230D02*
X0210366Y0276230D01*
D11*
X0180000Y0256396D02*
X0180000Y0253066D01*
X0175370Y0253066D01*
X0175370Y0256396D01*
X0180000Y0256396D01*
X0180000Y0253435D02*
X0175370Y0253435D01*
X0175370Y0253804D02*
X0180000Y0253804D01*
X0180000Y0254173D02*
X0175370Y0254173D01*
X0175370Y0254542D02*
X0180000Y0254542D01*
X0180000Y0254911D02*
X0175370Y0254911D01*
X0175370Y0255280D02*
X0180000Y0255280D01*
X0180000Y0255649D02*
X0175370Y0255649D01*
X0175370Y0256018D02*
X0180000Y0256018D01*
X0180000Y0256387D02*
X0175370Y0256387D01*
X0172000Y0252696D02*
X0172000Y0249366D01*
X0167370Y0249366D01*
X0167370Y0252696D01*
X0172000Y0252696D01*
X0172000Y0249735D02*
X0167370Y0249735D01*
X0167370Y0250104D02*
X0172000Y0250104D01*
X0172000Y0250473D02*
X0167370Y0250473D01*
X0167370Y0250842D02*
X0172000Y0250842D01*
X0172000Y0251211D02*
X0167370Y0251211D01*
X0167370Y0251580D02*
X0172000Y0251580D01*
X0172000Y0251949D02*
X0167370Y0251949D01*
X0167370Y0252318D02*
X0172000Y0252318D01*
X0172000Y0252687D02*
X0167370Y0252687D01*
X0180000Y0248996D02*
X0180000Y0245666D01*
X0175370Y0245666D01*
X0175370Y0248996D01*
X0180000Y0248996D01*
X0180000Y0246035D02*
X0175370Y0246035D01*
X0175370Y0246404D02*
X0180000Y0246404D01*
X0180000Y0246773D02*
X0175370Y0246773D01*
X0175370Y0247142D02*
X0180000Y0247142D01*
X0180000Y0247511D02*
X0175370Y0247511D01*
X0175370Y0247880D02*
X0180000Y0247880D01*
X0180000Y0248249D02*
X0175370Y0248249D01*
X0175370Y0248618D02*
X0180000Y0248618D01*
X0180000Y0248987D02*
X0175370Y0248987D01*
D12*
X0156777Y0262726D02*
X0156777Y0277132D01*
X0158191Y0277132D01*
X0158191Y0262726D01*
X0156777Y0262726D01*
X0156777Y0263079D02*
X0158191Y0263079D01*
X0158191Y0263432D02*
X0156777Y0263432D01*
X0156777Y0263785D02*
X0158191Y0263785D01*
X0158191Y0264138D02*
X0156777Y0264138D01*
X0156777Y0264491D02*
X0158191Y0264491D01*
X0158191Y0264844D02*
X0156777Y0264844D01*
X0156777Y0265197D02*
X0158191Y0265197D01*
X0158191Y0265550D02*
X0156777Y0265550D01*
X0156777Y0265903D02*
X0158191Y0265903D01*
X0158191Y0266256D02*
X0156777Y0266256D01*
X0156777Y0266609D02*
X0158191Y0266609D01*
X0158191Y0266962D02*
X0156777Y0266962D01*
X0156777Y0267315D02*
X0158191Y0267315D01*
X0158191Y0267668D02*
X0156777Y0267668D01*
X0156777Y0268021D02*
X0158191Y0268021D01*
X0158191Y0268374D02*
X0156777Y0268374D01*
X0156777Y0268727D02*
X0158191Y0268727D01*
X0158191Y0269080D02*
X0156777Y0269080D01*
X0156777Y0269433D02*
X0158191Y0269433D01*
X0158191Y0269786D02*
X0156777Y0269786D01*
X0156777Y0270139D02*
X0158191Y0270139D01*
X0158191Y0270492D02*
X0156777Y0270492D01*
X0156777Y0270845D02*
X0158191Y0270845D01*
X0158191Y0271198D02*
X0156777Y0271198D01*
X0156777Y0271551D02*
X0158191Y0271551D01*
X0158191Y0271904D02*
X0156777Y0271904D01*
X0156777Y0272257D02*
X0158191Y0272257D01*
X0158191Y0272610D02*
X0156777Y0272610D01*
X0156777Y0272963D02*
X0158191Y0272963D01*
X0158191Y0273316D02*
X0156777Y0273316D01*
X0156777Y0273669D02*
X0158191Y0273669D01*
X0158191Y0274022D02*
X0156777Y0274022D01*
X0156777Y0274375D02*
X0158191Y0274375D01*
X0158191Y0274728D02*
X0156777Y0274728D01*
X0156777Y0275081D02*
X0158191Y0275081D01*
X0158191Y0275434D02*
X0156777Y0275434D01*
X0156777Y0275787D02*
X0158191Y0275787D01*
X0158191Y0276140D02*
X0156777Y0276140D01*
X0156777Y0276493D02*
X0158191Y0276493D01*
X0158191Y0276846D02*
X0156777Y0276846D01*
X0153628Y0277132D02*
X0153628Y0262726D01*
X0153628Y0277132D02*
X0155042Y0277132D01*
X0155042Y0262726D01*
X0153628Y0262726D01*
X0153628Y0263079D02*
X0155042Y0263079D01*
X0155042Y0263432D02*
X0153628Y0263432D01*
X0153628Y0263785D02*
X0155042Y0263785D01*
X0155042Y0264138D02*
X0153628Y0264138D01*
X0153628Y0264491D02*
X0155042Y0264491D01*
X0155042Y0264844D02*
X0153628Y0264844D01*
X0153628Y0265197D02*
X0155042Y0265197D01*
X0155042Y0265550D02*
X0153628Y0265550D01*
X0153628Y0265903D02*
X0155042Y0265903D01*
X0155042Y0266256D02*
X0153628Y0266256D01*
X0153628Y0266609D02*
X0155042Y0266609D01*
X0155042Y0266962D02*
X0153628Y0266962D01*
X0153628Y0267315D02*
X0155042Y0267315D01*
X0155042Y0267668D02*
X0153628Y0267668D01*
X0153628Y0268021D02*
X0155042Y0268021D01*
X0155042Y0268374D02*
X0153628Y0268374D01*
X0153628Y0268727D02*
X0155042Y0268727D01*
X0155042Y0269080D02*
X0153628Y0269080D01*
X0153628Y0269433D02*
X0155042Y0269433D01*
X0155042Y0269786D02*
X0153628Y0269786D01*
X0153628Y0270139D02*
X0155042Y0270139D01*
X0155042Y0270492D02*
X0153628Y0270492D01*
X0153628Y0270845D02*
X0155042Y0270845D01*
X0155042Y0271198D02*
X0153628Y0271198D01*
X0153628Y0271551D02*
X0155042Y0271551D01*
X0155042Y0271904D02*
X0153628Y0271904D01*
X0153628Y0272257D02*
X0155042Y0272257D01*
X0155042Y0272610D02*
X0153628Y0272610D01*
X0153628Y0272963D02*
X0155042Y0272963D01*
X0155042Y0273316D02*
X0153628Y0273316D01*
X0153628Y0273669D02*
X0155042Y0273669D01*
X0155042Y0274022D02*
X0153628Y0274022D01*
X0153628Y0274375D02*
X0155042Y0274375D01*
X0155042Y0274728D02*
X0153628Y0274728D01*
X0153628Y0275081D02*
X0155042Y0275081D01*
X0155042Y0275434D02*
X0153628Y0275434D01*
X0153628Y0275787D02*
X0155042Y0275787D01*
X0155042Y0276140D02*
X0153628Y0276140D01*
X0153628Y0276493D02*
X0155042Y0276493D01*
X0155042Y0276846D02*
X0153628Y0276846D01*
X0150478Y0277132D02*
X0150478Y0262726D01*
X0150478Y0277132D02*
X0151892Y0277132D01*
X0151892Y0262726D01*
X0150478Y0262726D01*
X0150478Y0263079D02*
X0151892Y0263079D01*
X0151892Y0263432D02*
X0150478Y0263432D01*
X0150478Y0263785D02*
X0151892Y0263785D01*
X0151892Y0264138D02*
X0150478Y0264138D01*
X0150478Y0264491D02*
X0151892Y0264491D01*
X0151892Y0264844D02*
X0150478Y0264844D01*
X0150478Y0265197D02*
X0151892Y0265197D01*
X0151892Y0265550D02*
X0150478Y0265550D01*
X0150478Y0265903D02*
X0151892Y0265903D01*
X0151892Y0266256D02*
X0150478Y0266256D01*
X0150478Y0266609D02*
X0151892Y0266609D01*
X0151892Y0266962D02*
X0150478Y0266962D01*
X0150478Y0267315D02*
X0151892Y0267315D01*
X0151892Y0267668D02*
X0150478Y0267668D01*
X0150478Y0268021D02*
X0151892Y0268021D01*
X0151892Y0268374D02*
X0150478Y0268374D01*
X0150478Y0268727D02*
X0151892Y0268727D01*
X0151892Y0269080D02*
X0150478Y0269080D01*
X0150478Y0269433D02*
X0151892Y0269433D01*
X0151892Y0269786D02*
X0150478Y0269786D01*
X0150478Y0270139D02*
X0151892Y0270139D01*
X0151892Y0270492D02*
X0150478Y0270492D01*
X0150478Y0270845D02*
X0151892Y0270845D01*
X0151892Y0271198D02*
X0150478Y0271198D01*
X0150478Y0271551D02*
X0151892Y0271551D01*
X0151892Y0271904D02*
X0150478Y0271904D01*
X0150478Y0272257D02*
X0151892Y0272257D01*
X0151892Y0272610D02*
X0150478Y0272610D01*
X0150478Y0272963D02*
X0151892Y0272963D01*
X0151892Y0273316D02*
X0150478Y0273316D01*
X0150478Y0273669D02*
X0151892Y0273669D01*
X0151892Y0274022D02*
X0150478Y0274022D01*
X0150478Y0274375D02*
X0151892Y0274375D01*
X0151892Y0274728D02*
X0150478Y0274728D01*
X0150478Y0275081D02*
X0151892Y0275081D01*
X0151892Y0275434D02*
X0150478Y0275434D01*
X0150478Y0275787D02*
X0151892Y0275787D01*
X0151892Y0276140D02*
X0150478Y0276140D01*
X0150478Y0276493D02*
X0151892Y0276493D01*
X0151892Y0276846D02*
X0150478Y0276846D01*
X0147328Y0277132D02*
X0147328Y0262726D01*
X0147328Y0277132D02*
X0148742Y0277132D01*
X0148742Y0262726D01*
X0147328Y0262726D01*
X0147328Y0263079D02*
X0148742Y0263079D01*
X0148742Y0263432D02*
X0147328Y0263432D01*
X0147328Y0263785D02*
X0148742Y0263785D01*
X0148742Y0264138D02*
X0147328Y0264138D01*
X0147328Y0264491D02*
X0148742Y0264491D01*
X0148742Y0264844D02*
X0147328Y0264844D01*
X0147328Y0265197D02*
X0148742Y0265197D01*
X0148742Y0265550D02*
X0147328Y0265550D01*
X0147328Y0265903D02*
X0148742Y0265903D01*
X0148742Y0266256D02*
X0147328Y0266256D01*
X0147328Y0266609D02*
X0148742Y0266609D01*
X0148742Y0266962D02*
X0147328Y0266962D01*
X0147328Y0267315D02*
X0148742Y0267315D01*
X0148742Y0267668D02*
X0147328Y0267668D01*
X0147328Y0268021D02*
X0148742Y0268021D01*
X0148742Y0268374D02*
X0147328Y0268374D01*
X0147328Y0268727D02*
X0148742Y0268727D01*
X0148742Y0269080D02*
X0147328Y0269080D01*
X0147328Y0269433D02*
X0148742Y0269433D01*
X0148742Y0269786D02*
X0147328Y0269786D01*
X0147328Y0270139D02*
X0148742Y0270139D01*
X0148742Y0270492D02*
X0147328Y0270492D01*
X0147328Y0270845D02*
X0148742Y0270845D01*
X0148742Y0271198D02*
X0147328Y0271198D01*
X0147328Y0271551D02*
X0148742Y0271551D01*
X0148742Y0271904D02*
X0147328Y0271904D01*
X0147328Y0272257D02*
X0148742Y0272257D01*
X0148742Y0272610D02*
X0147328Y0272610D01*
X0147328Y0272963D02*
X0148742Y0272963D01*
X0148742Y0273316D02*
X0147328Y0273316D01*
X0147328Y0273669D02*
X0148742Y0273669D01*
X0148742Y0274022D02*
X0147328Y0274022D01*
X0147328Y0274375D02*
X0148742Y0274375D01*
X0148742Y0274728D02*
X0147328Y0274728D01*
X0147328Y0275081D02*
X0148742Y0275081D01*
X0148742Y0275434D02*
X0147328Y0275434D01*
X0147328Y0275787D02*
X0148742Y0275787D01*
X0148742Y0276140D02*
X0147328Y0276140D01*
X0147328Y0276493D02*
X0148742Y0276493D01*
X0148742Y0276846D02*
X0147328Y0276846D01*
X0144179Y0277132D02*
X0144179Y0262726D01*
X0144179Y0277132D02*
X0145593Y0277132D01*
X0145593Y0262726D01*
X0144179Y0262726D01*
X0144179Y0263079D02*
X0145593Y0263079D01*
X0145593Y0263432D02*
X0144179Y0263432D01*
X0144179Y0263785D02*
X0145593Y0263785D01*
X0145593Y0264138D02*
X0144179Y0264138D01*
X0144179Y0264491D02*
X0145593Y0264491D01*
X0145593Y0264844D02*
X0144179Y0264844D01*
X0144179Y0265197D02*
X0145593Y0265197D01*
X0145593Y0265550D02*
X0144179Y0265550D01*
X0144179Y0265903D02*
X0145593Y0265903D01*
X0145593Y0266256D02*
X0144179Y0266256D01*
X0144179Y0266609D02*
X0145593Y0266609D01*
X0145593Y0266962D02*
X0144179Y0266962D01*
X0144179Y0267315D02*
X0145593Y0267315D01*
X0145593Y0267668D02*
X0144179Y0267668D01*
X0144179Y0268021D02*
X0145593Y0268021D01*
X0145593Y0268374D02*
X0144179Y0268374D01*
X0144179Y0268727D02*
X0145593Y0268727D01*
X0145593Y0269080D02*
X0144179Y0269080D01*
X0144179Y0269433D02*
X0145593Y0269433D01*
X0145593Y0269786D02*
X0144179Y0269786D01*
X0144179Y0270139D02*
X0145593Y0270139D01*
X0145593Y0270492D02*
X0144179Y0270492D01*
X0144179Y0270845D02*
X0145593Y0270845D01*
X0145593Y0271198D02*
X0144179Y0271198D01*
X0144179Y0271551D02*
X0145593Y0271551D01*
X0145593Y0271904D02*
X0144179Y0271904D01*
X0144179Y0272257D02*
X0145593Y0272257D01*
X0145593Y0272610D02*
X0144179Y0272610D01*
X0144179Y0272963D02*
X0145593Y0272963D01*
X0145593Y0273316D02*
X0144179Y0273316D01*
X0144179Y0273669D02*
X0145593Y0273669D01*
X0145593Y0274022D02*
X0144179Y0274022D01*
X0144179Y0274375D02*
X0145593Y0274375D01*
X0145593Y0274728D02*
X0144179Y0274728D01*
X0144179Y0275081D02*
X0145593Y0275081D01*
X0145593Y0275434D02*
X0144179Y0275434D01*
X0144179Y0275787D02*
X0145593Y0275787D01*
X0145593Y0276140D02*
X0144179Y0276140D01*
X0144179Y0276493D02*
X0145593Y0276493D01*
X0145593Y0276846D02*
X0144179Y0276846D01*
X0074793Y0096175D02*
X0074793Y0094761D01*
X0074793Y0096175D02*
X0077389Y0096175D01*
X0077389Y0094761D01*
X0074793Y0094761D01*
X0074793Y0095114D02*
X0077389Y0095114D01*
X0077389Y0095467D02*
X0074793Y0095467D01*
X0074793Y0095820D02*
X0077389Y0095820D01*
X0077389Y0096173D02*
X0074793Y0096173D01*
X0074793Y0092238D02*
X0074793Y0090824D01*
X0074793Y0092238D02*
X0077389Y0092238D01*
X0077389Y0090824D01*
X0074793Y0090824D01*
X0074793Y0091177D02*
X0077389Y0091177D01*
X0077389Y0091530D02*
X0074793Y0091530D01*
X0074793Y0091883D02*
X0077389Y0091883D01*
X0077389Y0092236D02*
X0074793Y0092236D01*
X0074793Y0088301D02*
X0074793Y0086887D01*
X0074793Y0088301D02*
X0077389Y0088301D01*
X0077389Y0086887D01*
X0074793Y0086887D01*
X0074793Y0087240D02*
X0077389Y0087240D01*
X0077389Y0087593D02*
X0074793Y0087593D01*
X0074793Y0087946D02*
X0077389Y0087946D01*
X0077389Y0088299D02*
X0074793Y0088299D01*
X0062982Y0088301D02*
X0062982Y0086887D01*
X0062982Y0088301D02*
X0065578Y0088301D01*
X0065578Y0086887D01*
X0062982Y0086887D01*
X0062982Y0087240D02*
X0065578Y0087240D01*
X0065578Y0087593D02*
X0062982Y0087593D01*
X0062982Y0087946D02*
X0065578Y0087946D01*
X0065578Y0088299D02*
X0062982Y0088299D01*
X0062982Y0090824D02*
X0062982Y0092238D01*
X0065578Y0092238D01*
X0065578Y0090824D01*
X0062982Y0090824D01*
X0062982Y0091177D02*
X0065578Y0091177D01*
X0065578Y0091530D02*
X0062982Y0091530D01*
X0062982Y0091883D02*
X0065578Y0091883D01*
X0065578Y0092236D02*
X0062982Y0092236D01*
X0062982Y0094761D02*
X0062982Y0096175D01*
X0065578Y0096175D01*
X0065578Y0094761D01*
X0062982Y0094761D01*
X0062982Y0095114D02*
X0065578Y0095114D01*
X0065578Y0095467D02*
X0062982Y0095467D01*
X0062982Y0095820D02*
X0065578Y0095820D01*
X0065578Y0096173D02*
X0062982Y0096173D01*
D13*
X0130211Y0266082D02*
X0130211Y0274958D01*
X0137119Y0274958D01*
X0137119Y0266082D01*
X0130211Y0266082D01*
X0130211Y0266848D02*
X0137119Y0266848D01*
X0137119Y0267614D02*
X0130211Y0267614D01*
X0130211Y0268380D02*
X0137119Y0268380D01*
X0137119Y0269146D02*
X0130211Y0269146D01*
X0130211Y0269912D02*
X0137119Y0269912D01*
X0137119Y0270678D02*
X0130211Y0270678D01*
X0130211Y0271444D02*
X0137119Y0271444D01*
X0137119Y0272210D02*
X0130211Y0272210D01*
X0130211Y0272976D02*
X0137119Y0272976D01*
X0137119Y0273742D02*
X0130211Y0273742D01*
X0130211Y0274508D02*
X0137119Y0274508D01*
X0130211Y0287735D02*
X0130211Y0296611D01*
X0137119Y0296611D01*
X0137119Y0287735D01*
X0130211Y0287735D01*
X0130211Y0288501D02*
X0137119Y0288501D01*
X0137119Y0289267D02*
X0130211Y0289267D01*
X0130211Y0290033D02*
X0137119Y0290033D01*
X0137119Y0290799D02*
X0130211Y0290799D01*
X0130211Y0291565D02*
X0137119Y0291565D01*
X0137119Y0292331D02*
X0130211Y0292331D01*
X0130211Y0293097D02*
X0137119Y0293097D01*
X0137119Y0293863D02*
X0130211Y0293863D01*
X0130211Y0294629D02*
X0137119Y0294629D01*
X0137119Y0295395D02*
X0130211Y0295395D01*
X0130211Y0296161D02*
X0137119Y0296161D01*
X0165251Y0296611D02*
X0165251Y0287735D01*
X0165251Y0296611D02*
X0172159Y0296611D01*
X0172159Y0287735D01*
X0165251Y0287735D01*
X0165251Y0288501D02*
X0172159Y0288501D01*
X0172159Y0289267D02*
X0165251Y0289267D01*
X0165251Y0290033D02*
X0172159Y0290033D01*
X0172159Y0290799D02*
X0165251Y0290799D01*
X0165251Y0291565D02*
X0172159Y0291565D01*
X0172159Y0292331D02*
X0165251Y0292331D01*
X0165251Y0293097D02*
X0172159Y0293097D01*
X0172159Y0293863D02*
X0165251Y0293863D01*
X0165251Y0294629D02*
X0172159Y0294629D01*
X0172159Y0295395D02*
X0165251Y0295395D01*
X0165251Y0296161D02*
X0172159Y0296161D01*
X0165251Y0274958D02*
X0165251Y0266082D01*
X0165251Y0274958D02*
X0172159Y0274958D01*
X0172159Y0266082D01*
X0165251Y0266082D01*
X0165251Y0266848D02*
X0172159Y0266848D01*
X0172159Y0267614D02*
X0165251Y0267614D01*
X0165251Y0268380D02*
X0172159Y0268380D01*
X0172159Y0269146D02*
X0165251Y0269146D01*
X0165251Y0269912D02*
X0172159Y0269912D01*
X0172159Y0270678D02*
X0165251Y0270678D01*
X0165251Y0271444D02*
X0172159Y0271444D01*
X0172159Y0272210D02*
X0165251Y0272210D01*
X0165251Y0272976D02*
X0172159Y0272976D01*
X0172159Y0273742D02*
X0165251Y0273742D01*
X0165251Y0274508D02*
X0172159Y0274508D01*
D14*
X0190059Y0273105D02*
X0194111Y0273105D01*
X0190059Y0273105D02*
X0190059Y0273957D01*
X0194111Y0273957D01*
X0194111Y0273105D01*
X0194111Y0273452D02*
X0190059Y0273452D01*
X0190059Y0273799D02*
X0194111Y0273799D01*
X0194111Y0275705D02*
X0190059Y0275705D01*
X0190059Y0276557D01*
X0194111Y0276557D01*
X0194111Y0275705D01*
X0194111Y0276052D02*
X0190059Y0276052D01*
X0190059Y0276399D02*
X0194111Y0276399D01*
X0194111Y0270505D02*
X0190059Y0270505D01*
X0190059Y0271357D01*
X0194111Y0271357D01*
X0194111Y0270505D01*
X0194111Y0270852D02*
X0190059Y0270852D01*
X0190059Y0271199D02*
X0194111Y0271199D01*
X0198259Y0270505D02*
X0202311Y0270505D01*
X0198259Y0270505D02*
X0198259Y0271357D01*
X0202311Y0271357D01*
X0202311Y0270505D01*
X0202311Y0270852D02*
X0198259Y0270852D01*
X0198259Y0271199D02*
X0202311Y0271199D01*
X0202311Y0273105D02*
X0198259Y0273105D01*
X0198259Y0273957D01*
X0202311Y0273957D01*
X0202311Y0273105D01*
X0202311Y0273452D02*
X0198259Y0273452D01*
X0198259Y0273799D02*
X0202311Y0273799D01*
X0202311Y0275705D02*
X0198259Y0275705D01*
X0198259Y0276557D01*
X0202311Y0276557D01*
X0202311Y0275705D01*
X0202311Y0276052D02*
X0198259Y0276052D01*
X0198259Y0276399D02*
X0202311Y0276399D01*
D15*
X0200448Y0292142D02*
X0204520Y0292142D01*
X0204520Y0284920D01*
X0200448Y0284920D01*
X0200448Y0292142D01*
X0200448Y0285371D02*
X0204520Y0285371D01*
X0204520Y0285822D02*
X0200448Y0285822D01*
X0200448Y0286273D02*
X0204520Y0286273D01*
X0204520Y0286724D02*
X0200448Y0286724D01*
X0200448Y0287175D02*
X0204520Y0287175D01*
X0204520Y0287626D02*
X0200448Y0287626D01*
X0200448Y0288077D02*
X0204520Y0288077D01*
X0204520Y0288528D02*
X0200448Y0288528D01*
X0200448Y0288979D02*
X0204520Y0288979D01*
X0204520Y0289430D02*
X0200448Y0289430D01*
X0200448Y0289881D02*
X0204520Y0289881D01*
X0204520Y0290332D02*
X0200448Y0290332D01*
X0200448Y0290783D02*
X0204520Y0290783D01*
X0204520Y0291234D02*
X0200448Y0291234D01*
X0200448Y0291685D02*
X0204520Y0291685D01*
X0204520Y0292136D02*
X0200448Y0292136D01*
X0191922Y0292142D02*
X0187850Y0292142D01*
X0191922Y0292142D02*
X0191922Y0284920D01*
X0187850Y0284920D01*
X0187850Y0292142D01*
X0187850Y0285371D02*
X0191922Y0285371D01*
X0191922Y0285822D02*
X0187850Y0285822D01*
X0187850Y0286273D02*
X0191922Y0286273D01*
X0191922Y0286724D02*
X0187850Y0286724D01*
X0187850Y0287175D02*
X0191922Y0287175D01*
X0191922Y0287626D02*
X0187850Y0287626D01*
X0187850Y0288077D02*
X0191922Y0288077D01*
X0191922Y0288528D02*
X0187850Y0288528D01*
X0187850Y0288979D02*
X0191922Y0288979D01*
X0191922Y0289430D02*
X0187850Y0289430D01*
X0187850Y0289881D02*
X0191922Y0289881D01*
X0191922Y0290332D02*
X0187850Y0290332D01*
X0187850Y0290783D02*
X0191922Y0290783D01*
X0191922Y0291234D02*
X0187850Y0291234D01*
X0187850Y0291685D02*
X0191922Y0291685D01*
X0191922Y0292136D02*
X0187850Y0292136D01*
D16*
X0112715Y0146861D02*
X0092655Y0146861D01*
X0112715Y0146861D02*
X0112715Y0140201D01*
X0092655Y0140201D01*
X0092655Y0146861D01*
X0092655Y0140940D02*
X0112715Y0140940D01*
X0112715Y0141679D02*
X0092655Y0141679D01*
X0092655Y0142418D02*
X0112715Y0142418D01*
X0112715Y0143157D02*
X0092655Y0143157D01*
X0092655Y0143896D02*
X0112715Y0143896D01*
X0112715Y0144635D02*
X0092655Y0144635D01*
X0092655Y0145374D02*
X0112715Y0145374D01*
X0112715Y0146113D02*
X0092655Y0146113D01*
X0092655Y0146852D02*
X0112715Y0146852D01*
X0074715Y0146861D02*
X0054655Y0146861D01*
X0074715Y0146861D02*
X0074715Y0140201D01*
X0054655Y0140201D01*
X0054655Y0146861D01*
X0054655Y0140940D02*
X0074715Y0140940D01*
X0074715Y0141679D02*
X0054655Y0141679D01*
X0054655Y0142418D02*
X0074715Y0142418D01*
X0074715Y0143157D02*
X0054655Y0143157D01*
X0054655Y0143896D02*
X0074715Y0143896D01*
X0074715Y0144635D02*
X0054655Y0144635D01*
X0054655Y0145374D02*
X0074715Y0145374D01*
X0074715Y0146113D02*
X0054655Y0146113D01*
X0054655Y0146852D02*
X0074715Y0146852D01*
D17*
X0109565Y0176688D02*
X0114005Y0176688D01*
X0109565Y0176688D02*
X0109565Y0178328D01*
X0114005Y0178328D01*
X0114005Y0176688D01*
X0114005Y0177047D02*
X0109565Y0177047D01*
X0109565Y0177406D02*
X0114005Y0177406D01*
X0114005Y0177765D02*
X0109565Y0177765D01*
X0109565Y0178124D02*
X0114005Y0178124D01*
X0114005Y0179837D02*
X0109565Y0179837D01*
X0109565Y0181477D01*
X0114005Y0181477D01*
X0114005Y0179837D01*
X0114005Y0180196D02*
X0109565Y0180196D01*
X0109565Y0180555D02*
X0114005Y0180555D01*
X0114005Y0180914D02*
X0109565Y0180914D01*
X0109565Y0181273D02*
X0114005Y0181273D01*
X0114005Y0182987D02*
X0109565Y0182987D01*
X0109565Y0184627D01*
X0114005Y0184627D01*
X0114005Y0182987D01*
X0114005Y0183346D02*
X0109565Y0183346D01*
X0109565Y0183705D02*
X0114005Y0183705D01*
X0114005Y0184064D02*
X0109565Y0184064D01*
X0109565Y0184423D02*
X0114005Y0184423D01*
X0114005Y0186137D02*
X0109565Y0186137D01*
X0109565Y0187777D01*
X0114005Y0187777D01*
X0114005Y0186137D01*
X0114005Y0186496D02*
X0109565Y0186496D01*
X0109565Y0186855D02*
X0114005Y0186855D01*
X0114005Y0187214D02*
X0109565Y0187214D01*
X0109565Y0187573D02*
X0114005Y0187573D01*
X0114005Y0189286D02*
X0109565Y0189286D01*
X0109565Y0190926D01*
X0114005Y0190926D01*
X0114005Y0189286D01*
X0114005Y0189645D02*
X0109565Y0189645D01*
X0109565Y0190004D02*
X0114005Y0190004D01*
X0114005Y0190363D02*
X0109565Y0190363D01*
X0109565Y0190722D02*
X0114005Y0190722D01*
X0114005Y0192436D02*
X0109565Y0192436D01*
X0109565Y0194076D01*
X0114005Y0194076D01*
X0114005Y0192436D01*
X0114005Y0192795D02*
X0109565Y0192795D01*
X0109565Y0193154D02*
X0114005Y0193154D01*
X0114005Y0193513D02*
X0109565Y0193513D01*
X0109565Y0193872D02*
X0114005Y0193872D01*
X0114005Y0195585D02*
X0109565Y0195585D01*
X0109565Y0197225D01*
X0114005Y0197225D01*
X0114005Y0195585D01*
X0114005Y0195944D02*
X0109565Y0195944D01*
X0109565Y0196303D02*
X0114005Y0196303D01*
X0114005Y0196662D02*
X0109565Y0196662D01*
X0109565Y0197021D02*
X0114005Y0197021D01*
X0114005Y0198735D02*
X0109565Y0198735D01*
X0109565Y0200375D01*
X0114005Y0200375D01*
X0114005Y0198735D01*
X0114005Y0199094D02*
X0109565Y0199094D01*
X0109565Y0199453D02*
X0114005Y0199453D01*
X0114005Y0199812D02*
X0109565Y0199812D01*
X0109565Y0200171D02*
X0114005Y0200171D01*
X0116841Y0203211D02*
X0118481Y0203211D01*
X0116841Y0203211D02*
X0116841Y0207651D01*
X0118481Y0207651D01*
X0118481Y0203211D01*
X0118481Y0203570D02*
X0116841Y0203570D01*
X0116841Y0203929D02*
X0118481Y0203929D01*
X0118481Y0204288D02*
X0116841Y0204288D01*
X0116841Y0204647D02*
X0118481Y0204647D01*
X0118481Y0205006D02*
X0116841Y0205006D01*
X0116841Y0205365D02*
X0118481Y0205365D01*
X0118481Y0205724D02*
X0116841Y0205724D01*
X0116841Y0206083D02*
X0118481Y0206083D01*
X0118481Y0206442D02*
X0116841Y0206442D01*
X0116841Y0206801D02*
X0118481Y0206801D01*
X0118481Y0207160D02*
X0116841Y0207160D01*
X0116841Y0207519D02*
X0118481Y0207519D01*
X0119991Y0203211D02*
X0121631Y0203211D01*
X0119991Y0203211D02*
X0119991Y0207651D01*
X0121631Y0207651D01*
X0121631Y0203211D01*
X0121631Y0203570D02*
X0119991Y0203570D01*
X0119991Y0203929D02*
X0121631Y0203929D01*
X0121631Y0204288D02*
X0119991Y0204288D01*
X0119991Y0204647D02*
X0121631Y0204647D01*
X0121631Y0205006D02*
X0119991Y0205006D01*
X0119991Y0205365D02*
X0121631Y0205365D01*
X0121631Y0205724D02*
X0119991Y0205724D01*
X0119991Y0206083D02*
X0121631Y0206083D01*
X0121631Y0206442D02*
X0119991Y0206442D01*
X0119991Y0206801D02*
X0121631Y0206801D01*
X0121631Y0207160D02*
X0119991Y0207160D01*
X0119991Y0207519D02*
X0121631Y0207519D01*
X0123141Y0203211D02*
X0124781Y0203211D01*
X0123141Y0203211D02*
X0123141Y0207651D01*
X0124781Y0207651D01*
X0124781Y0203211D01*
X0124781Y0203570D02*
X0123141Y0203570D01*
X0123141Y0203929D02*
X0124781Y0203929D01*
X0124781Y0204288D02*
X0123141Y0204288D01*
X0123141Y0204647D02*
X0124781Y0204647D01*
X0124781Y0205006D02*
X0123141Y0205006D01*
X0123141Y0205365D02*
X0124781Y0205365D01*
X0124781Y0205724D02*
X0123141Y0205724D01*
X0123141Y0206083D02*
X0124781Y0206083D01*
X0124781Y0206442D02*
X0123141Y0206442D01*
X0123141Y0206801D02*
X0124781Y0206801D01*
X0124781Y0207160D02*
X0123141Y0207160D01*
X0123141Y0207519D02*
X0124781Y0207519D01*
X0126290Y0203211D02*
X0127930Y0203211D01*
X0126290Y0203211D02*
X0126290Y0207651D01*
X0127930Y0207651D01*
X0127930Y0203211D01*
X0127930Y0203570D02*
X0126290Y0203570D01*
X0126290Y0203929D02*
X0127930Y0203929D01*
X0127930Y0204288D02*
X0126290Y0204288D01*
X0126290Y0204647D02*
X0127930Y0204647D01*
X0127930Y0205006D02*
X0126290Y0205006D01*
X0126290Y0205365D02*
X0127930Y0205365D01*
X0127930Y0205724D02*
X0126290Y0205724D01*
X0126290Y0206083D02*
X0127930Y0206083D01*
X0127930Y0206442D02*
X0126290Y0206442D01*
X0126290Y0206801D02*
X0127930Y0206801D01*
X0127930Y0207160D02*
X0126290Y0207160D01*
X0126290Y0207519D02*
X0127930Y0207519D01*
X0129440Y0203211D02*
X0131080Y0203211D01*
X0129440Y0203211D02*
X0129440Y0207651D01*
X0131080Y0207651D01*
X0131080Y0203211D01*
X0131080Y0203570D02*
X0129440Y0203570D01*
X0129440Y0203929D02*
X0131080Y0203929D01*
X0131080Y0204288D02*
X0129440Y0204288D01*
X0129440Y0204647D02*
X0131080Y0204647D01*
X0131080Y0205006D02*
X0129440Y0205006D01*
X0129440Y0205365D02*
X0131080Y0205365D01*
X0131080Y0205724D02*
X0129440Y0205724D01*
X0129440Y0206083D02*
X0131080Y0206083D01*
X0131080Y0206442D02*
X0129440Y0206442D01*
X0129440Y0206801D02*
X0131080Y0206801D01*
X0131080Y0207160D02*
X0129440Y0207160D01*
X0129440Y0207519D02*
X0131080Y0207519D01*
X0132589Y0203211D02*
X0134229Y0203211D01*
X0132589Y0203211D02*
X0132589Y0207651D01*
X0134229Y0207651D01*
X0134229Y0203211D01*
X0134229Y0203570D02*
X0132589Y0203570D01*
X0132589Y0203929D02*
X0134229Y0203929D01*
X0134229Y0204288D02*
X0132589Y0204288D01*
X0132589Y0204647D02*
X0134229Y0204647D01*
X0134229Y0205006D02*
X0132589Y0205006D01*
X0132589Y0205365D02*
X0134229Y0205365D01*
X0134229Y0205724D02*
X0132589Y0205724D01*
X0132589Y0206083D02*
X0134229Y0206083D01*
X0134229Y0206442D02*
X0132589Y0206442D01*
X0132589Y0206801D02*
X0134229Y0206801D01*
X0134229Y0207160D02*
X0132589Y0207160D01*
X0132589Y0207519D02*
X0134229Y0207519D01*
X0135739Y0203211D02*
X0137379Y0203211D01*
X0135739Y0203211D02*
X0135739Y0207651D01*
X0137379Y0207651D01*
X0137379Y0203211D01*
X0137379Y0203570D02*
X0135739Y0203570D01*
X0135739Y0203929D02*
X0137379Y0203929D01*
X0137379Y0204288D02*
X0135739Y0204288D01*
X0135739Y0204647D02*
X0137379Y0204647D01*
X0137379Y0205006D02*
X0135739Y0205006D01*
X0135739Y0205365D02*
X0137379Y0205365D01*
X0137379Y0205724D02*
X0135739Y0205724D01*
X0135739Y0206083D02*
X0137379Y0206083D01*
X0137379Y0206442D02*
X0135739Y0206442D01*
X0135739Y0206801D02*
X0137379Y0206801D01*
X0137379Y0207160D02*
X0135739Y0207160D01*
X0135739Y0207519D02*
X0137379Y0207519D01*
X0138889Y0203211D02*
X0140529Y0203211D01*
X0138889Y0203211D02*
X0138889Y0207651D01*
X0140529Y0207651D01*
X0140529Y0203211D01*
X0140529Y0203570D02*
X0138889Y0203570D01*
X0138889Y0203929D02*
X0140529Y0203929D01*
X0140529Y0204288D02*
X0138889Y0204288D01*
X0138889Y0204647D02*
X0140529Y0204647D01*
X0140529Y0205006D02*
X0138889Y0205006D01*
X0138889Y0205365D02*
X0140529Y0205365D01*
X0140529Y0205724D02*
X0138889Y0205724D01*
X0138889Y0206083D02*
X0140529Y0206083D01*
X0140529Y0206442D02*
X0138889Y0206442D01*
X0138889Y0206801D02*
X0140529Y0206801D01*
X0140529Y0207160D02*
X0138889Y0207160D01*
X0138889Y0207519D02*
X0140529Y0207519D01*
X0143365Y0198735D02*
X0147805Y0198735D01*
X0143365Y0198735D02*
X0143365Y0200375D01*
X0147805Y0200375D01*
X0147805Y0198735D01*
X0147805Y0199094D02*
X0143365Y0199094D01*
X0143365Y0199453D02*
X0147805Y0199453D01*
X0147805Y0199812D02*
X0143365Y0199812D01*
X0143365Y0200171D02*
X0147805Y0200171D01*
X0147805Y0195585D02*
X0143365Y0195585D01*
X0143365Y0197225D01*
X0147805Y0197225D01*
X0147805Y0195585D01*
X0147805Y0195944D02*
X0143365Y0195944D01*
X0143365Y0196303D02*
X0147805Y0196303D01*
X0147805Y0196662D02*
X0143365Y0196662D01*
X0143365Y0197021D02*
X0147805Y0197021D01*
X0147805Y0192436D02*
X0143365Y0192436D01*
X0143365Y0194076D01*
X0147805Y0194076D01*
X0147805Y0192436D01*
X0147805Y0192795D02*
X0143365Y0192795D01*
X0143365Y0193154D02*
X0147805Y0193154D01*
X0147805Y0193513D02*
X0143365Y0193513D01*
X0143365Y0193872D02*
X0147805Y0193872D01*
X0147805Y0189286D02*
X0143365Y0189286D01*
X0143365Y0190926D01*
X0147805Y0190926D01*
X0147805Y0189286D01*
X0147805Y0189645D02*
X0143365Y0189645D01*
X0143365Y0190004D02*
X0147805Y0190004D01*
X0147805Y0190363D02*
X0143365Y0190363D01*
X0143365Y0190722D02*
X0147805Y0190722D01*
X0147805Y0186137D02*
X0143365Y0186137D01*
X0143365Y0187777D01*
X0147805Y0187777D01*
X0147805Y0186137D01*
X0147805Y0186496D02*
X0143365Y0186496D01*
X0143365Y0186855D02*
X0147805Y0186855D01*
X0147805Y0187214D02*
X0143365Y0187214D01*
X0143365Y0187573D02*
X0147805Y0187573D01*
X0147805Y0182987D02*
X0143365Y0182987D01*
X0143365Y0184627D01*
X0147805Y0184627D01*
X0147805Y0182987D01*
X0147805Y0183346D02*
X0143365Y0183346D01*
X0143365Y0183705D02*
X0147805Y0183705D01*
X0147805Y0184064D02*
X0143365Y0184064D01*
X0143365Y0184423D02*
X0147805Y0184423D01*
X0147805Y0179837D02*
X0143365Y0179837D01*
X0143365Y0181477D01*
X0147805Y0181477D01*
X0147805Y0179837D01*
X0147805Y0180196D02*
X0143365Y0180196D01*
X0143365Y0180555D02*
X0147805Y0180555D01*
X0147805Y0180914D02*
X0143365Y0180914D01*
X0143365Y0181273D02*
X0147805Y0181273D01*
X0147805Y0176688D02*
X0143365Y0176688D01*
X0143365Y0178328D01*
X0147805Y0178328D01*
X0147805Y0176688D01*
X0147805Y0177047D02*
X0143365Y0177047D01*
X0143365Y0177406D02*
X0147805Y0177406D01*
X0147805Y0177765D02*
X0143365Y0177765D01*
X0143365Y0178124D02*
X0147805Y0178124D01*
X0140529Y0169411D02*
X0138889Y0169411D01*
X0138889Y0173851D01*
X0140529Y0173851D01*
X0140529Y0169411D01*
X0140529Y0169770D02*
X0138889Y0169770D01*
X0138889Y0170129D02*
X0140529Y0170129D01*
X0140529Y0170488D02*
X0138889Y0170488D01*
X0138889Y0170847D02*
X0140529Y0170847D01*
X0140529Y0171206D02*
X0138889Y0171206D01*
X0138889Y0171565D02*
X0140529Y0171565D01*
X0140529Y0171924D02*
X0138889Y0171924D01*
X0138889Y0172283D02*
X0140529Y0172283D01*
X0140529Y0172642D02*
X0138889Y0172642D01*
X0138889Y0173001D02*
X0140529Y0173001D01*
X0140529Y0173360D02*
X0138889Y0173360D01*
X0138889Y0173719D02*
X0140529Y0173719D01*
X0137379Y0169411D02*
X0135739Y0169411D01*
X0135739Y0173851D01*
X0137379Y0173851D01*
X0137379Y0169411D01*
X0137379Y0169770D02*
X0135739Y0169770D01*
X0135739Y0170129D02*
X0137379Y0170129D01*
X0137379Y0170488D02*
X0135739Y0170488D01*
X0135739Y0170847D02*
X0137379Y0170847D01*
X0137379Y0171206D02*
X0135739Y0171206D01*
X0135739Y0171565D02*
X0137379Y0171565D01*
X0137379Y0171924D02*
X0135739Y0171924D01*
X0135739Y0172283D02*
X0137379Y0172283D01*
X0137379Y0172642D02*
X0135739Y0172642D01*
X0135739Y0173001D02*
X0137379Y0173001D01*
X0137379Y0173360D02*
X0135739Y0173360D01*
X0135739Y0173719D02*
X0137379Y0173719D01*
X0134229Y0169411D02*
X0132589Y0169411D01*
X0132589Y0173851D01*
X0134229Y0173851D01*
X0134229Y0169411D01*
X0134229Y0169770D02*
X0132589Y0169770D01*
X0132589Y0170129D02*
X0134229Y0170129D01*
X0134229Y0170488D02*
X0132589Y0170488D01*
X0132589Y0170847D02*
X0134229Y0170847D01*
X0134229Y0171206D02*
X0132589Y0171206D01*
X0132589Y0171565D02*
X0134229Y0171565D01*
X0134229Y0171924D02*
X0132589Y0171924D01*
X0132589Y0172283D02*
X0134229Y0172283D01*
X0134229Y0172642D02*
X0132589Y0172642D01*
X0132589Y0173001D02*
X0134229Y0173001D01*
X0134229Y0173360D02*
X0132589Y0173360D01*
X0132589Y0173719D02*
X0134229Y0173719D01*
X0131080Y0169411D02*
X0129440Y0169411D01*
X0129440Y0173851D01*
X0131080Y0173851D01*
X0131080Y0169411D01*
X0131080Y0169770D02*
X0129440Y0169770D01*
X0129440Y0170129D02*
X0131080Y0170129D01*
X0131080Y0170488D02*
X0129440Y0170488D01*
X0129440Y0170847D02*
X0131080Y0170847D01*
X0131080Y0171206D02*
X0129440Y0171206D01*
X0129440Y0171565D02*
X0131080Y0171565D01*
X0131080Y0171924D02*
X0129440Y0171924D01*
X0129440Y0172283D02*
X0131080Y0172283D01*
X0131080Y0172642D02*
X0129440Y0172642D01*
X0129440Y0173001D02*
X0131080Y0173001D01*
X0131080Y0173360D02*
X0129440Y0173360D01*
X0129440Y0173719D02*
X0131080Y0173719D01*
X0127930Y0169411D02*
X0126290Y0169411D01*
X0126290Y0173851D01*
X0127930Y0173851D01*
X0127930Y0169411D01*
X0127930Y0169770D02*
X0126290Y0169770D01*
X0126290Y0170129D02*
X0127930Y0170129D01*
X0127930Y0170488D02*
X0126290Y0170488D01*
X0126290Y0170847D02*
X0127930Y0170847D01*
X0127930Y0171206D02*
X0126290Y0171206D01*
X0126290Y0171565D02*
X0127930Y0171565D01*
X0127930Y0171924D02*
X0126290Y0171924D01*
X0126290Y0172283D02*
X0127930Y0172283D01*
X0127930Y0172642D02*
X0126290Y0172642D01*
X0126290Y0173001D02*
X0127930Y0173001D01*
X0127930Y0173360D02*
X0126290Y0173360D01*
X0126290Y0173719D02*
X0127930Y0173719D01*
X0124781Y0169411D02*
X0123141Y0169411D01*
X0123141Y0173851D01*
X0124781Y0173851D01*
X0124781Y0169411D01*
X0124781Y0169770D02*
X0123141Y0169770D01*
X0123141Y0170129D02*
X0124781Y0170129D01*
X0124781Y0170488D02*
X0123141Y0170488D01*
X0123141Y0170847D02*
X0124781Y0170847D01*
X0124781Y0171206D02*
X0123141Y0171206D01*
X0123141Y0171565D02*
X0124781Y0171565D01*
X0124781Y0171924D02*
X0123141Y0171924D01*
X0123141Y0172283D02*
X0124781Y0172283D01*
X0124781Y0172642D02*
X0123141Y0172642D01*
X0123141Y0173001D02*
X0124781Y0173001D01*
X0124781Y0173360D02*
X0123141Y0173360D01*
X0123141Y0173719D02*
X0124781Y0173719D01*
X0121631Y0169411D02*
X0119991Y0169411D01*
X0119991Y0173851D01*
X0121631Y0173851D01*
X0121631Y0169411D01*
X0121631Y0169770D02*
X0119991Y0169770D01*
X0119991Y0170129D02*
X0121631Y0170129D01*
X0121631Y0170488D02*
X0119991Y0170488D01*
X0119991Y0170847D02*
X0121631Y0170847D01*
X0121631Y0171206D02*
X0119991Y0171206D01*
X0119991Y0171565D02*
X0121631Y0171565D01*
X0121631Y0171924D02*
X0119991Y0171924D01*
X0119991Y0172283D02*
X0121631Y0172283D01*
X0121631Y0172642D02*
X0119991Y0172642D01*
X0119991Y0173001D02*
X0121631Y0173001D01*
X0121631Y0173360D02*
X0119991Y0173360D01*
X0119991Y0173719D02*
X0121631Y0173719D01*
X0118481Y0169411D02*
X0116841Y0169411D01*
X0116841Y0173851D01*
X0118481Y0173851D01*
X0118481Y0169411D01*
X0118481Y0169770D02*
X0116841Y0169770D01*
X0116841Y0170129D02*
X0118481Y0170129D01*
X0118481Y0170488D02*
X0116841Y0170488D01*
X0116841Y0170847D02*
X0118481Y0170847D01*
X0118481Y0171206D02*
X0116841Y0171206D01*
X0116841Y0171565D02*
X0118481Y0171565D01*
X0118481Y0171924D02*
X0116841Y0171924D01*
X0116841Y0172283D02*
X0118481Y0172283D01*
X0118481Y0172642D02*
X0116841Y0172642D01*
X0116841Y0173001D02*
X0118481Y0173001D01*
X0118481Y0173360D02*
X0116841Y0173360D01*
X0116841Y0173719D02*
X0118481Y0173719D01*
D18*
X0121550Y0178246D02*
X0122040Y0178246D01*
X0121550Y0178246D02*
X0121550Y0180312D01*
X0122040Y0180312D01*
X0122040Y0178246D01*
X0122040Y0178736D02*
X0121550Y0178736D01*
X0121550Y0179226D02*
X0122040Y0179226D01*
X0122040Y0179716D02*
X0121550Y0179716D01*
X0121550Y0180206D02*
X0122040Y0180206D01*
X0123519Y0178246D02*
X0124009Y0178246D01*
X0123519Y0178246D02*
X0123519Y0180312D01*
X0124009Y0180312D01*
X0124009Y0178246D01*
X0124009Y0178736D02*
X0123519Y0178736D01*
X0123519Y0179226D02*
X0124009Y0179226D01*
X0124009Y0179716D02*
X0123519Y0179716D01*
X0123519Y0180206D02*
X0124009Y0180206D01*
X0125487Y0178246D02*
X0125977Y0178246D01*
X0125487Y0178246D02*
X0125487Y0180312D01*
X0125977Y0180312D01*
X0125977Y0178246D01*
X0125977Y0178736D02*
X0125487Y0178736D01*
X0125487Y0179226D02*
X0125977Y0179226D01*
X0125977Y0179716D02*
X0125487Y0179716D01*
X0125487Y0180206D02*
X0125977Y0180206D01*
X0127456Y0178246D02*
X0127946Y0178246D01*
X0127456Y0178246D02*
X0127456Y0180312D01*
X0127946Y0180312D01*
X0127946Y0178246D01*
X0127946Y0178736D02*
X0127456Y0178736D01*
X0127456Y0179226D02*
X0127946Y0179226D01*
X0127946Y0179716D02*
X0127456Y0179716D01*
X0127456Y0180206D02*
X0127946Y0180206D01*
X0129424Y0178246D02*
X0129914Y0178246D01*
X0129424Y0178246D02*
X0129424Y0180312D01*
X0129914Y0180312D01*
X0129914Y0178246D01*
X0129914Y0178736D02*
X0129424Y0178736D01*
X0129424Y0179226D02*
X0129914Y0179226D01*
X0129914Y0179716D02*
X0129424Y0179716D01*
X0129424Y0180206D02*
X0129914Y0180206D01*
X0131393Y0178246D02*
X0131883Y0178246D01*
X0131393Y0178246D02*
X0131393Y0180312D01*
X0131883Y0180312D01*
X0131883Y0178246D01*
X0131883Y0178736D02*
X0131393Y0178736D01*
X0131393Y0179226D02*
X0131883Y0179226D01*
X0131883Y0179716D02*
X0131393Y0179716D01*
X0131393Y0180206D02*
X0131883Y0180206D01*
X0133361Y0178246D02*
X0133851Y0178246D01*
X0133361Y0178246D02*
X0133361Y0180312D01*
X0133851Y0180312D01*
X0133851Y0178246D01*
X0133851Y0178736D02*
X0133361Y0178736D01*
X0133361Y0179226D02*
X0133851Y0179226D01*
X0133851Y0179716D02*
X0133361Y0179716D01*
X0133361Y0180206D02*
X0133851Y0180206D01*
X0135330Y0178246D02*
X0135820Y0178246D01*
X0135330Y0178246D02*
X0135330Y0180312D01*
X0135820Y0180312D01*
X0135820Y0178246D01*
X0135820Y0178736D02*
X0135330Y0178736D01*
X0135330Y0179226D02*
X0135820Y0179226D01*
X0135820Y0179716D02*
X0135330Y0179716D01*
X0135330Y0180206D02*
X0135820Y0180206D01*
X0136904Y0181397D02*
X0138970Y0181397D01*
X0136904Y0181397D02*
X0136904Y0181887D01*
X0138970Y0181887D01*
X0138970Y0181397D01*
X0138970Y0181887D02*
X0136904Y0181887D01*
X0136904Y0183365D02*
X0138970Y0183365D01*
X0136904Y0183365D02*
X0136904Y0183855D01*
X0138970Y0183855D01*
X0138970Y0183365D01*
X0138970Y0183855D02*
X0136904Y0183855D01*
X0136904Y0185334D02*
X0138970Y0185334D01*
X0136904Y0185334D02*
X0136904Y0185824D01*
X0138970Y0185824D01*
X0138970Y0185334D01*
X0138970Y0185824D02*
X0136904Y0185824D01*
X0136904Y0187302D02*
X0138970Y0187302D01*
X0136904Y0187302D02*
X0136904Y0187792D01*
X0138970Y0187792D01*
X0138970Y0187302D01*
X0138970Y0187792D02*
X0136904Y0187792D01*
X0136904Y0189271D02*
X0138970Y0189271D01*
X0136904Y0189271D02*
X0136904Y0189761D01*
X0138970Y0189761D01*
X0138970Y0189271D01*
X0138970Y0189761D02*
X0136904Y0189761D01*
X0136904Y0191239D02*
X0138970Y0191239D01*
X0136904Y0191239D02*
X0136904Y0191729D01*
X0138970Y0191729D01*
X0138970Y0191239D01*
X0138970Y0191729D02*
X0136904Y0191729D01*
X0136904Y0193208D02*
X0138970Y0193208D01*
X0136904Y0193208D02*
X0136904Y0193698D01*
X0138970Y0193698D01*
X0138970Y0193208D01*
X0138970Y0193698D02*
X0136904Y0193698D01*
X0136904Y0195176D02*
X0138970Y0195176D01*
X0136904Y0195176D02*
X0136904Y0195666D01*
X0138970Y0195666D01*
X0138970Y0195176D01*
X0138970Y0195666D02*
X0136904Y0195666D01*
X0135820Y0196750D02*
X0135330Y0196750D01*
X0135330Y0198816D01*
X0135820Y0198816D01*
X0135820Y0196750D01*
X0135820Y0197240D02*
X0135330Y0197240D01*
X0135330Y0197730D02*
X0135820Y0197730D01*
X0135820Y0198220D02*
X0135330Y0198220D01*
X0135330Y0198710D02*
X0135820Y0198710D01*
X0133851Y0196750D02*
X0133361Y0196750D01*
X0133361Y0198816D01*
X0133851Y0198816D01*
X0133851Y0196750D01*
X0133851Y0197240D02*
X0133361Y0197240D01*
X0133361Y0197730D02*
X0133851Y0197730D01*
X0133851Y0198220D02*
X0133361Y0198220D01*
X0133361Y0198710D02*
X0133851Y0198710D01*
X0131883Y0196750D02*
X0131393Y0196750D01*
X0131393Y0198816D01*
X0131883Y0198816D01*
X0131883Y0196750D01*
X0131883Y0197240D02*
X0131393Y0197240D01*
X0131393Y0197730D02*
X0131883Y0197730D01*
X0131883Y0198220D02*
X0131393Y0198220D01*
X0131393Y0198710D02*
X0131883Y0198710D01*
X0129914Y0196750D02*
X0129424Y0196750D01*
X0129424Y0198816D01*
X0129914Y0198816D01*
X0129914Y0196750D01*
X0129914Y0197240D02*
X0129424Y0197240D01*
X0129424Y0197730D02*
X0129914Y0197730D01*
X0129914Y0198220D02*
X0129424Y0198220D01*
X0129424Y0198710D02*
X0129914Y0198710D01*
X0127946Y0196750D02*
X0127456Y0196750D01*
X0127456Y0198816D01*
X0127946Y0198816D01*
X0127946Y0196750D01*
X0127946Y0197240D02*
X0127456Y0197240D01*
X0127456Y0197730D02*
X0127946Y0197730D01*
X0127946Y0198220D02*
X0127456Y0198220D01*
X0127456Y0198710D02*
X0127946Y0198710D01*
X0125977Y0196750D02*
X0125487Y0196750D01*
X0125487Y0198816D01*
X0125977Y0198816D01*
X0125977Y0196750D01*
X0125977Y0197240D02*
X0125487Y0197240D01*
X0125487Y0197730D02*
X0125977Y0197730D01*
X0125977Y0198220D02*
X0125487Y0198220D01*
X0125487Y0198710D02*
X0125977Y0198710D01*
X0124009Y0196750D02*
X0123519Y0196750D01*
X0123519Y0198816D01*
X0124009Y0198816D01*
X0124009Y0196750D01*
X0124009Y0197240D02*
X0123519Y0197240D01*
X0123519Y0197730D02*
X0124009Y0197730D01*
X0124009Y0198220D02*
X0123519Y0198220D01*
X0123519Y0198710D02*
X0124009Y0198710D01*
X0122040Y0196750D02*
X0121550Y0196750D01*
X0121550Y0198816D01*
X0122040Y0198816D01*
X0122040Y0196750D01*
X0122040Y0197240D02*
X0121550Y0197240D01*
X0121550Y0197730D02*
X0122040Y0197730D01*
X0122040Y0198220D02*
X0121550Y0198220D01*
X0121550Y0198710D02*
X0122040Y0198710D01*
X0120466Y0195176D02*
X0118400Y0195176D01*
X0118400Y0195666D01*
X0120466Y0195666D01*
X0120466Y0195176D01*
X0120466Y0195666D02*
X0118400Y0195666D01*
X0118400Y0193208D02*
X0120466Y0193208D01*
X0118400Y0193208D02*
X0118400Y0193698D01*
X0120466Y0193698D01*
X0120466Y0193208D01*
X0120466Y0193698D02*
X0118400Y0193698D01*
X0118400Y0191239D02*
X0120466Y0191239D01*
X0118400Y0191239D02*
X0118400Y0191729D01*
X0120466Y0191729D01*
X0120466Y0191239D01*
X0120466Y0191729D02*
X0118400Y0191729D01*
X0118400Y0189271D02*
X0120466Y0189271D01*
X0118400Y0189271D02*
X0118400Y0189761D01*
X0120466Y0189761D01*
X0120466Y0189271D01*
X0120466Y0189761D02*
X0118400Y0189761D01*
X0118400Y0187302D02*
X0120466Y0187302D01*
X0118400Y0187302D02*
X0118400Y0187792D01*
X0120466Y0187792D01*
X0120466Y0187302D01*
X0120466Y0187792D02*
X0118400Y0187792D01*
X0118400Y0185334D02*
X0120466Y0185334D01*
X0118400Y0185334D02*
X0118400Y0185824D01*
X0120466Y0185824D01*
X0120466Y0185334D01*
X0120466Y0185824D02*
X0118400Y0185824D01*
X0118400Y0183365D02*
X0120466Y0183365D01*
X0118400Y0183365D02*
X0118400Y0183855D01*
X0120466Y0183855D01*
X0120466Y0183365D01*
X0120466Y0183855D02*
X0118400Y0183855D01*
X0118400Y0181397D02*
X0120466Y0181397D01*
X0118400Y0181397D02*
X0118400Y0181887D01*
X0120466Y0181887D01*
X0120466Y0181397D01*
X0120466Y0181887D02*
X0118400Y0181887D01*
D19*
X0170403Y0153250D02*
X0170403Y0143930D01*
X0170403Y0153250D02*
X0174723Y0153250D01*
X0174723Y0143930D01*
X0170403Y0143930D01*
X0170403Y0144409D02*
X0174723Y0144409D01*
X0174723Y0144888D02*
X0170403Y0144888D01*
X0170403Y0145367D02*
X0174723Y0145367D01*
X0174723Y0145846D02*
X0170403Y0145846D01*
X0170403Y0146325D02*
X0174723Y0146325D01*
X0174723Y0146804D02*
X0170403Y0146804D01*
X0170403Y0147283D02*
X0174723Y0147283D01*
X0174723Y0147762D02*
X0170403Y0147762D01*
X0170403Y0148241D02*
X0174723Y0148241D01*
X0174723Y0148720D02*
X0170403Y0148720D01*
X0170403Y0149199D02*
X0174723Y0149199D01*
X0174723Y0149678D02*
X0170403Y0149678D01*
X0170403Y0150157D02*
X0174723Y0150157D01*
X0174723Y0150636D02*
X0170403Y0150636D01*
X0170403Y0151115D02*
X0174723Y0151115D01*
X0174723Y0151594D02*
X0170403Y0151594D01*
X0170403Y0152073D02*
X0174723Y0152073D01*
X0174723Y0152552D02*
X0170403Y0152552D01*
X0170403Y0153031D02*
X0174723Y0153031D01*
X0178277Y0153250D02*
X0178277Y0143930D01*
X0178277Y0153250D02*
X0182597Y0153250D01*
X0182597Y0143930D01*
X0178277Y0143930D01*
X0178277Y0144409D02*
X0182597Y0144409D01*
X0182597Y0144888D02*
X0178277Y0144888D01*
X0178277Y0145367D02*
X0182597Y0145367D01*
X0182597Y0145846D02*
X0178277Y0145846D01*
X0178277Y0146325D02*
X0182597Y0146325D01*
X0182597Y0146804D02*
X0178277Y0146804D01*
X0178277Y0147283D02*
X0182597Y0147283D01*
X0182597Y0147762D02*
X0178277Y0147762D01*
X0178277Y0148241D02*
X0182597Y0148241D01*
X0182597Y0148720D02*
X0178277Y0148720D01*
X0178277Y0149199D02*
X0182597Y0149199D01*
X0182597Y0149678D02*
X0178277Y0149678D01*
X0178277Y0150157D02*
X0182597Y0150157D01*
X0182597Y0150636D02*
X0178277Y0150636D01*
X0178277Y0151115D02*
X0182597Y0151115D01*
X0182597Y0151594D02*
X0178277Y0151594D01*
X0178277Y0152073D02*
X0182597Y0152073D01*
X0182597Y0152552D02*
X0178277Y0152552D01*
X0178277Y0153031D02*
X0182597Y0153031D01*
X0186151Y0153250D02*
X0186151Y0143930D01*
X0186151Y0153250D02*
X0190471Y0153250D01*
X0190471Y0143930D01*
X0186151Y0143930D01*
X0186151Y0144409D02*
X0190471Y0144409D01*
X0190471Y0144888D02*
X0186151Y0144888D01*
X0186151Y0145367D02*
X0190471Y0145367D01*
X0190471Y0145846D02*
X0186151Y0145846D01*
X0186151Y0146325D02*
X0190471Y0146325D01*
X0190471Y0146804D02*
X0186151Y0146804D01*
X0186151Y0147283D02*
X0190471Y0147283D01*
X0190471Y0147762D02*
X0186151Y0147762D01*
X0186151Y0148241D02*
X0190471Y0148241D01*
X0190471Y0148720D02*
X0186151Y0148720D01*
X0186151Y0149199D02*
X0190471Y0149199D01*
X0190471Y0149678D02*
X0186151Y0149678D01*
X0186151Y0150157D02*
X0190471Y0150157D01*
X0190471Y0150636D02*
X0186151Y0150636D01*
X0186151Y0151115D02*
X0190471Y0151115D01*
X0190471Y0151594D02*
X0186151Y0151594D01*
X0186151Y0152073D02*
X0190471Y0152073D01*
X0190471Y0152552D02*
X0186151Y0152552D01*
X0186151Y0153031D02*
X0190471Y0153031D01*
X0194025Y0153250D02*
X0194025Y0143930D01*
X0194025Y0153250D02*
X0198345Y0153250D01*
X0198345Y0143930D01*
X0194025Y0143930D01*
X0194025Y0144409D02*
X0198345Y0144409D01*
X0198345Y0144888D02*
X0194025Y0144888D01*
X0194025Y0145367D02*
X0198345Y0145367D01*
X0198345Y0145846D02*
X0194025Y0145846D01*
X0194025Y0146325D02*
X0198345Y0146325D01*
X0198345Y0146804D02*
X0194025Y0146804D01*
X0194025Y0147283D02*
X0198345Y0147283D01*
X0198345Y0147762D02*
X0194025Y0147762D01*
X0194025Y0148241D02*
X0198345Y0148241D01*
X0198345Y0148720D02*
X0194025Y0148720D01*
X0194025Y0149199D02*
X0198345Y0149199D01*
X0198345Y0149678D02*
X0194025Y0149678D01*
X0194025Y0150157D02*
X0198345Y0150157D01*
X0198345Y0150636D02*
X0194025Y0150636D01*
X0194025Y0151115D02*
X0198345Y0151115D01*
X0198345Y0151594D02*
X0194025Y0151594D01*
X0194025Y0152073D02*
X0198345Y0152073D01*
X0198345Y0152552D02*
X0194025Y0152552D01*
X0194025Y0153031D02*
X0198345Y0153031D01*
X0201899Y0153250D02*
X0201899Y0143930D01*
X0201899Y0153250D02*
X0206219Y0153250D01*
X0206219Y0143930D01*
X0201899Y0143930D01*
X0201899Y0144409D02*
X0206219Y0144409D01*
X0206219Y0144888D02*
X0201899Y0144888D01*
X0201899Y0145367D02*
X0206219Y0145367D01*
X0206219Y0145846D02*
X0201899Y0145846D01*
X0201899Y0146325D02*
X0206219Y0146325D01*
X0206219Y0146804D02*
X0201899Y0146804D01*
X0201899Y0147283D02*
X0206219Y0147283D01*
X0206219Y0147762D02*
X0201899Y0147762D01*
X0201899Y0148241D02*
X0206219Y0148241D01*
X0206219Y0148720D02*
X0201899Y0148720D01*
X0201899Y0149199D02*
X0206219Y0149199D01*
X0206219Y0149678D02*
X0201899Y0149678D01*
X0201899Y0150157D02*
X0206219Y0150157D01*
X0206219Y0150636D02*
X0201899Y0150636D01*
X0201899Y0151115D02*
X0206219Y0151115D01*
X0206219Y0151594D02*
X0201899Y0151594D01*
X0201899Y0152073D02*
X0206219Y0152073D01*
X0206219Y0152552D02*
X0201899Y0152552D01*
X0201899Y0153031D02*
X0206219Y0153031D01*
X0209773Y0153250D02*
X0209773Y0143930D01*
X0209773Y0153250D02*
X0214093Y0153250D01*
X0214093Y0143930D01*
X0209773Y0143930D01*
X0209773Y0144409D02*
X0214093Y0144409D01*
X0214093Y0144888D02*
X0209773Y0144888D01*
X0209773Y0145367D02*
X0214093Y0145367D01*
X0214093Y0145846D02*
X0209773Y0145846D01*
X0209773Y0146325D02*
X0214093Y0146325D01*
X0214093Y0146804D02*
X0209773Y0146804D01*
X0209773Y0147283D02*
X0214093Y0147283D01*
X0214093Y0147762D02*
X0209773Y0147762D01*
X0209773Y0148241D02*
X0214093Y0148241D01*
X0214093Y0148720D02*
X0209773Y0148720D01*
X0209773Y0149199D02*
X0214093Y0149199D01*
X0214093Y0149678D02*
X0209773Y0149678D01*
X0209773Y0150157D02*
X0214093Y0150157D01*
X0214093Y0150636D02*
X0209773Y0150636D01*
X0209773Y0151115D02*
X0214093Y0151115D01*
X0214093Y0151594D02*
X0209773Y0151594D01*
X0209773Y0152073D02*
X0214093Y0152073D01*
X0214093Y0152552D02*
X0209773Y0152552D01*
X0209773Y0153031D02*
X0214093Y0153031D01*
X0217647Y0153250D02*
X0217647Y0143930D01*
X0217647Y0153250D02*
X0221967Y0153250D01*
X0221967Y0143930D01*
X0217647Y0143930D01*
X0217647Y0144409D02*
X0221967Y0144409D01*
X0221967Y0144888D02*
X0217647Y0144888D01*
X0217647Y0145367D02*
X0221967Y0145367D01*
X0221967Y0145846D02*
X0217647Y0145846D01*
X0217647Y0146325D02*
X0221967Y0146325D01*
X0221967Y0146804D02*
X0217647Y0146804D01*
X0217647Y0147283D02*
X0221967Y0147283D01*
X0221967Y0147762D02*
X0217647Y0147762D01*
X0217647Y0148241D02*
X0221967Y0148241D01*
X0221967Y0148720D02*
X0217647Y0148720D01*
X0217647Y0149199D02*
X0221967Y0149199D01*
X0221967Y0149678D02*
X0217647Y0149678D01*
X0217647Y0150157D02*
X0221967Y0150157D01*
X0221967Y0150636D02*
X0217647Y0150636D01*
X0217647Y0151115D02*
X0221967Y0151115D01*
X0221967Y0151594D02*
X0217647Y0151594D01*
X0217647Y0152073D02*
X0221967Y0152073D01*
X0221967Y0152552D02*
X0217647Y0152552D01*
X0217647Y0153031D02*
X0221967Y0153031D01*
X0217647Y0090258D02*
X0217647Y0080938D01*
X0217647Y0090258D02*
X0221967Y0090258D01*
X0221967Y0080938D01*
X0217647Y0080938D01*
X0217647Y0081417D02*
X0221967Y0081417D01*
X0221967Y0081896D02*
X0217647Y0081896D01*
X0217647Y0082375D02*
X0221967Y0082375D01*
X0221967Y0082854D02*
X0217647Y0082854D01*
X0217647Y0083333D02*
X0221967Y0083333D01*
X0221967Y0083812D02*
X0217647Y0083812D01*
X0217647Y0084291D02*
X0221967Y0084291D01*
X0221967Y0084770D02*
X0217647Y0084770D01*
X0217647Y0085249D02*
X0221967Y0085249D01*
X0221967Y0085728D02*
X0217647Y0085728D01*
X0217647Y0086207D02*
X0221967Y0086207D01*
X0221967Y0086686D02*
X0217647Y0086686D01*
X0217647Y0087165D02*
X0221967Y0087165D01*
X0221967Y0087644D02*
X0217647Y0087644D01*
X0217647Y0088123D02*
X0221967Y0088123D01*
X0221967Y0088602D02*
X0217647Y0088602D01*
X0217647Y0089081D02*
X0221967Y0089081D01*
X0221967Y0089560D02*
X0217647Y0089560D01*
X0217647Y0090039D02*
X0221967Y0090039D01*
X0209773Y0090258D02*
X0209773Y0080938D01*
X0209773Y0090258D02*
X0214093Y0090258D01*
X0214093Y0080938D01*
X0209773Y0080938D01*
X0209773Y0081417D02*
X0214093Y0081417D01*
X0214093Y0081896D02*
X0209773Y0081896D01*
X0209773Y0082375D02*
X0214093Y0082375D01*
X0214093Y0082854D02*
X0209773Y0082854D01*
X0209773Y0083333D02*
X0214093Y0083333D01*
X0214093Y0083812D02*
X0209773Y0083812D01*
X0209773Y0084291D02*
X0214093Y0084291D01*
X0214093Y0084770D02*
X0209773Y0084770D01*
X0209773Y0085249D02*
X0214093Y0085249D01*
X0214093Y0085728D02*
X0209773Y0085728D01*
X0209773Y0086207D02*
X0214093Y0086207D01*
X0214093Y0086686D02*
X0209773Y0086686D01*
X0209773Y0087165D02*
X0214093Y0087165D01*
X0214093Y0087644D02*
X0209773Y0087644D01*
X0209773Y0088123D02*
X0214093Y0088123D01*
X0214093Y0088602D02*
X0209773Y0088602D01*
X0209773Y0089081D02*
X0214093Y0089081D01*
X0214093Y0089560D02*
X0209773Y0089560D01*
X0209773Y0090039D02*
X0214093Y0090039D01*
X0201899Y0090258D02*
X0201899Y0080938D01*
X0201899Y0090258D02*
X0206219Y0090258D01*
X0206219Y0080938D01*
X0201899Y0080938D01*
X0201899Y0081417D02*
X0206219Y0081417D01*
X0206219Y0081896D02*
X0201899Y0081896D01*
X0201899Y0082375D02*
X0206219Y0082375D01*
X0206219Y0082854D02*
X0201899Y0082854D01*
X0201899Y0083333D02*
X0206219Y0083333D01*
X0206219Y0083812D02*
X0201899Y0083812D01*
X0201899Y0084291D02*
X0206219Y0084291D01*
X0206219Y0084770D02*
X0201899Y0084770D01*
X0201899Y0085249D02*
X0206219Y0085249D01*
X0206219Y0085728D02*
X0201899Y0085728D01*
X0201899Y0086207D02*
X0206219Y0086207D01*
X0206219Y0086686D02*
X0201899Y0086686D01*
X0201899Y0087165D02*
X0206219Y0087165D01*
X0206219Y0087644D02*
X0201899Y0087644D01*
X0201899Y0088123D02*
X0206219Y0088123D01*
X0206219Y0088602D02*
X0201899Y0088602D01*
X0201899Y0089081D02*
X0206219Y0089081D01*
X0206219Y0089560D02*
X0201899Y0089560D01*
X0201899Y0090039D02*
X0206219Y0090039D01*
X0194025Y0090258D02*
X0194025Y0080938D01*
X0194025Y0090258D02*
X0198345Y0090258D01*
X0198345Y0080938D01*
X0194025Y0080938D01*
X0194025Y0081417D02*
X0198345Y0081417D01*
X0198345Y0081896D02*
X0194025Y0081896D01*
X0194025Y0082375D02*
X0198345Y0082375D01*
X0198345Y0082854D02*
X0194025Y0082854D01*
X0194025Y0083333D02*
X0198345Y0083333D01*
X0198345Y0083812D02*
X0194025Y0083812D01*
X0194025Y0084291D02*
X0198345Y0084291D01*
X0198345Y0084770D02*
X0194025Y0084770D01*
X0194025Y0085249D02*
X0198345Y0085249D01*
X0198345Y0085728D02*
X0194025Y0085728D01*
X0194025Y0086207D02*
X0198345Y0086207D01*
X0198345Y0086686D02*
X0194025Y0086686D01*
X0194025Y0087165D02*
X0198345Y0087165D01*
X0198345Y0087644D02*
X0194025Y0087644D01*
X0194025Y0088123D02*
X0198345Y0088123D01*
X0198345Y0088602D02*
X0194025Y0088602D01*
X0194025Y0089081D02*
X0198345Y0089081D01*
X0198345Y0089560D02*
X0194025Y0089560D01*
X0194025Y0090039D02*
X0198345Y0090039D01*
X0186151Y0090258D02*
X0186151Y0080938D01*
X0186151Y0090258D02*
X0190471Y0090258D01*
X0190471Y0080938D01*
X0186151Y0080938D01*
X0186151Y0081417D02*
X0190471Y0081417D01*
X0190471Y0081896D02*
X0186151Y0081896D01*
X0186151Y0082375D02*
X0190471Y0082375D01*
X0190471Y0082854D02*
X0186151Y0082854D01*
X0186151Y0083333D02*
X0190471Y0083333D01*
X0190471Y0083812D02*
X0186151Y0083812D01*
X0186151Y0084291D02*
X0190471Y0084291D01*
X0190471Y0084770D02*
X0186151Y0084770D01*
X0186151Y0085249D02*
X0190471Y0085249D01*
X0190471Y0085728D02*
X0186151Y0085728D01*
X0186151Y0086207D02*
X0190471Y0086207D01*
X0190471Y0086686D02*
X0186151Y0086686D01*
X0186151Y0087165D02*
X0190471Y0087165D01*
X0190471Y0087644D02*
X0186151Y0087644D01*
X0186151Y0088123D02*
X0190471Y0088123D01*
X0190471Y0088602D02*
X0186151Y0088602D01*
X0186151Y0089081D02*
X0190471Y0089081D01*
X0190471Y0089560D02*
X0186151Y0089560D01*
X0186151Y0090039D02*
X0190471Y0090039D01*
X0178277Y0090258D02*
X0178277Y0080938D01*
X0178277Y0090258D02*
X0182597Y0090258D01*
X0182597Y0080938D01*
X0178277Y0080938D01*
X0178277Y0081417D02*
X0182597Y0081417D01*
X0182597Y0081896D02*
X0178277Y0081896D01*
X0178277Y0082375D02*
X0182597Y0082375D01*
X0182597Y0082854D02*
X0178277Y0082854D01*
X0178277Y0083333D02*
X0182597Y0083333D01*
X0182597Y0083812D02*
X0178277Y0083812D01*
X0178277Y0084291D02*
X0182597Y0084291D01*
X0182597Y0084770D02*
X0178277Y0084770D01*
X0178277Y0085249D02*
X0182597Y0085249D01*
X0182597Y0085728D02*
X0178277Y0085728D01*
X0178277Y0086207D02*
X0182597Y0086207D01*
X0182597Y0086686D02*
X0178277Y0086686D01*
X0178277Y0087165D02*
X0182597Y0087165D01*
X0182597Y0087644D02*
X0178277Y0087644D01*
X0178277Y0088123D02*
X0182597Y0088123D01*
X0182597Y0088602D02*
X0178277Y0088602D01*
X0178277Y0089081D02*
X0182597Y0089081D01*
X0182597Y0089560D02*
X0178277Y0089560D01*
X0178277Y0090039D02*
X0182597Y0090039D01*
X0170403Y0090258D02*
X0170403Y0080938D01*
X0170403Y0090258D02*
X0174723Y0090258D01*
X0174723Y0080938D01*
X0170403Y0080938D01*
X0170403Y0081417D02*
X0174723Y0081417D01*
X0174723Y0081896D02*
X0170403Y0081896D01*
X0170403Y0082375D02*
X0174723Y0082375D01*
X0174723Y0082854D02*
X0170403Y0082854D01*
X0170403Y0083333D02*
X0174723Y0083333D01*
X0174723Y0083812D02*
X0170403Y0083812D01*
X0170403Y0084291D02*
X0174723Y0084291D01*
X0174723Y0084770D02*
X0170403Y0084770D01*
X0170403Y0085249D02*
X0174723Y0085249D01*
X0174723Y0085728D02*
X0170403Y0085728D01*
X0170403Y0086207D02*
X0174723Y0086207D01*
X0174723Y0086686D02*
X0170403Y0086686D01*
X0170403Y0087165D02*
X0174723Y0087165D01*
X0174723Y0087644D02*
X0170403Y0087644D01*
X0170403Y0088123D02*
X0174723Y0088123D01*
X0174723Y0088602D02*
X0170403Y0088602D01*
X0170403Y0089081D02*
X0174723Y0089081D01*
X0174723Y0089560D02*
X0170403Y0089560D01*
X0170403Y0090039D02*
X0174723Y0090039D01*
D20*
X0117985Y0106672D02*
X0117985Y0110390D01*
X0117985Y0106672D02*
X0110723Y0106672D01*
X0110723Y0110390D01*
X0117985Y0110390D01*
X0117985Y0107084D02*
X0110723Y0107084D01*
X0110723Y0107496D02*
X0117985Y0107496D01*
X0117985Y0107908D02*
X0110723Y0107908D01*
X0110723Y0108320D02*
X0117985Y0108320D01*
X0117985Y0108732D02*
X0110723Y0108732D01*
X0110723Y0109144D02*
X0117985Y0109144D01*
X0117985Y0109556D02*
X0110723Y0109556D01*
X0110723Y0109968D02*
X0117985Y0109968D01*
X0117985Y0110380D02*
X0110723Y0110380D01*
X0117985Y0116672D02*
X0117985Y0120390D01*
X0117985Y0116672D02*
X0110723Y0116672D01*
X0110723Y0120390D01*
X0117985Y0120390D01*
X0117985Y0117084D02*
X0110723Y0117084D01*
X0110723Y0117496D02*
X0117985Y0117496D01*
X0117985Y0117908D02*
X0110723Y0117908D01*
X0110723Y0118320D02*
X0117985Y0118320D01*
X0117985Y0118732D02*
X0110723Y0118732D01*
X0110723Y0119144D02*
X0117985Y0119144D01*
X0117985Y0119556D02*
X0110723Y0119556D01*
X0110723Y0119968D02*
X0117985Y0119968D01*
X0117985Y0120380D02*
X0110723Y0120380D01*
X0075960Y0120390D02*
X0075960Y0116672D01*
X0075960Y0120390D02*
X0083222Y0120390D01*
X0083222Y0116672D01*
X0075960Y0116672D01*
X0075960Y0117084D02*
X0083222Y0117084D01*
X0083222Y0117496D02*
X0075960Y0117496D01*
X0075960Y0117908D02*
X0083222Y0117908D01*
X0083222Y0118320D02*
X0075960Y0118320D01*
X0075960Y0118732D02*
X0083222Y0118732D01*
X0083222Y0119144D02*
X0075960Y0119144D01*
X0075960Y0119556D02*
X0083222Y0119556D01*
X0083222Y0119968D02*
X0075960Y0119968D01*
X0075960Y0120380D02*
X0083222Y0120380D01*
X0075960Y0110390D02*
X0075960Y0106672D01*
X0075960Y0110390D02*
X0083222Y0110390D01*
X0083222Y0106672D01*
X0075960Y0106672D01*
X0075960Y0107084D02*
X0083222Y0107084D01*
X0083222Y0107496D02*
X0075960Y0107496D01*
X0075960Y0107908D02*
X0083222Y0107908D01*
X0083222Y0108320D02*
X0075960Y0108320D01*
X0075960Y0108732D02*
X0083222Y0108732D01*
X0083222Y0109144D02*
X0075960Y0109144D01*
X0075960Y0109556D02*
X0083222Y0109556D01*
X0083222Y0109968D02*
X0075960Y0109968D01*
X0075960Y0110380D02*
X0083222Y0110380D01*
D21*
X0072350Y0095665D02*
X0072350Y0088972D01*
X0070579Y0087201D01*
X0068020Y0087201D01*
X0068020Y0095665D01*
X0072350Y0095665D01*
X0072350Y0095391D02*
X0068020Y0095391D01*
X0068020Y0094893D02*
X0072350Y0094893D01*
X0072350Y0094394D02*
X0068020Y0094394D01*
X0068020Y0093896D02*
X0072350Y0093896D01*
X0072350Y0093397D02*
X0068020Y0093397D01*
X0068020Y0092899D02*
X0072350Y0092899D01*
X0072350Y0092400D02*
X0068020Y0092400D01*
X0068020Y0091902D02*
X0072350Y0091902D01*
X0072350Y0091403D02*
X0068020Y0091403D01*
X0068020Y0090905D02*
X0072350Y0090905D01*
X0072350Y0090406D02*
X0068020Y0090406D01*
X0068020Y0089908D02*
X0072350Y0089908D01*
X0072350Y0089409D02*
X0068020Y0089409D01*
X0068020Y0088911D02*
X0072289Y0088911D01*
X0071790Y0088412D02*
X0068020Y0088412D01*
X0068020Y0087914D02*
X0071292Y0087914D01*
X0070793Y0087415D02*
X0068020Y0087415D01*
D22*
X0144767Y0057768D02*
X0145603Y0057768D01*
X0145603Y0056932D01*
X0144767Y0056932D01*
X0144767Y0057768D01*
X0144767Y0057273D02*
X0145603Y0057273D01*
X0145603Y0057614D02*
X0144767Y0057614D01*
M02*
