G75*
%MOIN*%
%OFA0B0*%
%FSLAX25Y25*%
%IPPOS*%
%LPD*%
%AMOC8*
5,1,8,0,0,1.08239X$1,22.5*
%
%ADD10C,0.00394*%
%ADD11C,0.00000*%
D10*
X0025122Y0048531D02*
X0230240Y0048531D01*
X0230364Y0048533D01*
X0230487Y0048539D01*
X0230611Y0048548D01*
X0230733Y0048562D01*
X0230856Y0048579D01*
X0230978Y0048601D01*
X0231099Y0048626D01*
X0231219Y0048655D01*
X0231338Y0048687D01*
X0231457Y0048724D01*
X0231574Y0048764D01*
X0231689Y0048807D01*
X0231804Y0048855D01*
X0231916Y0048906D01*
X0232027Y0048960D01*
X0232137Y0049018D01*
X0232244Y0049079D01*
X0232350Y0049144D01*
X0232453Y0049212D01*
X0232554Y0049283D01*
X0232653Y0049357D01*
X0232750Y0049434D01*
X0232844Y0049515D01*
X0232935Y0049598D01*
X0233024Y0049684D01*
X0233110Y0049773D01*
X0233193Y0049864D01*
X0233274Y0049958D01*
X0233351Y0050055D01*
X0233425Y0050154D01*
X0233496Y0050255D01*
X0233564Y0050358D01*
X0233629Y0050464D01*
X0233690Y0050571D01*
X0233748Y0050681D01*
X0233802Y0050792D01*
X0233853Y0050904D01*
X0233901Y0051019D01*
X0233944Y0051134D01*
X0233984Y0051251D01*
X0234021Y0051370D01*
X0234053Y0051489D01*
X0234082Y0051609D01*
X0234107Y0051730D01*
X0234129Y0051852D01*
X0234146Y0051975D01*
X0234160Y0052097D01*
X0234169Y0052221D01*
X0234175Y0052344D01*
X0234177Y0052468D01*
X0234177Y0296563D01*
X0234175Y0296687D01*
X0234169Y0296810D01*
X0234160Y0296934D01*
X0234146Y0297056D01*
X0234129Y0297179D01*
X0234107Y0297301D01*
X0234082Y0297422D01*
X0234053Y0297542D01*
X0234021Y0297661D01*
X0233984Y0297780D01*
X0233944Y0297897D01*
X0233901Y0298012D01*
X0233853Y0298127D01*
X0233802Y0298239D01*
X0233748Y0298350D01*
X0233690Y0298460D01*
X0233629Y0298567D01*
X0233564Y0298673D01*
X0233496Y0298776D01*
X0233425Y0298877D01*
X0233351Y0298976D01*
X0233274Y0299073D01*
X0233193Y0299167D01*
X0233110Y0299258D01*
X0233024Y0299347D01*
X0232935Y0299433D01*
X0232844Y0299516D01*
X0232750Y0299597D01*
X0232653Y0299674D01*
X0232554Y0299748D01*
X0232453Y0299819D01*
X0232350Y0299887D01*
X0232244Y0299952D01*
X0232137Y0300013D01*
X0232027Y0300071D01*
X0231916Y0300125D01*
X0231804Y0300176D01*
X0231689Y0300224D01*
X0231574Y0300267D01*
X0231457Y0300307D01*
X0231338Y0300344D01*
X0231219Y0300376D01*
X0231099Y0300405D01*
X0230978Y0300430D01*
X0230856Y0300452D01*
X0230733Y0300469D01*
X0230611Y0300483D01*
X0230487Y0300492D01*
X0230364Y0300498D01*
X0230240Y0300500D01*
X0025122Y0300500D01*
X0024998Y0300498D01*
X0024875Y0300492D01*
X0024751Y0300483D01*
X0024629Y0300469D01*
X0024506Y0300452D01*
X0024384Y0300430D01*
X0024263Y0300405D01*
X0024143Y0300376D01*
X0024024Y0300344D01*
X0023905Y0300307D01*
X0023788Y0300267D01*
X0023673Y0300224D01*
X0023558Y0300176D01*
X0023446Y0300125D01*
X0023335Y0300071D01*
X0023225Y0300013D01*
X0023118Y0299952D01*
X0023012Y0299887D01*
X0022909Y0299819D01*
X0022808Y0299748D01*
X0022709Y0299674D01*
X0022612Y0299597D01*
X0022518Y0299516D01*
X0022427Y0299433D01*
X0022338Y0299347D01*
X0022252Y0299258D01*
X0022169Y0299167D01*
X0022088Y0299073D01*
X0022011Y0298976D01*
X0021937Y0298877D01*
X0021866Y0298776D01*
X0021798Y0298673D01*
X0021733Y0298567D01*
X0021672Y0298460D01*
X0021614Y0298350D01*
X0021560Y0298239D01*
X0021509Y0298127D01*
X0021461Y0298012D01*
X0021418Y0297897D01*
X0021378Y0297780D01*
X0021341Y0297661D01*
X0021309Y0297542D01*
X0021280Y0297422D01*
X0021255Y0297301D01*
X0021233Y0297179D01*
X0021216Y0297056D01*
X0021202Y0296934D01*
X0021193Y0296810D01*
X0021187Y0296687D01*
X0021185Y0296563D01*
X0021185Y0052468D01*
X0021187Y0052344D01*
X0021193Y0052221D01*
X0021202Y0052097D01*
X0021216Y0051975D01*
X0021233Y0051852D01*
X0021255Y0051730D01*
X0021280Y0051609D01*
X0021309Y0051489D01*
X0021341Y0051370D01*
X0021378Y0051251D01*
X0021418Y0051134D01*
X0021461Y0051019D01*
X0021509Y0050904D01*
X0021560Y0050792D01*
X0021614Y0050681D01*
X0021672Y0050571D01*
X0021733Y0050464D01*
X0021798Y0050358D01*
X0021866Y0050255D01*
X0021937Y0050154D01*
X0022011Y0050055D01*
X0022088Y0049958D01*
X0022169Y0049864D01*
X0022252Y0049773D01*
X0022338Y0049684D01*
X0022427Y0049598D01*
X0022518Y0049515D01*
X0022612Y0049434D01*
X0022709Y0049357D01*
X0022808Y0049283D01*
X0022909Y0049212D01*
X0023012Y0049144D01*
X0023118Y0049079D01*
X0023225Y0049018D01*
X0023335Y0048960D01*
X0023446Y0048906D01*
X0023558Y0048855D01*
X0023673Y0048807D01*
X0023788Y0048764D01*
X0023905Y0048724D01*
X0024024Y0048687D01*
X0024143Y0048655D01*
X0024263Y0048626D01*
X0024384Y0048601D01*
X0024506Y0048579D01*
X0024629Y0048562D01*
X0024751Y0048548D01*
X0024875Y0048539D01*
X0024998Y0048533D01*
X0025122Y0048531D01*
D11*
X0026303Y0057193D02*
X0026305Y0057341D01*
X0026311Y0057489D01*
X0026321Y0057637D01*
X0026335Y0057784D01*
X0026353Y0057931D01*
X0026374Y0058077D01*
X0026400Y0058223D01*
X0026430Y0058368D01*
X0026463Y0058512D01*
X0026501Y0058655D01*
X0026542Y0058797D01*
X0026587Y0058938D01*
X0026635Y0059078D01*
X0026688Y0059217D01*
X0026744Y0059354D01*
X0026804Y0059489D01*
X0026867Y0059623D01*
X0026934Y0059755D01*
X0027005Y0059885D01*
X0027079Y0060013D01*
X0027156Y0060139D01*
X0027237Y0060263D01*
X0027321Y0060385D01*
X0027408Y0060504D01*
X0027499Y0060621D01*
X0027593Y0060736D01*
X0027689Y0060848D01*
X0027789Y0060958D01*
X0027891Y0061064D01*
X0027997Y0061168D01*
X0028105Y0061269D01*
X0028216Y0061367D01*
X0028329Y0061463D01*
X0028445Y0061555D01*
X0028563Y0061644D01*
X0028684Y0061729D01*
X0028807Y0061812D01*
X0028932Y0061891D01*
X0029059Y0061967D01*
X0029188Y0062039D01*
X0029319Y0062108D01*
X0029452Y0062173D01*
X0029587Y0062234D01*
X0029723Y0062292D01*
X0029860Y0062347D01*
X0029999Y0062397D01*
X0030140Y0062444D01*
X0030281Y0062487D01*
X0030424Y0062527D01*
X0030568Y0062562D01*
X0030712Y0062594D01*
X0030858Y0062621D01*
X0031004Y0062645D01*
X0031151Y0062665D01*
X0031298Y0062681D01*
X0031445Y0062693D01*
X0031593Y0062701D01*
X0031741Y0062705D01*
X0031889Y0062705D01*
X0032037Y0062701D01*
X0032185Y0062693D01*
X0032332Y0062681D01*
X0032479Y0062665D01*
X0032626Y0062645D01*
X0032772Y0062621D01*
X0032918Y0062594D01*
X0033062Y0062562D01*
X0033206Y0062527D01*
X0033349Y0062487D01*
X0033490Y0062444D01*
X0033631Y0062397D01*
X0033770Y0062347D01*
X0033907Y0062292D01*
X0034043Y0062234D01*
X0034178Y0062173D01*
X0034311Y0062108D01*
X0034442Y0062039D01*
X0034571Y0061967D01*
X0034698Y0061891D01*
X0034823Y0061812D01*
X0034946Y0061729D01*
X0035067Y0061644D01*
X0035185Y0061555D01*
X0035301Y0061463D01*
X0035414Y0061367D01*
X0035525Y0061269D01*
X0035633Y0061168D01*
X0035739Y0061064D01*
X0035841Y0060958D01*
X0035941Y0060848D01*
X0036037Y0060736D01*
X0036131Y0060621D01*
X0036222Y0060504D01*
X0036309Y0060385D01*
X0036393Y0060263D01*
X0036474Y0060139D01*
X0036551Y0060013D01*
X0036625Y0059885D01*
X0036696Y0059755D01*
X0036763Y0059623D01*
X0036826Y0059489D01*
X0036886Y0059354D01*
X0036942Y0059217D01*
X0036995Y0059078D01*
X0037043Y0058938D01*
X0037088Y0058797D01*
X0037129Y0058655D01*
X0037167Y0058512D01*
X0037200Y0058368D01*
X0037230Y0058223D01*
X0037256Y0058077D01*
X0037277Y0057931D01*
X0037295Y0057784D01*
X0037309Y0057637D01*
X0037319Y0057489D01*
X0037325Y0057341D01*
X0037327Y0057193D01*
X0037325Y0057045D01*
X0037319Y0056897D01*
X0037309Y0056749D01*
X0037295Y0056602D01*
X0037277Y0056455D01*
X0037256Y0056309D01*
X0037230Y0056163D01*
X0037200Y0056018D01*
X0037167Y0055874D01*
X0037129Y0055731D01*
X0037088Y0055589D01*
X0037043Y0055448D01*
X0036995Y0055308D01*
X0036942Y0055169D01*
X0036886Y0055032D01*
X0036826Y0054897D01*
X0036763Y0054763D01*
X0036696Y0054631D01*
X0036625Y0054501D01*
X0036551Y0054373D01*
X0036474Y0054247D01*
X0036393Y0054123D01*
X0036309Y0054001D01*
X0036222Y0053882D01*
X0036131Y0053765D01*
X0036037Y0053650D01*
X0035941Y0053538D01*
X0035841Y0053428D01*
X0035739Y0053322D01*
X0035633Y0053218D01*
X0035525Y0053117D01*
X0035414Y0053019D01*
X0035301Y0052923D01*
X0035185Y0052831D01*
X0035067Y0052742D01*
X0034946Y0052657D01*
X0034823Y0052574D01*
X0034698Y0052495D01*
X0034571Y0052419D01*
X0034442Y0052347D01*
X0034311Y0052278D01*
X0034178Y0052213D01*
X0034043Y0052152D01*
X0033907Y0052094D01*
X0033770Y0052039D01*
X0033631Y0051989D01*
X0033490Y0051942D01*
X0033349Y0051899D01*
X0033206Y0051859D01*
X0033062Y0051824D01*
X0032918Y0051792D01*
X0032772Y0051765D01*
X0032626Y0051741D01*
X0032479Y0051721D01*
X0032332Y0051705D01*
X0032185Y0051693D01*
X0032037Y0051685D01*
X0031889Y0051681D01*
X0031741Y0051681D01*
X0031593Y0051685D01*
X0031445Y0051693D01*
X0031298Y0051705D01*
X0031151Y0051721D01*
X0031004Y0051741D01*
X0030858Y0051765D01*
X0030712Y0051792D01*
X0030568Y0051824D01*
X0030424Y0051859D01*
X0030281Y0051899D01*
X0030140Y0051942D01*
X0029999Y0051989D01*
X0029860Y0052039D01*
X0029723Y0052094D01*
X0029587Y0052152D01*
X0029452Y0052213D01*
X0029319Y0052278D01*
X0029188Y0052347D01*
X0029059Y0052419D01*
X0028932Y0052495D01*
X0028807Y0052574D01*
X0028684Y0052657D01*
X0028563Y0052742D01*
X0028445Y0052831D01*
X0028329Y0052923D01*
X0028216Y0053019D01*
X0028105Y0053117D01*
X0027997Y0053218D01*
X0027891Y0053322D01*
X0027789Y0053428D01*
X0027689Y0053538D01*
X0027593Y0053650D01*
X0027499Y0053765D01*
X0027408Y0053882D01*
X0027321Y0054001D01*
X0027237Y0054123D01*
X0027156Y0054247D01*
X0027079Y0054373D01*
X0027005Y0054501D01*
X0026934Y0054631D01*
X0026867Y0054763D01*
X0026804Y0054897D01*
X0026744Y0055032D01*
X0026688Y0055169D01*
X0026635Y0055308D01*
X0026587Y0055448D01*
X0026542Y0055589D01*
X0026501Y0055731D01*
X0026463Y0055874D01*
X0026430Y0056018D01*
X0026400Y0056163D01*
X0026374Y0056309D01*
X0026353Y0056455D01*
X0026335Y0056602D01*
X0026321Y0056749D01*
X0026311Y0056897D01*
X0026305Y0057045D01*
X0026303Y0057193D01*
X0140752Y0280559D02*
X0140754Y0280643D01*
X0140760Y0280726D01*
X0140770Y0280809D01*
X0140784Y0280892D01*
X0140801Y0280974D01*
X0140823Y0281055D01*
X0140848Y0281134D01*
X0140877Y0281213D01*
X0140910Y0281290D01*
X0140946Y0281365D01*
X0140986Y0281439D01*
X0141029Y0281511D01*
X0141076Y0281580D01*
X0141126Y0281647D01*
X0141179Y0281712D01*
X0141235Y0281774D01*
X0141293Y0281834D01*
X0141355Y0281891D01*
X0141419Y0281944D01*
X0141486Y0281995D01*
X0141555Y0282042D01*
X0141626Y0282087D01*
X0141699Y0282127D01*
X0141774Y0282164D01*
X0141851Y0282198D01*
X0141929Y0282228D01*
X0142008Y0282254D01*
X0142089Y0282277D01*
X0142171Y0282295D01*
X0142253Y0282310D01*
X0142336Y0282321D01*
X0142419Y0282328D01*
X0142503Y0282331D01*
X0142587Y0282330D01*
X0142670Y0282325D01*
X0142754Y0282316D01*
X0142836Y0282303D01*
X0142918Y0282287D01*
X0142999Y0282266D01*
X0143080Y0282242D01*
X0143158Y0282214D01*
X0143236Y0282182D01*
X0143312Y0282146D01*
X0143386Y0282107D01*
X0143458Y0282065D01*
X0143528Y0282019D01*
X0143596Y0281970D01*
X0143661Y0281918D01*
X0143724Y0281863D01*
X0143784Y0281805D01*
X0143842Y0281744D01*
X0143896Y0281680D01*
X0143948Y0281614D01*
X0143996Y0281546D01*
X0144041Y0281475D01*
X0144082Y0281402D01*
X0144121Y0281328D01*
X0144155Y0281252D01*
X0144186Y0281174D01*
X0144213Y0281095D01*
X0144237Y0281014D01*
X0144256Y0280933D01*
X0144272Y0280851D01*
X0144284Y0280768D01*
X0144292Y0280684D01*
X0144296Y0280601D01*
X0144296Y0280517D01*
X0144292Y0280434D01*
X0144284Y0280350D01*
X0144272Y0280267D01*
X0144256Y0280185D01*
X0144237Y0280104D01*
X0144213Y0280023D01*
X0144186Y0279944D01*
X0144155Y0279866D01*
X0144121Y0279790D01*
X0144082Y0279716D01*
X0144041Y0279643D01*
X0143996Y0279572D01*
X0143948Y0279504D01*
X0143896Y0279438D01*
X0143842Y0279374D01*
X0143784Y0279313D01*
X0143724Y0279255D01*
X0143661Y0279200D01*
X0143596Y0279148D01*
X0143528Y0279099D01*
X0143458Y0279053D01*
X0143386Y0279011D01*
X0143312Y0278972D01*
X0143236Y0278936D01*
X0143158Y0278904D01*
X0143080Y0278876D01*
X0142999Y0278852D01*
X0142918Y0278831D01*
X0142836Y0278815D01*
X0142754Y0278802D01*
X0142670Y0278793D01*
X0142587Y0278788D01*
X0142503Y0278787D01*
X0142419Y0278790D01*
X0142336Y0278797D01*
X0142253Y0278808D01*
X0142171Y0278823D01*
X0142089Y0278841D01*
X0142008Y0278864D01*
X0141929Y0278890D01*
X0141851Y0278920D01*
X0141774Y0278954D01*
X0141699Y0278991D01*
X0141626Y0279031D01*
X0141555Y0279076D01*
X0141486Y0279123D01*
X0141419Y0279174D01*
X0141355Y0279227D01*
X0141293Y0279284D01*
X0141235Y0279344D01*
X0141179Y0279406D01*
X0141126Y0279471D01*
X0141076Y0279538D01*
X0141029Y0279607D01*
X0140986Y0279679D01*
X0140946Y0279753D01*
X0140910Y0279828D01*
X0140877Y0279905D01*
X0140848Y0279984D01*
X0140823Y0280063D01*
X0140801Y0280144D01*
X0140784Y0280226D01*
X0140770Y0280309D01*
X0140760Y0280392D01*
X0140754Y0280475D01*
X0140752Y0280559D01*
X0158074Y0280559D02*
X0158076Y0280643D01*
X0158082Y0280726D01*
X0158092Y0280809D01*
X0158106Y0280892D01*
X0158123Y0280974D01*
X0158145Y0281055D01*
X0158170Y0281134D01*
X0158199Y0281213D01*
X0158232Y0281290D01*
X0158268Y0281365D01*
X0158308Y0281439D01*
X0158351Y0281511D01*
X0158398Y0281580D01*
X0158448Y0281647D01*
X0158501Y0281712D01*
X0158557Y0281774D01*
X0158615Y0281834D01*
X0158677Y0281891D01*
X0158741Y0281944D01*
X0158808Y0281995D01*
X0158877Y0282042D01*
X0158948Y0282087D01*
X0159021Y0282127D01*
X0159096Y0282164D01*
X0159173Y0282198D01*
X0159251Y0282228D01*
X0159330Y0282254D01*
X0159411Y0282277D01*
X0159493Y0282295D01*
X0159575Y0282310D01*
X0159658Y0282321D01*
X0159741Y0282328D01*
X0159825Y0282331D01*
X0159909Y0282330D01*
X0159992Y0282325D01*
X0160076Y0282316D01*
X0160158Y0282303D01*
X0160240Y0282287D01*
X0160321Y0282266D01*
X0160402Y0282242D01*
X0160480Y0282214D01*
X0160558Y0282182D01*
X0160634Y0282146D01*
X0160708Y0282107D01*
X0160780Y0282065D01*
X0160850Y0282019D01*
X0160918Y0281970D01*
X0160983Y0281918D01*
X0161046Y0281863D01*
X0161106Y0281805D01*
X0161164Y0281744D01*
X0161218Y0281680D01*
X0161270Y0281614D01*
X0161318Y0281546D01*
X0161363Y0281475D01*
X0161404Y0281402D01*
X0161443Y0281328D01*
X0161477Y0281252D01*
X0161508Y0281174D01*
X0161535Y0281095D01*
X0161559Y0281014D01*
X0161578Y0280933D01*
X0161594Y0280851D01*
X0161606Y0280768D01*
X0161614Y0280684D01*
X0161618Y0280601D01*
X0161618Y0280517D01*
X0161614Y0280434D01*
X0161606Y0280350D01*
X0161594Y0280267D01*
X0161578Y0280185D01*
X0161559Y0280104D01*
X0161535Y0280023D01*
X0161508Y0279944D01*
X0161477Y0279866D01*
X0161443Y0279790D01*
X0161404Y0279716D01*
X0161363Y0279643D01*
X0161318Y0279572D01*
X0161270Y0279504D01*
X0161218Y0279438D01*
X0161164Y0279374D01*
X0161106Y0279313D01*
X0161046Y0279255D01*
X0160983Y0279200D01*
X0160918Y0279148D01*
X0160850Y0279099D01*
X0160780Y0279053D01*
X0160708Y0279011D01*
X0160634Y0278972D01*
X0160558Y0278936D01*
X0160480Y0278904D01*
X0160402Y0278876D01*
X0160321Y0278852D01*
X0160240Y0278831D01*
X0160158Y0278815D01*
X0160076Y0278802D01*
X0159992Y0278793D01*
X0159909Y0278788D01*
X0159825Y0278787D01*
X0159741Y0278790D01*
X0159658Y0278797D01*
X0159575Y0278808D01*
X0159493Y0278823D01*
X0159411Y0278841D01*
X0159330Y0278864D01*
X0159251Y0278890D01*
X0159173Y0278920D01*
X0159096Y0278954D01*
X0159021Y0278991D01*
X0158948Y0279031D01*
X0158877Y0279076D01*
X0158808Y0279123D01*
X0158741Y0279174D01*
X0158677Y0279227D01*
X0158615Y0279284D01*
X0158557Y0279344D01*
X0158501Y0279406D01*
X0158448Y0279471D01*
X0158398Y0279538D01*
X0158351Y0279607D01*
X0158308Y0279679D01*
X0158268Y0279753D01*
X0158232Y0279828D01*
X0158199Y0279905D01*
X0158170Y0279984D01*
X0158145Y0280063D01*
X0158123Y0280144D01*
X0158106Y0280226D01*
X0158092Y0280309D01*
X0158082Y0280392D01*
X0158076Y0280475D01*
X0158074Y0280559D01*
X0220265Y0242970D02*
X0220267Y0243058D01*
X0220273Y0243146D01*
X0220283Y0243234D01*
X0220297Y0243322D01*
X0220314Y0243408D01*
X0220336Y0243494D01*
X0220361Y0243578D01*
X0220391Y0243662D01*
X0220423Y0243744D01*
X0220460Y0243824D01*
X0220500Y0243903D01*
X0220544Y0243980D01*
X0220591Y0244055D01*
X0220641Y0244127D01*
X0220695Y0244198D01*
X0220751Y0244265D01*
X0220811Y0244331D01*
X0220873Y0244393D01*
X0220939Y0244453D01*
X0221006Y0244509D01*
X0221077Y0244563D01*
X0221149Y0244613D01*
X0221224Y0244660D01*
X0221301Y0244704D01*
X0221380Y0244744D01*
X0221460Y0244781D01*
X0221542Y0244813D01*
X0221626Y0244843D01*
X0221710Y0244868D01*
X0221796Y0244890D01*
X0221882Y0244907D01*
X0221970Y0244921D01*
X0222058Y0244931D01*
X0222146Y0244937D01*
X0222234Y0244939D01*
X0222322Y0244937D01*
X0222410Y0244931D01*
X0222498Y0244921D01*
X0222586Y0244907D01*
X0222672Y0244890D01*
X0222758Y0244868D01*
X0222842Y0244843D01*
X0222926Y0244813D01*
X0223008Y0244781D01*
X0223088Y0244744D01*
X0223167Y0244704D01*
X0223244Y0244660D01*
X0223319Y0244613D01*
X0223391Y0244563D01*
X0223462Y0244509D01*
X0223529Y0244453D01*
X0223595Y0244393D01*
X0223657Y0244331D01*
X0223717Y0244265D01*
X0223773Y0244198D01*
X0223827Y0244127D01*
X0223877Y0244055D01*
X0223924Y0243980D01*
X0223968Y0243903D01*
X0224008Y0243824D01*
X0224045Y0243744D01*
X0224077Y0243662D01*
X0224107Y0243578D01*
X0224132Y0243494D01*
X0224154Y0243408D01*
X0224171Y0243322D01*
X0224185Y0243234D01*
X0224195Y0243146D01*
X0224201Y0243058D01*
X0224203Y0242970D01*
X0224201Y0242882D01*
X0224195Y0242794D01*
X0224185Y0242706D01*
X0224171Y0242618D01*
X0224154Y0242532D01*
X0224132Y0242446D01*
X0224107Y0242362D01*
X0224077Y0242278D01*
X0224045Y0242196D01*
X0224008Y0242116D01*
X0223968Y0242037D01*
X0223924Y0241960D01*
X0223877Y0241885D01*
X0223827Y0241813D01*
X0223773Y0241742D01*
X0223717Y0241675D01*
X0223657Y0241609D01*
X0223595Y0241547D01*
X0223529Y0241487D01*
X0223462Y0241431D01*
X0223391Y0241377D01*
X0223319Y0241327D01*
X0223244Y0241280D01*
X0223167Y0241236D01*
X0223088Y0241196D01*
X0223008Y0241159D01*
X0222926Y0241127D01*
X0222842Y0241097D01*
X0222758Y0241072D01*
X0222672Y0241050D01*
X0222586Y0241033D01*
X0222498Y0241019D01*
X0222410Y0241009D01*
X0222322Y0241003D01*
X0222234Y0241001D01*
X0222146Y0241003D01*
X0222058Y0241009D01*
X0221970Y0241019D01*
X0221882Y0241033D01*
X0221796Y0241050D01*
X0221710Y0241072D01*
X0221626Y0241097D01*
X0221542Y0241127D01*
X0221460Y0241159D01*
X0221380Y0241196D01*
X0221301Y0241236D01*
X0221224Y0241280D01*
X0221149Y0241327D01*
X0221077Y0241377D01*
X0221006Y0241431D01*
X0220939Y0241487D01*
X0220873Y0241547D01*
X0220811Y0241609D01*
X0220751Y0241675D01*
X0220695Y0241742D01*
X0220641Y0241813D01*
X0220591Y0241885D01*
X0220544Y0241960D01*
X0220500Y0242037D01*
X0220460Y0242116D01*
X0220423Y0242196D01*
X0220391Y0242278D01*
X0220361Y0242362D01*
X0220336Y0242446D01*
X0220314Y0242532D01*
X0220297Y0242618D01*
X0220283Y0242706D01*
X0220273Y0242794D01*
X0220267Y0242882D01*
X0220265Y0242970D01*
X0218035Y0291445D02*
X0218037Y0291593D01*
X0218043Y0291741D01*
X0218053Y0291889D01*
X0218067Y0292036D01*
X0218085Y0292183D01*
X0218106Y0292329D01*
X0218132Y0292475D01*
X0218162Y0292620D01*
X0218195Y0292764D01*
X0218233Y0292907D01*
X0218274Y0293049D01*
X0218319Y0293190D01*
X0218367Y0293330D01*
X0218420Y0293469D01*
X0218476Y0293606D01*
X0218536Y0293741D01*
X0218599Y0293875D01*
X0218666Y0294007D01*
X0218737Y0294137D01*
X0218811Y0294265D01*
X0218888Y0294391D01*
X0218969Y0294515D01*
X0219053Y0294637D01*
X0219140Y0294756D01*
X0219231Y0294873D01*
X0219325Y0294988D01*
X0219421Y0295100D01*
X0219521Y0295210D01*
X0219623Y0295316D01*
X0219729Y0295420D01*
X0219837Y0295521D01*
X0219948Y0295619D01*
X0220061Y0295715D01*
X0220177Y0295807D01*
X0220295Y0295896D01*
X0220416Y0295981D01*
X0220539Y0296064D01*
X0220664Y0296143D01*
X0220791Y0296219D01*
X0220920Y0296291D01*
X0221051Y0296360D01*
X0221184Y0296425D01*
X0221319Y0296486D01*
X0221455Y0296544D01*
X0221592Y0296599D01*
X0221731Y0296649D01*
X0221872Y0296696D01*
X0222013Y0296739D01*
X0222156Y0296779D01*
X0222300Y0296814D01*
X0222444Y0296846D01*
X0222590Y0296873D01*
X0222736Y0296897D01*
X0222883Y0296917D01*
X0223030Y0296933D01*
X0223177Y0296945D01*
X0223325Y0296953D01*
X0223473Y0296957D01*
X0223621Y0296957D01*
X0223769Y0296953D01*
X0223917Y0296945D01*
X0224064Y0296933D01*
X0224211Y0296917D01*
X0224358Y0296897D01*
X0224504Y0296873D01*
X0224650Y0296846D01*
X0224794Y0296814D01*
X0224938Y0296779D01*
X0225081Y0296739D01*
X0225222Y0296696D01*
X0225363Y0296649D01*
X0225502Y0296599D01*
X0225639Y0296544D01*
X0225775Y0296486D01*
X0225910Y0296425D01*
X0226043Y0296360D01*
X0226174Y0296291D01*
X0226303Y0296219D01*
X0226430Y0296143D01*
X0226555Y0296064D01*
X0226678Y0295981D01*
X0226799Y0295896D01*
X0226917Y0295807D01*
X0227033Y0295715D01*
X0227146Y0295619D01*
X0227257Y0295521D01*
X0227365Y0295420D01*
X0227471Y0295316D01*
X0227573Y0295210D01*
X0227673Y0295100D01*
X0227769Y0294988D01*
X0227863Y0294873D01*
X0227954Y0294756D01*
X0228041Y0294637D01*
X0228125Y0294515D01*
X0228206Y0294391D01*
X0228283Y0294265D01*
X0228357Y0294137D01*
X0228428Y0294007D01*
X0228495Y0293875D01*
X0228558Y0293741D01*
X0228618Y0293606D01*
X0228674Y0293469D01*
X0228727Y0293330D01*
X0228775Y0293190D01*
X0228820Y0293049D01*
X0228861Y0292907D01*
X0228899Y0292764D01*
X0228932Y0292620D01*
X0228962Y0292475D01*
X0228988Y0292329D01*
X0229009Y0292183D01*
X0229027Y0292036D01*
X0229041Y0291889D01*
X0229051Y0291741D01*
X0229057Y0291593D01*
X0229059Y0291445D01*
X0229057Y0291297D01*
X0229051Y0291149D01*
X0229041Y0291001D01*
X0229027Y0290854D01*
X0229009Y0290707D01*
X0228988Y0290561D01*
X0228962Y0290415D01*
X0228932Y0290270D01*
X0228899Y0290126D01*
X0228861Y0289983D01*
X0228820Y0289841D01*
X0228775Y0289700D01*
X0228727Y0289560D01*
X0228674Y0289421D01*
X0228618Y0289284D01*
X0228558Y0289149D01*
X0228495Y0289015D01*
X0228428Y0288883D01*
X0228357Y0288753D01*
X0228283Y0288625D01*
X0228206Y0288499D01*
X0228125Y0288375D01*
X0228041Y0288253D01*
X0227954Y0288134D01*
X0227863Y0288017D01*
X0227769Y0287902D01*
X0227673Y0287790D01*
X0227573Y0287680D01*
X0227471Y0287574D01*
X0227365Y0287470D01*
X0227257Y0287369D01*
X0227146Y0287271D01*
X0227033Y0287175D01*
X0226917Y0287083D01*
X0226799Y0286994D01*
X0226678Y0286909D01*
X0226555Y0286826D01*
X0226430Y0286747D01*
X0226303Y0286671D01*
X0226174Y0286599D01*
X0226043Y0286530D01*
X0225910Y0286465D01*
X0225775Y0286404D01*
X0225639Y0286346D01*
X0225502Y0286291D01*
X0225363Y0286241D01*
X0225222Y0286194D01*
X0225081Y0286151D01*
X0224938Y0286111D01*
X0224794Y0286076D01*
X0224650Y0286044D01*
X0224504Y0286017D01*
X0224358Y0285993D01*
X0224211Y0285973D01*
X0224064Y0285957D01*
X0223917Y0285945D01*
X0223769Y0285937D01*
X0223621Y0285933D01*
X0223473Y0285933D01*
X0223325Y0285937D01*
X0223177Y0285945D01*
X0223030Y0285957D01*
X0222883Y0285973D01*
X0222736Y0285993D01*
X0222590Y0286017D01*
X0222444Y0286044D01*
X0222300Y0286076D01*
X0222156Y0286111D01*
X0222013Y0286151D01*
X0221872Y0286194D01*
X0221731Y0286241D01*
X0221592Y0286291D01*
X0221455Y0286346D01*
X0221319Y0286404D01*
X0221184Y0286465D01*
X0221051Y0286530D01*
X0220920Y0286599D01*
X0220791Y0286671D01*
X0220664Y0286747D01*
X0220539Y0286826D01*
X0220416Y0286909D01*
X0220295Y0286994D01*
X0220177Y0287083D01*
X0220061Y0287175D01*
X0219948Y0287271D01*
X0219837Y0287369D01*
X0219729Y0287470D01*
X0219623Y0287574D01*
X0219521Y0287680D01*
X0219421Y0287790D01*
X0219325Y0287902D01*
X0219231Y0288017D01*
X0219140Y0288134D01*
X0219053Y0288253D01*
X0218969Y0288375D01*
X0218888Y0288499D01*
X0218811Y0288625D01*
X0218737Y0288753D01*
X0218666Y0288883D01*
X0218599Y0289015D01*
X0218536Y0289149D01*
X0218476Y0289284D01*
X0218420Y0289421D01*
X0218367Y0289560D01*
X0218319Y0289700D01*
X0218274Y0289841D01*
X0218233Y0289983D01*
X0218195Y0290126D01*
X0218162Y0290270D01*
X0218132Y0290415D01*
X0218106Y0290561D01*
X0218085Y0290707D01*
X0218067Y0290854D01*
X0218053Y0291001D01*
X0218043Y0291149D01*
X0218037Y0291297D01*
X0218035Y0291445D01*
X0220265Y0191789D02*
X0220267Y0191877D01*
X0220273Y0191965D01*
X0220283Y0192053D01*
X0220297Y0192141D01*
X0220314Y0192227D01*
X0220336Y0192313D01*
X0220361Y0192397D01*
X0220391Y0192481D01*
X0220423Y0192563D01*
X0220460Y0192643D01*
X0220500Y0192722D01*
X0220544Y0192799D01*
X0220591Y0192874D01*
X0220641Y0192946D01*
X0220695Y0193017D01*
X0220751Y0193084D01*
X0220811Y0193150D01*
X0220873Y0193212D01*
X0220939Y0193272D01*
X0221006Y0193328D01*
X0221077Y0193382D01*
X0221149Y0193432D01*
X0221224Y0193479D01*
X0221301Y0193523D01*
X0221380Y0193563D01*
X0221460Y0193600D01*
X0221542Y0193632D01*
X0221626Y0193662D01*
X0221710Y0193687D01*
X0221796Y0193709D01*
X0221882Y0193726D01*
X0221970Y0193740D01*
X0222058Y0193750D01*
X0222146Y0193756D01*
X0222234Y0193758D01*
X0222322Y0193756D01*
X0222410Y0193750D01*
X0222498Y0193740D01*
X0222586Y0193726D01*
X0222672Y0193709D01*
X0222758Y0193687D01*
X0222842Y0193662D01*
X0222926Y0193632D01*
X0223008Y0193600D01*
X0223088Y0193563D01*
X0223167Y0193523D01*
X0223244Y0193479D01*
X0223319Y0193432D01*
X0223391Y0193382D01*
X0223462Y0193328D01*
X0223529Y0193272D01*
X0223595Y0193212D01*
X0223657Y0193150D01*
X0223717Y0193084D01*
X0223773Y0193017D01*
X0223827Y0192946D01*
X0223877Y0192874D01*
X0223924Y0192799D01*
X0223968Y0192722D01*
X0224008Y0192643D01*
X0224045Y0192563D01*
X0224077Y0192481D01*
X0224107Y0192397D01*
X0224132Y0192313D01*
X0224154Y0192227D01*
X0224171Y0192141D01*
X0224185Y0192053D01*
X0224195Y0191965D01*
X0224201Y0191877D01*
X0224203Y0191789D01*
X0224201Y0191701D01*
X0224195Y0191613D01*
X0224185Y0191525D01*
X0224171Y0191437D01*
X0224154Y0191351D01*
X0224132Y0191265D01*
X0224107Y0191181D01*
X0224077Y0191097D01*
X0224045Y0191015D01*
X0224008Y0190935D01*
X0223968Y0190856D01*
X0223924Y0190779D01*
X0223877Y0190704D01*
X0223827Y0190632D01*
X0223773Y0190561D01*
X0223717Y0190494D01*
X0223657Y0190428D01*
X0223595Y0190366D01*
X0223529Y0190306D01*
X0223462Y0190250D01*
X0223391Y0190196D01*
X0223319Y0190146D01*
X0223244Y0190099D01*
X0223167Y0190055D01*
X0223088Y0190015D01*
X0223008Y0189978D01*
X0222926Y0189946D01*
X0222842Y0189916D01*
X0222758Y0189891D01*
X0222672Y0189869D01*
X0222586Y0189852D01*
X0222498Y0189838D01*
X0222410Y0189828D01*
X0222322Y0189822D01*
X0222234Y0189820D01*
X0222146Y0189822D01*
X0222058Y0189828D01*
X0221970Y0189838D01*
X0221882Y0189852D01*
X0221796Y0189869D01*
X0221710Y0189891D01*
X0221626Y0189916D01*
X0221542Y0189946D01*
X0221460Y0189978D01*
X0221380Y0190015D01*
X0221301Y0190055D01*
X0221224Y0190099D01*
X0221149Y0190146D01*
X0221077Y0190196D01*
X0221006Y0190250D01*
X0220939Y0190306D01*
X0220873Y0190366D01*
X0220811Y0190428D01*
X0220751Y0190494D01*
X0220695Y0190561D01*
X0220641Y0190632D01*
X0220591Y0190704D01*
X0220544Y0190779D01*
X0220500Y0190856D01*
X0220460Y0190935D01*
X0220423Y0191015D01*
X0220391Y0191097D01*
X0220361Y0191181D01*
X0220336Y0191265D01*
X0220314Y0191351D01*
X0220297Y0191437D01*
X0220283Y0191525D01*
X0220273Y0191613D01*
X0220267Y0191701D01*
X0220265Y0191789D01*
X0218035Y0057193D02*
X0218037Y0057341D01*
X0218043Y0057489D01*
X0218053Y0057637D01*
X0218067Y0057784D01*
X0218085Y0057931D01*
X0218106Y0058077D01*
X0218132Y0058223D01*
X0218162Y0058368D01*
X0218195Y0058512D01*
X0218233Y0058655D01*
X0218274Y0058797D01*
X0218319Y0058938D01*
X0218367Y0059078D01*
X0218420Y0059217D01*
X0218476Y0059354D01*
X0218536Y0059489D01*
X0218599Y0059623D01*
X0218666Y0059755D01*
X0218737Y0059885D01*
X0218811Y0060013D01*
X0218888Y0060139D01*
X0218969Y0060263D01*
X0219053Y0060385D01*
X0219140Y0060504D01*
X0219231Y0060621D01*
X0219325Y0060736D01*
X0219421Y0060848D01*
X0219521Y0060958D01*
X0219623Y0061064D01*
X0219729Y0061168D01*
X0219837Y0061269D01*
X0219948Y0061367D01*
X0220061Y0061463D01*
X0220177Y0061555D01*
X0220295Y0061644D01*
X0220416Y0061729D01*
X0220539Y0061812D01*
X0220664Y0061891D01*
X0220791Y0061967D01*
X0220920Y0062039D01*
X0221051Y0062108D01*
X0221184Y0062173D01*
X0221319Y0062234D01*
X0221455Y0062292D01*
X0221592Y0062347D01*
X0221731Y0062397D01*
X0221872Y0062444D01*
X0222013Y0062487D01*
X0222156Y0062527D01*
X0222300Y0062562D01*
X0222444Y0062594D01*
X0222590Y0062621D01*
X0222736Y0062645D01*
X0222883Y0062665D01*
X0223030Y0062681D01*
X0223177Y0062693D01*
X0223325Y0062701D01*
X0223473Y0062705D01*
X0223621Y0062705D01*
X0223769Y0062701D01*
X0223917Y0062693D01*
X0224064Y0062681D01*
X0224211Y0062665D01*
X0224358Y0062645D01*
X0224504Y0062621D01*
X0224650Y0062594D01*
X0224794Y0062562D01*
X0224938Y0062527D01*
X0225081Y0062487D01*
X0225222Y0062444D01*
X0225363Y0062397D01*
X0225502Y0062347D01*
X0225639Y0062292D01*
X0225775Y0062234D01*
X0225910Y0062173D01*
X0226043Y0062108D01*
X0226174Y0062039D01*
X0226303Y0061967D01*
X0226430Y0061891D01*
X0226555Y0061812D01*
X0226678Y0061729D01*
X0226799Y0061644D01*
X0226917Y0061555D01*
X0227033Y0061463D01*
X0227146Y0061367D01*
X0227257Y0061269D01*
X0227365Y0061168D01*
X0227471Y0061064D01*
X0227573Y0060958D01*
X0227673Y0060848D01*
X0227769Y0060736D01*
X0227863Y0060621D01*
X0227954Y0060504D01*
X0228041Y0060385D01*
X0228125Y0060263D01*
X0228206Y0060139D01*
X0228283Y0060013D01*
X0228357Y0059885D01*
X0228428Y0059755D01*
X0228495Y0059623D01*
X0228558Y0059489D01*
X0228618Y0059354D01*
X0228674Y0059217D01*
X0228727Y0059078D01*
X0228775Y0058938D01*
X0228820Y0058797D01*
X0228861Y0058655D01*
X0228899Y0058512D01*
X0228932Y0058368D01*
X0228962Y0058223D01*
X0228988Y0058077D01*
X0229009Y0057931D01*
X0229027Y0057784D01*
X0229041Y0057637D01*
X0229051Y0057489D01*
X0229057Y0057341D01*
X0229059Y0057193D01*
X0229057Y0057045D01*
X0229051Y0056897D01*
X0229041Y0056749D01*
X0229027Y0056602D01*
X0229009Y0056455D01*
X0228988Y0056309D01*
X0228962Y0056163D01*
X0228932Y0056018D01*
X0228899Y0055874D01*
X0228861Y0055731D01*
X0228820Y0055589D01*
X0228775Y0055448D01*
X0228727Y0055308D01*
X0228674Y0055169D01*
X0228618Y0055032D01*
X0228558Y0054897D01*
X0228495Y0054763D01*
X0228428Y0054631D01*
X0228357Y0054501D01*
X0228283Y0054373D01*
X0228206Y0054247D01*
X0228125Y0054123D01*
X0228041Y0054001D01*
X0227954Y0053882D01*
X0227863Y0053765D01*
X0227769Y0053650D01*
X0227673Y0053538D01*
X0227573Y0053428D01*
X0227471Y0053322D01*
X0227365Y0053218D01*
X0227257Y0053117D01*
X0227146Y0053019D01*
X0227033Y0052923D01*
X0226917Y0052831D01*
X0226799Y0052742D01*
X0226678Y0052657D01*
X0226555Y0052574D01*
X0226430Y0052495D01*
X0226303Y0052419D01*
X0226174Y0052347D01*
X0226043Y0052278D01*
X0225910Y0052213D01*
X0225775Y0052152D01*
X0225639Y0052094D01*
X0225502Y0052039D01*
X0225363Y0051989D01*
X0225222Y0051942D01*
X0225081Y0051899D01*
X0224938Y0051859D01*
X0224794Y0051824D01*
X0224650Y0051792D01*
X0224504Y0051765D01*
X0224358Y0051741D01*
X0224211Y0051721D01*
X0224064Y0051705D01*
X0223917Y0051693D01*
X0223769Y0051685D01*
X0223621Y0051681D01*
X0223473Y0051681D01*
X0223325Y0051685D01*
X0223177Y0051693D01*
X0223030Y0051705D01*
X0222883Y0051721D01*
X0222736Y0051741D01*
X0222590Y0051765D01*
X0222444Y0051792D01*
X0222300Y0051824D01*
X0222156Y0051859D01*
X0222013Y0051899D01*
X0221872Y0051942D01*
X0221731Y0051989D01*
X0221592Y0052039D01*
X0221455Y0052094D01*
X0221319Y0052152D01*
X0221184Y0052213D01*
X0221051Y0052278D01*
X0220920Y0052347D01*
X0220791Y0052419D01*
X0220664Y0052495D01*
X0220539Y0052574D01*
X0220416Y0052657D01*
X0220295Y0052742D01*
X0220177Y0052831D01*
X0220061Y0052923D01*
X0219948Y0053019D01*
X0219837Y0053117D01*
X0219729Y0053218D01*
X0219623Y0053322D01*
X0219521Y0053428D01*
X0219421Y0053538D01*
X0219325Y0053650D01*
X0219231Y0053765D01*
X0219140Y0053882D01*
X0219053Y0054001D01*
X0218969Y0054123D01*
X0218888Y0054247D01*
X0218811Y0054373D01*
X0218737Y0054501D01*
X0218666Y0054631D01*
X0218599Y0054763D01*
X0218536Y0054897D01*
X0218476Y0055032D01*
X0218420Y0055169D01*
X0218367Y0055308D01*
X0218319Y0055448D01*
X0218274Y0055589D01*
X0218233Y0055731D01*
X0218195Y0055874D01*
X0218162Y0056018D01*
X0218132Y0056163D01*
X0218106Y0056309D01*
X0218085Y0056455D01*
X0218067Y0056602D01*
X0218053Y0056749D01*
X0218043Y0056897D01*
X0218037Y0057045D01*
X0218035Y0057193D01*
X0026303Y0291445D02*
X0026305Y0291593D01*
X0026311Y0291741D01*
X0026321Y0291889D01*
X0026335Y0292036D01*
X0026353Y0292183D01*
X0026374Y0292329D01*
X0026400Y0292475D01*
X0026430Y0292620D01*
X0026463Y0292764D01*
X0026501Y0292907D01*
X0026542Y0293049D01*
X0026587Y0293190D01*
X0026635Y0293330D01*
X0026688Y0293469D01*
X0026744Y0293606D01*
X0026804Y0293741D01*
X0026867Y0293875D01*
X0026934Y0294007D01*
X0027005Y0294137D01*
X0027079Y0294265D01*
X0027156Y0294391D01*
X0027237Y0294515D01*
X0027321Y0294637D01*
X0027408Y0294756D01*
X0027499Y0294873D01*
X0027593Y0294988D01*
X0027689Y0295100D01*
X0027789Y0295210D01*
X0027891Y0295316D01*
X0027997Y0295420D01*
X0028105Y0295521D01*
X0028216Y0295619D01*
X0028329Y0295715D01*
X0028445Y0295807D01*
X0028563Y0295896D01*
X0028684Y0295981D01*
X0028807Y0296064D01*
X0028932Y0296143D01*
X0029059Y0296219D01*
X0029188Y0296291D01*
X0029319Y0296360D01*
X0029452Y0296425D01*
X0029587Y0296486D01*
X0029723Y0296544D01*
X0029860Y0296599D01*
X0029999Y0296649D01*
X0030140Y0296696D01*
X0030281Y0296739D01*
X0030424Y0296779D01*
X0030568Y0296814D01*
X0030712Y0296846D01*
X0030858Y0296873D01*
X0031004Y0296897D01*
X0031151Y0296917D01*
X0031298Y0296933D01*
X0031445Y0296945D01*
X0031593Y0296953D01*
X0031741Y0296957D01*
X0031889Y0296957D01*
X0032037Y0296953D01*
X0032185Y0296945D01*
X0032332Y0296933D01*
X0032479Y0296917D01*
X0032626Y0296897D01*
X0032772Y0296873D01*
X0032918Y0296846D01*
X0033062Y0296814D01*
X0033206Y0296779D01*
X0033349Y0296739D01*
X0033490Y0296696D01*
X0033631Y0296649D01*
X0033770Y0296599D01*
X0033907Y0296544D01*
X0034043Y0296486D01*
X0034178Y0296425D01*
X0034311Y0296360D01*
X0034442Y0296291D01*
X0034571Y0296219D01*
X0034698Y0296143D01*
X0034823Y0296064D01*
X0034946Y0295981D01*
X0035067Y0295896D01*
X0035185Y0295807D01*
X0035301Y0295715D01*
X0035414Y0295619D01*
X0035525Y0295521D01*
X0035633Y0295420D01*
X0035739Y0295316D01*
X0035841Y0295210D01*
X0035941Y0295100D01*
X0036037Y0294988D01*
X0036131Y0294873D01*
X0036222Y0294756D01*
X0036309Y0294637D01*
X0036393Y0294515D01*
X0036474Y0294391D01*
X0036551Y0294265D01*
X0036625Y0294137D01*
X0036696Y0294007D01*
X0036763Y0293875D01*
X0036826Y0293741D01*
X0036886Y0293606D01*
X0036942Y0293469D01*
X0036995Y0293330D01*
X0037043Y0293190D01*
X0037088Y0293049D01*
X0037129Y0292907D01*
X0037167Y0292764D01*
X0037200Y0292620D01*
X0037230Y0292475D01*
X0037256Y0292329D01*
X0037277Y0292183D01*
X0037295Y0292036D01*
X0037309Y0291889D01*
X0037319Y0291741D01*
X0037325Y0291593D01*
X0037327Y0291445D01*
X0037325Y0291297D01*
X0037319Y0291149D01*
X0037309Y0291001D01*
X0037295Y0290854D01*
X0037277Y0290707D01*
X0037256Y0290561D01*
X0037230Y0290415D01*
X0037200Y0290270D01*
X0037167Y0290126D01*
X0037129Y0289983D01*
X0037088Y0289841D01*
X0037043Y0289700D01*
X0036995Y0289560D01*
X0036942Y0289421D01*
X0036886Y0289284D01*
X0036826Y0289149D01*
X0036763Y0289015D01*
X0036696Y0288883D01*
X0036625Y0288753D01*
X0036551Y0288625D01*
X0036474Y0288499D01*
X0036393Y0288375D01*
X0036309Y0288253D01*
X0036222Y0288134D01*
X0036131Y0288017D01*
X0036037Y0287902D01*
X0035941Y0287790D01*
X0035841Y0287680D01*
X0035739Y0287574D01*
X0035633Y0287470D01*
X0035525Y0287369D01*
X0035414Y0287271D01*
X0035301Y0287175D01*
X0035185Y0287083D01*
X0035067Y0286994D01*
X0034946Y0286909D01*
X0034823Y0286826D01*
X0034698Y0286747D01*
X0034571Y0286671D01*
X0034442Y0286599D01*
X0034311Y0286530D01*
X0034178Y0286465D01*
X0034043Y0286404D01*
X0033907Y0286346D01*
X0033770Y0286291D01*
X0033631Y0286241D01*
X0033490Y0286194D01*
X0033349Y0286151D01*
X0033206Y0286111D01*
X0033062Y0286076D01*
X0032918Y0286044D01*
X0032772Y0286017D01*
X0032626Y0285993D01*
X0032479Y0285973D01*
X0032332Y0285957D01*
X0032185Y0285945D01*
X0032037Y0285937D01*
X0031889Y0285933D01*
X0031741Y0285933D01*
X0031593Y0285937D01*
X0031445Y0285945D01*
X0031298Y0285957D01*
X0031151Y0285973D01*
X0031004Y0285993D01*
X0030858Y0286017D01*
X0030712Y0286044D01*
X0030568Y0286076D01*
X0030424Y0286111D01*
X0030281Y0286151D01*
X0030140Y0286194D01*
X0029999Y0286241D01*
X0029860Y0286291D01*
X0029723Y0286346D01*
X0029587Y0286404D01*
X0029452Y0286465D01*
X0029319Y0286530D01*
X0029188Y0286599D01*
X0029059Y0286671D01*
X0028932Y0286747D01*
X0028807Y0286826D01*
X0028684Y0286909D01*
X0028563Y0286994D01*
X0028445Y0287083D01*
X0028329Y0287175D01*
X0028216Y0287271D01*
X0028105Y0287369D01*
X0027997Y0287470D01*
X0027891Y0287574D01*
X0027789Y0287680D01*
X0027689Y0287790D01*
X0027593Y0287902D01*
X0027499Y0288017D01*
X0027408Y0288134D01*
X0027321Y0288253D01*
X0027237Y0288375D01*
X0027156Y0288499D01*
X0027079Y0288625D01*
X0027005Y0288753D01*
X0026934Y0288883D01*
X0026867Y0289015D01*
X0026804Y0289149D01*
X0026744Y0289284D01*
X0026688Y0289421D01*
X0026635Y0289560D01*
X0026587Y0289700D01*
X0026542Y0289841D01*
X0026501Y0289983D01*
X0026463Y0290126D01*
X0026430Y0290270D01*
X0026400Y0290415D01*
X0026374Y0290561D01*
X0026353Y0290707D01*
X0026335Y0290854D01*
X0026321Y0291001D01*
X0026311Y0291149D01*
X0026305Y0291297D01*
X0026303Y0291445D01*
M02*
