G75*
%MOIN*%
%OFA0B0*%
%FSLAX25Y25*%
%IPPOS*%
%LPD*%
%AMOC8*
5,1,8,0,0,1.08239X$1,22.5*
%
%ADD10C,0.00580*%
D10*
X0170012Y0066141D02*
X0175232Y0066141D01*
X0175232Y0050921D01*
X0170012Y0050921D01*
X0170012Y0066141D01*
X0170012Y0051500D02*
X0175232Y0051500D01*
X0175232Y0052079D02*
X0170012Y0052079D01*
X0170012Y0052658D02*
X0175232Y0052658D01*
X0175232Y0053237D02*
X0170012Y0053237D01*
X0170012Y0053816D02*
X0175232Y0053816D01*
X0175232Y0054395D02*
X0170012Y0054395D01*
X0170012Y0054974D02*
X0175232Y0054974D01*
X0175232Y0055553D02*
X0170012Y0055553D01*
X0170012Y0056132D02*
X0175232Y0056132D01*
X0175232Y0056711D02*
X0170012Y0056711D01*
X0170012Y0057290D02*
X0175232Y0057290D01*
X0175232Y0057869D02*
X0170012Y0057869D01*
X0170012Y0058448D02*
X0175232Y0058448D01*
X0175232Y0059027D02*
X0170012Y0059027D01*
X0170012Y0059606D02*
X0175232Y0059606D01*
X0175232Y0060185D02*
X0170012Y0060185D01*
X0170012Y0060764D02*
X0175232Y0060764D01*
X0175232Y0061343D02*
X0170012Y0061343D01*
X0170012Y0061922D02*
X0175232Y0061922D01*
X0175232Y0062501D02*
X0170012Y0062501D01*
X0170012Y0063080D02*
X0175232Y0063080D01*
X0175232Y0063659D02*
X0170012Y0063659D01*
X0170012Y0064238D02*
X0175232Y0064238D01*
X0175232Y0064817D02*
X0170012Y0064817D01*
X0170012Y0065396D02*
X0175232Y0065396D01*
X0175232Y0065975D02*
X0170012Y0065975D01*
X0190012Y0066141D02*
X0195232Y0066141D01*
X0195232Y0050921D01*
X0190012Y0050921D01*
X0190012Y0066141D01*
X0190012Y0051500D02*
X0195232Y0051500D01*
X0195232Y0052079D02*
X0190012Y0052079D01*
X0190012Y0052658D02*
X0195232Y0052658D01*
X0195232Y0053237D02*
X0190012Y0053237D01*
X0190012Y0053816D02*
X0195232Y0053816D01*
X0195232Y0054395D02*
X0190012Y0054395D01*
X0190012Y0054974D02*
X0195232Y0054974D01*
X0195232Y0055553D02*
X0190012Y0055553D01*
X0190012Y0056132D02*
X0195232Y0056132D01*
X0195232Y0056711D02*
X0190012Y0056711D01*
X0190012Y0057290D02*
X0195232Y0057290D01*
X0195232Y0057869D02*
X0190012Y0057869D01*
X0190012Y0058448D02*
X0195232Y0058448D01*
X0195232Y0059027D02*
X0190012Y0059027D01*
X0190012Y0059606D02*
X0195232Y0059606D01*
X0195232Y0060185D02*
X0190012Y0060185D01*
X0190012Y0060764D02*
X0195232Y0060764D01*
X0195232Y0061343D02*
X0190012Y0061343D01*
X0190012Y0061922D02*
X0195232Y0061922D01*
X0195232Y0062501D02*
X0190012Y0062501D01*
X0190012Y0063080D02*
X0195232Y0063080D01*
X0195232Y0063659D02*
X0190012Y0063659D01*
X0190012Y0064238D02*
X0195232Y0064238D01*
X0195232Y0064817D02*
X0190012Y0064817D01*
X0190012Y0065396D02*
X0195232Y0065396D01*
X0195232Y0065975D02*
X0190012Y0065975D01*
M02*
