G75*
%MOIN*%
%OFA0B0*%
%FSLAX25Y25*%
%IPPOS*%
%LPD*%
%AMOC8*
5,1,8,0,0,1.08239X$1,22.5*
%
%ADD10C,0.00700*%
%ADD11C,0.07400*%
%ADD12C,0.05906*%
%ADD13C,0.08600*%
%ADD14R,0.07400X0.07400*%
%ADD15OC8,0.08661*%
%ADD16C,0.00600*%
%ADD17OC8,0.07400*%
%ADD18C,0.02400*%
%ADD19C,0.03569*%
%ADD20C,0.00800*%
%ADD21C,0.01000*%
%ADD22C,0.01200*%
%ADD23C,0.01600*%
D10*
X0034519Y0202055D02*
X0033885Y0202688D01*
X0033885Y0203956D01*
X0034519Y0204590D01*
X0037055Y0204590D01*
X0037689Y0203956D01*
X0037689Y0202688D01*
X0037055Y0202055D01*
X0034519Y0202055D01*
X0033885Y0206198D02*
X0033885Y0208100D01*
X0034519Y0208734D01*
X0035787Y0208734D01*
X0036421Y0208100D01*
X0036421Y0206198D01*
X0032618Y0206198D01*
X0034519Y0210342D02*
X0033885Y0210976D01*
X0033885Y0212243D01*
X0035153Y0212877D02*
X0035153Y0210342D01*
X0034519Y0210342D02*
X0035787Y0210342D01*
X0036421Y0210976D01*
X0036421Y0212243D01*
X0035787Y0212877D01*
X0035153Y0212877D01*
X0033885Y0214485D02*
X0036421Y0214485D01*
X0036421Y0216387D01*
X0035787Y0217021D01*
X0033885Y0217021D01*
X0033885Y0218629D02*
X0033885Y0221164D01*
X0033885Y0222772D02*
X0036421Y0222772D01*
X0036421Y0224674D01*
X0035787Y0225308D01*
X0033885Y0225308D01*
X0034519Y0226916D02*
X0033885Y0227550D01*
X0033885Y0228817D01*
X0035153Y0229451D02*
X0035153Y0226916D01*
X0034519Y0226916D02*
X0035787Y0226916D01*
X0036421Y0227550D01*
X0036421Y0228817D01*
X0035787Y0229451D01*
X0035153Y0229451D01*
X0035153Y0231059D02*
X0036421Y0232327D01*
X0036421Y0232961D01*
X0035787Y0234512D02*
X0034519Y0234512D01*
X0033885Y0235146D01*
X0033885Y0237048D01*
X0033252Y0237048D02*
X0036421Y0237048D01*
X0036421Y0235146D01*
X0035787Y0234512D01*
X0032618Y0235780D02*
X0032618Y0236414D01*
X0033252Y0237048D01*
X0034519Y0238656D02*
X0033885Y0239290D01*
X0033885Y0241191D01*
X0033252Y0241191D02*
X0032618Y0240557D01*
X0032618Y0239924D01*
X0033252Y0241191D02*
X0036421Y0241191D01*
X0037689Y0242799D02*
X0033885Y0242799D01*
X0033885Y0245335D02*
X0037689Y0245335D01*
X0036421Y0244067D01*
X0037689Y0242799D01*
X0035787Y0246943D02*
X0034519Y0246943D01*
X0033885Y0247577D01*
X0033885Y0248845D01*
X0034519Y0249478D01*
X0035787Y0249478D01*
X0036421Y0248845D01*
X0036421Y0247577D01*
X0035787Y0246943D01*
X0036421Y0251086D02*
X0033885Y0251086D01*
X0036421Y0251086D02*
X0036421Y0252988D01*
X0035787Y0253622D01*
X0033885Y0253622D01*
X0033885Y0255230D02*
X0033885Y0256498D01*
X0033885Y0255864D02*
X0036421Y0255864D01*
X0036421Y0255230D01*
X0037689Y0255864D02*
X0038323Y0255864D01*
X0036421Y0257992D02*
X0036421Y0259260D01*
X0037055Y0258626D02*
X0034519Y0258626D01*
X0033885Y0259260D01*
X0034519Y0260755D02*
X0033885Y0261389D01*
X0033885Y0262656D01*
X0034519Y0263290D01*
X0035787Y0263290D01*
X0036421Y0262656D01*
X0036421Y0261389D01*
X0035787Y0260755D01*
X0034519Y0260755D01*
X0033885Y0264898D02*
X0036421Y0264898D01*
X0035153Y0264898D02*
X0036421Y0266166D01*
X0036421Y0266800D01*
X0034519Y0268351D02*
X0033885Y0268351D01*
X0033885Y0268985D01*
X0034519Y0268985D01*
X0034519Y0268351D01*
X0034519Y0270423D02*
X0033885Y0271057D01*
X0033885Y0272325D01*
X0034519Y0272958D01*
X0035787Y0272958D01*
X0036421Y0272325D01*
X0036421Y0271057D01*
X0035787Y0270423D01*
X0034519Y0270423D01*
X0033885Y0274566D02*
X0036421Y0274566D01*
X0035153Y0274566D02*
X0036421Y0275834D01*
X0036421Y0276468D01*
X0035787Y0278019D02*
X0034519Y0278019D01*
X0033885Y0278653D01*
X0033885Y0280555D01*
X0033252Y0280555D02*
X0036421Y0280555D01*
X0036421Y0278653D01*
X0035787Y0278019D01*
X0032618Y0279287D02*
X0032618Y0279921D01*
X0033252Y0280555D01*
X0034519Y0238656D02*
X0036421Y0238656D01*
X0036421Y0231059D02*
X0033885Y0231059D01*
X0037689Y0221164D02*
X0037689Y0218629D01*
X0033885Y0218629D01*
X0035787Y0218629D02*
X0035787Y0219896D01*
D11*
X0065122Y0291031D03*
X0075122Y0291031D03*
X0085122Y0291031D03*
X0095122Y0291031D03*
X0105122Y0291031D03*
X0115122Y0291031D03*
X0042748Y0123031D03*
X0041748Y0113031D03*
X0042748Y0103031D03*
X0121185Y0086031D03*
X0126185Y0093531D03*
X0131185Y0086031D03*
D12*
X0222234Y0190017D02*
X0222234Y0193560D01*
X0222234Y0241198D02*
X0222234Y0244742D01*
D13*
X0133697Y0063831D03*
X0119917Y0063831D03*
X0106138Y0063831D03*
X0092358Y0063831D03*
X0078579Y0063831D03*
X0064799Y0063831D03*
D14*
X0041748Y0093031D03*
D15*
X0158872Y0058531D03*
D16*
X0169922Y0066231D02*
X0175322Y0066231D01*
X0175322Y0050831D01*
X0169922Y0050831D01*
X0169922Y0066231D01*
X0169922Y0051430D02*
X0175322Y0051430D01*
X0175322Y0052029D02*
X0169922Y0052029D01*
X0169922Y0052628D02*
X0175322Y0052628D01*
X0175322Y0053227D02*
X0169922Y0053227D01*
X0169922Y0053826D02*
X0175322Y0053826D01*
X0175322Y0054425D02*
X0169922Y0054425D01*
X0169922Y0055024D02*
X0175322Y0055024D01*
X0175322Y0055623D02*
X0169922Y0055623D01*
X0169922Y0056222D02*
X0175322Y0056222D01*
X0175322Y0056821D02*
X0169922Y0056821D01*
X0169922Y0057420D02*
X0175322Y0057420D01*
X0175322Y0058019D02*
X0169922Y0058019D01*
X0169922Y0058618D02*
X0175322Y0058618D01*
X0175322Y0059217D02*
X0169922Y0059217D01*
X0169922Y0059816D02*
X0175322Y0059816D01*
X0175322Y0060415D02*
X0169922Y0060415D01*
X0169922Y0061014D02*
X0175322Y0061014D01*
X0175322Y0061613D02*
X0169922Y0061613D01*
X0169922Y0062212D02*
X0175322Y0062212D01*
X0175322Y0062811D02*
X0169922Y0062811D01*
X0169922Y0063410D02*
X0175322Y0063410D01*
X0175322Y0064009D02*
X0169922Y0064009D01*
X0169922Y0064608D02*
X0175322Y0064608D01*
X0175322Y0065207D02*
X0169922Y0065207D01*
X0169922Y0065806D02*
X0175322Y0065806D01*
X0189922Y0066231D02*
X0195322Y0066231D01*
X0195322Y0050831D01*
X0189922Y0050831D01*
X0189922Y0066231D01*
X0189922Y0051430D02*
X0195322Y0051430D01*
X0195322Y0052029D02*
X0189922Y0052029D01*
X0189922Y0052628D02*
X0195322Y0052628D01*
X0195322Y0053227D02*
X0189922Y0053227D01*
X0189922Y0053826D02*
X0195322Y0053826D01*
X0195322Y0054425D02*
X0189922Y0054425D01*
X0189922Y0055024D02*
X0195322Y0055024D01*
X0195322Y0055623D02*
X0189922Y0055623D01*
X0189922Y0056222D02*
X0195322Y0056222D01*
X0195322Y0056821D02*
X0189922Y0056821D01*
X0189922Y0057420D02*
X0195322Y0057420D01*
X0195322Y0058019D02*
X0189922Y0058019D01*
X0189922Y0058618D02*
X0195322Y0058618D01*
X0195322Y0059217D02*
X0189922Y0059217D01*
X0189922Y0059816D02*
X0195322Y0059816D01*
X0195322Y0060415D02*
X0189922Y0060415D01*
X0189922Y0061014D02*
X0195322Y0061014D01*
X0195322Y0061613D02*
X0189922Y0061613D01*
X0189922Y0062212D02*
X0195322Y0062212D01*
X0195322Y0062811D02*
X0189922Y0062811D01*
X0189922Y0063410D02*
X0195322Y0063410D01*
X0195322Y0064009D02*
X0189922Y0064009D01*
X0189922Y0064608D02*
X0195322Y0064608D01*
X0195322Y0065207D02*
X0189922Y0065207D01*
X0189922Y0065806D02*
X0195322Y0065806D01*
D17*
X0154935Y0126844D03*
X0154935Y0136844D03*
X0154935Y0146844D03*
X0144935Y0146844D03*
X0144935Y0136844D03*
X0144935Y0126844D03*
D18*
X0137872Y0126844D01*
X0133685Y0131031D01*
X0133685Y0160657D01*
X0153685Y0180657D01*
X0153811Y0180531D02*
X0159185Y0180531D01*
X0189935Y0209781D02*
X0197935Y0209781D01*
X0199185Y0208531D01*
X0189935Y0209781D02*
X0163685Y0236031D01*
X0084185Y0236031D01*
X0064185Y0216031D01*
X0034185Y0186031D01*
X0034185Y0086531D01*
X0047685Y0073031D01*
X0070685Y0073031D01*
X0078579Y0065138D01*
X0078579Y0063831D01*
X0064799Y0063831D02*
X0064500Y0063531D01*
X0048685Y0063531D01*
X0028685Y0083531D01*
X0028685Y0187531D01*
X0095122Y0253968D01*
X0095122Y0291031D01*
X0214185Y0255531D02*
X0214185Y0251031D01*
X0222185Y0243031D01*
X0222185Y0243019D01*
X0222234Y0242970D01*
X0228685Y0163531D02*
X0228685Y0074531D01*
D19*
X0210185Y0065531D03*
X0202185Y0062531D03*
X0199685Y0071531D03*
X0193685Y0076531D03*
X0192285Y0094931D03*
X0184685Y0094931D03*
X0165685Y0066531D03*
X0152685Y0069531D03*
X0153685Y0080531D03*
X0163685Y0086031D03*
X0163685Y0103531D03*
X0163685Y0116031D03*
X0149685Y0156031D03*
X0144935Y0164781D03*
X0159185Y0180531D03*
X0164935Y0172281D03*
X0168685Y0167281D03*
X0178685Y0172281D03*
X0181185Y0163531D03*
X0208685Y0183531D03*
X0208685Y0198531D03*
X0199185Y0208531D03*
X0188685Y0223531D03*
X0188685Y0236031D03*
X0180185Y0260031D03*
X0196285Y0267131D03*
X0205285Y0279731D03*
X0196085Y0283531D03*
X0177185Y0279531D03*
X0177285Y0291331D03*
X0146685Y0243531D03*
X0138685Y0243531D03*
X0129185Y0241531D03*
X0131185Y0228531D03*
X0135185Y0221531D03*
X0139185Y0230531D03*
X0154685Y0223531D03*
X0164685Y0215531D03*
X0164185Y0242031D03*
X0138685Y0258531D03*
X0123185Y0277031D03*
X0101185Y0243531D03*
X0111185Y0241531D03*
X0101185Y0223531D03*
X0107185Y0212281D03*
X0116185Y0212281D03*
X0127435Y0212281D03*
X0126685Y0192531D03*
X0130685Y0186031D03*
X0102685Y0185031D03*
X0089685Y0180031D03*
X0087685Y0169031D03*
X0102685Y0168531D03*
X0116185Y0133531D03*
X0133685Y0116031D03*
X0138685Y0076031D03*
X0101685Y0090031D03*
X0096185Y0103531D03*
X0083685Y0073531D03*
X0069185Y0081531D03*
X0062185Y0082531D03*
X0053185Y0084531D03*
X0042185Y0085531D03*
X0063685Y0103531D03*
X0040685Y0149531D03*
X0063685Y0158531D03*
X0063685Y0196031D03*
X0064185Y0216031D03*
X0052185Y0231531D03*
X0043685Y0243531D03*
X0043685Y0216031D03*
X0073685Y0243531D03*
X0079185Y0250531D03*
X0087685Y0208531D03*
X0205685Y0055031D03*
X0212435Y0158531D03*
X0214185Y0255531D03*
D20*
X0208185Y0255531D01*
X0188685Y0236031D01*
X0182685Y0242031D01*
X0164185Y0242031D01*
X0164685Y0215531D02*
X0188428Y0191789D01*
X0222234Y0191789D01*
X0211185Y0198531D02*
X0216685Y0204031D01*
X0216685Y0211531D01*
X0208185Y0220031D01*
X0205185Y0220031D01*
X0208685Y0198531D02*
X0211185Y0198531D01*
X0212435Y0158781D02*
X0155185Y0216031D01*
X0107935Y0216031D01*
X0107185Y0215281D01*
X0107185Y0212281D01*
X0101185Y0223531D02*
X0091185Y0223531D01*
X0076185Y0208531D01*
X0076185Y0121031D01*
X0092685Y0185531D02*
X0102185Y0185531D01*
X0102685Y0185031D01*
X0092685Y0185531D02*
X0087685Y0190531D01*
X0087685Y0208531D01*
X0116185Y0212281D02*
X0127435Y0212281D01*
X0149935Y0212281D01*
X0164685Y0197531D01*
X0164685Y0179531D01*
X0161185Y0176031D01*
X0158685Y0176031D01*
X0155185Y0172531D01*
X0155185Y0147094D01*
X0154935Y0146844D01*
X0153811Y0180531D02*
X0153685Y0180657D01*
X0138685Y0243531D02*
X0138685Y0258531D01*
X0212435Y0158781D02*
X0212435Y0158531D01*
D21*
X0228685Y0163531D02*
X0208685Y0183531D01*
X0181185Y0163531D02*
X0177435Y0167281D01*
X0168685Y0167281D01*
X0166185Y0164781D01*
X0166185Y0129781D01*
X0163248Y0126844D01*
X0154935Y0126844D01*
X0154935Y0136844D02*
X0159498Y0136844D01*
X0162435Y0139781D01*
X0162435Y0172281D01*
X0164935Y0172281D01*
X0178685Y0172281D01*
X0144935Y0164781D02*
X0137435Y0157281D01*
X0137435Y0141031D01*
X0141622Y0136844D01*
X0144935Y0136844D01*
X0121185Y0086031D02*
X0121685Y0085531D01*
X0121685Y0083031D01*
X0128685Y0076031D01*
X0138685Y0076031D01*
X0121185Y0086031D02*
X0105685Y0086031D01*
X0101685Y0090031D01*
X0106185Y0075531D02*
X0106185Y0063878D01*
X0106138Y0063831D01*
X0106185Y0075531D02*
X0076185Y0105531D01*
X0076185Y0121031D01*
X0073185Y0104531D02*
X0073185Y0208531D01*
X0093185Y0228531D01*
X0125185Y0228531D01*
X0130185Y0223531D01*
X0133185Y0223531D01*
X0135185Y0221531D01*
X0131185Y0228531D02*
X0131185Y0229531D01*
X0128185Y0229531D01*
X0127185Y0230531D01*
X0088185Y0230531D01*
X0052185Y0194531D01*
X0052185Y0092531D01*
X0045185Y0085531D01*
X0042185Y0085531D01*
X0052185Y0092531D02*
X0062185Y0082531D01*
X0069185Y0081531D02*
X0075185Y0081531D01*
X0079185Y0085531D01*
X0079185Y0098531D01*
X0073185Y0104531D01*
X0092358Y0063831D02*
X0104657Y0051531D01*
X0164685Y0051531D01*
X0166435Y0053281D01*
X0166935Y0053281D01*
X0172185Y0058531D01*
X0172622Y0058531D01*
X0192622Y0058531D02*
X0192622Y0059468D01*
X0199685Y0066531D01*
X0200685Y0066531D01*
X0205185Y0071031D01*
X0225185Y0071031D01*
X0228685Y0074531D01*
X0202185Y0062531D02*
X0201185Y0058531D01*
X0192622Y0058531D01*
X0102685Y0168531D02*
X0102185Y0169031D01*
X0087685Y0169031D01*
X0102685Y0168531D02*
X0102685Y0185031D01*
X0085185Y0232531D02*
X0137185Y0232531D01*
X0139185Y0230531D01*
X0129185Y0241531D02*
X0111185Y0241531D01*
X0085185Y0232531D02*
X0037185Y0182531D01*
X0037185Y0114531D01*
X0038685Y0113031D01*
X0041748Y0113031D01*
X0052185Y0231531D02*
X0071185Y0250531D01*
X0079185Y0250531D01*
X0177185Y0263031D02*
X0180185Y0260031D01*
X0177185Y0263031D02*
X0177185Y0279531D01*
X0188685Y0236031D02*
X0188685Y0223531D01*
X0192185Y0220031D01*
X0205185Y0220031D01*
D22*
X0024044Y0050855D02*
X0023509Y0051390D01*
X0023219Y0052090D01*
X0023182Y0052468D01*
X0023182Y0296563D01*
X0023219Y0296941D01*
X0023509Y0297641D01*
X0024044Y0298176D01*
X0024744Y0298466D01*
X0025122Y0298503D01*
X0029748Y0298503D01*
X0027673Y0297643D01*
X0025616Y0295587D01*
X0024503Y0292899D01*
X0024503Y0289990D01*
X0025616Y0287303D01*
X0027673Y0285246D01*
X0030361Y0284133D01*
X0033269Y0284133D01*
X0035957Y0285246D01*
X0038014Y0287303D01*
X0039127Y0289990D01*
X0039127Y0292899D01*
X0038014Y0295587D01*
X0035957Y0297643D01*
X0033881Y0298503D01*
X0221481Y0298503D01*
X0219405Y0297643D01*
X0217349Y0295587D01*
X0216235Y0292899D01*
X0216235Y0289990D01*
X0217349Y0287303D01*
X0219405Y0285246D01*
X0222093Y0284133D01*
X0225002Y0284133D01*
X0227689Y0285246D01*
X0229746Y0287303D01*
X0230859Y0289990D01*
X0230859Y0292899D01*
X0229746Y0295587D01*
X0227689Y0297643D01*
X0225614Y0298503D01*
X0230240Y0298503D01*
X0230619Y0298466D01*
X0231318Y0298176D01*
X0231853Y0297641D01*
X0232143Y0296941D01*
X0232180Y0296563D01*
X0232180Y0052468D01*
X0232143Y0052090D01*
X0231853Y0051390D01*
X0231318Y0050855D01*
X0230619Y0050565D01*
X0230240Y0050528D01*
X0226564Y0050528D01*
X0227689Y0050994D01*
X0229746Y0053051D01*
X0230859Y0055738D01*
X0230859Y0058647D01*
X0229746Y0061335D01*
X0227689Y0063391D01*
X0225002Y0064505D01*
X0222093Y0064505D01*
X0219405Y0063391D01*
X0217349Y0061335D01*
X0216235Y0058647D01*
X0216235Y0055738D01*
X0217349Y0053051D01*
X0219405Y0050994D01*
X0220530Y0050528D01*
X0197208Y0050528D01*
X0197222Y0050581D01*
X0197222Y0057931D01*
X0193222Y0057931D01*
X0193222Y0059131D01*
X0197222Y0059131D01*
X0197222Y0066481D01*
X0197093Y0066965D01*
X0196842Y0067398D01*
X0196489Y0067752D01*
X0196055Y0068002D01*
X0195572Y0068131D01*
X0193222Y0068131D01*
X0193222Y0059131D01*
X0192022Y0059131D01*
X0192022Y0057931D01*
X0188022Y0057931D01*
X0188022Y0050581D01*
X0188036Y0050528D01*
X0177208Y0050528D01*
X0177222Y0050581D01*
X0177222Y0057931D01*
X0173222Y0057931D01*
X0173222Y0059131D01*
X0177222Y0059131D01*
X0177222Y0066481D01*
X0177093Y0066965D01*
X0176842Y0067398D01*
X0176489Y0067752D01*
X0176055Y0068002D01*
X0175572Y0068131D01*
X0173222Y0068131D01*
X0173222Y0059131D01*
X0172022Y0059131D01*
X0172022Y0057931D01*
X0168022Y0057931D01*
X0168022Y0050581D01*
X0168036Y0050528D01*
X0034832Y0050528D01*
X0035957Y0050994D01*
X0038014Y0053051D01*
X0039127Y0055738D01*
X0039127Y0058647D01*
X0038014Y0061335D01*
X0035957Y0063391D01*
X0033269Y0064505D01*
X0030361Y0064505D01*
X0027673Y0063391D01*
X0025616Y0061335D01*
X0024503Y0058647D01*
X0024503Y0055738D01*
X0025616Y0053051D01*
X0027673Y0050994D01*
X0028798Y0050528D01*
X0025122Y0050528D01*
X0024744Y0050565D01*
X0024044Y0050855D01*
X0023971Y0050928D02*
X0027832Y0050928D01*
X0026540Y0052127D02*
X0023216Y0052127D01*
X0023182Y0053325D02*
X0025503Y0053325D01*
X0025006Y0054524D02*
X0023182Y0054524D01*
X0023182Y0055722D02*
X0024510Y0055722D01*
X0024503Y0056921D02*
X0023182Y0056921D01*
X0023182Y0058119D02*
X0024503Y0058119D01*
X0024781Y0059318D02*
X0023182Y0059318D01*
X0023182Y0060516D02*
X0025277Y0060516D01*
X0025997Y0061715D02*
X0023182Y0061715D01*
X0023182Y0062913D02*
X0027195Y0062913D01*
X0029413Y0064112D02*
X0023182Y0064112D01*
X0023182Y0065310D02*
X0042663Y0065310D01*
X0043862Y0064112D02*
X0034217Y0064112D01*
X0036435Y0062913D02*
X0045060Y0062913D01*
X0046259Y0061715D02*
X0037633Y0061715D01*
X0038352Y0060516D02*
X0059569Y0060516D01*
X0059563Y0060531D02*
X0059628Y0060375D01*
X0061344Y0058659D01*
X0063586Y0057731D01*
X0066013Y0057731D01*
X0068255Y0058659D01*
X0069971Y0060375D01*
X0070899Y0062617D01*
X0070899Y0065044D01*
X0069971Y0067286D01*
X0068255Y0069002D01*
X0066013Y0069931D01*
X0063586Y0069931D01*
X0061344Y0069002D01*
X0059628Y0067286D01*
X0059315Y0066531D01*
X0049928Y0066531D01*
X0031685Y0084774D01*
X0031685Y0084789D01*
X0045986Y0070488D01*
X0047088Y0070031D01*
X0069442Y0070031D01*
X0073050Y0066424D01*
X0072479Y0065044D01*
X0072479Y0062617D01*
X0073407Y0060375D01*
X0075123Y0058659D01*
X0077365Y0057731D01*
X0079792Y0057731D01*
X0082034Y0058659D01*
X0083750Y0060375D01*
X0084679Y0062617D01*
X0084679Y0065044D01*
X0083750Y0067286D01*
X0082034Y0069002D01*
X0079792Y0069931D01*
X0078028Y0069931D01*
X0072384Y0075575D01*
X0071282Y0076031D01*
X0067362Y0076031D01*
X0069278Y0077947D01*
X0069898Y0077947D01*
X0071215Y0078493D01*
X0071954Y0079231D01*
X0076138Y0079231D01*
X0080138Y0083231D01*
X0081485Y0084579D01*
X0081485Y0096979D01*
X0103885Y0074579D01*
X0103885Y0069500D01*
X0102682Y0069002D01*
X0100966Y0067286D01*
X0100038Y0065044D01*
X0100038Y0062617D01*
X0100966Y0060375D01*
X0102682Y0058659D01*
X0104924Y0057731D01*
X0107351Y0057731D01*
X0109593Y0058659D01*
X0111309Y0060375D01*
X0112238Y0062617D01*
X0112238Y0065044D01*
X0111309Y0067286D01*
X0109593Y0069002D01*
X0108485Y0069461D01*
X0108485Y0076484D01*
X0107138Y0077831D01*
X0078485Y0106484D01*
X0078485Y0121984D01*
X0078385Y0122084D01*
X0078385Y0207620D01*
X0092096Y0221331D01*
X0098316Y0221331D01*
X0099155Y0220493D01*
X0100472Y0219947D01*
X0101898Y0219947D01*
X0103215Y0220493D01*
X0104224Y0221501D01*
X0104769Y0222818D01*
X0104769Y0224244D01*
X0104224Y0225562D01*
X0103554Y0226231D01*
X0124232Y0226231D01*
X0127885Y0222579D01*
X0129232Y0221231D01*
X0131601Y0221231D01*
X0131601Y0220818D01*
X0132146Y0219501D01*
X0133155Y0218493D01*
X0133786Y0218231D01*
X0107024Y0218231D01*
X0106274Y0217481D01*
X0104985Y0216193D01*
X0104985Y0215150D01*
X0104146Y0214312D01*
X0103601Y0212994D01*
X0103601Y0211568D01*
X0104146Y0210251D01*
X0105155Y0209243D01*
X0106472Y0208697D01*
X0107898Y0208697D01*
X0109215Y0209243D01*
X0110224Y0210251D01*
X0110769Y0211568D01*
X0110769Y0212994D01*
X0110423Y0213831D01*
X0112948Y0213831D01*
X0112601Y0212994D01*
X0112601Y0211568D01*
X0113146Y0210251D01*
X0114155Y0209243D01*
X0115472Y0208697D01*
X0116898Y0208697D01*
X0118215Y0209243D01*
X0119054Y0210081D01*
X0124566Y0210081D01*
X0125405Y0209243D01*
X0126722Y0208697D01*
X0128148Y0208697D01*
X0129465Y0209243D01*
X0130304Y0210081D01*
X0149024Y0210081D01*
X0162485Y0196620D01*
X0162485Y0181930D01*
X0162224Y0182562D01*
X0161215Y0183570D01*
X0159898Y0184116D01*
X0158472Y0184116D01*
X0157155Y0183570D01*
X0157116Y0183531D01*
X0154586Y0183531D01*
X0154282Y0183657D01*
X0153088Y0183657D01*
X0151986Y0183201D01*
X0131142Y0162357D01*
X0130685Y0161254D01*
X0130685Y0130435D01*
X0131142Y0129332D01*
X0131986Y0128488D01*
X0136173Y0124301D01*
X0137275Y0123844D01*
X0140157Y0123844D01*
X0142657Y0121344D01*
X0147213Y0121344D01*
X0149935Y0124066D01*
X0152657Y0121344D01*
X0157213Y0121344D01*
X0160413Y0124544D01*
X0164201Y0124544D01*
X0167138Y0127481D01*
X0168485Y0128829D01*
X0168485Y0163697D01*
X0169398Y0163697D01*
X0170715Y0164243D01*
X0171454Y0164981D01*
X0176482Y0164981D01*
X0177601Y0163863D01*
X0177601Y0162818D01*
X0178146Y0161501D01*
X0179155Y0160493D01*
X0180472Y0159947D01*
X0181898Y0159947D01*
X0183215Y0160493D01*
X0184224Y0161501D01*
X0184769Y0162818D01*
X0184769Y0164244D01*
X0184224Y0165562D01*
X0183215Y0166570D01*
X0181898Y0167116D01*
X0180853Y0167116D01*
X0179272Y0168697D01*
X0179398Y0168697D01*
X0180715Y0169243D01*
X0181724Y0170251D01*
X0182269Y0171568D01*
X0182269Y0172994D01*
X0181724Y0174312D01*
X0180715Y0175320D01*
X0179398Y0175866D01*
X0177972Y0175866D01*
X0176655Y0175320D01*
X0175916Y0174581D01*
X0167704Y0174581D01*
X0166965Y0175320D01*
X0165648Y0175866D01*
X0164222Y0175866D01*
X0164066Y0175801D01*
X0165596Y0177331D01*
X0166885Y0178620D01*
X0166885Y0198443D01*
X0152135Y0213193D01*
X0151496Y0213831D01*
X0154274Y0213831D01*
X0208854Y0159251D01*
X0208851Y0159244D01*
X0208851Y0157818D01*
X0209396Y0156501D01*
X0210405Y0155493D01*
X0211722Y0154947D01*
X0213148Y0154947D01*
X0214465Y0155493D01*
X0215474Y0156501D01*
X0216019Y0157818D01*
X0216019Y0159244D01*
X0215474Y0160562D01*
X0214465Y0161570D01*
X0213148Y0162116D01*
X0212212Y0162116D01*
X0157385Y0216943D01*
X0156096Y0218231D01*
X0136584Y0218231D01*
X0137215Y0218493D01*
X0138224Y0219501D01*
X0138769Y0220818D01*
X0138769Y0222244D01*
X0138224Y0223562D01*
X0137215Y0224570D01*
X0135898Y0225116D01*
X0134853Y0225116D01*
X0134138Y0225831D01*
X0133554Y0225831D01*
X0134224Y0226501D01*
X0134769Y0227818D01*
X0134769Y0229244D01*
X0134360Y0230231D01*
X0135601Y0230231D01*
X0135601Y0229818D01*
X0136146Y0228501D01*
X0137155Y0227493D01*
X0138472Y0226947D01*
X0139898Y0226947D01*
X0141215Y0227493D01*
X0142224Y0228501D01*
X0142769Y0229818D01*
X0142769Y0231244D01*
X0142224Y0232562D01*
X0141754Y0233031D01*
X0162442Y0233031D01*
X0187392Y0208082D01*
X0188236Y0207238D01*
X0189338Y0206781D01*
X0196030Y0206781D01*
X0196146Y0206501D01*
X0197155Y0205493D01*
X0198472Y0204947D01*
X0199898Y0204947D01*
X0201215Y0205493D01*
X0202224Y0206501D01*
X0202769Y0207818D01*
X0202769Y0209244D01*
X0202224Y0210562D01*
X0201215Y0211570D01*
X0199898Y0212116D01*
X0199843Y0212116D01*
X0199634Y0212325D01*
X0198532Y0212781D01*
X0191178Y0212781D01*
X0166228Y0237731D01*
X0165384Y0238575D01*
X0164282Y0239031D01*
X0131754Y0239031D01*
X0132224Y0239501D01*
X0132769Y0240818D01*
X0132769Y0242244D01*
X0132224Y0243562D01*
X0131215Y0244570D01*
X0129898Y0245116D01*
X0128472Y0245116D01*
X0127155Y0244570D01*
X0126416Y0243831D01*
X0113954Y0243831D01*
X0113215Y0244570D01*
X0111898Y0245116D01*
X0110472Y0245116D01*
X0109155Y0244570D01*
X0108146Y0243562D01*
X0107601Y0242244D01*
X0107601Y0240818D01*
X0108146Y0239501D01*
X0108616Y0239031D01*
X0084428Y0239031D01*
X0097665Y0252269D01*
X0098122Y0253372D01*
X0098122Y0286321D01*
X0098238Y0286369D01*
X0099785Y0287916D01*
X0100122Y0288730D01*
X0100459Y0287916D01*
X0102007Y0286369D01*
X0104028Y0285531D01*
X0106216Y0285531D01*
X0108238Y0286369D01*
X0109785Y0287916D01*
X0110223Y0288973D01*
X0110589Y0288254D01*
X0111079Y0287579D01*
X0111669Y0286989D01*
X0112344Y0286498D01*
X0113088Y0286120D01*
X0113881Y0285862D01*
X0114705Y0285731D01*
X0114722Y0285731D01*
X0114722Y0290631D01*
X0115522Y0290631D01*
X0115522Y0285731D01*
X0115539Y0285731D01*
X0116363Y0285862D01*
X0117157Y0286120D01*
X0117900Y0286498D01*
X0118575Y0286989D01*
X0119165Y0287579D01*
X0119655Y0288254D01*
X0120034Y0288997D01*
X0120292Y0289790D01*
X0120422Y0290614D01*
X0120422Y0290631D01*
X0115522Y0290631D01*
X0115522Y0291431D01*
X0120422Y0291431D01*
X0120422Y0291448D01*
X0120292Y0292272D01*
X0120034Y0293066D01*
X0119655Y0293809D01*
X0119165Y0294484D01*
X0118575Y0295074D01*
X0117900Y0295564D01*
X0117157Y0295943D01*
X0116363Y0296201D01*
X0115539Y0296331D01*
X0115522Y0296331D01*
X0115522Y0291431D01*
X0114722Y0291431D01*
X0114722Y0296331D01*
X0114705Y0296331D01*
X0113881Y0296201D01*
X0113088Y0295943D01*
X0112344Y0295564D01*
X0111669Y0295074D01*
X0111079Y0294484D01*
X0110589Y0293809D01*
X0110223Y0293090D01*
X0109785Y0294147D01*
X0108238Y0295694D01*
X0106216Y0296531D01*
X0104028Y0296531D01*
X0102007Y0295694D01*
X0100459Y0294147D01*
X0100122Y0293332D01*
X0099785Y0294147D01*
X0098238Y0295694D01*
X0096216Y0296531D01*
X0094028Y0296531D01*
X0092007Y0295694D01*
X0090459Y0294147D01*
X0090122Y0293332D01*
X0089785Y0294147D01*
X0088238Y0295694D01*
X0086216Y0296531D01*
X0084028Y0296531D01*
X0082007Y0295694D01*
X0080459Y0294147D01*
X0080122Y0293332D01*
X0079785Y0294147D01*
X0078238Y0295694D01*
X0076216Y0296531D01*
X0074028Y0296531D01*
X0072007Y0295694D01*
X0070459Y0294147D01*
X0070122Y0293332D01*
X0069785Y0294147D01*
X0068238Y0295694D01*
X0066216Y0296531D01*
X0064028Y0296531D01*
X0062007Y0295694D01*
X0060459Y0294147D01*
X0059622Y0292125D01*
X0059622Y0289937D01*
X0060459Y0287916D01*
X0062007Y0286369D01*
X0064028Y0285531D01*
X0066216Y0285531D01*
X0068238Y0286369D01*
X0069785Y0287916D01*
X0070122Y0288730D01*
X0070459Y0287916D01*
X0072007Y0286369D01*
X0074028Y0285531D01*
X0076216Y0285531D01*
X0078238Y0286369D01*
X0079785Y0287916D01*
X0080122Y0288730D01*
X0080459Y0287916D01*
X0082007Y0286369D01*
X0084028Y0285531D01*
X0086216Y0285531D01*
X0088238Y0286369D01*
X0089785Y0287916D01*
X0090122Y0288730D01*
X0090459Y0287916D01*
X0092007Y0286369D01*
X0092122Y0286321D01*
X0092122Y0255211D01*
X0039839Y0202928D01*
X0039839Y0203066D01*
X0039839Y0203350D01*
X0039839Y0203579D01*
X0039839Y0203579D01*
X0039839Y0204847D01*
X0039291Y0205395D01*
X0038579Y0206106D01*
X0038571Y0206114D01*
X0038571Y0208990D01*
X0038024Y0209538D01*
X0038571Y0210085D01*
X0038571Y0213134D01*
X0038341Y0213364D01*
X0038571Y0213595D01*
X0038571Y0216479D01*
X0038579Y0216479D01*
X0039839Y0217738D01*
X0039839Y0222055D01*
X0038579Y0223314D01*
X0038571Y0223314D01*
X0038571Y0225564D01*
X0038024Y0226112D01*
X0038571Y0226659D01*
X0038571Y0229708D01*
X0038341Y0229938D01*
X0038571Y0230169D01*
X0038571Y0233852D01*
X0038369Y0234054D01*
X0038571Y0234256D01*
X0038571Y0239546D01*
X0038194Y0239924D01*
X0038571Y0240301D01*
X0038571Y0240649D01*
X0038579Y0240649D01*
X0039218Y0241288D01*
X0039839Y0241909D01*
X0039839Y0243690D01*
X0039461Y0244067D01*
X0039839Y0244444D01*
X0039839Y0246225D01*
X0038579Y0247485D01*
X0038571Y0247485D01*
X0038571Y0249735D01*
X0038341Y0249965D01*
X0038571Y0250196D01*
X0038571Y0253714D01*
X0039213Y0253714D01*
X0040473Y0254973D01*
X0040473Y0256754D01*
X0039213Y0258014D01*
X0039205Y0258014D01*
X0039205Y0259517D01*
X0038571Y0260151D01*
X0038397Y0260324D01*
X0038571Y0260498D01*
X0038571Y0263547D01*
X0038341Y0263777D01*
X0038571Y0264008D01*
X0038571Y0267690D01*
X0037333Y0268928D01*
X0037937Y0269532D01*
X0038571Y0270166D01*
X0038571Y0273215D01*
X0038341Y0273446D01*
X0038571Y0273676D01*
X0038571Y0277359D01*
X0038369Y0277561D01*
X0038571Y0277763D01*
X0038571Y0281445D01*
X0037311Y0282705D01*
X0032361Y0282705D01*
X0031727Y0282071D01*
X0030468Y0280812D01*
X0030468Y0278397D01*
X0031727Y0277137D01*
X0032361Y0277137D01*
X0032888Y0276610D01*
X0031735Y0275457D01*
X0031735Y0273676D01*
X0031966Y0273446D01*
X0031735Y0273215D01*
X0031735Y0270166D01*
X0031881Y0270021D01*
X0031735Y0269876D01*
X0031735Y0267461D01*
X0032571Y0266625D01*
X0031735Y0265789D01*
X0031735Y0264008D01*
X0031966Y0263777D01*
X0031735Y0263547D01*
X0031735Y0260498D01*
X0031909Y0260324D01*
X0031735Y0260151D01*
X0031735Y0258370D01*
X0032226Y0257879D01*
X0031735Y0257388D01*
X0031735Y0252731D01*
X0032113Y0252354D01*
X0031735Y0251977D01*
X0031735Y0250196D01*
X0031966Y0249965D01*
X0031735Y0249735D01*
X0031735Y0246686D01*
X0031966Y0246456D01*
X0031735Y0246225D01*
X0031735Y0244444D01*
X0032113Y0244067D01*
X0031735Y0243690D01*
X0031735Y0242716D01*
X0031727Y0242707D01*
X0030468Y0241448D01*
X0030468Y0239033D01*
X0031332Y0238169D01*
X0031102Y0237938D01*
X0030468Y0237304D01*
X0030468Y0234889D01*
X0031727Y0233630D01*
X0032361Y0233630D01*
X0032888Y0233103D01*
X0031735Y0231950D01*
X0031735Y0230169D01*
X0031966Y0229938D01*
X0031735Y0229708D01*
X0031735Y0226659D01*
X0031966Y0226429D01*
X0031735Y0226198D01*
X0031735Y0224417D01*
X0032113Y0224040D01*
X0031735Y0223663D01*
X0031735Y0216130D01*
X0032113Y0215753D01*
X0031735Y0215376D01*
X0031735Y0213595D01*
X0031966Y0213364D01*
X0031735Y0213134D01*
X0031735Y0210085D01*
X0032283Y0209538D01*
X0031735Y0208990D01*
X0031735Y0208348D01*
X0031727Y0208348D01*
X0030468Y0207089D01*
X0030468Y0205308D01*
X0031727Y0204048D01*
X0031735Y0204048D01*
X0031735Y0201798D01*
X0032995Y0200538D01*
X0033629Y0199905D01*
X0036816Y0199905D01*
X0026142Y0189231D01*
X0025685Y0188128D01*
X0025685Y0082935D01*
X0026142Y0081832D01*
X0046986Y0060988D01*
X0048088Y0060531D01*
X0059563Y0060531D01*
X0060685Y0059318D02*
X0038849Y0059318D01*
X0039127Y0058119D02*
X0062647Y0058119D01*
X0066951Y0058119D02*
X0076427Y0058119D01*
X0074465Y0059318D02*
X0068913Y0059318D01*
X0070029Y0060516D02*
X0073349Y0060516D01*
X0072852Y0061715D02*
X0070525Y0061715D01*
X0070899Y0062913D02*
X0072479Y0062913D01*
X0072479Y0064112D02*
X0070899Y0064112D01*
X0070789Y0065310D02*
X0072589Y0065310D01*
X0072965Y0066509D02*
X0070292Y0066509D01*
X0069549Y0067708D02*
X0071766Y0067708D01*
X0070568Y0068906D02*
X0068350Y0068906D01*
X0067428Y0076097D02*
X0102367Y0076097D01*
X0103565Y0074899D02*
X0073060Y0074899D01*
X0074259Y0073700D02*
X0103885Y0073700D01*
X0103885Y0072502D02*
X0075457Y0072502D01*
X0076656Y0071303D02*
X0103885Y0071303D01*
X0103885Y0070105D02*
X0077854Y0070105D01*
X0082130Y0068906D02*
X0089324Y0068906D01*
X0089266Y0068877D02*
X0088515Y0068331D01*
X0087858Y0067674D01*
X0087312Y0066923D01*
X0086891Y0066095D01*
X0086604Y0065212D01*
X0086458Y0064295D01*
X0086458Y0064215D01*
X0091974Y0064215D01*
X0091974Y0069731D01*
X0091894Y0069731D01*
X0090977Y0069585D01*
X0090093Y0069298D01*
X0089266Y0068877D01*
X0087891Y0067708D02*
X0083328Y0067708D01*
X0084072Y0066509D02*
X0087101Y0066509D01*
X0086636Y0065310D02*
X0084568Y0065310D01*
X0084679Y0064112D02*
X0091974Y0064112D01*
X0091974Y0064215D02*
X0091974Y0063446D01*
X0092743Y0063446D01*
X0092743Y0064215D01*
X0098258Y0064215D01*
X0098258Y0064295D01*
X0098113Y0065212D01*
X0097826Y0066095D01*
X0097404Y0066923D01*
X0096859Y0067674D01*
X0096202Y0068331D01*
X0095451Y0068877D01*
X0094623Y0069298D01*
X0093740Y0069585D01*
X0092823Y0069731D01*
X0092743Y0069731D01*
X0092743Y0064215D01*
X0091974Y0064215D01*
X0091974Y0063446D02*
X0086458Y0063446D01*
X0086458Y0063366D01*
X0086604Y0062449D01*
X0086891Y0061566D01*
X0087312Y0060738D01*
X0087858Y0059987D01*
X0088515Y0059330D01*
X0089266Y0058784D01*
X0090093Y0058363D01*
X0090977Y0058076D01*
X0091894Y0057931D01*
X0091974Y0057931D01*
X0091974Y0063446D01*
X0091974Y0062913D02*
X0092743Y0062913D01*
X0092743Y0063446D02*
X0092743Y0057931D01*
X0092823Y0057931D01*
X0093740Y0058076D01*
X0094623Y0058363D01*
X0095451Y0058784D01*
X0096202Y0059330D01*
X0096859Y0059987D01*
X0097404Y0060738D01*
X0097826Y0061566D01*
X0098113Y0062449D01*
X0098258Y0063366D01*
X0098258Y0063446D01*
X0092743Y0063446D01*
X0092743Y0064112D02*
X0100038Y0064112D01*
X0100038Y0062913D02*
X0098187Y0062913D01*
X0097874Y0061715D02*
X0100412Y0061715D01*
X0100908Y0060516D02*
X0097243Y0060516D01*
X0096185Y0059318D02*
X0102024Y0059318D01*
X0103986Y0058119D02*
X0093874Y0058119D01*
X0092743Y0058119D02*
X0091974Y0058119D01*
X0090842Y0058119D02*
X0080731Y0058119D01*
X0082693Y0059318D02*
X0088532Y0059318D01*
X0087473Y0060516D02*
X0083809Y0060516D01*
X0084305Y0061715D02*
X0086842Y0061715D01*
X0086530Y0062913D02*
X0084679Y0062913D01*
X0091974Y0061715D02*
X0092743Y0061715D01*
X0092743Y0060516D02*
X0091974Y0060516D01*
X0091974Y0059318D02*
X0092743Y0059318D01*
X0092743Y0065310D02*
X0091974Y0065310D01*
X0091974Y0066509D02*
X0092743Y0066509D01*
X0092743Y0067708D02*
X0091974Y0067708D01*
X0091974Y0068906D02*
X0092743Y0068906D01*
X0095393Y0068906D02*
X0102587Y0068906D01*
X0101388Y0067708D02*
X0096825Y0067708D01*
X0097615Y0066509D02*
X0100645Y0066509D01*
X0100148Y0065310D02*
X0098081Y0065310D01*
X0108485Y0070105D02*
X0232180Y0070105D01*
X0232180Y0071303D02*
X0108485Y0071303D01*
X0108485Y0072502D02*
X0232180Y0072502D01*
X0232180Y0073700D02*
X0108485Y0073700D01*
X0108485Y0074899D02*
X0232180Y0074899D01*
X0232180Y0076097D02*
X0108485Y0076097D01*
X0107673Y0077296D02*
X0232180Y0077296D01*
X0232180Y0078494D02*
X0106475Y0078494D01*
X0105276Y0079693D02*
X0232180Y0079693D01*
X0232180Y0080891D02*
X0133148Y0080891D01*
X0132279Y0080531D02*
X0130091Y0080531D01*
X0128070Y0081369D01*
X0126522Y0082916D01*
X0126085Y0083973D01*
X0125718Y0083254D01*
X0125228Y0082579D01*
X0124638Y0081989D01*
X0123963Y0081498D01*
X0123220Y0081120D01*
X0122426Y0080862D01*
X0121602Y0080731D01*
X0121385Y0080731D01*
X0121385Y0085831D01*
X0120985Y0085831D01*
X0120985Y0080731D01*
X0120768Y0080731D01*
X0119944Y0080862D01*
X0119151Y0081120D01*
X0118407Y0081498D01*
X0117732Y0081989D01*
X0117142Y0082579D01*
X0116652Y0083254D01*
X0116273Y0083997D01*
X0116016Y0084790D01*
X0115885Y0085614D01*
X0115885Y0085831D01*
X0120985Y0085831D01*
X0120985Y0086231D01*
X0115885Y0086231D01*
X0115885Y0086448D01*
X0116016Y0087272D01*
X0116273Y0088066D01*
X0116652Y0088809D01*
X0117142Y0089484D01*
X0117732Y0090074D01*
X0118407Y0090564D01*
X0119151Y0090943D01*
X0119944Y0091201D01*
X0120768Y0091331D01*
X0120985Y0091331D01*
X0120985Y0086231D01*
X0121385Y0086231D01*
X0121385Y0090747D01*
X0120685Y0092437D01*
X0120685Y0094625D01*
X0121522Y0096647D01*
X0123070Y0098194D01*
X0125091Y0099031D01*
X0127279Y0099031D01*
X0129301Y0098194D01*
X0130848Y0096647D01*
X0131685Y0094625D01*
X0131685Y0092437D01*
X0131310Y0091531D01*
X0132279Y0091531D01*
X0134301Y0090694D01*
X0135848Y0089147D01*
X0136685Y0087125D01*
X0136685Y0084937D01*
X0135848Y0082916D01*
X0134301Y0081369D01*
X0132279Y0080531D01*
X0129222Y0080891D02*
X0122516Y0080891D01*
X0121385Y0080891D02*
X0120985Y0080891D01*
X0119854Y0080891D02*
X0104078Y0080891D01*
X0102879Y0082090D02*
X0117631Y0082090D01*
X0116634Y0083288D02*
X0101681Y0083288D01*
X0100482Y0084487D02*
X0116114Y0084487D01*
X0115885Y0085685D02*
X0099284Y0085685D01*
X0098085Y0086884D02*
X0115954Y0086884D01*
X0116282Y0088082D02*
X0096887Y0088082D01*
X0095688Y0089281D02*
X0116995Y0089281D01*
X0118290Y0090479D02*
X0094490Y0090479D01*
X0093291Y0091678D02*
X0121000Y0091678D01*
X0120985Y0090479D02*
X0121385Y0090479D01*
X0121385Y0089281D02*
X0120985Y0089281D01*
X0120985Y0088082D02*
X0121385Y0088082D01*
X0121385Y0086884D02*
X0120985Y0086884D01*
X0120985Y0085685D02*
X0121385Y0085685D01*
X0121385Y0084487D02*
X0120985Y0084487D01*
X0120985Y0083288D02*
X0121385Y0083288D01*
X0121385Y0082090D02*
X0120985Y0082090D01*
X0124739Y0082090D02*
X0127349Y0082090D01*
X0126368Y0083288D02*
X0125736Y0083288D01*
X0131370Y0091678D02*
X0232180Y0091678D01*
X0232180Y0092876D02*
X0131685Y0092876D01*
X0131685Y0094075D02*
X0232180Y0094075D01*
X0232180Y0095273D02*
X0131417Y0095273D01*
X0130920Y0096472D02*
X0232180Y0096472D01*
X0232180Y0097670D02*
X0129824Y0097670D01*
X0127671Y0098869D02*
X0232180Y0098869D01*
X0232180Y0100067D02*
X0084902Y0100067D01*
X0086100Y0098869D02*
X0124699Y0098869D01*
X0122546Y0097670D02*
X0087299Y0097670D01*
X0088497Y0096472D02*
X0121450Y0096472D01*
X0120953Y0095273D02*
X0089696Y0095273D01*
X0090894Y0094075D02*
X0120685Y0094075D01*
X0120685Y0092876D02*
X0092093Y0092876D01*
X0089183Y0089281D02*
X0081485Y0089281D01*
X0081485Y0090479D02*
X0087984Y0090479D01*
X0086786Y0091678D02*
X0081485Y0091678D01*
X0081485Y0092876D02*
X0085587Y0092876D01*
X0084389Y0094075D02*
X0081485Y0094075D01*
X0081485Y0095273D02*
X0083190Y0095273D01*
X0081992Y0096472D02*
X0081485Y0096472D01*
X0083703Y0101266D02*
X0232180Y0101266D01*
X0232180Y0102464D02*
X0082505Y0102464D01*
X0081306Y0103663D02*
X0232180Y0103663D01*
X0232180Y0104861D02*
X0080108Y0104861D01*
X0078909Y0106060D02*
X0232180Y0106060D01*
X0232180Y0107258D02*
X0078485Y0107258D01*
X0078485Y0108457D02*
X0232180Y0108457D01*
X0232180Y0109655D02*
X0078485Y0109655D01*
X0078485Y0110854D02*
X0232180Y0110854D01*
X0232180Y0112052D02*
X0078485Y0112052D01*
X0078485Y0113251D02*
X0131397Y0113251D01*
X0131655Y0112993D02*
X0132972Y0112447D01*
X0134398Y0112447D01*
X0135715Y0112993D01*
X0136724Y0114001D01*
X0137269Y0115318D01*
X0137269Y0116744D01*
X0136724Y0118062D01*
X0135715Y0119070D01*
X0134398Y0119616D01*
X0133778Y0119616D01*
X0119769Y0133624D01*
X0119769Y0134244D01*
X0119224Y0135562D01*
X0118215Y0136570D01*
X0116898Y0137116D01*
X0115472Y0137116D01*
X0114155Y0136570D01*
X0113146Y0135562D01*
X0112601Y0134244D01*
X0112601Y0132818D01*
X0113146Y0131501D01*
X0114155Y0130493D01*
X0115472Y0129947D01*
X0116092Y0129947D01*
X0130101Y0115939D01*
X0130101Y0115318D01*
X0130646Y0114001D01*
X0131655Y0112993D01*
X0130461Y0114449D02*
X0078485Y0114449D01*
X0078485Y0115648D02*
X0130101Y0115648D01*
X0129193Y0116846D02*
X0078485Y0116846D01*
X0078485Y0118045D02*
X0127994Y0118045D01*
X0126796Y0119243D02*
X0078485Y0119243D01*
X0078485Y0120442D02*
X0125597Y0120442D01*
X0124399Y0121641D02*
X0078485Y0121641D01*
X0078385Y0122839D02*
X0123200Y0122839D01*
X0122002Y0124038D02*
X0078385Y0124038D01*
X0078385Y0125236D02*
X0120803Y0125236D01*
X0119605Y0126435D02*
X0078385Y0126435D01*
X0078385Y0127633D02*
X0118406Y0127633D01*
X0117208Y0128832D02*
X0078385Y0128832D01*
X0078385Y0130030D02*
X0115272Y0130030D01*
X0113419Y0131229D02*
X0078385Y0131229D01*
X0078385Y0132427D02*
X0112763Y0132427D01*
X0112601Y0133626D02*
X0078385Y0133626D01*
X0078385Y0134824D02*
X0112841Y0134824D01*
X0113607Y0136023D02*
X0078385Y0136023D01*
X0078385Y0137221D02*
X0130685Y0137221D01*
X0130685Y0136023D02*
X0118763Y0136023D01*
X0119529Y0134824D02*
X0130685Y0134824D01*
X0130685Y0133626D02*
X0119769Y0133626D01*
X0120966Y0132427D02*
X0130685Y0132427D01*
X0130685Y0131229D02*
X0122165Y0131229D01*
X0123363Y0130030D02*
X0130853Y0130030D01*
X0131642Y0128832D02*
X0124562Y0128832D01*
X0125760Y0127633D02*
X0132841Y0127633D01*
X0134039Y0126435D02*
X0126959Y0126435D01*
X0128157Y0125236D02*
X0135238Y0125236D01*
X0136809Y0124038D02*
X0129356Y0124038D01*
X0130554Y0122839D02*
X0141162Y0122839D01*
X0142361Y0121641D02*
X0131753Y0121641D01*
X0132951Y0120442D02*
X0232180Y0120442D01*
X0232180Y0119243D02*
X0135296Y0119243D01*
X0136731Y0118045D02*
X0232180Y0118045D01*
X0232180Y0116846D02*
X0137227Y0116846D01*
X0137269Y0115648D02*
X0232180Y0115648D01*
X0232180Y0114449D02*
X0136909Y0114449D01*
X0135974Y0113251D02*
X0232180Y0113251D01*
X0232180Y0121641D02*
X0157509Y0121641D01*
X0158708Y0122839D02*
X0232180Y0122839D01*
X0232180Y0124038D02*
X0159906Y0124038D01*
X0164892Y0125236D02*
X0232180Y0125236D01*
X0232180Y0126435D02*
X0166091Y0126435D01*
X0167289Y0127633D02*
X0232180Y0127633D01*
X0232180Y0128832D02*
X0168485Y0128832D01*
X0168485Y0130030D02*
X0232180Y0130030D01*
X0232180Y0131229D02*
X0168485Y0131229D01*
X0168485Y0132427D02*
X0232180Y0132427D01*
X0232180Y0133626D02*
X0168485Y0133626D01*
X0168485Y0134824D02*
X0232180Y0134824D01*
X0232180Y0136023D02*
X0168485Y0136023D01*
X0168485Y0137221D02*
X0232180Y0137221D01*
X0232180Y0138420D02*
X0168485Y0138420D01*
X0168485Y0139618D02*
X0232180Y0139618D01*
X0232180Y0140817D02*
X0168485Y0140817D01*
X0168485Y0142015D02*
X0232180Y0142015D01*
X0232180Y0143214D02*
X0168485Y0143214D01*
X0168485Y0144412D02*
X0232180Y0144412D01*
X0232180Y0145611D02*
X0168485Y0145611D01*
X0168485Y0146809D02*
X0232180Y0146809D01*
X0232180Y0148008D02*
X0168485Y0148008D01*
X0168485Y0149206D02*
X0232180Y0149206D01*
X0232180Y0150405D02*
X0168485Y0150405D01*
X0168485Y0151603D02*
X0232180Y0151603D01*
X0232180Y0152802D02*
X0168485Y0152802D01*
X0168485Y0154000D02*
X0232180Y0154000D01*
X0232180Y0155199D02*
X0213756Y0155199D01*
X0215370Y0156397D02*
X0232180Y0156397D01*
X0232180Y0157596D02*
X0215927Y0157596D01*
X0216019Y0158794D02*
X0232180Y0158794D01*
X0232180Y0159993D02*
X0215709Y0159993D01*
X0214844Y0161191D02*
X0232180Y0161191D01*
X0232180Y0162390D02*
X0211938Y0162390D01*
X0210739Y0163588D02*
X0232180Y0163588D01*
X0232180Y0164787D02*
X0209541Y0164787D01*
X0208342Y0165985D02*
X0232180Y0165985D01*
X0232180Y0167184D02*
X0207144Y0167184D01*
X0205945Y0168382D02*
X0232180Y0168382D01*
X0232180Y0169581D02*
X0204747Y0169581D01*
X0203548Y0170779D02*
X0232180Y0170779D01*
X0232180Y0171978D02*
X0202350Y0171978D01*
X0201151Y0173177D02*
X0232180Y0173177D01*
X0232180Y0174375D02*
X0199953Y0174375D01*
X0198754Y0175574D02*
X0232180Y0175574D01*
X0232180Y0176772D02*
X0197556Y0176772D01*
X0196357Y0177971D02*
X0232180Y0177971D01*
X0232180Y0179169D02*
X0195159Y0179169D01*
X0193960Y0180368D02*
X0232180Y0180368D01*
X0232180Y0181566D02*
X0192762Y0181566D01*
X0191563Y0182765D02*
X0232180Y0182765D01*
X0232180Y0183963D02*
X0190365Y0183963D01*
X0189166Y0185162D02*
X0232180Y0185162D01*
X0232180Y0186360D02*
X0225298Y0186360D01*
X0224926Y0185988D02*
X0226263Y0187325D01*
X0226987Y0189072D01*
X0226987Y0194506D01*
X0226263Y0196253D01*
X0224926Y0197590D01*
X0223179Y0198313D01*
X0221288Y0198313D01*
X0219542Y0197590D01*
X0218205Y0196253D01*
X0217481Y0194506D01*
X0217481Y0193989D01*
X0189339Y0193989D01*
X0168269Y0215058D01*
X0168269Y0216244D01*
X0167724Y0217562D01*
X0166715Y0218570D01*
X0165398Y0219116D01*
X0163972Y0219116D01*
X0162655Y0218570D01*
X0161646Y0217562D01*
X0161101Y0216244D01*
X0161101Y0214818D01*
X0161646Y0213501D01*
X0162655Y0212493D01*
X0163972Y0211947D01*
X0165158Y0211947D01*
X0186228Y0190878D01*
X0187516Y0189589D01*
X0217481Y0189589D01*
X0217481Y0189072D01*
X0218205Y0187325D01*
X0219542Y0185988D01*
X0221288Y0185264D01*
X0223179Y0185264D01*
X0224926Y0185988D01*
X0226360Y0187559D02*
X0232180Y0187559D01*
X0232180Y0188757D02*
X0226856Y0188757D01*
X0226987Y0189956D02*
X0232180Y0189956D01*
X0232180Y0191154D02*
X0226987Y0191154D01*
X0226987Y0192353D02*
X0232180Y0192353D01*
X0232180Y0193551D02*
X0226987Y0193551D01*
X0226886Y0194750D02*
X0232180Y0194750D01*
X0232180Y0195948D02*
X0226389Y0195948D01*
X0225369Y0197147D02*
X0232180Y0197147D01*
X0232180Y0198345D02*
X0184982Y0198345D01*
X0183784Y0199544D02*
X0232180Y0199544D01*
X0232180Y0200742D02*
X0182585Y0200742D01*
X0181387Y0201941D02*
X0232180Y0201941D01*
X0232180Y0203139D02*
X0180188Y0203139D01*
X0178990Y0204338D02*
X0232180Y0204338D01*
X0232180Y0205536D02*
X0201259Y0205536D01*
X0202320Y0206735D02*
X0232180Y0206735D01*
X0232180Y0207933D02*
X0202769Y0207933D01*
X0202769Y0209132D02*
X0232180Y0209132D01*
X0232180Y0210330D02*
X0202319Y0210330D01*
X0201256Y0211529D02*
X0232180Y0211529D01*
X0232180Y0212727D02*
X0198662Y0212727D01*
X0196050Y0206735D02*
X0176593Y0206735D01*
X0177791Y0205536D02*
X0197111Y0205536D01*
X0190033Y0213926D02*
X0232180Y0213926D01*
X0232180Y0215124D02*
X0188835Y0215124D01*
X0187636Y0216323D02*
X0232180Y0216323D01*
X0232180Y0217521D02*
X0186438Y0217521D01*
X0185239Y0218720D02*
X0232180Y0218720D01*
X0232180Y0219918D02*
X0184041Y0219918D01*
X0182842Y0221117D02*
X0232180Y0221117D01*
X0232180Y0222315D02*
X0181644Y0222315D01*
X0180445Y0223514D02*
X0232180Y0223514D01*
X0232180Y0224712D02*
X0179246Y0224712D01*
X0178048Y0225911D02*
X0232180Y0225911D01*
X0232180Y0227110D02*
X0176849Y0227110D01*
X0175651Y0228308D02*
X0232180Y0228308D01*
X0232180Y0229507D02*
X0174452Y0229507D01*
X0173254Y0230705D02*
X0232180Y0230705D01*
X0232180Y0231904D02*
X0172055Y0231904D01*
X0170857Y0233102D02*
X0232180Y0233102D01*
X0232180Y0234301D02*
X0169658Y0234301D01*
X0168460Y0235499D02*
X0232180Y0235499D01*
X0232180Y0236698D02*
X0222921Y0236698D01*
X0222618Y0236698D02*
X0221850Y0236698D01*
X0221850Y0236650D02*
X0221850Y0239201D01*
X0222618Y0239201D01*
X0222618Y0236650D01*
X0223300Y0236758D01*
X0223982Y0236979D01*
X0224620Y0237304D01*
X0225200Y0237726D01*
X0225706Y0238232D01*
X0226128Y0238812D01*
X0226453Y0239451D01*
X0226674Y0240132D01*
X0226787Y0240840D01*
X0226787Y0242586D01*
X0226002Y0242586D01*
X0226002Y0243354D01*
X0226787Y0243354D01*
X0226787Y0245100D01*
X0226674Y0245808D01*
X0226453Y0246489D01*
X0226128Y0247128D01*
X0225706Y0247707D01*
X0225200Y0248214D01*
X0224620Y0248635D01*
X0223982Y0248961D01*
X0223300Y0249182D01*
X0222618Y0249290D01*
X0222618Y0246738D01*
X0221850Y0246738D01*
X0221850Y0249290D01*
X0221168Y0249182D01*
X0220486Y0248961D01*
X0219848Y0248635D01*
X0219268Y0248214D01*
X0218761Y0247707D01*
X0218340Y0247128D01*
X0218015Y0246489D01*
X0217793Y0245808D01*
X0217681Y0245100D01*
X0217681Y0243354D01*
X0218465Y0243354D01*
X0218465Y0242586D01*
X0217681Y0242586D01*
X0217681Y0240840D01*
X0217793Y0240132D01*
X0218015Y0239451D01*
X0218340Y0238812D01*
X0218761Y0238232D01*
X0219268Y0237726D01*
X0219848Y0237304D01*
X0220486Y0236979D01*
X0221168Y0236758D01*
X0221850Y0236650D01*
X0221547Y0236698D02*
X0167261Y0236698D01*
X0166228Y0237731D02*
X0166228Y0237731D01*
X0166063Y0237896D02*
X0219097Y0237896D01*
X0218196Y0239095D02*
X0131817Y0239095D01*
X0132552Y0240293D02*
X0217768Y0240293D01*
X0217681Y0241492D02*
X0132769Y0241492D01*
X0132585Y0242690D02*
X0218465Y0242690D01*
X0217681Y0243889D02*
X0131897Y0243889D01*
X0129967Y0245087D02*
X0217681Y0245087D01*
X0217949Y0246286D02*
X0091682Y0246286D01*
X0092881Y0247484D02*
X0218599Y0247484D01*
X0219941Y0248683D02*
X0094079Y0248683D01*
X0095278Y0249881D02*
X0232180Y0249881D01*
X0232180Y0248683D02*
X0224527Y0248683D01*
X0225869Y0247484D02*
X0232180Y0247484D01*
X0232180Y0246286D02*
X0226519Y0246286D01*
X0226787Y0245087D02*
X0232180Y0245087D01*
X0232180Y0243889D02*
X0226787Y0243889D01*
X0226002Y0242690D02*
X0232180Y0242690D01*
X0232180Y0241492D02*
X0226787Y0241492D01*
X0226700Y0240293D02*
X0232180Y0240293D01*
X0232180Y0239095D02*
X0226272Y0239095D01*
X0225370Y0237896D02*
X0232180Y0237896D01*
X0222618Y0237896D02*
X0221850Y0237896D01*
X0221850Y0239095D02*
X0222618Y0239095D01*
X0222618Y0247484D02*
X0221850Y0247484D01*
X0221850Y0248683D02*
X0222618Y0248683D01*
X0232180Y0251080D02*
X0096476Y0251080D01*
X0097669Y0252278D02*
X0232180Y0252278D01*
X0232180Y0253477D02*
X0098122Y0253477D01*
X0098122Y0254675D02*
X0232180Y0254675D01*
X0232180Y0255874D02*
X0098122Y0255874D01*
X0098122Y0257072D02*
X0178075Y0257072D01*
X0178155Y0256993D02*
X0179472Y0256447D01*
X0180898Y0256447D01*
X0182215Y0256993D01*
X0183224Y0258001D01*
X0183769Y0259318D01*
X0183769Y0260744D01*
X0183224Y0262062D01*
X0182215Y0263070D01*
X0180898Y0263616D01*
X0179853Y0263616D01*
X0179485Y0263984D01*
X0179485Y0276762D01*
X0180224Y0277501D01*
X0180769Y0278818D01*
X0180769Y0280244D01*
X0180224Y0281562D01*
X0179215Y0282570D01*
X0177898Y0283116D01*
X0176472Y0283116D01*
X0175155Y0282570D01*
X0174146Y0281562D01*
X0173601Y0280244D01*
X0173601Y0278818D01*
X0174146Y0277501D01*
X0174885Y0276762D01*
X0174885Y0262079D01*
X0176601Y0260363D01*
X0176601Y0259318D01*
X0177146Y0258001D01*
X0178155Y0256993D01*
X0177035Y0258271D02*
X0098122Y0258271D01*
X0098122Y0259469D02*
X0176601Y0259469D01*
X0176296Y0260668D02*
X0098122Y0260668D01*
X0098122Y0261866D02*
X0175097Y0261866D01*
X0174885Y0263065D02*
X0098122Y0263065D01*
X0098122Y0264263D02*
X0174885Y0264263D01*
X0174885Y0265462D02*
X0098122Y0265462D01*
X0098122Y0266660D02*
X0174885Y0266660D01*
X0174885Y0267859D02*
X0098122Y0267859D01*
X0098122Y0269057D02*
X0174885Y0269057D01*
X0174885Y0270256D02*
X0098122Y0270256D01*
X0098122Y0271454D02*
X0174885Y0271454D01*
X0174885Y0272653D02*
X0098122Y0272653D01*
X0098122Y0273851D02*
X0174885Y0273851D01*
X0174885Y0275050D02*
X0098122Y0275050D01*
X0098122Y0276248D02*
X0174885Y0276248D01*
X0174200Y0277447D02*
X0161667Y0277447D01*
X0161870Y0277531D02*
X0162874Y0278536D01*
X0163418Y0279848D01*
X0163418Y0281269D01*
X0162874Y0282582D01*
X0161870Y0283587D01*
X0160557Y0284131D01*
X0159136Y0284131D01*
X0157823Y0283587D01*
X0156819Y0282582D01*
X0156275Y0281269D01*
X0156275Y0279848D01*
X0156819Y0278536D01*
X0157823Y0277531D01*
X0159136Y0276987D01*
X0160557Y0276987D01*
X0161870Y0277531D01*
X0162920Y0278645D02*
X0173672Y0278645D01*
X0173601Y0279844D02*
X0163416Y0279844D01*
X0163418Y0281043D02*
X0173931Y0281043D01*
X0174826Y0282241D02*
X0163016Y0282241D01*
X0162017Y0283440D02*
X0232180Y0283440D01*
X0232180Y0284638D02*
X0226221Y0284638D01*
X0228280Y0285837D02*
X0232180Y0285837D01*
X0232180Y0287035D02*
X0229478Y0287035D01*
X0230131Y0288234D02*
X0232180Y0288234D01*
X0232180Y0289432D02*
X0230628Y0289432D01*
X0230859Y0290631D02*
X0232180Y0290631D01*
X0232180Y0291829D02*
X0230859Y0291829D01*
X0230806Y0293028D02*
X0232180Y0293028D01*
X0232180Y0294226D02*
X0230309Y0294226D01*
X0229813Y0295425D02*
X0232180Y0295425D01*
X0232174Y0296623D02*
X0228709Y0296623D01*
X0227259Y0297822D02*
X0231672Y0297822D01*
X0220873Y0284638D02*
X0098122Y0284638D01*
X0098122Y0283440D02*
X0140353Y0283440D01*
X0140500Y0283587D02*
X0139496Y0282582D01*
X0138952Y0281269D01*
X0138952Y0279848D01*
X0139496Y0278536D01*
X0140500Y0277531D01*
X0141813Y0276987D01*
X0143234Y0276987D01*
X0144547Y0277531D01*
X0145552Y0278536D01*
X0146095Y0279848D01*
X0146095Y0281269D01*
X0145552Y0282582D01*
X0144547Y0283587D01*
X0143234Y0284131D01*
X0141813Y0284131D01*
X0140500Y0283587D01*
X0139354Y0282241D02*
X0098122Y0282241D01*
X0098122Y0281043D02*
X0138952Y0281043D01*
X0138954Y0279844D02*
X0098122Y0279844D01*
X0098122Y0278645D02*
X0139450Y0278645D01*
X0140703Y0277447D02*
X0098122Y0277447D01*
X0092122Y0277447D02*
X0038483Y0277447D01*
X0038571Y0278645D02*
X0092122Y0278645D01*
X0092122Y0279844D02*
X0038571Y0279844D01*
X0038571Y0281043D02*
X0092122Y0281043D01*
X0092122Y0282241D02*
X0037775Y0282241D01*
X0036547Y0285837D02*
X0063291Y0285837D01*
X0061340Y0287035D02*
X0037746Y0287035D01*
X0038399Y0288234D02*
X0060328Y0288234D01*
X0059831Y0289432D02*
X0038896Y0289432D01*
X0039127Y0290631D02*
X0059622Y0290631D01*
X0059622Y0291829D02*
X0039127Y0291829D01*
X0039074Y0293028D02*
X0059996Y0293028D01*
X0060539Y0294226D02*
X0038577Y0294226D01*
X0038081Y0295425D02*
X0061737Y0295425D01*
X0068507Y0295425D02*
X0071737Y0295425D01*
X0070539Y0294226D02*
X0069705Y0294226D01*
X0069916Y0288234D02*
X0070328Y0288234D01*
X0071340Y0287035D02*
X0068904Y0287035D01*
X0066953Y0285837D02*
X0073291Y0285837D01*
X0076953Y0285837D02*
X0083291Y0285837D01*
X0081340Y0287035D02*
X0078904Y0287035D01*
X0079916Y0288234D02*
X0080328Y0288234D01*
X0080539Y0294226D02*
X0079705Y0294226D01*
X0078507Y0295425D02*
X0081737Y0295425D01*
X0088507Y0295425D02*
X0091737Y0295425D01*
X0090539Y0294226D02*
X0089705Y0294226D01*
X0089916Y0288234D02*
X0090328Y0288234D01*
X0091340Y0287035D02*
X0088904Y0287035D01*
X0086953Y0285837D02*
X0092122Y0285837D01*
X0092122Y0284638D02*
X0034489Y0284638D01*
X0031897Y0282241D02*
X0023182Y0282241D01*
X0023182Y0281043D02*
X0030699Y0281043D01*
X0030468Y0279844D02*
X0023182Y0279844D01*
X0023182Y0278645D02*
X0030468Y0278645D01*
X0031417Y0277447D02*
X0023182Y0277447D01*
X0023182Y0276248D02*
X0032527Y0276248D01*
X0031735Y0275050D02*
X0023182Y0275050D01*
X0023182Y0273851D02*
X0031735Y0273851D01*
X0031735Y0272653D02*
X0023182Y0272653D01*
X0023182Y0271454D02*
X0031735Y0271454D01*
X0031735Y0270256D02*
X0023182Y0270256D01*
X0023182Y0269057D02*
X0031735Y0269057D01*
X0031735Y0267859D02*
X0023182Y0267859D01*
X0023182Y0266660D02*
X0032536Y0266660D01*
X0031735Y0265462D02*
X0023182Y0265462D01*
X0023182Y0264263D02*
X0031735Y0264263D01*
X0031735Y0263065D02*
X0023182Y0263065D01*
X0023182Y0261866D02*
X0031735Y0261866D01*
X0031735Y0260668D02*
X0023182Y0260668D01*
X0023182Y0259469D02*
X0031735Y0259469D01*
X0031834Y0258271D02*
X0023182Y0258271D01*
X0023182Y0257072D02*
X0031735Y0257072D01*
X0031735Y0255874D02*
X0023182Y0255874D01*
X0023182Y0254675D02*
X0031735Y0254675D01*
X0031735Y0253477D02*
X0023182Y0253477D01*
X0023182Y0252278D02*
X0032037Y0252278D01*
X0031735Y0251080D02*
X0023182Y0251080D01*
X0023182Y0249881D02*
X0031882Y0249881D01*
X0031735Y0248683D02*
X0023182Y0248683D01*
X0023182Y0247484D02*
X0031735Y0247484D01*
X0031796Y0246286D02*
X0023182Y0246286D01*
X0023182Y0245087D02*
X0031735Y0245087D01*
X0031934Y0243889D02*
X0023182Y0243889D01*
X0023182Y0242690D02*
X0031710Y0242690D01*
X0030511Y0241492D02*
X0023182Y0241492D01*
X0023182Y0240293D02*
X0030468Y0240293D01*
X0030468Y0239095D02*
X0023182Y0239095D01*
X0023182Y0237896D02*
X0031059Y0237896D01*
X0030468Y0236698D02*
X0023182Y0236698D01*
X0023182Y0235499D02*
X0030468Y0235499D01*
X0031057Y0234301D02*
X0023182Y0234301D01*
X0023182Y0233102D02*
X0032888Y0233102D01*
X0031735Y0231904D02*
X0023182Y0231904D01*
X0023182Y0230705D02*
X0031735Y0230705D01*
X0031735Y0229507D02*
X0023182Y0229507D01*
X0023182Y0228308D02*
X0031735Y0228308D01*
X0031735Y0227110D02*
X0023182Y0227110D01*
X0023182Y0225911D02*
X0031735Y0225911D01*
X0031735Y0224712D02*
X0023182Y0224712D01*
X0023182Y0223514D02*
X0031735Y0223514D01*
X0031735Y0222315D02*
X0023182Y0222315D01*
X0023182Y0221117D02*
X0031735Y0221117D01*
X0031735Y0219918D02*
X0023182Y0219918D01*
X0023182Y0218720D02*
X0031735Y0218720D01*
X0031735Y0217521D02*
X0023182Y0217521D01*
X0023182Y0216323D02*
X0031735Y0216323D01*
X0031735Y0215124D02*
X0023182Y0215124D01*
X0023182Y0213926D02*
X0031735Y0213926D01*
X0031735Y0212727D02*
X0023182Y0212727D01*
X0023182Y0211529D02*
X0031735Y0211529D01*
X0031735Y0210330D02*
X0023182Y0210330D01*
X0023182Y0209132D02*
X0031877Y0209132D01*
X0031312Y0207933D02*
X0023182Y0207933D01*
X0023182Y0206735D02*
X0030468Y0206735D01*
X0030468Y0205536D02*
X0023182Y0205536D01*
X0023182Y0204338D02*
X0031437Y0204338D01*
X0031735Y0203139D02*
X0023182Y0203139D01*
X0023182Y0201941D02*
X0031735Y0201941D01*
X0032791Y0200742D02*
X0023182Y0200742D01*
X0023182Y0199544D02*
X0036455Y0199544D01*
X0035256Y0198345D02*
X0023182Y0198345D01*
X0023182Y0197147D02*
X0034058Y0197147D01*
X0032859Y0195948D02*
X0023182Y0195948D01*
X0023182Y0194750D02*
X0031661Y0194750D01*
X0030462Y0193551D02*
X0023182Y0193551D01*
X0023182Y0192353D02*
X0029264Y0192353D01*
X0028065Y0191154D02*
X0023182Y0191154D01*
X0023182Y0189956D02*
X0026867Y0189956D01*
X0025946Y0188757D02*
X0023182Y0188757D01*
X0023182Y0187559D02*
X0025685Y0187559D01*
X0025685Y0186360D02*
X0023182Y0186360D01*
X0023182Y0185162D02*
X0025685Y0185162D01*
X0025685Y0183963D02*
X0023182Y0183963D01*
X0023182Y0182765D02*
X0025685Y0182765D01*
X0025685Y0181566D02*
X0023182Y0181566D01*
X0023182Y0180368D02*
X0025685Y0180368D01*
X0025685Y0179169D02*
X0023182Y0179169D01*
X0023182Y0177971D02*
X0025685Y0177971D01*
X0025685Y0176772D02*
X0023182Y0176772D01*
X0023182Y0175574D02*
X0025685Y0175574D01*
X0025685Y0174375D02*
X0023182Y0174375D01*
X0023182Y0173177D02*
X0025685Y0173177D01*
X0025685Y0171978D02*
X0023182Y0171978D01*
X0023182Y0170779D02*
X0025685Y0170779D01*
X0025685Y0169581D02*
X0023182Y0169581D01*
X0023182Y0168382D02*
X0025685Y0168382D01*
X0025685Y0167184D02*
X0023182Y0167184D01*
X0023182Y0165985D02*
X0025685Y0165985D01*
X0025685Y0164787D02*
X0023182Y0164787D01*
X0023182Y0163588D02*
X0025685Y0163588D01*
X0025685Y0162390D02*
X0023182Y0162390D01*
X0023182Y0161191D02*
X0025685Y0161191D01*
X0025685Y0159993D02*
X0023182Y0159993D01*
X0023182Y0158794D02*
X0025685Y0158794D01*
X0025685Y0157596D02*
X0023182Y0157596D01*
X0023182Y0156397D02*
X0025685Y0156397D01*
X0025685Y0155199D02*
X0023182Y0155199D01*
X0023182Y0154000D02*
X0025685Y0154000D01*
X0025685Y0152802D02*
X0023182Y0152802D01*
X0023182Y0151603D02*
X0025685Y0151603D01*
X0025685Y0150405D02*
X0023182Y0150405D01*
X0023182Y0149206D02*
X0025685Y0149206D01*
X0025685Y0148008D02*
X0023182Y0148008D01*
X0023182Y0146809D02*
X0025685Y0146809D01*
X0025685Y0145611D02*
X0023182Y0145611D01*
X0023182Y0144412D02*
X0025685Y0144412D01*
X0025685Y0143214D02*
X0023182Y0143214D01*
X0023182Y0142015D02*
X0025685Y0142015D01*
X0025685Y0140817D02*
X0023182Y0140817D01*
X0023182Y0139618D02*
X0025685Y0139618D01*
X0025685Y0138420D02*
X0023182Y0138420D01*
X0023182Y0137221D02*
X0025685Y0137221D01*
X0025685Y0136023D02*
X0023182Y0136023D01*
X0023182Y0134824D02*
X0025685Y0134824D01*
X0025685Y0133626D02*
X0023182Y0133626D01*
X0023182Y0132427D02*
X0025685Y0132427D01*
X0025685Y0131229D02*
X0023182Y0131229D01*
X0023182Y0130030D02*
X0025685Y0130030D01*
X0025685Y0128832D02*
X0023182Y0128832D01*
X0023182Y0127633D02*
X0025685Y0127633D01*
X0025685Y0126435D02*
X0023182Y0126435D01*
X0023182Y0125236D02*
X0025685Y0125236D01*
X0025685Y0124038D02*
X0023182Y0124038D01*
X0023182Y0122839D02*
X0025685Y0122839D01*
X0025685Y0121641D02*
X0023182Y0121641D01*
X0023182Y0120442D02*
X0025685Y0120442D01*
X0025685Y0119243D02*
X0023182Y0119243D01*
X0023182Y0118045D02*
X0025685Y0118045D01*
X0025685Y0116846D02*
X0023182Y0116846D01*
X0023182Y0115648D02*
X0025685Y0115648D01*
X0025685Y0114449D02*
X0023182Y0114449D01*
X0023182Y0113251D02*
X0025685Y0113251D01*
X0025685Y0112052D02*
X0023182Y0112052D01*
X0023182Y0110854D02*
X0025685Y0110854D01*
X0025685Y0109655D02*
X0023182Y0109655D01*
X0023182Y0108457D02*
X0025685Y0108457D01*
X0025685Y0107258D02*
X0023182Y0107258D01*
X0023182Y0106060D02*
X0025685Y0106060D01*
X0025685Y0104861D02*
X0023182Y0104861D01*
X0023182Y0103663D02*
X0025685Y0103663D01*
X0025685Y0102464D02*
X0023182Y0102464D01*
X0023182Y0101266D02*
X0025685Y0101266D01*
X0025685Y0100067D02*
X0023182Y0100067D01*
X0023182Y0098869D02*
X0025685Y0098869D01*
X0025685Y0097670D02*
X0023182Y0097670D01*
X0023182Y0096472D02*
X0025685Y0096472D01*
X0025685Y0095273D02*
X0023182Y0095273D01*
X0023182Y0094075D02*
X0025685Y0094075D01*
X0025685Y0092876D02*
X0023182Y0092876D01*
X0023182Y0091678D02*
X0025685Y0091678D01*
X0025685Y0090479D02*
X0023182Y0090479D01*
X0023182Y0089281D02*
X0025685Y0089281D01*
X0025685Y0088082D02*
X0023182Y0088082D01*
X0023182Y0086884D02*
X0025685Y0086884D01*
X0025685Y0085685D02*
X0023182Y0085685D01*
X0023182Y0084487D02*
X0025685Y0084487D01*
X0025685Y0083288D02*
X0023182Y0083288D01*
X0023182Y0082090D02*
X0026035Y0082090D01*
X0027083Y0080891D02*
X0023182Y0080891D01*
X0023182Y0079693D02*
X0028281Y0079693D01*
X0029480Y0078494D02*
X0023182Y0078494D01*
X0023182Y0077296D02*
X0030678Y0077296D01*
X0031877Y0076097D02*
X0023182Y0076097D01*
X0023182Y0074899D02*
X0033075Y0074899D01*
X0034274Y0073700D02*
X0023182Y0073700D01*
X0023182Y0072502D02*
X0035472Y0072502D01*
X0036671Y0071303D02*
X0023182Y0071303D01*
X0023182Y0070105D02*
X0037869Y0070105D01*
X0039068Y0068906D02*
X0023182Y0068906D01*
X0023182Y0067708D02*
X0040266Y0067708D01*
X0041465Y0066509D02*
X0023182Y0066509D01*
X0033171Y0083288D02*
X0033186Y0083288D01*
X0034369Y0082090D02*
X0034384Y0082090D01*
X0035568Y0080891D02*
X0035583Y0080891D01*
X0036766Y0079693D02*
X0036781Y0079693D01*
X0037965Y0078494D02*
X0037980Y0078494D01*
X0039163Y0077296D02*
X0039178Y0077296D01*
X0040362Y0076097D02*
X0040377Y0076097D01*
X0041560Y0074899D02*
X0041575Y0074899D01*
X0042759Y0073700D02*
X0042774Y0073700D01*
X0043957Y0072502D02*
X0043972Y0072502D01*
X0045156Y0071303D02*
X0045171Y0071303D01*
X0046354Y0070105D02*
X0046912Y0070105D01*
X0047553Y0068906D02*
X0061248Y0068906D01*
X0060049Y0067708D02*
X0048751Y0067708D01*
X0039127Y0056921D02*
X0152741Y0056921D01*
X0152741Y0055992D02*
X0156333Y0052401D01*
X0161411Y0052401D01*
X0165003Y0055992D01*
X0165003Y0061071D01*
X0161411Y0064662D01*
X0156333Y0064662D01*
X0152741Y0061071D01*
X0152741Y0055992D01*
X0153011Y0055722D02*
X0039120Y0055722D01*
X0038624Y0054524D02*
X0154209Y0054524D01*
X0155408Y0053325D02*
X0038127Y0053325D01*
X0037090Y0052127D02*
X0168022Y0052127D01*
X0168022Y0053325D02*
X0162336Y0053325D01*
X0163535Y0054524D02*
X0168022Y0054524D01*
X0168022Y0055722D02*
X0164733Y0055722D01*
X0165003Y0056921D02*
X0168022Y0056921D01*
X0168022Y0059131D02*
X0172022Y0059131D01*
X0172022Y0068131D01*
X0169672Y0068131D01*
X0169189Y0068002D01*
X0168755Y0067752D01*
X0168402Y0067398D01*
X0168152Y0066965D01*
X0168022Y0066481D01*
X0168022Y0059131D01*
X0168022Y0059318D02*
X0165003Y0059318D01*
X0165003Y0060516D02*
X0168022Y0060516D01*
X0168022Y0061715D02*
X0164359Y0061715D01*
X0163160Y0062913D02*
X0168022Y0062913D01*
X0168022Y0064112D02*
X0161962Y0064112D01*
X0155783Y0064112D02*
X0139797Y0064112D01*
X0139797Y0065044D02*
X0138868Y0067286D01*
X0137152Y0069002D01*
X0134910Y0069931D01*
X0132483Y0069931D01*
X0130241Y0069002D01*
X0128526Y0067286D01*
X0127597Y0065044D01*
X0127597Y0062617D01*
X0128526Y0060375D01*
X0130241Y0058659D01*
X0132483Y0057731D01*
X0134910Y0057731D01*
X0137152Y0058659D01*
X0138868Y0060375D01*
X0139797Y0062617D01*
X0139797Y0065044D01*
X0139686Y0065310D02*
X0168022Y0065310D01*
X0168029Y0066509D02*
X0139190Y0066509D01*
X0138447Y0067708D02*
X0168711Y0067708D01*
X0172022Y0067708D02*
X0173222Y0067708D01*
X0173222Y0066509D02*
X0172022Y0066509D01*
X0172022Y0065310D02*
X0173222Y0065310D01*
X0173222Y0064112D02*
X0172022Y0064112D01*
X0172022Y0062913D02*
X0173222Y0062913D01*
X0173222Y0061715D02*
X0172022Y0061715D01*
X0172022Y0060516D02*
X0173222Y0060516D01*
X0173222Y0059318D02*
X0172022Y0059318D01*
X0172022Y0058119D02*
X0165003Y0058119D01*
X0168022Y0050928D02*
X0035798Y0050928D01*
X0031987Y0084487D02*
X0031972Y0084487D01*
X0042148Y0092631D02*
X0042148Y0093431D01*
X0047048Y0093431D01*
X0047048Y0096942D01*
X0046939Y0097349D01*
X0046728Y0097714D01*
X0046430Y0098012D01*
X0046066Y0098222D01*
X0045728Y0098313D01*
X0045864Y0098369D01*
X0047411Y0099916D01*
X0048248Y0101937D01*
X0048248Y0104125D01*
X0047411Y0106147D01*
X0045864Y0107694D01*
X0044549Y0108238D01*
X0044864Y0108369D01*
X0046411Y0109916D01*
X0047248Y0111937D01*
X0047248Y0114125D01*
X0046411Y0116147D01*
X0044864Y0117694D01*
X0044549Y0117824D01*
X0045864Y0118369D01*
X0047411Y0119916D01*
X0048248Y0121937D01*
X0048248Y0124125D01*
X0047411Y0126147D01*
X0045864Y0127694D01*
X0043842Y0128531D01*
X0041654Y0128531D01*
X0039633Y0127694D01*
X0039485Y0127546D01*
X0039485Y0181606D01*
X0049885Y0192439D01*
X0049885Y0093484D01*
X0047048Y0090647D01*
X0047048Y0092631D01*
X0042148Y0092631D01*
X0042148Y0092876D02*
X0049277Y0092876D01*
X0049885Y0094075D02*
X0047048Y0094075D01*
X0047048Y0095273D02*
X0049885Y0095273D01*
X0049885Y0096472D02*
X0047048Y0096472D01*
X0046753Y0097670D02*
X0049885Y0097670D01*
X0049885Y0098869D02*
X0046364Y0098869D01*
X0047473Y0100067D02*
X0049885Y0100067D01*
X0049885Y0101266D02*
X0047970Y0101266D01*
X0048248Y0102464D02*
X0049885Y0102464D01*
X0049885Y0103663D02*
X0048248Y0103663D01*
X0047943Y0104861D02*
X0049885Y0104861D01*
X0049885Y0106060D02*
X0047447Y0106060D01*
X0046299Y0107258D02*
X0049885Y0107258D01*
X0049885Y0108457D02*
X0044952Y0108457D01*
X0046150Y0109655D02*
X0049885Y0109655D01*
X0049885Y0110854D02*
X0046799Y0110854D01*
X0047248Y0112052D02*
X0049885Y0112052D01*
X0049885Y0113251D02*
X0047248Y0113251D01*
X0047114Y0114449D02*
X0049885Y0114449D01*
X0049885Y0115648D02*
X0046617Y0115648D01*
X0045711Y0116846D02*
X0049885Y0116846D01*
X0049885Y0118045D02*
X0045082Y0118045D01*
X0046738Y0119243D02*
X0049885Y0119243D01*
X0049885Y0120442D02*
X0047629Y0120442D01*
X0048125Y0121641D02*
X0049885Y0121641D01*
X0049885Y0122839D02*
X0048248Y0122839D01*
X0048248Y0124038D02*
X0049885Y0124038D01*
X0049885Y0125236D02*
X0047788Y0125236D01*
X0047123Y0126435D02*
X0049885Y0126435D01*
X0049885Y0127633D02*
X0045924Y0127633D01*
X0049885Y0128832D02*
X0039485Y0128832D01*
X0039485Y0130030D02*
X0049885Y0130030D01*
X0049885Y0131229D02*
X0039485Y0131229D01*
X0039485Y0132427D02*
X0049885Y0132427D01*
X0049885Y0133626D02*
X0039485Y0133626D01*
X0039485Y0134824D02*
X0049885Y0134824D01*
X0049885Y0136023D02*
X0039485Y0136023D01*
X0039485Y0137221D02*
X0049885Y0137221D01*
X0049885Y0138420D02*
X0039485Y0138420D01*
X0039485Y0139618D02*
X0049885Y0139618D01*
X0049885Y0140817D02*
X0039485Y0140817D01*
X0039485Y0142015D02*
X0049885Y0142015D01*
X0049885Y0143214D02*
X0039485Y0143214D01*
X0039485Y0144412D02*
X0049885Y0144412D01*
X0049885Y0145611D02*
X0039485Y0145611D01*
X0039485Y0146809D02*
X0049885Y0146809D01*
X0049885Y0148008D02*
X0039485Y0148008D01*
X0039485Y0149206D02*
X0049885Y0149206D01*
X0049885Y0150405D02*
X0039485Y0150405D01*
X0039485Y0151603D02*
X0049885Y0151603D01*
X0049885Y0152802D02*
X0039485Y0152802D01*
X0039485Y0154000D02*
X0049885Y0154000D01*
X0049885Y0155199D02*
X0039485Y0155199D01*
X0039485Y0156397D02*
X0049885Y0156397D01*
X0049885Y0157596D02*
X0039485Y0157596D01*
X0039485Y0158794D02*
X0049885Y0158794D01*
X0049885Y0159993D02*
X0039485Y0159993D01*
X0039485Y0161191D02*
X0049885Y0161191D01*
X0049885Y0162390D02*
X0039485Y0162390D01*
X0039485Y0163588D02*
X0049885Y0163588D01*
X0049885Y0164787D02*
X0039485Y0164787D01*
X0039485Y0165985D02*
X0049885Y0165985D01*
X0049885Y0167184D02*
X0039485Y0167184D01*
X0039485Y0168382D02*
X0049885Y0168382D01*
X0049885Y0169581D02*
X0039485Y0169581D01*
X0039485Y0170779D02*
X0049885Y0170779D01*
X0049885Y0171978D02*
X0039485Y0171978D01*
X0039485Y0173177D02*
X0049885Y0173177D01*
X0049885Y0174375D02*
X0039485Y0174375D01*
X0039485Y0175574D02*
X0049885Y0175574D01*
X0049885Y0176772D02*
X0039485Y0176772D01*
X0039485Y0177971D02*
X0049885Y0177971D01*
X0049885Y0179169D02*
X0039485Y0179169D01*
X0039485Y0180368D02*
X0049885Y0180368D01*
X0049885Y0181566D02*
X0039485Y0181566D01*
X0040597Y0182765D02*
X0049885Y0182765D01*
X0049885Y0183963D02*
X0041748Y0183963D01*
X0042898Y0185162D02*
X0049885Y0185162D01*
X0049885Y0186360D02*
X0044049Y0186360D01*
X0045200Y0187559D02*
X0049885Y0187559D01*
X0049885Y0188757D02*
X0046350Y0188757D01*
X0047501Y0189956D02*
X0049885Y0189956D01*
X0049885Y0191154D02*
X0048651Y0191154D01*
X0049802Y0192353D02*
X0049885Y0192353D01*
X0054485Y0192353D02*
X0070885Y0192353D01*
X0070885Y0193551D02*
X0054485Y0193551D01*
X0054485Y0193579D02*
X0089138Y0228231D01*
X0089632Y0228231D01*
X0070885Y0209484D01*
X0070885Y0207579D01*
X0070885Y0103579D01*
X0072232Y0102231D01*
X0076885Y0097579D01*
X0076885Y0086484D01*
X0074232Y0083831D01*
X0071954Y0083831D01*
X0071215Y0084570D01*
X0069898Y0085116D01*
X0068472Y0085116D01*
X0067155Y0084570D01*
X0066146Y0083562D01*
X0065769Y0082651D01*
X0065769Y0083244D01*
X0065224Y0084562D01*
X0064215Y0085570D01*
X0062898Y0086116D01*
X0061853Y0086116D01*
X0054485Y0093484D01*
X0054485Y0193579D01*
X0055656Y0194750D02*
X0070885Y0194750D01*
X0070885Y0195948D02*
X0056855Y0195948D01*
X0058053Y0197147D02*
X0070885Y0197147D01*
X0070885Y0198345D02*
X0059252Y0198345D01*
X0060450Y0199544D02*
X0070885Y0199544D01*
X0070885Y0200742D02*
X0061649Y0200742D01*
X0062847Y0201941D02*
X0070885Y0201941D01*
X0070885Y0203139D02*
X0064046Y0203139D01*
X0065244Y0204338D02*
X0070885Y0204338D01*
X0070885Y0205536D02*
X0066443Y0205536D01*
X0067641Y0206735D02*
X0070885Y0206735D01*
X0070885Y0207933D02*
X0068840Y0207933D01*
X0070038Y0209132D02*
X0070885Y0209132D01*
X0071237Y0210330D02*
X0071731Y0210330D01*
X0072435Y0211529D02*
X0072930Y0211529D01*
X0073634Y0212727D02*
X0074128Y0212727D01*
X0074832Y0213926D02*
X0075327Y0213926D01*
X0076031Y0215124D02*
X0076525Y0215124D01*
X0077229Y0216323D02*
X0077724Y0216323D01*
X0078428Y0217521D02*
X0078922Y0217521D01*
X0079626Y0218720D02*
X0080121Y0218720D01*
X0080825Y0219918D02*
X0081319Y0219918D01*
X0082023Y0221117D02*
X0082518Y0221117D01*
X0083222Y0222315D02*
X0083717Y0222315D01*
X0084420Y0223514D02*
X0084915Y0223514D01*
X0085619Y0224712D02*
X0086114Y0224712D01*
X0086817Y0225911D02*
X0087312Y0225911D01*
X0088016Y0227110D02*
X0088511Y0227110D01*
X0091882Y0221117D02*
X0098531Y0221117D01*
X0103840Y0221117D02*
X0131601Y0221117D01*
X0131974Y0219918D02*
X0090683Y0219918D01*
X0089485Y0218720D02*
X0132928Y0218720D01*
X0137443Y0218720D02*
X0163017Y0218720D01*
X0161630Y0217521D02*
X0156806Y0217521D01*
X0158005Y0216323D02*
X0161133Y0216323D01*
X0161101Y0215124D02*
X0159203Y0215124D01*
X0160402Y0213926D02*
X0161470Y0213926D01*
X0161600Y0212727D02*
X0162420Y0212727D01*
X0162799Y0211529D02*
X0165576Y0211529D01*
X0166775Y0210330D02*
X0163997Y0210330D01*
X0165196Y0209132D02*
X0167973Y0209132D01*
X0169172Y0207933D02*
X0166394Y0207933D01*
X0167593Y0206735D02*
X0170370Y0206735D01*
X0171569Y0205536D02*
X0168791Y0205536D01*
X0169990Y0204338D02*
X0172767Y0204338D01*
X0173966Y0203139D02*
X0171188Y0203139D01*
X0172387Y0201941D02*
X0175164Y0201941D01*
X0176363Y0200742D02*
X0173585Y0200742D01*
X0174784Y0199544D02*
X0177561Y0199544D01*
X0178760Y0198345D02*
X0175982Y0198345D01*
X0177181Y0197147D02*
X0179958Y0197147D01*
X0181157Y0195948D02*
X0178379Y0195948D01*
X0179578Y0194750D02*
X0182355Y0194750D01*
X0183554Y0193551D02*
X0180776Y0193551D01*
X0181975Y0192353D02*
X0184752Y0192353D01*
X0185951Y0191154D02*
X0183173Y0191154D01*
X0184372Y0189956D02*
X0187149Y0189956D01*
X0185570Y0188757D02*
X0217611Y0188757D01*
X0218108Y0187559D02*
X0186769Y0187559D01*
X0187967Y0186360D02*
X0219169Y0186360D01*
X0217582Y0194750D02*
X0188578Y0194750D01*
X0187379Y0195948D02*
X0218079Y0195948D01*
X0219099Y0197147D02*
X0186181Y0197147D01*
X0179348Y0188757D02*
X0166885Y0188757D01*
X0166885Y0187559D02*
X0180546Y0187559D01*
X0181745Y0186360D02*
X0166885Y0186360D01*
X0166885Y0185162D02*
X0182943Y0185162D01*
X0184142Y0183963D02*
X0166885Y0183963D01*
X0166885Y0182765D02*
X0185340Y0182765D01*
X0186539Y0181566D02*
X0166885Y0181566D01*
X0166885Y0180368D02*
X0187738Y0180368D01*
X0188936Y0179169D02*
X0166885Y0179169D01*
X0166236Y0177971D02*
X0190135Y0177971D01*
X0191333Y0176772D02*
X0165037Y0176772D01*
X0166353Y0175574D02*
X0177267Y0175574D01*
X0180103Y0175574D02*
X0192532Y0175574D01*
X0193730Y0174375D02*
X0181660Y0174375D01*
X0182194Y0173177D02*
X0194929Y0173177D01*
X0196127Y0171978D02*
X0182269Y0171978D01*
X0181943Y0170779D02*
X0197326Y0170779D01*
X0198524Y0169581D02*
X0181054Y0169581D01*
X0179587Y0168382D02*
X0199723Y0168382D01*
X0200921Y0167184D02*
X0180785Y0167184D01*
X0176677Y0164787D02*
X0171260Y0164787D01*
X0168485Y0163588D02*
X0177601Y0163588D01*
X0177778Y0162390D02*
X0168485Y0162390D01*
X0168485Y0161191D02*
X0178456Y0161191D01*
X0180361Y0159993D02*
X0168485Y0159993D01*
X0168485Y0158794D02*
X0208851Y0158794D01*
X0208943Y0157596D02*
X0168485Y0157596D01*
X0168485Y0156397D02*
X0209500Y0156397D01*
X0211114Y0155199D02*
X0168485Y0155199D01*
X0182009Y0159993D02*
X0208112Y0159993D01*
X0206914Y0161191D02*
X0183914Y0161191D01*
X0184592Y0162390D02*
X0205715Y0162390D01*
X0204517Y0163588D02*
X0184769Y0163588D01*
X0184545Y0164787D02*
X0203318Y0164787D01*
X0202120Y0165985D02*
X0183800Y0165985D01*
X0178149Y0189956D02*
X0166885Y0189956D01*
X0166885Y0191154D02*
X0176951Y0191154D01*
X0175752Y0192353D02*
X0166885Y0192353D01*
X0166885Y0193551D02*
X0174554Y0193551D01*
X0173355Y0194750D02*
X0166885Y0194750D01*
X0166885Y0195948D02*
X0172157Y0195948D01*
X0170958Y0197147D02*
X0166885Y0197147D01*
X0166885Y0198345D02*
X0169760Y0198345D01*
X0168561Y0199544D02*
X0165784Y0199544D01*
X0164585Y0200742D02*
X0167363Y0200742D01*
X0166164Y0201941D02*
X0163387Y0201941D01*
X0162188Y0203139D02*
X0164966Y0203139D01*
X0163767Y0204338D02*
X0160990Y0204338D01*
X0159791Y0205536D02*
X0162569Y0205536D01*
X0161370Y0206735D02*
X0158593Y0206735D01*
X0157394Y0207933D02*
X0160172Y0207933D01*
X0158973Y0209132D02*
X0156196Y0209132D01*
X0154997Y0210330D02*
X0157775Y0210330D01*
X0156576Y0211529D02*
X0153799Y0211529D01*
X0152600Y0212727D02*
X0155378Y0212727D01*
X0152370Y0206735D02*
X0078385Y0206735D01*
X0078385Y0205536D02*
X0153569Y0205536D01*
X0154767Y0204338D02*
X0078385Y0204338D01*
X0078385Y0203139D02*
X0155966Y0203139D01*
X0157164Y0201941D02*
X0078385Y0201941D01*
X0078385Y0200742D02*
X0158363Y0200742D01*
X0159561Y0199544D02*
X0078385Y0199544D01*
X0078385Y0198345D02*
X0160760Y0198345D01*
X0161958Y0197147D02*
X0078385Y0197147D01*
X0078385Y0195948D02*
X0162485Y0195948D01*
X0162485Y0194750D02*
X0078385Y0194750D01*
X0078385Y0193551D02*
X0162485Y0193551D01*
X0162485Y0192353D02*
X0078385Y0192353D01*
X0078385Y0191154D02*
X0162485Y0191154D01*
X0162485Y0189956D02*
X0078385Y0189956D01*
X0078385Y0188757D02*
X0162485Y0188757D01*
X0162485Y0187559D02*
X0078385Y0187559D01*
X0078385Y0186360D02*
X0162485Y0186360D01*
X0162485Y0185162D02*
X0078385Y0185162D01*
X0078385Y0183963D02*
X0158104Y0183963D01*
X0160266Y0183963D02*
X0162485Y0183963D01*
X0162485Y0182765D02*
X0162021Y0182765D01*
X0157074Y0177531D02*
X0156485Y0176943D01*
X0152985Y0173443D01*
X0152985Y0171620D01*
X0152985Y0152344D01*
X0152657Y0152344D01*
X0149794Y0149481D01*
X0147130Y0152144D01*
X0145335Y0152144D01*
X0145335Y0147244D01*
X0144535Y0147244D01*
X0144535Y0152144D01*
X0142740Y0152144D01*
X0139735Y0149140D01*
X0139735Y0156329D01*
X0144603Y0161197D01*
X0145648Y0161197D01*
X0146965Y0161743D01*
X0147974Y0162751D01*
X0148519Y0164068D01*
X0148519Y0165494D01*
X0147974Y0166812D01*
X0146965Y0167820D01*
X0145648Y0168366D01*
X0145636Y0168366D01*
X0154802Y0177531D01*
X0157074Y0177531D01*
X0156314Y0176772D02*
X0154042Y0176772D01*
X0155116Y0175574D02*
X0152844Y0175574D01*
X0153917Y0174375D02*
X0151645Y0174375D01*
X0150447Y0173177D02*
X0152985Y0173177D01*
X0152985Y0171978D02*
X0149248Y0171978D01*
X0148050Y0170779D02*
X0152985Y0170779D01*
X0152985Y0169581D02*
X0146851Y0169581D01*
X0145653Y0168382D02*
X0152985Y0168382D01*
X0152985Y0167184D02*
X0147601Y0167184D01*
X0148316Y0165985D02*
X0152985Y0165985D01*
X0152985Y0164787D02*
X0148519Y0164787D01*
X0148320Y0163588D02*
X0152985Y0163588D01*
X0152985Y0162390D02*
X0147613Y0162390D01*
X0144598Y0161191D02*
X0152985Y0161191D01*
X0152985Y0159993D02*
X0143399Y0159993D01*
X0142201Y0158794D02*
X0152985Y0158794D01*
X0152985Y0157596D02*
X0141002Y0157596D01*
X0139804Y0156397D02*
X0152985Y0156397D01*
X0152985Y0155199D02*
X0139735Y0155199D01*
X0139735Y0154000D02*
X0152985Y0154000D01*
X0152985Y0152802D02*
X0139735Y0152802D01*
X0139735Y0151603D02*
X0142199Y0151603D01*
X0141000Y0150405D02*
X0139735Y0150405D01*
X0139735Y0149206D02*
X0139802Y0149206D01*
X0144535Y0149206D02*
X0145335Y0149206D01*
X0145335Y0148008D02*
X0144535Y0148008D01*
X0144535Y0150405D02*
X0145335Y0150405D01*
X0145335Y0151603D02*
X0144535Y0151603D01*
X0147671Y0151603D02*
X0151916Y0151603D01*
X0150717Y0150405D02*
X0148870Y0150405D01*
X0134771Y0165985D02*
X0078385Y0165985D01*
X0078385Y0164787D02*
X0133572Y0164787D01*
X0132373Y0163588D02*
X0078385Y0163588D01*
X0078385Y0162390D02*
X0131175Y0162390D01*
X0130685Y0161191D02*
X0078385Y0161191D01*
X0078385Y0159993D02*
X0130685Y0159993D01*
X0130685Y0158794D02*
X0078385Y0158794D01*
X0078385Y0157596D02*
X0130685Y0157596D01*
X0130685Y0156397D02*
X0078385Y0156397D01*
X0078385Y0155199D02*
X0130685Y0155199D01*
X0130685Y0154000D02*
X0078385Y0154000D01*
X0078385Y0152802D02*
X0130685Y0152802D01*
X0130685Y0151603D02*
X0078385Y0151603D01*
X0078385Y0150405D02*
X0130685Y0150405D01*
X0130685Y0149206D02*
X0078385Y0149206D01*
X0078385Y0148008D02*
X0130685Y0148008D01*
X0130685Y0146809D02*
X0078385Y0146809D01*
X0078385Y0145611D02*
X0130685Y0145611D01*
X0130685Y0144412D02*
X0078385Y0144412D01*
X0078385Y0143214D02*
X0130685Y0143214D01*
X0130685Y0142015D02*
X0078385Y0142015D01*
X0078385Y0140817D02*
X0130685Y0140817D01*
X0130685Y0139618D02*
X0078385Y0139618D01*
X0078385Y0138420D02*
X0130685Y0138420D01*
X0147509Y0121641D02*
X0152361Y0121641D01*
X0151162Y0122839D02*
X0148708Y0122839D01*
X0149906Y0124038D02*
X0149964Y0124038D01*
X0134515Y0090479D02*
X0232180Y0090479D01*
X0232180Y0089281D02*
X0135714Y0089281D01*
X0136289Y0088082D02*
X0232180Y0088082D01*
X0232180Y0086884D02*
X0136685Y0086884D01*
X0136685Y0085685D02*
X0232180Y0085685D01*
X0232180Y0084487D02*
X0136498Y0084487D01*
X0136002Y0083288D02*
X0232180Y0083288D01*
X0232180Y0082090D02*
X0135022Y0082090D01*
X0137248Y0068906D02*
X0232180Y0068906D01*
X0232180Y0067708D02*
X0196533Y0067708D01*
X0197215Y0066509D02*
X0232180Y0066509D01*
X0232180Y0065310D02*
X0197222Y0065310D01*
X0197222Y0064112D02*
X0221145Y0064112D01*
X0218927Y0062913D02*
X0197222Y0062913D01*
X0197222Y0061715D02*
X0217729Y0061715D01*
X0217010Y0060516D02*
X0197222Y0060516D01*
X0197222Y0059318D02*
X0216513Y0059318D01*
X0216235Y0058119D02*
X0193222Y0058119D01*
X0193222Y0059318D02*
X0192022Y0059318D01*
X0192022Y0059131D02*
X0192022Y0068131D01*
X0189672Y0068131D01*
X0189189Y0068002D01*
X0188755Y0067752D01*
X0188402Y0067398D01*
X0188152Y0066965D01*
X0188022Y0066481D01*
X0188022Y0059131D01*
X0192022Y0059131D01*
X0192022Y0058119D02*
X0173222Y0058119D01*
X0177222Y0056921D02*
X0188022Y0056921D01*
X0188022Y0055722D02*
X0177222Y0055722D01*
X0177222Y0054524D02*
X0188022Y0054524D01*
X0188022Y0053325D02*
X0177222Y0053325D01*
X0177222Y0052127D02*
X0188022Y0052127D01*
X0188022Y0050928D02*
X0177222Y0050928D01*
X0177222Y0059318D02*
X0188022Y0059318D01*
X0188022Y0060516D02*
X0177222Y0060516D01*
X0177222Y0061715D02*
X0188022Y0061715D01*
X0188022Y0062913D02*
X0177222Y0062913D01*
X0177222Y0064112D02*
X0188022Y0064112D01*
X0188022Y0065310D02*
X0177222Y0065310D01*
X0177215Y0066509D02*
X0188029Y0066509D01*
X0188711Y0067708D02*
X0176533Y0067708D01*
X0192022Y0067708D02*
X0193222Y0067708D01*
X0193222Y0066509D02*
X0192022Y0066509D01*
X0192022Y0065310D02*
X0193222Y0065310D01*
X0193222Y0064112D02*
X0192022Y0064112D01*
X0192022Y0062913D02*
X0193222Y0062913D01*
X0193222Y0061715D02*
X0192022Y0061715D01*
X0192022Y0060516D02*
X0193222Y0060516D01*
X0197222Y0056921D02*
X0216235Y0056921D01*
X0216242Y0055722D02*
X0197222Y0055722D01*
X0197222Y0054524D02*
X0216738Y0054524D01*
X0217235Y0053325D02*
X0197222Y0053325D01*
X0197222Y0052127D02*
X0218273Y0052127D01*
X0219564Y0050928D02*
X0197222Y0050928D01*
X0227530Y0050928D02*
X0231391Y0050928D01*
X0232147Y0052127D02*
X0228822Y0052127D01*
X0229860Y0053325D02*
X0232180Y0053325D01*
X0232180Y0054524D02*
X0230356Y0054524D01*
X0230852Y0055722D02*
X0232180Y0055722D01*
X0232180Y0056921D02*
X0230859Y0056921D01*
X0230859Y0058119D02*
X0232180Y0058119D01*
X0232180Y0059318D02*
X0230581Y0059318D01*
X0230085Y0060516D02*
X0232180Y0060516D01*
X0232180Y0061715D02*
X0229365Y0061715D01*
X0228167Y0062913D02*
X0232180Y0062913D01*
X0232180Y0064112D02*
X0225949Y0064112D01*
X0154584Y0062913D02*
X0139797Y0062913D01*
X0139423Y0061715D02*
X0153386Y0061715D01*
X0152741Y0060516D02*
X0138927Y0060516D01*
X0137811Y0059318D02*
X0152741Y0059318D01*
X0152741Y0058119D02*
X0135849Y0058119D01*
X0131545Y0058119D02*
X0122070Y0058119D01*
X0121131Y0057731D02*
X0123373Y0058659D01*
X0125089Y0060375D01*
X0126017Y0062617D01*
X0126017Y0065044D01*
X0125089Y0067286D01*
X0123373Y0069002D01*
X0121131Y0069931D01*
X0118704Y0069931D01*
X0116462Y0069002D01*
X0114746Y0067286D01*
X0113817Y0065044D01*
X0113817Y0062617D01*
X0114746Y0060375D01*
X0116462Y0058659D01*
X0118704Y0057731D01*
X0121131Y0057731D01*
X0124031Y0059318D02*
X0129583Y0059318D01*
X0128467Y0060516D02*
X0125147Y0060516D01*
X0125644Y0061715D02*
X0127971Y0061715D01*
X0127597Y0062913D02*
X0126017Y0062913D01*
X0126017Y0064112D02*
X0127597Y0064112D01*
X0127707Y0065310D02*
X0125907Y0065310D01*
X0125410Y0066509D02*
X0128204Y0066509D01*
X0128947Y0067708D02*
X0124667Y0067708D01*
X0123469Y0068906D02*
X0130146Y0068906D01*
X0116366Y0068906D02*
X0109689Y0068906D01*
X0110888Y0067708D02*
X0115168Y0067708D01*
X0114424Y0066509D02*
X0111631Y0066509D01*
X0112127Y0065310D02*
X0113928Y0065310D01*
X0113817Y0064112D02*
X0112238Y0064112D01*
X0112238Y0062913D02*
X0113817Y0062913D01*
X0114191Y0061715D02*
X0111864Y0061715D01*
X0111368Y0060516D02*
X0114687Y0060516D01*
X0115803Y0059318D02*
X0110252Y0059318D01*
X0108290Y0058119D02*
X0117765Y0058119D01*
X0101168Y0077296D02*
X0068626Y0077296D01*
X0071217Y0078494D02*
X0099970Y0078494D01*
X0098771Y0079693D02*
X0076599Y0079693D01*
X0077798Y0080891D02*
X0097573Y0080891D01*
X0096374Y0082090D02*
X0078996Y0082090D01*
X0080195Y0083288D02*
X0095176Y0083288D01*
X0093977Y0084487D02*
X0081393Y0084487D01*
X0081485Y0085685D02*
X0092778Y0085685D01*
X0091580Y0086884D02*
X0081485Y0086884D01*
X0081485Y0088082D02*
X0090381Y0088082D01*
X0076885Y0088082D02*
X0059887Y0088082D01*
X0061085Y0086884D02*
X0076885Y0086884D01*
X0076086Y0085685D02*
X0063937Y0085685D01*
X0065255Y0084487D02*
X0067071Y0084487D01*
X0066033Y0083288D02*
X0065751Y0083288D01*
X0071299Y0084487D02*
X0074888Y0084487D01*
X0076885Y0089281D02*
X0058688Y0089281D01*
X0057490Y0090479D02*
X0076885Y0090479D01*
X0076885Y0091678D02*
X0056291Y0091678D01*
X0055093Y0092876D02*
X0076885Y0092876D01*
X0076885Y0094075D02*
X0054485Y0094075D01*
X0054485Y0095273D02*
X0076885Y0095273D01*
X0076885Y0096472D02*
X0054485Y0096472D01*
X0054485Y0097670D02*
X0076793Y0097670D01*
X0075595Y0098869D02*
X0054485Y0098869D01*
X0054485Y0100067D02*
X0074396Y0100067D01*
X0073198Y0101266D02*
X0054485Y0101266D01*
X0054485Y0102464D02*
X0071999Y0102464D01*
X0070885Y0103663D02*
X0054485Y0103663D01*
X0054485Y0104861D02*
X0070885Y0104861D01*
X0070885Y0106060D02*
X0054485Y0106060D01*
X0054485Y0107258D02*
X0070885Y0107258D01*
X0070885Y0108457D02*
X0054485Y0108457D01*
X0054485Y0109655D02*
X0070885Y0109655D01*
X0070885Y0110854D02*
X0054485Y0110854D01*
X0054485Y0112052D02*
X0070885Y0112052D01*
X0070885Y0113251D02*
X0054485Y0113251D01*
X0054485Y0114449D02*
X0070885Y0114449D01*
X0070885Y0115648D02*
X0054485Y0115648D01*
X0054485Y0116846D02*
X0070885Y0116846D01*
X0070885Y0118045D02*
X0054485Y0118045D01*
X0054485Y0119243D02*
X0070885Y0119243D01*
X0070885Y0120442D02*
X0054485Y0120442D01*
X0054485Y0121641D02*
X0070885Y0121641D01*
X0070885Y0122839D02*
X0054485Y0122839D01*
X0054485Y0124038D02*
X0070885Y0124038D01*
X0070885Y0125236D02*
X0054485Y0125236D01*
X0054485Y0126435D02*
X0070885Y0126435D01*
X0070885Y0127633D02*
X0054485Y0127633D01*
X0054485Y0128832D02*
X0070885Y0128832D01*
X0070885Y0130030D02*
X0054485Y0130030D01*
X0054485Y0131229D02*
X0070885Y0131229D01*
X0070885Y0132427D02*
X0054485Y0132427D01*
X0054485Y0133626D02*
X0070885Y0133626D01*
X0070885Y0134824D02*
X0054485Y0134824D01*
X0054485Y0136023D02*
X0070885Y0136023D01*
X0070885Y0137221D02*
X0054485Y0137221D01*
X0054485Y0138420D02*
X0070885Y0138420D01*
X0070885Y0139618D02*
X0054485Y0139618D01*
X0054485Y0140817D02*
X0070885Y0140817D01*
X0070885Y0142015D02*
X0054485Y0142015D01*
X0054485Y0143214D02*
X0070885Y0143214D01*
X0070885Y0144412D02*
X0054485Y0144412D01*
X0054485Y0145611D02*
X0070885Y0145611D01*
X0070885Y0146809D02*
X0054485Y0146809D01*
X0054485Y0148008D02*
X0070885Y0148008D01*
X0070885Y0149206D02*
X0054485Y0149206D01*
X0054485Y0150405D02*
X0070885Y0150405D01*
X0070885Y0151603D02*
X0054485Y0151603D01*
X0054485Y0152802D02*
X0070885Y0152802D01*
X0070885Y0154000D02*
X0054485Y0154000D01*
X0054485Y0155199D02*
X0070885Y0155199D01*
X0070885Y0156397D02*
X0054485Y0156397D01*
X0054485Y0157596D02*
X0070885Y0157596D01*
X0070885Y0158794D02*
X0054485Y0158794D01*
X0054485Y0159993D02*
X0070885Y0159993D01*
X0070885Y0161191D02*
X0054485Y0161191D01*
X0054485Y0162390D02*
X0070885Y0162390D01*
X0070885Y0163588D02*
X0054485Y0163588D01*
X0054485Y0164787D02*
X0070885Y0164787D01*
X0070885Y0165985D02*
X0054485Y0165985D01*
X0054485Y0167184D02*
X0070885Y0167184D01*
X0070885Y0168382D02*
X0054485Y0168382D01*
X0054485Y0169581D02*
X0070885Y0169581D01*
X0070885Y0170779D02*
X0054485Y0170779D01*
X0054485Y0171978D02*
X0070885Y0171978D01*
X0070885Y0173177D02*
X0054485Y0173177D01*
X0054485Y0174375D02*
X0070885Y0174375D01*
X0070885Y0175574D02*
X0054485Y0175574D01*
X0054485Y0176772D02*
X0070885Y0176772D01*
X0070885Y0177971D02*
X0054485Y0177971D01*
X0054485Y0179169D02*
X0070885Y0179169D01*
X0070885Y0180368D02*
X0054485Y0180368D01*
X0054485Y0181566D02*
X0070885Y0181566D01*
X0070885Y0182765D02*
X0054485Y0182765D01*
X0054485Y0183963D02*
X0070885Y0183963D01*
X0070885Y0185162D02*
X0054485Y0185162D01*
X0054485Y0186360D02*
X0070885Y0186360D01*
X0070885Y0187559D02*
X0054485Y0187559D01*
X0054485Y0188757D02*
X0070885Y0188757D01*
X0070885Y0189956D02*
X0054485Y0189956D01*
X0054485Y0191154D02*
X0070885Y0191154D01*
X0078385Y0182765D02*
X0151550Y0182765D01*
X0150351Y0181566D02*
X0078385Y0181566D01*
X0078385Y0180368D02*
X0149153Y0180368D01*
X0147954Y0179169D02*
X0078385Y0179169D01*
X0078385Y0177971D02*
X0146756Y0177971D01*
X0145557Y0176772D02*
X0078385Y0176772D01*
X0078385Y0175574D02*
X0144359Y0175574D01*
X0143160Y0174375D02*
X0078385Y0174375D01*
X0078385Y0173177D02*
X0141962Y0173177D01*
X0140763Y0171978D02*
X0078385Y0171978D01*
X0078385Y0170779D02*
X0139565Y0170779D01*
X0138366Y0169581D02*
X0078385Y0169581D01*
X0078385Y0168382D02*
X0137168Y0168382D01*
X0135969Y0167184D02*
X0078385Y0167184D01*
X0078698Y0207933D02*
X0151172Y0207933D01*
X0149973Y0209132D02*
X0129198Y0209132D01*
X0125672Y0209132D02*
X0117948Y0209132D01*
X0114422Y0209132D02*
X0108948Y0209132D01*
X0110256Y0210330D02*
X0113114Y0210330D01*
X0112617Y0211529D02*
X0110753Y0211529D01*
X0110769Y0212727D02*
X0112601Y0212727D01*
X0106314Y0217521D02*
X0088286Y0217521D01*
X0087088Y0216323D02*
X0105115Y0216323D01*
X0104959Y0215124D02*
X0085889Y0215124D01*
X0084691Y0213926D02*
X0103987Y0213926D01*
X0103601Y0212727D02*
X0083492Y0212727D01*
X0082294Y0211529D02*
X0103617Y0211529D01*
X0104114Y0210330D02*
X0081095Y0210330D01*
X0079897Y0209132D02*
X0105422Y0209132D01*
X0104561Y0222315D02*
X0128148Y0222315D01*
X0126950Y0223514D02*
X0104769Y0223514D01*
X0104575Y0224712D02*
X0125751Y0224712D01*
X0124553Y0225911D02*
X0103874Y0225911D01*
X0108553Y0239095D02*
X0084491Y0239095D01*
X0085689Y0240293D02*
X0107818Y0240293D01*
X0107601Y0241492D02*
X0086888Y0241492D01*
X0088087Y0242690D02*
X0107785Y0242690D01*
X0108473Y0243889D02*
X0089285Y0243889D01*
X0090484Y0245087D02*
X0110404Y0245087D01*
X0111967Y0245087D02*
X0128404Y0245087D01*
X0126473Y0243889D02*
X0113897Y0243889D01*
X0133634Y0225911D02*
X0169563Y0225911D01*
X0170761Y0224712D02*
X0136871Y0224712D01*
X0138243Y0223514D02*
X0171960Y0223514D01*
X0173158Y0222315D02*
X0138740Y0222315D01*
X0138769Y0221117D02*
X0174357Y0221117D01*
X0175555Y0219918D02*
X0138397Y0219918D01*
X0138080Y0227110D02*
X0134476Y0227110D01*
X0134769Y0228308D02*
X0136339Y0228308D01*
X0135730Y0229507D02*
X0134661Y0229507D01*
X0140290Y0227110D02*
X0168364Y0227110D01*
X0167166Y0228308D02*
X0142031Y0228308D01*
X0142640Y0229507D02*
X0165967Y0229507D01*
X0164769Y0230705D02*
X0142769Y0230705D01*
X0142496Y0231904D02*
X0163570Y0231904D01*
X0166353Y0218720D02*
X0176754Y0218720D01*
X0177952Y0217521D02*
X0167740Y0217521D01*
X0168237Y0216323D02*
X0179151Y0216323D01*
X0180349Y0215124D02*
X0168269Y0215124D01*
X0169402Y0213926D02*
X0181548Y0213926D01*
X0182746Y0212727D02*
X0170600Y0212727D01*
X0171799Y0211529D02*
X0183945Y0211529D01*
X0185143Y0210330D02*
X0172997Y0210330D01*
X0174196Y0209132D02*
X0186342Y0209132D01*
X0187392Y0208082D02*
X0187392Y0208082D01*
X0187540Y0207933D02*
X0175394Y0207933D01*
X0182295Y0257072D02*
X0232180Y0257072D01*
X0232180Y0258271D02*
X0183335Y0258271D01*
X0183769Y0259469D02*
X0232180Y0259469D01*
X0232180Y0260668D02*
X0183769Y0260668D01*
X0183305Y0261866D02*
X0232180Y0261866D01*
X0232180Y0263065D02*
X0182220Y0263065D01*
X0179485Y0264263D02*
X0232180Y0264263D01*
X0232180Y0265462D02*
X0179485Y0265462D01*
X0179485Y0266660D02*
X0232180Y0266660D01*
X0232180Y0267859D02*
X0179485Y0267859D01*
X0179485Y0269057D02*
X0232180Y0269057D01*
X0232180Y0270256D02*
X0179485Y0270256D01*
X0179485Y0271454D02*
X0232180Y0271454D01*
X0232180Y0272653D02*
X0179485Y0272653D01*
X0179485Y0273851D02*
X0232180Y0273851D01*
X0232180Y0275050D02*
X0179485Y0275050D01*
X0179485Y0276248D02*
X0232180Y0276248D01*
X0232180Y0277447D02*
X0180170Y0277447D01*
X0180698Y0278645D02*
X0232180Y0278645D01*
X0232180Y0279844D02*
X0180769Y0279844D01*
X0180439Y0281043D02*
X0232180Y0281043D01*
X0232180Y0282241D02*
X0179544Y0282241D01*
X0157676Y0283440D02*
X0144694Y0283440D01*
X0145693Y0282241D02*
X0156677Y0282241D01*
X0156275Y0281043D02*
X0146095Y0281043D01*
X0146093Y0279844D02*
X0156277Y0279844D01*
X0156773Y0278645D02*
X0145597Y0278645D01*
X0144344Y0277447D02*
X0158026Y0277447D01*
X0120175Y0289432D02*
X0216467Y0289432D01*
X0216235Y0290631D02*
X0120422Y0290631D01*
X0120362Y0291829D02*
X0216235Y0291829D01*
X0216289Y0293028D02*
X0120046Y0293028D01*
X0119352Y0294226D02*
X0216785Y0294226D01*
X0217282Y0295425D02*
X0118092Y0295425D01*
X0115522Y0295425D02*
X0114722Y0295425D01*
X0114722Y0294226D02*
X0115522Y0294226D01*
X0115522Y0293028D02*
X0114722Y0293028D01*
X0114722Y0291829D02*
X0115522Y0291829D01*
X0115522Y0290631D02*
X0114722Y0290631D01*
X0114722Y0289432D02*
X0115522Y0289432D01*
X0115522Y0288234D02*
X0114722Y0288234D01*
X0114722Y0287035D02*
X0115522Y0287035D01*
X0115522Y0285837D02*
X0114722Y0285837D01*
X0114040Y0285837D02*
X0106953Y0285837D01*
X0108904Y0287035D02*
X0111623Y0287035D01*
X0110604Y0288234D02*
X0109916Y0288234D01*
X0109705Y0294226D02*
X0110892Y0294226D01*
X0112152Y0295425D02*
X0108507Y0295425D01*
X0101737Y0295425D02*
X0098507Y0295425D01*
X0099705Y0294226D02*
X0100539Y0294226D01*
X0100328Y0288234D02*
X0099916Y0288234D01*
X0098904Y0287035D02*
X0101340Y0287035D01*
X0103291Y0285837D02*
X0098122Y0285837D01*
X0092122Y0283440D02*
X0023182Y0283440D01*
X0023182Y0284638D02*
X0029141Y0284638D01*
X0027083Y0285837D02*
X0023182Y0285837D01*
X0023182Y0287035D02*
X0025884Y0287035D01*
X0025231Y0288234D02*
X0023182Y0288234D01*
X0023182Y0289432D02*
X0024734Y0289432D01*
X0024503Y0290631D02*
X0023182Y0290631D01*
X0023182Y0291829D02*
X0024503Y0291829D01*
X0024556Y0293028D02*
X0023182Y0293028D01*
X0023182Y0294226D02*
X0025053Y0294226D01*
X0025549Y0295425D02*
X0023182Y0295425D01*
X0023188Y0296623D02*
X0026653Y0296623D01*
X0028104Y0297822D02*
X0023690Y0297822D01*
X0035526Y0297822D02*
X0219836Y0297822D01*
X0218385Y0296623D02*
X0036977Y0296623D01*
X0031727Y0282071D02*
X0031727Y0282071D01*
X0038571Y0276248D02*
X0092122Y0276248D01*
X0092122Y0275050D02*
X0038571Y0275050D01*
X0038571Y0273851D02*
X0092122Y0273851D01*
X0092122Y0272653D02*
X0038571Y0272653D01*
X0038571Y0271454D02*
X0092122Y0271454D01*
X0092122Y0270256D02*
X0038571Y0270256D01*
X0037462Y0269057D02*
X0092122Y0269057D01*
X0092122Y0267859D02*
X0038402Y0267859D01*
X0038571Y0266660D02*
X0092122Y0266660D01*
X0092122Y0265462D02*
X0038571Y0265462D01*
X0038571Y0264263D02*
X0092122Y0264263D01*
X0092122Y0263065D02*
X0038571Y0263065D01*
X0038571Y0261866D02*
X0092122Y0261866D01*
X0092122Y0260668D02*
X0038571Y0260668D01*
X0039205Y0259469D02*
X0092122Y0259469D01*
X0092122Y0258271D02*
X0039205Y0258271D01*
X0040155Y0257072D02*
X0092122Y0257072D01*
X0092122Y0255874D02*
X0040473Y0255874D01*
X0040175Y0254675D02*
X0091586Y0254675D01*
X0090388Y0253477D02*
X0081308Y0253477D01*
X0081215Y0253570D02*
X0079898Y0254116D01*
X0078472Y0254116D01*
X0077155Y0253570D01*
X0076416Y0252831D01*
X0070232Y0252831D01*
X0068885Y0251484D01*
X0052517Y0235116D01*
X0051472Y0235116D01*
X0050155Y0234570D01*
X0049146Y0233562D01*
X0048601Y0232244D01*
X0048601Y0230818D01*
X0049146Y0229501D01*
X0050155Y0228493D01*
X0051472Y0227947D01*
X0052898Y0227947D01*
X0054215Y0228493D01*
X0055224Y0229501D01*
X0055769Y0230818D01*
X0055769Y0231863D01*
X0072138Y0248231D01*
X0076416Y0248231D01*
X0077155Y0247493D01*
X0078472Y0246947D01*
X0079898Y0246947D01*
X0081215Y0247493D01*
X0082224Y0248501D01*
X0082769Y0249818D01*
X0082769Y0251244D01*
X0082224Y0252562D01*
X0081215Y0253570D01*
X0082341Y0252278D02*
X0089189Y0252278D01*
X0087991Y0251080D02*
X0082769Y0251080D01*
X0082769Y0249881D02*
X0086792Y0249881D01*
X0085594Y0248683D02*
X0082299Y0248683D01*
X0081195Y0247484D02*
X0084395Y0247484D01*
X0083197Y0246286D02*
X0070192Y0246286D01*
X0071391Y0247484D02*
X0077175Y0247484D01*
X0080800Y0243889D02*
X0067795Y0243889D01*
X0068994Y0245087D02*
X0081998Y0245087D01*
X0079601Y0242690D02*
X0066597Y0242690D01*
X0065398Y0241492D02*
X0078403Y0241492D01*
X0077204Y0240293D02*
X0064200Y0240293D01*
X0063001Y0239095D02*
X0076006Y0239095D01*
X0074807Y0237896D02*
X0061803Y0237896D01*
X0060604Y0236698D02*
X0073609Y0236698D01*
X0072410Y0235499D02*
X0059405Y0235499D01*
X0058207Y0234301D02*
X0071212Y0234301D01*
X0070013Y0233102D02*
X0057008Y0233102D01*
X0055810Y0231904D02*
X0068815Y0231904D01*
X0067616Y0230705D02*
X0055722Y0230705D01*
X0055226Y0229507D02*
X0066418Y0229507D01*
X0065219Y0228308D02*
X0053769Y0228308D01*
X0050601Y0228308D02*
X0038571Y0228308D01*
X0038571Y0227110D02*
X0064021Y0227110D01*
X0062822Y0225911D02*
X0038224Y0225911D01*
X0038571Y0224712D02*
X0061624Y0224712D01*
X0060425Y0223514D02*
X0038571Y0223514D01*
X0039578Y0222315D02*
X0059227Y0222315D01*
X0058028Y0221117D02*
X0039839Y0221117D01*
X0039839Y0219918D02*
X0056830Y0219918D01*
X0055631Y0218720D02*
X0039839Y0218720D01*
X0039622Y0217521D02*
X0054433Y0217521D01*
X0053234Y0216323D02*
X0038571Y0216323D01*
X0038571Y0215124D02*
X0052035Y0215124D01*
X0050837Y0213926D02*
X0038571Y0213926D01*
X0038571Y0212727D02*
X0049638Y0212727D01*
X0048440Y0211529D02*
X0038571Y0211529D01*
X0038571Y0210330D02*
X0047241Y0210330D01*
X0046043Y0209132D02*
X0038429Y0209132D01*
X0038571Y0207933D02*
X0044844Y0207933D01*
X0043646Y0206735D02*
X0038571Y0206735D01*
X0038579Y0206106D02*
X0038579Y0206106D01*
X0039149Y0205536D02*
X0042447Y0205536D01*
X0041249Y0204338D02*
X0039839Y0204338D01*
X0039839Y0204847D02*
X0039839Y0204847D01*
X0039839Y0204847D01*
X0039839Y0203139D02*
X0040050Y0203139D01*
X0039839Y0203066D02*
X0039839Y0203066D01*
X0038571Y0229507D02*
X0049144Y0229507D01*
X0048648Y0230705D02*
X0038571Y0230705D01*
X0038571Y0231904D02*
X0048601Y0231904D01*
X0048956Y0233102D02*
X0038571Y0233102D01*
X0038571Y0234301D02*
X0049885Y0234301D01*
X0052900Y0235499D02*
X0038571Y0235499D01*
X0038571Y0236698D02*
X0054099Y0236698D01*
X0055297Y0237896D02*
X0038571Y0237896D01*
X0038571Y0239095D02*
X0056496Y0239095D01*
X0057694Y0240293D02*
X0038563Y0240293D01*
X0039422Y0241492D02*
X0058893Y0241492D01*
X0060091Y0242690D02*
X0039839Y0242690D01*
X0039640Y0243889D02*
X0061290Y0243889D01*
X0062488Y0245087D02*
X0039839Y0245087D01*
X0039778Y0246286D02*
X0063687Y0246286D01*
X0064885Y0247484D02*
X0038580Y0247484D01*
X0038571Y0248683D02*
X0066084Y0248683D01*
X0067282Y0249881D02*
X0038425Y0249881D01*
X0038571Y0251080D02*
X0068481Y0251080D01*
X0069679Y0252278D02*
X0038571Y0252278D01*
X0038571Y0253477D02*
X0077062Y0253477D01*
X0116204Y0285837D02*
X0218815Y0285837D01*
X0217616Y0287035D02*
X0118621Y0287035D01*
X0119641Y0288234D02*
X0216963Y0288234D01*
X0048079Y0091678D02*
X0047048Y0091678D01*
X0039572Y0127633D02*
X0039485Y0127633D01*
D23*
X0053185Y0084531D02*
X0053185Y0077531D01*
X0054185Y0076531D01*
X0064185Y0076531D01*
X0069185Y0081531D01*
X0116185Y0133531D02*
X0133685Y0116031D01*
M02*
