G75*
%MOIN*%
%OFA0B0*%
%FSLAX25Y25*%
%IPPOS*%
%LPD*%
%AMOC8*
5,1,8,0,0,1.08239X$1,22.5*
%
%ADD10C,0.11424*%
%ADD11C,0.00512*%
%ADD12C,0.00434*%
%ADD13C,0.07800*%
%ADD14C,0.06306*%
%ADD15C,0.04337*%
%ADD16C,0.00430*%
%ADD17C,0.09000*%
%ADD18R,0.07800X0.07800*%
%ADD19C,0.00474*%
%ADD20C,0.00827*%
%ADD21C,0.03943*%
%ADD22C,0.00500*%
%ADD23C,0.00522*%
%ADD24C,0.00464*%
%ADD25C,0.00800*%
%ADD26C,0.00468*%
%ADD27C,0.00791*%
%ADD28OC8,0.09061*%
%ADD29C,0.00640*%
%ADD30C,0.00540*%
%ADD31OC8,0.07800*%
%ADD32C,0.00473*%
%ADD33R,0.06800X0.10700*%
D10*
X0031815Y0057193D03*
X0031815Y0291445D03*
X0223547Y0291445D03*
X0223547Y0057193D03*
D11*
X0148491Y0061703D02*
X0143879Y0061703D01*
X0148491Y0061703D02*
X0148491Y0057091D01*
X0143879Y0057091D01*
X0143879Y0061703D01*
X0143879Y0057602D02*
X0148491Y0057602D01*
X0148491Y0058113D02*
X0143879Y0058113D01*
X0143879Y0058624D02*
X0148491Y0058624D01*
X0148491Y0059135D02*
X0143879Y0059135D01*
X0143879Y0059646D02*
X0148491Y0059646D01*
X0148491Y0060157D02*
X0143879Y0060157D01*
X0143879Y0060668D02*
X0148491Y0060668D01*
X0148491Y0061179D02*
X0143879Y0061179D01*
X0143879Y0061690D02*
X0148491Y0061690D01*
X0148491Y0069971D02*
X0143879Y0069971D01*
X0148491Y0069971D02*
X0148491Y0065359D01*
X0143879Y0065359D01*
X0143879Y0069971D01*
X0143879Y0065870D02*
X0148491Y0065870D01*
X0148491Y0066381D02*
X0143879Y0066381D01*
X0143879Y0066892D02*
X0148491Y0066892D01*
X0148491Y0067403D02*
X0143879Y0067403D01*
X0143879Y0067914D02*
X0148491Y0067914D01*
X0148491Y0068425D02*
X0143879Y0068425D01*
X0143879Y0068936D02*
X0148491Y0068936D01*
X0148491Y0069447D02*
X0143879Y0069447D01*
X0143879Y0069958D02*
X0148491Y0069958D01*
X0187580Y0292412D02*
X0192192Y0292412D01*
X0192192Y0284650D01*
X0187580Y0284650D01*
X0187580Y0292412D01*
X0187580Y0285161D02*
X0192192Y0285161D01*
X0192192Y0285672D02*
X0187580Y0285672D01*
X0187580Y0286183D02*
X0192192Y0286183D01*
X0192192Y0286694D02*
X0187580Y0286694D01*
X0187580Y0287205D02*
X0192192Y0287205D01*
X0192192Y0287716D02*
X0187580Y0287716D01*
X0187580Y0288227D02*
X0192192Y0288227D01*
X0192192Y0288738D02*
X0187580Y0288738D01*
X0187580Y0289249D02*
X0192192Y0289249D01*
X0192192Y0289760D02*
X0187580Y0289760D01*
X0187580Y0290271D02*
X0192192Y0290271D01*
X0192192Y0290782D02*
X0187580Y0290782D01*
X0187580Y0291293D02*
X0192192Y0291293D01*
X0192192Y0291804D02*
X0187580Y0291804D01*
X0187580Y0292315D02*
X0192192Y0292315D01*
X0200178Y0292412D02*
X0204790Y0292412D01*
X0204790Y0284650D01*
X0200178Y0284650D01*
X0200178Y0292412D01*
X0200178Y0285161D02*
X0204790Y0285161D01*
X0204790Y0285672D02*
X0200178Y0285672D01*
X0200178Y0286183D02*
X0204790Y0286183D01*
X0204790Y0286694D02*
X0200178Y0286694D01*
X0200178Y0287205D02*
X0204790Y0287205D01*
X0204790Y0287716D02*
X0200178Y0287716D01*
X0200178Y0288227D02*
X0204790Y0288227D01*
X0204790Y0288738D02*
X0200178Y0288738D01*
X0200178Y0289249D02*
X0204790Y0289249D01*
X0204790Y0289760D02*
X0200178Y0289760D01*
X0200178Y0290271D02*
X0204790Y0290271D01*
X0204790Y0290782D02*
X0200178Y0290782D01*
X0200178Y0291293D02*
X0204790Y0291293D01*
X0204790Y0291804D02*
X0200178Y0291804D01*
X0200178Y0292315D02*
X0204790Y0292315D01*
D12*
X0210636Y0276526D02*
X0210636Y0272230D01*
X0206734Y0272230D01*
X0206734Y0276526D01*
X0210636Y0276526D01*
X0210636Y0272663D02*
X0206734Y0272663D01*
X0206734Y0273096D02*
X0210636Y0273096D01*
X0210636Y0273529D02*
X0206734Y0273529D01*
X0206734Y0273962D02*
X0210636Y0273962D01*
X0210636Y0274395D02*
X0206734Y0274395D01*
X0206734Y0274828D02*
X0210636Y0274828D01*
X0210636Y0275261D02*
X0206734Y0275261D01*
X0206734Y0275694D02*
X0210636Y0275694D01*
X0210636Y0276127D02*
X0206734Y0276127D01*
X0210636Y0269833D02*
X0210636Y0265537D01*
X0206734Y0265537D01*
X0206734Y0269833D01*
X0210636Y0269833D01*
X0210636Y0265970D02*
X0206734Y0265970D01*
X0206734Y0266403D02*
X0210636Y0266403D01*
X0210636Y0266836D02*
X0206734Y0266836D01*
X0206734Y0267269D02*
X0210636Y0267269D01*
X0210636Y0267702D02*
X0206734Y0267702D01*
X0206734Y0268135D02*
X0210636Y0268135D01*
X0210636Y0268568D02*
X0206734Y0268568D01*
X0206734Y0269001D02*
X0210636Y0269001D01*
X0210636Y0269434D02*
X0206734Y0269434D01*
X0191734Y0254026D02*
X0191734Y0249730D01*
X0191734Y0254026D02*
X0195636Y0254026D01*
X0195636Y0249730D01*
X0191734Y0249730D01*
X0191734Y0250163D02*
X0195636Y0250163D01*
X0195636Y0250596D02*
X0191734Y0250596D01*
X0191734Y0251029D02*
X0195636Y0251029D01*
X0195636Y0251462D02*
X0191734Y0251462D01*
X0191734Y0251895D02*
X0195636Y0251895D01*
X0195636Y0252328D02*
X0191734Y0252328D01*
X0191734Y0252761D02*
X0195636Y0252761D01*
X0195636Y0253194D02*
X0191734Y0253194D01*
X0191734Y0253627D02*
X0195636Y0253627D01*
X0191734Y0247333D02*
X0191734Y0243037D01*
X0191734Y0247333D02*
X0195636Y0247333D01*
X0195636Y0243037D01*
X0191734Y0243037D01*
X0191734Y0243470D02*
X0195636Y0243470D01*
X0195636Y0243903D02*
X0191734Y0243903D01*
X0191734Y0244336D02*
X0195636Y0244336D01*
X0195636Y0244769D02*
X0191734Y0244769D01*
X0191734Y0245202D02*
X0195636Y0245202D01*
X0195636Y0245635D02*
X0191734Y0245635D01*
X0191734Y0246068D02*
X0195636Y0246068D01*
X0195636Y0246501D02*
X0191734Y0246501D01*
X0191734Y0246934D02*
X0195636Y0246934D01*
X0183136Y0265537D02*
X0183136Y0269833D01*
X0183136Y0265537D02*
X0179234Y0265537D01*
X0179234Y0269833D01*
X0183136Y0269833D01*
X0183136Y0265970D02*
X0179234Y0265970D01*
X0179234Y0266403D02*
X0183136Y0266403D01*
X0183136Y0266836D02*
X0179234Y0266836D01*
X0179234Y0267269D02*
X0183136Y0267269D01*
X0183136Y0267702D02*
X0179234Y0267702D01*
X0179234Y0268135D02*
X0183136Y0268135D01*
X0183136Y0268568D02*
X0179234Y0268568D01*
X0179234Y0269001D02*
X0183136Y0269001D01*
X0183136Y0269434D02*
X0179234Y0269434D01*
X0183136Y0272230D02*
X0183136Y0276526D01*
X0183136Y0272230D02*
X0179234Y0272230D01*
X0179234Y0276526D01*
X0183136Y0276526D01*
X0183136Y0272663D02*
X0179234Y0272663D01*
X0179234Y0273096D02*
X0183136Y0273096D01*
X0183136Y0273529D02*
X0179234Y0273529D01*
X0179234Y0273962D02*
X0183136Y0273962D01*
X0183136Y0274395D02*
X0179234Y0274395D01*
X0179234Y0274828D02*
X0183136Y0274828D01*
X0183136Y0275261D02*
X0179234Y0275261D01*
X0179234Y0275694D02*
X0183136Y0275694D01*
X0183136Y0276127D02*
X0179234Y0276127D01*
X0156734Y0254026D02*
X0156734Y0249730D01*
X0156734Y0254026D02*
X0160636Y0254026D01*
X0160636Y0249730D01*
X0156734Y0249730D01*
X0156734Y0250163D02*
X0160636Y0250163D01*
X0160636Y0250596D02*
X0156734Y0250596D01*
X0156734Y0251029D02*
X0160636Y0251029D01*
X0160636Y0251462D02*
X0156734Y0251462D01*
X0156734Y0251895D02*
X0160636Y0251895D01*
X0160636Y0252328D02*
X0156734Y0252328D01*
X0156734Y0252761D02*
X0160636Y0252761D01*
X0160636Y0253194D02*
X0156734Y0253194D01*
X0156734Y0253627D02*
X0160636Y0253627D01*
X0156734Y0247333D02*
X0156734Y0243037D01*
X0156734Y0247333D02*
X0160636Y0247333D01*
X0160636Y0243037D01*
X0156734Y0243037D01*
X0156734Y0243470D02*
X0160636Y0243470D01*
X0160636Y0243903D02*
X0156734Y0243903D01*
X0156734Y0244336D02*
X0160636Y0244336D01*
X0160636Y0244769D02*
X0156734Y0244769D01*
X0156734Y0245202D02*
X0160636Y0245202D01*
X0160636Y0245635D02*
X0156734Y0245635D01*
X0156734Y0246068D02*
X0160636Y0246068D01*
X0160636Y0246501D02*
X0156734Y0246501D01*
X0156734Y0246934D02*
X0160636Y0246934D01*
X0158136Y0196526D02*
X0158136Y0192230D01*
X0154234Y0192230D01*
X0154234Y0196526D01*
X0158136Y0196526D01*
X0158136Y0192663D02*
X0154234Y0192663D01*
X0154234Y0193096D02*
X0158136Y0193096D01*
X0158136Y0193529D02*
X0154234Y0193529D01*
X0154234Y0193962D02*
X0158136Y0193962D01*
X0158136Y0194395D02*
X0154234Y0194395D01*
X0154234Y0194828D02*
X0158136Y0194828D01*
X0158136Y0195261D02*
X0154234Y0195261D01*
X0154234Y0195694D02*
X0158136Y0195694D01*
X0158136Y0196127D02*
X0154234Y0196127D01*
X0158136Y0189833D02*
X0158136Y0185537D01*
X0154234Y0185537D01*
X0154234Y0189833D01*
X0158136Y0189833D01*
X0158136Y0185970D02*
X0154234Y0185970D01*
X0154234Y0186403D02*
X0158136Y0186403D01*
X0158136Y0186836D02*
X0154234Y0186836D01*
X0154234Y0187269D02*
X0158136Y0187269D01*
X0158136Y0187702D02*
X0154234Y0187702D01*
X0154234Y0188135D02*
X0158136Y0188135D01*
X0158136Y0188568D02*
X0154234Y0188568D01*
X0154234Y0189001D02*
X0158136Y0189001D01*
X0158136Y0189434D02*
X0154234Y0189434D01*
X0170636Y0189833D02*
X0170636Y0185537D01*
X0166734Y0185537D01*
X0166734Y0189833D01*
X0170636Y0189833D01*
X0170636Y0185970D02*
X0166734Y0185970D01*
X0166734Y0186403D02*
X0170636Y0186403D01*
X0170636Y0186836D02*
X0166734Y0186836D01*
X0166734Y0187269D02*
X0170636Y0187269D01*
X0170636Y0187702D02*
X0166734Y0187702D01*
X0166734Y0188135D02*
X0170636Y0188135D01*
X0170636Y0188568D02*
X0166734Y0188568D01*
X0166734Y0189001D02*
X0170636Y0189001D01*
X0170636Y0189434D02*
X0166734Y0189434D01*
X0170636Y0192230D02*
X0170636Y0196526D01*
X0170636Y0192230D02*
X0166734Y0192230D01*
X0166734Y0196526D01*
X0170636Y0196526D01*
X0170636Y0192663D02*
X0166734Y0192663D01*
X0166734Y0193096D02*
X0170636Y0193096D01*
X0170636Y0193529D02*
X0166734Y0193529D01*
X0166734Y0193962D02*
X0170636Y0193962D01*
X0170636Y0194395D02*
X0166734Y0194395D01*
X0166734Y0194828D02*
X0170636Y0194828D01*
X0170636Y0195261D02*
X0166734Y0195261D01*
X0166734Y0195694D02*
X0170636Y0195694D01*
X0170636Y0196127D02*
X0166734Y0196127D01*
X0131537Y0151329D02*
X0131537Y0147427D01*
X0131537Y0151329D02*
X0135833Y0151329D01*
X0135833Y0147427D01*
X0131537Y0147427D01*
X0131537Y0147860D02*
X0135833Y0147860D01*
X0135833Y0148293D02*
X0131537Y0148293D01*
X0131537Y0148726D02*
X0135833Y0148726D01*
X0135833Y0149159D02*
X0131537Y0149159D01*
X0131537Y0149592D02*
X0135833Y0149592D01*
X0135833Y0150025D02*
X0131537Y0150025D01*
X0131537Y0150458D02*
X0135833Y0150458D01*
X0135833Y0150891D02*
X0131537Y0150891D01*
X0131537Y0151324D02*
X0135833Y0151324D01*
X0131537Y0144636D02*
X0131537Y0140734D01*
X0131537Y0144636D02*
X0135833Y0144636D01*
X0135833Y0140734D01*
X0131537Y0140734D01*
X0131537Y0141167D02*
X0135833Y0141167D01*
X0135833Y0141600D02*
X0131537Y0141600D01*
X0131537Y0142033D02*
X0135833Y0142033D01*
X0135833Y0142466D02*
X0131537Y0142466D01*
X0131537Y0142899D02*
X0135833Y0142899D01*
X0135833Y0143332D02*
X0131537Y0143332D01*
X0131537Y0143765D02*
X0135833Y0143765D01*
X0135833Y0144198D02*
X0131537Y0144198D01*
X0131537Y0144631D02*
X0135833Y0144631D01*
X0111679Y0162982D02*
X0107383Y0162982D01*
X0111679Y0162982D02*
X0111679Y0159080D01*
X0107383Y0159080D01*
X0107383Y0162982D01*
X0107383Y0159513D02*
X0111679Y0159513D01*
X0111679Y0159946D02*
X0107383Y0159946D01*
X0107383Y0160379D02*
X0111679Y0160379D01*
X0111679Y0160812D02*
X0107383Y0160812D01*
X0107383Y0161245D02*
X0111679Y0161245D01*
X0111679Y0161678D02*
X0107383Y0161678D01*
X0107383Y0162111D02*
X0111679Y0162111D01*
X0111679Y0162544D02*
X0107383Y0162544D01*
X0107383Y0162977D02*
X0111679Y0162977D01*
X0104987Y0162982D02*
X0100691Y0162982D01*
X0104987Y0162982D02*
X0104987Y0159080D01*
X0100691Y0159080D01*
X0100691Y0162982D01*
X0100691Y0159513D02*
X0104987Y0159513D01*
X0104987Y0159946D02*
X0100691Y0159946D01*
X0100691Y0160379D02*
X0104987Y0160379D01*
X0104987Y0160812D02*
X0100691Y0160812D01*
X0100691Y0161245D02*
X0104987Y0161245D01*
X0104987Y0161678D02*
X0100691Y0161678D01*
X0100691Y0162111D02*
X0104987Y0162111D01*
X0104987Y0162544D02*
X0100691Y0162544D01*
X0100691Y0162977D02*
X0104987Y0162977D01*
X0096679Y0162982D02*
X0092383Y0162982D01*
X0096679Y0162982D02*
X0096679Y0159080D01*
X0092383Y0159080D01*
X0092383Y0162982D01*
X0092383Y0159513D02*
X0096679Y0159513D01*
X0096679Y0159946D02*
X0092383Y0159946D01*
X0092383Y0160379D02*
X0096679Y0160379D01*
X0096679Y0160812D02*
X0092383Y0160812D01*
X0092383Y0161245D02*
X0096679Y0161245D01*
X0096679Y0161678D02*
X0092383Y0161678D01*
X0092383Y0162111D02*
X0096679Y0162111D01*
X0096679Y0162544D02*
X0092383Y0162544D01*
X0092383Y0162977D02*
X0096679Y0162977D01*
X0089987Y0162982D02*
X0085691Y0162982D01*
X0089987Y0162982D02*
X0089987Y0159080D01*
X0085691Y0159080D01*
X0085691Y0162982D01*
X0085691Y0159513D02*
X0089987Y0159513D01*
X0089987Y0159946D02*
X0085691Y0159946D01*
X0085691Y0160379D02*
X0089987Y0160379D01*
X0089987Y0160812D02*
X0085691Y0160812D01*
X0085691Y0161245D02*
X0089987Y0161245D01*
X0089987Y0161678D02*
X0085691Y0161678D01*
X0085691Y0162111D02*
X0089987Y0162111D01*
X0089987Y0162544D02*
X0085691Y0162544D01*
X0085691Y0162977D02*
X0089987Y0162977D01*
X0099636Y0188037D02*
X0099636Y0192333D01*
X0099636Y0188037D02*
X0095734Y0188037D01*
X0095734Y0192333D01*
X0099636Y0192333D01*
X0099636Y0188470D02*
X0095734Y0188470D01*
X0095734Y0188903D02*
X0099636Y0188903D01*
X0099636Y0189336D02*
X0095734Y0189336D01*
X0095734Y0189769D02*
X0099636Y0189769D01*
X0099636Y0190202D02*
X0095734Y0190202D01*
X0095734Y0190635D02*
X0099636Y0190635D01*
X0099636Y0191068D02*
X0095734Y0191068D01*
X0095734Y0191501D02*
X0099636Y0191501D01*
X0099636Y0191934D02*
X0095734Y0191934D01*
X0099636Y0194730D02*
X0099636Y0199026D01*
X0099636Y0194730D02*
X0095734Y0194730D01*
X0095734Y0199026D01*
X0099636Y0199026D01*
X0099636Y0195163D02*
X0095734Y0195163D01*
X0095734Y0195596D02*
X0099636Y0195596D01*
X0099636Y0196029D02*
X0095734Y0196029D01*
X0095734Y0196462D02*
X0099636Y0196462D01*
X0099636Y0196895D02*
X0095734Y0196895D01*
X0095734Y0197328D02*
X0099636Y0197328D01*
X0099636Y0197761D02*
X0095734Y0197761D01*
X0095734Y0198194D02*
X0099636Y0198194D01*
X0099636Y0198627D02*
X0095734Y0198627D01*
X0061537Y0253234D02*
X0061537Y0257136D01*
X0065833Y0257136D01*
X0065833Y0253234D01*
X0061537Y0253234D01*
X0061537Y0253667D02*
X0065833Y0253667D01*
X0065833Y0254100D02*
X0061537Y0254100D01*
X0061537Y0254533D02*
X0065833Y0254533D01*
X0065833Y0254966D02*
X0061537Y0254966D01*
X0061537Y0255399D02*
X0065833Y0255399D01*
X0065833Y0255832D02*
X0061537Y0255832D01*
X0061537Y0256265D02*
X0065833Y0256265D01*
X0065833Y0256698D02*
X0061537Y0256698D01*
X0061537Y0257131D02*
X0065833Y0257131D01*
X0061537Y0259927D02*
X0061537Y0263829D01*
X0065833Y0263829D01*
X0065833Y0259927D01*
X0061537Y0259927D01*
X0061537Y0260360D02*
X0065833Y0260360D01*
X0065833Y0260793D02*
X0061537Y0260793D01*
X0061537Y0261226D02*
X0065833Y0261226D01*
X0065833Y0261659D02*
X0061537Y0261659D01*
X0061537Y0262092D02*
X0065833Y0262092D01*
X0065833Y0262525D02*
X0061537Y0262525D01*
X0061537Y0262958D02*
X0065833Y0262958D01*
X0065833Y0263391D02*
X0061537Y0263391D01*
X0061537Y0263824D02*
X0065833Y0263824D01*
X0065636Y0268037D02*
X0065636Y0272333D01*
X0065636Y0268037D02*
X0061734Y0268037D01*
X0061734Y0272333D01*
X0065636Y0272333D01*
X0065636Y0268470D02*
X0061734Y0268470D01*
X0061734Y0268903D02*
X0065636Y0268903D01*
X0065636Y0269336D02*
X0061734Y0269336D01*
X0061734Y0269769D02*
X0065636Y0269769D01*
X0065636Y0270202D02*
X0061734Y0270202D01*
X0061734Y0270635D02*
X0065636Y0270635D01*
X0065636Y0271068D02*
X0061734Y0271068D01*
X0061734Y0271501D02*
X0065636Y0271501D01*
X0065636Y0271934D02*
X0061734Y0271934D01*
X0065636Y0274730D02*
X0065636Y0279026D01*
X0065636Y0274730D02*
X0061734Y0274730D01*
X0061734Y0279026D01*
X0065636Y0279026D01*
X0065636Y0275163D02*
X0061734Y0275163D01*
X0061734Y0275596D02*
X0065636Y0275596D01*
X0065636Y0276029D02*
X0061734Y0276029D01*
X0061734Y0276462D02*
X0065636Y0276462D01*
X0065636Y0276895D02*
X0061734Y0276895D01*
X0061734Y0277328D02*
X0065636Y0277328D01*
X0065636Y0277761D02*
X0061734Y0277761D01*
X0061734Y0278194D02*
X0065636Y0278194D01*
X0065636Y0278627D02*
X0061734Y0278627D01*
X0061537Y0126329D02*
X0061537Y0122427D01*
X0061537Y0126329D02*
X0065833Y0126329D01*
X0065833Y0122427D01*
X0061537Y0122427D01*
X0061537Y0122860D02*
X0065833Y0122860D01*
X0065833Y0123293D02*
X0061537Y0123293D01*
X0061537Y0123726D02*
X0065833Y0123726D01*
X0065833Y0124159D02*
X0061537Y0124159D01*
X0061537Y0124592D02*
X0065833Y0124592D01*
X0065833Y0125025D02*
X0061537Y0125025D01*
X0061537Y0125458D02*
X0065833Y0125458D01*
X0065833Y0125891D02*
X0061537Y0125891D01*
X0061537Y0126324D02*
X0065833Y0126324D01*
X0061537Y0119636D02*
X0061537Y0115734D01*
X0061537Y0119636D02*
X0065833Y0119636D01*
X0065833Y0115734D01*
X0061537Y0115734D01*
X0061537Y0116167D02*
X0065833Y0116167D01*
X0065833Y0116600D02*
X0061537Y0116600D01*
X0061537Y0117033D02*
X0065833Y0117033D01*
X0065833Y0117466D02*
X0061537Y0117466D01*
X0061537Y0117899D02*
X0065833Y0117899D01*
X0065833Y0118332D02*
X0061537Y0118332D01*
X0061537Y0118765D02*
X0065833Y0118765D01*
X0065833Y0119198D02*
X0061537Y0119198D01*
X0061537Y0119631D02*
X0065833Y0119631D01*
X0087136Y0096026D02*
X0087136Y0091730D01*
X0083234Y0091730D01*
X0083234Y0096026D01*
X0087136Y0096026D01*
X0087136Y0092163D02*
X0083234Y0092163D01*
X0083234Y0092596D02*
X0087136Y0092596D01*
X0087136Y0093029D02*
X0083234Y0093029D01*
X0083234Y0093462D02*
X0087136Y0093462D01*
X0087136Y0093895D02*
X0083234Y0093895D01*
X0083234Y0094328D02*
X0087136Y0094328D01*
X0087136Y0094761D02*
X0083234Y0094761D01*
X0083234Y0095194D02*
X0087136Y0095194D01*
X0087136Y0095627D02*
X0083234Y0095627D01*
X0087136Y0089333D02*
X0087136Y0085037D01*
X0083234Y0085037D01*
X0083234Y0089333D01*
X0087136Y0089333D01*
X0087136Y0085470D02*
X0083234Y0085470D01*
X0083234Y0085903D02*
X0087136Y0085903D01*
X0087136Y0086336D02*
X0083234Y0086336D01*
X0083234Y0086769D02*
X0087136Y0086769D01*
X0087136Y0087202D02*
X0083234Y0087202D01*
X0083234Y0087635D02*
X0087136Y0087635D01*
X0087136Y0088068D02*
X0083234Y0088068D01*
X0083234Y0088501D02*
X0087136Y0088501D01*
X0087136Y0088934D02*
X0083234Y0088934D01*
X0051333Y0080829D02*
X0051333Y0076927D01*
X0047037Y0076927D01*
X0047037Y0080829D01*
X0051333Y0080829D01*
X0051333Y0077360D02*
X0047037Y0077360D01*
X0047037Y0077793D02*
X0051333Y0077793D01*
X0051333Y0078226D02*
X0047037Y0078226D01*
X0047037Y0078659D02*
X0051333Y0078659D01*
X0051333Y0079092D02*
X0047037Y0079092D01*
X0047037Y0079525D02*
X0051333Y0079525D01*
X0051333Y0079958D02*
X0047037Y0079958D01*
X0047037Y0080391D02*
X0051333Y0080391D01*
X0051333Y0080824D02*
X0047037Y0080824D01*
X0051333Y0074136D02*
X0051333Y0070234D01*
X0047037Y0070234D01*
X0047037Y0074136D01*
X0051333Y0074136D01*
X0051333Y0070667D02*
X0047037Y0070667D01*
X0047037Y0071100D02*
X0051333Y0071100D01*
X0051333Y0071533D02*
X0047037Y0071533D01*
X0047037Y0071966D02*
X0051333Y0071966D01*
X0051333Y0072399D02*
X0047037Y0072399D01*
X0047037Y0072832D02*
X0051333Y0072832D01*
X0051333Y0073265D02*
X0047037Y0073265D01*
X0047037Y0073698D02*
X0051333Y0073698D01*
X0051333Y0074131D02*
X0047037Y0074131D01*
X0040333Y0074136D02*
X0040333Y0070234D01*
X0036037Y0070234D01*
X0036037Y0074136D01*
X0040333Y0074136D01*
X0040333Y0070667D02*
X0036037Y0070667D01*
X0036037Y0071100D02*
X0040333Y0071100D01*
X0040333Y0071533D02*
X0036037Y0071533D01*
X0036037Y0071966D02*
X0040333Y0071966D01*
X0040333Y0072399D02*
X0036037Y0072399D01*
X0036037Y0072832D02*
X0040333Y0072832D01*
X0040333Y0073265D02*
X0036037Y0073265D01*
X0036037Y0073698D02*
X0040333Y0073698D01*
X0040333Y0074131D02*
X0036037Y0074131D01*
X0040333Y0076927D02*
X0040333Y0080829D01*
X0040333Y0076927D02*
X0036037Y0076927D01*
X0036037Y0080829D01*
X0040333Y0080829D01*
X0040333Y0077360D02*
X0036037Y0077360D01*
X0036037Y0077793D02*
X0040333Y0077793D01*
X0040333Y0078226D02*
X0036037Y0078226D01*
X0036037Y0078659D02*
X0040333Y0078659D01*
X0040333Y0079092D02*
X0036037Y0079092D01*
X0036037Y0079525D02*
X0040333Y0079525D01*
X0040333Y0079958D02*
X0036037Y0079958D01*
X0036037Y0080391D02*
X0040333Y0080391D01*
X0040333Y0080824D02*
X0036037Y0080824D01*
X0125888Y0108179D02*
X0129790Y0108179D01*
X0129790Y0103883D01*
X0125888Y0103883D01*
X0125888Y0108179D01*
X0125888Y0104316D02*
X0129790Y0104316D01*
X0129790Y0104749D02*
X0125888Y0104749D01*
X0125888Y0105182D02*
X0129790Y0105182D01*
X0129790Y0105615D02*
X0125888Y0105615D01*
X0125888Y0106048D02*
X0129790Y0106048D01*
X0129790Y0106481D02*
X0125888Y0106481D01*
X0125888Y0106914D02*
X0129790Y0106914D01*
X0129790Y0107347D02*
X0125888Y0107347D01*
X0125888Y0107780D02*
X0129790Y0107780D01*
X0132580Y0108179D02*
X0136482Y0108179D01*
X0136482Y0103883D01*
X0132580Y0103883D01*
X0132580Y0108179D01*
X0132580Y0104316D02*
X0136482Y0104316D01*
X0136482Y0104749D02*
X0132580Y0104749D01*
X0132580Y0105182D02*
X0136482Y0105182D01*
X0136482Y0105615D02*
X0132580Y0105615D01*
X0132580Y0106048D02*
X0136482Y0106048D01*
X0136482Y0106481D02*
X0132580Y0106481D01*
X0132580Y0106914D02*
X0136482Y0106914D01*
X0136482Y0107347D02*
X0132580Y0107347D01*
X0132580Y0107780D02*
X0136482Y0107780D01*
X0148333Y0098829D02*
X0148333Y0094927D01*
X0144037Y0094927D01*
X0144037Y0098829D01*
X0148333Y0098829D01*
X0148333Y0095360D02*
X0144037Y0095360D01*
X0144037Y0095793D02*
X0148333Y0095793D01*
X0148333Y0096226D02*
X0144037Y0096226D01*
X0144037Y0096659D02*
X0148333Y0096659D01*
X0148333Y0097092D02*
X0144037Y0097092D01*
X0144037Y0097525D02*
X0148333Y0097525D01*
X0148333Y0097958D02*
X0144037Y0097958D01*
X0144037Y0098391D02*
X0148333Y0098391D01*
X0148333Y0098824D02*
X0144037Y0098824D01*
X0148333Y0092136D02*
X0148333Y0088234D01*
X0144037Y0088234D01*
X0144037Y0092136D01*
X0148333Y0092136D01*
X0148333Y0088667D02*
X0144037Y0088667D01*
X0144037Y0089100D02*
X0148333Y0089100D01*
X0148333Y0089533D02*
X0144037Y0089533D01*
X0144037Y0089966D02*
X0148333Y0089966D01*
X0148333Y0090399D02*
X0144037Y0090399D01*
X0144037Y0090832D02*
X0148333Y0090832D01*
X0148333Y0091265D02*
X0144037Y0091265D01*
X0144037Y0091698D02*
X0148333Y0091698D01*
X0148333Y0092131D02*
X0144037Y0092131D01*
X0154234Y0092333D02*
X0154234Y0088037D01*
X0154234Y0092333D02*
X0158136Y0092333D01*
X0158136Y0088037D01*
X0154234Y0088037D01*
X0154234Y0088470D02*
X0158136Y0088470D01*
X0158136Y0088903D02*
X0154234Y0088903D01*
X0154234Y0089336D02*
X0158136Y0089336D01*
X0158136Y0089769D02*
X0154234Y0089769D01*
X0154234Y0090202D02*
X0158136Y0090202D01*
X0158136Y0090635D02*
X0154234Y0090635D01*
X0154234Y0091068D02*
X0158136Y0091068D01*
X0158136Y0091501D02*
X0154234Y0091501D01*
X0154234Y0091934D02*
X0158136Y0091934D01*
X0154234Y0094730D02*
X0154234Y0099026D01*
X0158136Y0099026D01*
X0158136Y0094730D01*
X0154234Y0094730D01*
X0154234Y0095163D02*
X0158136Y0095163D01*
X0158136Y0095596D02*
X0154234Y0095596D01*
X0154234Y0096029D02*
X0158136Y0096029D01*
X0158136Y0096462D02*
X0154234Y0096462D01*
X0154234Y0096895D02*
X0158136Y0096895D01*
X0158136Y0097328D02*
X0154234Y0097328D01*
X0154234Y0097761D02*
X0158136Y0097761D01*
X0158136Y0098194D02*
X0154234Y0098194D01*
X0154234Y0098627D02*
X0158136Y0098627D01*
X0160888Y0075679D02*
X0164790Y0075679D01*
X0164790Y0071383D01*
X0160888Y0071383D01*
X0160888Y0075679D01*
X0160888Y0071816D02*
X0164790Y0071816D01*
X0164790Y0072249D02*
X0160888Y0072249D01*
X0160888Y0072682D02*
X0164790Y0072682D01*
X0164790Y0073115D02*
X0160888Y0073115D01*
X0160888Y0073548D02*
X0164790Y0073548D01*
X0164790Y0073981D02*
X0160888Y0073981D01*
X0160888Y0074414D02*
X0164790Y0074414D01*
X0164790Y0074847D02*
X0160888Y0074847D01*
X0160888Y0075280D02*
X0164790Y0075280D01*
X0167580Y0075679D02*
X0171482Y0075679D01*
X0171482Y0071383D01*
X0167580Y0071383D01*
X0167580Y0075679D01*
X0167580Y0071816D02*
X0171482Y0071816D01*
X0171482Y0072249D02*
X0167580Y0072249D01*
X0167580Y0072682D02*
X0171482Y0072682D01*
X0171482Y0073115D02*
X0167580Y0073115D01*
X0167580Y0073548D02*
X0171482Y0073548D01*
X0171482Y0073981D02*
X0167580Y0073981D01*
X0167580Y0074414D02*
X0171482Y0074414D01*
X0171482Y0074847D02*
X0167580Y0074847D01*
X0167580Y0075280D02*
X0171482Y0075280D01*
X0173388Y0071383D02*
X0177290Y0071383D01*
X0173388Y0071383D02*
X0173388Y0075679D01*
X0177290Y0075679D01*
X0177290Y0071383D01*
X0177290Y0071816D02*
X0173388Y0071816D01*
X0173388Y0072249D02*
X0177290Y0072249D01*
X0177290Y0072682D02*
X0173388Y0072682D01*
X0173388Y0073115D02*
X0177290Y0073115D01*
X0177290Y0073548D02*
X0173388Y0073548D01*
X0173388Y0073981D02*
X0177290Y0073981D01*
X0177290Y0074414D02*
X0173388Y0074414D01*
X0173388Y0074847D02*
X0177290Y0074847D01*
X0177290Y0075280D02*
X0173388Y0075280D01*
X0180080Y0071383D02*
X0183982Y0071383D01*
X0180080Y0071383D02*
X0180080Y0075679D01*
X0183982Y0075679D01*
X0183982Y0071383D01*
X0183982Y0071816D02*
X0180080Y0071816D01*
X0180080Y0072249D02*
X0183982Y0072249D01*
X0183982Y0072682D02*
X0180080Y0072682D01*
X0180080Y0073115D02*
X0183982Y0073115D01*
X0183982Y0073548D02*
X0180080Y0073548D01*
X0180080Y0073981D02*
X0183982Y0073981D01*
X0183982Y0074414D02*
X0180080Y0074414D01*
X0180080Y0074847D02*
X0183982Y0074847D01*
X0183982Y0075280D02*
X0180080Y0075280D01*
D13*
X0131185Y0086031D03*
X0126185Y0093531D03*
X0121185Y0086031D03*
X0042748Y0103031D03*
X0041748Y0113031D03*
X0042748Y0123031D03*
X0065122Y0291031D03*
X0075122Y0291031D03*
X0085122Y0291031D03*
X0095122Y0291031D03*
X0105122Y0291031D03*
X0115122Y0291031D03*
D14*
X0222234Y0244742D02*
X0222234Y0241198D01*
X0222234Y0193560D02*
X0222234Y0190017D01*
D15*
X0222234Y0191789D03*
X0222234Y0242970D03*
D16*
X0180270Y0245396D02*
X0180270Y0249266D01*
X0180270Y0245396D02*
X0175100Y0245396D01*
X0175100Y0249266D01*
X0180270Y0249266D01*
X0180270Y0245825D02*
X0175100Y0245825D01*
X0175100Y0246254D02*
X0180270Y0246254D01*
X0180270Y0246683D02*
X0175100Y0246683D01*
X0175100Y0247112D02*
X0180270Y0247112D01*
X0180270Y0247541D02*
X0175100Y0247541D01*
X0175100Y0247970D02*
X0180270Y0247970D01*
X0180270Y0248399D02*
X0175100Y0248399D01*
X0175100Y0248828D02*
X0180270Y0248828D01*
X0180270Y0249257D02*
X0175100Y0249257D01*
X0172270Y0249096D02*
X0172270Y0252966D01*
X0172270Y0249096D02*
X0167100Y0249096D01*
X0167100Y0252966D01*
X0172270Y0252966D01*
X0172270Y0249525D02*
X0167100Y0249525D01*
X0167100Y0249954D02*
X0172270Y0249954D01*
X0172270Y0250383D02*
X0167100Y0250383D01*
X0167100Y0250812D02*
X0172270Y0250812D01*
X0172270Y0251241D02*
X0167100Y0251241D01*
X0167100Y0251670D02*
X0172270Y0251670D01*
X0172270Y0252099D02*
X0167100Y0252099D01*
X0167100Y0252528D02*
X0172270Y0252528D01*
X0172270Y0252957D02*
X0167100Y0252957D01*
X0180270Y0252796D02*
X0180270Y0256666D01*
X0180270Y0252796D02*
X0175100Y0252796D01*
X0175100Y0256666D01*
X0180270Y0256666D01*
X0180270Y0253225D02*
X0175100Y0253225D01*
X0175100Y0253654D02*
X0180270Y0253654D01*
X0180270Y0254083D02*
X0175100Y0254083D01*
X0175100Y0254512D02*
X0180270Y0254512D01*
X0180270Y0254941D02*
X0175100Y0254941D01*
X0175100Y0255370D02*
X0180270Y0255370D01*
X0180270Y0255799D02*
X0175100Y0255799D01*
X0175100Y0256228D02*
X0180270Y0256228D01*
X0180270Y0256657D02*
X0175100Y0256657D01*
D17*
X0133697Y0063831D03*
X0119917Y0063831D03*
X0106138Y0063831D03*
X0092358Y0063831D03*
X0078579Y0063831D03*
X0064799Y0063831D03*
D18*
X0041748Y0093031D03*
D19*
X0062742Y0092478D02*
X0062742Y0090584D01*
X0062742Y0092478D02*
X0065818Y0092478D01*
X0065818Y0090584D01*
X0062742Y0090584D01*
X0062742Y0091057D02*
X0065818Y0091057D01*
X0065818Y0091530D02*
X0062742Y0091530D01*
X0062742Y0092003D02*
X0065818Y0092003D01*
X0065818Y0092476D02*
X0062742Y0092476D01*
X0062742Y0094521D02*
X0062742Y0096415D01*
X0065818Y0096415D01*
X0065818Y0094521D01*
X0062742Y0094521D01*
X0062742Y0094994D02*
X0065818Y0094994D01*
X0065818Y0095467D02*
X0062742Y0095467D01*
X0062742Y0095940D02*
X0065818Y0095940D01*
X0065818Y0096413D02*
X0062742Y0096413D01*
X0062742Y0088541D02*
X0062742Y0086647D01*
X0062742Y0088541D02*
X0065818Y0088541D01*
X0065818Y0086647D01*
X0062742Y0086647D01*
X0062742Y0087120D02*
X0065818Y0087120D01*
X0065818Y0087593D02*
X0062742Y0087593D01*
X0062742Y0088066D02*
X0065818Y0088066D01*
X0065818Y0088539D02*
X0062742Y0088539D01*
X0074553Y0088541D02*
X0074553Y0086647D01*
X0074553Y0088541D02*
X0077629Y0088541D01*
X0077629Y0086647D01*
X0074553Y0086647D01*
X0074553Y0087120D02*
X0077629Y0087120D01*
X0077629Y0087593D02*
X0074553Y0087593D01*
X0074553Y0088066D02*
X0077629Y0088066D01*
X0077629Y0088539D02*
X0074553Y0088539D01*
X0074553Y0090584D02*
X0074553Y0092478D01*
X0077629Y0092478D01*
X0077629Y0090584D01*
X0074553Y0090584D01*
X0074553Y0091057D02*
X0077629Y0091057D01*
X0077629Y0091530D02*
X0074553Y0091530D01*
X0074553Y0092003D02*
X0077629Y0092003D01*
X0077629Y0092476D02*
X0074553Y0092476D01*
X0074553Y0094521D02*
X0074553Y0096415D01*
X0077629Y0096415D01*
X0077629Y0094521D01*
X0074553Y0094521D01*
X0074553Y0094994D02*
X0077629Y0094994D01*
X0077629Y0095467D02*
X0074553Y0095467D01*
X0074553Y0095940D02*
X0077629Y0095940D01*
X0077629Y0096413D02*
X0074553Y0096413D01*
X0143939Y0262486D02*
X0143939Y0277372D01*
X0145833Y0277372D01*
X0145833Y0262486D01*
X0143939Y0262486D01*
X0143939Y0262959D02*
X0145833Y0262959D01*
X0145833Y0263432D02*
X0143939Y0263432D01*
X0143939Y0263905D02*
X0145833Y0263905D01*
X0145833Y0264378D02*
X0143939Y0264378D01*
X0143939Y0264851D02*
X0145833Y0264851D01*
X0145833Y0265324D02*
X0143939Y0265324D01*
X0143939Y0265797D02*
X0145833Y0265797D01*
X0145833Y0266270D02*
X0143939Y0266270D01*
X0143939Y0266743D02*
X0145833Y0266743D01*
X0145833Y0267216D02*
X0143939Y0267216D01*
X0143939Y0267689D02*
X0145833Y0267689D01*
X0145833Y0268162D02*
X0143939Y0268162D01*
X0143939Y0268635D02*
X0145833Y0268635D01*
X0145833Y0269108D02*
X0143939Y0269108D01*
X0143939Y0269581D02*
X0145833Y0269581D01*
X0145833Y0270054D02*
X0143939Y0270054D01*
X0143939Y0270527D02*
X0145833Y0270527D01*
X0145833Y0271000D02*
X0143939Y0271000D01*
X0143939Y0271473D02*
X0145833Y0271473D01*
X0145833Y0271946D02*
X0143939Y0271946D01*
X0143939Y0272419D02*
X0145833Y0272419D01*
X0145833Y0272892D02*
X0143939Y0272892D01*
X0143939Y0273365D02*
X0145833Y0273365D01*
X0145833Y0273838D02*
X0143939Y0273838D01*
X0143939Y0274311D02*
X0145833Y0274311D01*
X0145833Y0274784D02*
X0143939Y0274784D01*
X0143939Y0275257D02*
X0145833Y0275257D01*
X0145833Y0275730D02*
X0143939Y0275730D01*
X0143939Y0276203D02*
X0145833Y0276203D01*
X0145833Y0276676D02*
X0143939Y0276676D01*
X0143939Y0277149D02*
X0145833Y0277149D01*
X0147088Y0277372D02*
X0147088Y0262486D01*
X0147088Y0277372D02*
X0148982Y0277372D01*
X0148982Y0262486D01*
X0147088Y0262486D01*
X0147088Y0262959D02*
X0148982Y0262959D01*
X0148982Y0263432D02*
X0147088Y0263432D01*
X0147088Y0263905D02*
X0148982Y0263905D01*
X0148982Y0264378D02*
X0147088Y0264378D01*
X0147088Y0264851D02*
X0148982Y0264851D01*
X0148982Y0265324D02*
X0147088Y0265324D01*
X0147088Y0265797D02*
X0148982Y0265797D01*
X0148982Y0266270D02*
X0147088Y0266270D01*
X0147088Y0266743D02*
X0148982Y0266743D01*
X0148982Y0267216D02*
X0147088Y0267216D01*
X0147088Y0267689D02*
X0148982Y0267689D01*
X0148982Y0268162D02*
X0147088Y0268162D01*
X0147088Y0268635D02*
X0148982Y0268635D01*
X0148982Y0269108D02*
X0147088Y0269108D01*
X0147088Y0269581D02*
X0148982Y0269581D01*
X0148982Y0270054D02*
X0147088Y0270054D01*
X0147088Y0270527D02*
X0148982Y0270527D01*
X0148982Y0271000D02*
X0147088Y0271000D01*
X0147088Y0271473D02*
X0148982Y0271473D01*
X0148982Y0271946D02*
X0147088Y0271946D01*
X0147088Y0272419D02*
X0148982Y0272419D01*
X0148982Y0272892D02*
X0147088Y0272892D01*
X0147088Y0273365D02*
X0148982Y0273365D01*
X0148982Y0273838D02*
X0147088Y0273838D01*
X0147088Y0274311D02*
X0148982Y0274311D01*
X0148982Y0274784D02*
X0147088Y0274784D01*
X0147088Y0275257D02*
X0148982Y0275257D01*
X0148982Y0275730D02*
X0147088Y0275730D01*
X0147088Y0276203D02*
X0148982Y0276203D01*
X0148982Y0276676D02*
X0147088Y0276676D01*
X0147088Y0277149D02*
X0148982Y0277149D01*
X0150238Y0277372D02*
X0150238Y0262486D01*
X0150238Y0277372D02*
X0152132Y0277372D01*
X0152132Y0262486D01*
X0150238Y0262486D01*
X0150238Y0262959D02*
X0152132Y0262959D01*
X0152132Y0263432D02*
X0150238Y0263432D01*
X0150238Y0263905D02*
X0152132Y0263905D01*
X0152132Y0264378D02*
X0150238Y0264378D01*
X0150238Y0264851D02*
X0152132Y0264851D01*
X0152132Y0265324D02*
X0150238Y0265324D01*
X0150238Y0265797D02*
X0152132Y0265797D01*
X0152132Y0266270D02*
X0150238Y0266270D01*
X0150238Y0266743D02*
X0152132Y0266743D01*
X0152132Y0267216D02*
X0150238Y0267216D01*
X0150238Y0267689D02*
X0152132Y0267689D01*
X0152132Y0268162D02*
X0150238Y0268162D01*
X0150238Y0268635D02*
X0152132Y0268635D01*
X0152132Y0269108D02*
X0150238Y0269108D01*
X0150238Y0269581D02*
X0152132Y0269581D01*
X0152132Y0270054D02*
X0150238Y0270054D01*
X0150238Y0270527D02*
X0152132Y0270527D01*
X0152132Y0271000D02*
X0150238Y0271000D01*
X0150238Y0271473D02*
X0152132Y0271473D01*
X0152132Y0271946D02*
X0150238Y0271946D01*
X0150238Y0272419D02*
X0152132Y0272419D01*
X0152132Y0272892D02*
X0150238Y0272892D01*
X0150238Y0273365D02*
X0152132Y0273365D01*
X0152132Y0273838D02*
X0150238Y0273838D01*
X0150238Y0274311D02*
X0152132Y0274311D01*
X0152132Y0274784D02*
X0150238Y0274784D01*
X0150238Y0275257D02*
X0152132Y0275257D01*
X0152132Y0275730D02*
X0150238Y0275730D01*
X0150238Y0276203D02*
X0152132Y0276203D01*
X0152132Y0276676D02*
X0150238Y0276676D01*
X0150238Y0277149D02*
X0152132Y0277149D01*
X0153388Y0277372D02*
X0153388Y0262486D01*
X0153388Y0277372D02*
X0155282Y0277372D01*
X0155282Y0262486D01*
X0153388Y0262486D01*
X0153388Y0262959D02*
X0155282Y0262959D01*
X0155282Y0263432D02*
X0153388Y0263432D01*
X0153388Y0263905D02*
X0155282Y0263905D01*
X0155282Y0264378D02*
X0153388Y0264378D01*
X0153388Y0264851D02*
X0155282Y0264851D01*
X0155282Y0265324D02*
X0153388Y0265324D01*
X0153388Y0265797D02*
X0155282Y0265797D01*
X0155282Y0266270D02*
X0153388Y0266270D01*
X0153388Y0266743D02*
X0155282Y0266743D01*
X0155282Y0267216D02*
X0153388Y0267216D01*
X0153388Y0267689D02*
X0155282Y0267689D01*
X0155282Y0268162D02*
X0153388Y0268162D01*
X0153388Y0268635D02*
X0155282Y0268635D01*
X0155282Y0269108D02*
X0153388Y0269108D01*
X0153388Y0269581D02*
X0155282Y0269581D01*
X0155282Y0270054D02*
X0153388Y0270054D01*
X0153388Y0270527D02*
X0155282Y0270527D01*
X0155282Y0271000D02*
X0153388Y0271000D01*
X0153388Y0271473D02*
X0155282Y0271473D01*
X0155282Y0271946D02*
X0153388Y0271946D01*
X0153388Y0272419D02*
X0155282Y0272419D01*
X0155282Y0272892D02*
X0153388Y0272892D01*
X0153388Y0273365D02*
X0155282Y0273365D01*
X0155282Y0273838D02*
X0153388Y0273838D01*
X0153388Y0274311D02*
X0155282Y0274311D01*
X0155282Y0274784D02*
X0153388Y0274784D01*
X0153388Y0275257D02*
X0155282Y0275257D01*
X0155282Y0275730D02*
X0153388Y0275730D01*
X0153388Y0276203D02*
X0155282Y0276203D01*
X0155282Y0276676D02*
X0153388Y0276676D01*
X0153388Y0277149D02*
X0155282Y0277149D01*
X0156537Y0277372D02*
X0156537Y0262486D01*
X0156537Y0277372D02*
X0158431Y0277372D01*
X0158431Y0262486D01*
X0156537Y0262486D01*
X0156537Y0262959D02*
X0158431Y0262959D01*
X0158431Y0263432D02*
X0156537Y0263432D01*
X0156537Y0263905D02*
X0158431Y0263905D01*
X0158431Y0264378D02*
X0156537Y0264378D01*
X0156537Y0264851D02*
X0158431Y0264851D01*
X0158431Y0265324D02*
X0156537Y0265324D01*
X0156537Y0265797D02*
X0158431Y0265797D01*
X0158431Y0266270D02*
X0156537Y0266270D01*
X0156537Y0266743D02*
X0158431Y0266743D01*
X0158431Y0267216D02*
X0156537Y0267216D01*
X0156537Y0267689D02*
X0158431Y0267689D01*
X0158431Y0268162D02*
X0156537Y0268162D01*
X0156537Y0268635D02*
X0158431Y0268635D01*
X0158431Y0269108D02*
X0156537Y0269108D01*
X0156537Y0269581D02*
X0158431Y0269581D01*
X0158431Y0270054D02*
X0156537Y0270054D01*
X0156537Y0270527D02*
X0158431Y0270527D01*
X0158431Y0271000D02*
X0156537Y0271000D01*
X0156537Y0271473D02*
X0158431Y0271473D01*
X0158431Y0271946D02*
X0156537Y0271946D01*
X0156537Y0272419D02*
X0158431Y0272419D01*
X0158431Y0272892D02*
X0156537Y0272892D01*
X0156537Y0273365D02*
X0158431Y0273365D01*
X0158431Y0273838D02*
X0156537Y0273838D01*
X0156537Y0274311D02*
X0158431Y0274311D01*
X0158431Y0274784D02*
X0156537Y0274784D01*
X0156537Y0275257D02*
X0158431Y0275257D01*
X0158431Y0275730D02*
X0156537Y0275730D01*
X0156537Y0276203D02*
X0158431Y0276203D01*
X0158431Y0276676D02*
X0156537Y0276676D01*
X0156537Y0277149D02*
X0158431Y0277149D01*
D20*
X0164981Y0275228D02*
X0164981Y0265812D01*
X0164981Y0275228D02*
X0172429Y0275228D01*
X0172429Y0265812D01*
X0164981Y0265812D01*
X0164981Y0266638D02*
X0172429Y0266638D01*
X0172429Y0267464D02*
X0164981Y0267464D01*
X0164981Y0268290D02*
X0172429Y0268290D01*
X0172429Y0269116D02*
X0164981Y0269116D01*
X0164981Y0269942D02*
X0172429Y0269942D01*
X0172429Y0270768D02*
X0164981Y0270768D01*
X0164981Y0271594D02*
X0172429Y0271594D01*
X0172429Y0272420D02*
X0164981Y0272420D01*
X0164981Y0273246D02*
X0172429Y0273246D01*
X0172429Y0274072D02*
X0164981Y0274072D01*
X0164981Y0274898D02*
X0172429Y0274898D01*
X0164981Y0287465D02*
X0164981Y0296881D01*
X0172429Y0296881D01*
X0172429Y0287465D01*
X0164981Y0287465D01*
X0164981Y0288291D02*
X0172429Y0288291D01*
X0172429Y0289117D02*
X0164981Y0289117D01*
X0164981Y0289943D02*
X0172429Y0289943D01*
X0172429Y0290769D02*
X0164981Y0290769D01*
X0164981Y0291595D02*
X0172429Y0291595D01*
X0172429Y0292421D02*
X0164981Y0292421D01*
X0164981Y0293247D02*
X0172429Y0293247D01*
X0172429Y0294073D02*
X0164981Y0294073D01*
X0164981Y0294899D02*
X0172429Y0294899D01*
X0172429Y0295725D02*
X0164981Y0295725D01*
X0164981Y0296551D02*
X0172429Y0296551D01*
X0129941Y0296881D02*
X0129941Y0287465D01*
X0129941Y0296881D02*
X0137389Y0296881D01*
X0137389Y0287465D01*
X0129941Y0287465D01*
X0129941Y0288291D02*
X0137389Y0288291D01*
X0137389Y0289117D02*
X0129941Y0289117D01*
X0129941Y0289943D02*
X0137389Y0289943D01*
X0137389Y0290769D02*
X0129941Y0290769D01*
X0129941Y0291595D02*
X0137389Y0291595D01*
X0137389Y0292421D02*
X0129941Y0292421D01*
X0129941Y0293247D02*
X0137389Y0293247D01*
X0137389Y0294073D02*
X0129941Y0294073D01*
X0129941Y0294899D02*
X0137389Y0294899D01*
X0137389Y0295725D02*
X0129941Y0295725D01*
X0129941Y0296551D02*
X0137389Y0296551D01*
X0129941Y0275228D02*
X0129941Y0265812D01*
X0129941Y0275228D02*
X0137389Y0275228D01*
X0137389Y0265812D01*
X0129941Y0265812D01*
X0129941Y0266638D02*
X0137389Y0266638D01*
X0137389Y0267464D02*
X0129941Y0267464D01*
X0129941Y0268290D02*
X0137389Y0268290D01*
X0137389Y0269116D02*
X0129941Y0269116D01*
X0129941Y0269942D02*
X0137389Y0269942D01*
X0137389Y0270768D02*
X0129941Y0270768D01*
X0129941Y0271594D02*
X0137389Y0271594D01*
X0137389Y0272420D02*
X0129941Y0272420D01*
X0129941Y0273246D02*
X0137389Y0273246D01*
X0137389Y0274072D02*
X0129941Y0274072D01*
X0129941Y0274898D02*
X0137389Y0274898D01*
D21*
X0142524Y0280559D03*
X0159846Y0280559D03*
D22*
X0217308Y0267965D02*
X0217248Y0267281D01*
X0217308Y0266598D01*
X0217485Y0265935D01*
X0217775Y0265313D01*
X0218169Y0264751D01*
X0218654Y0264265D01*
X0219217Y0263872D01*
X0219839Y0263582D01*
X0220501Y0263404D01*
X0221185Y0263344D01*
X0221869Y0263404D01*
X0222532Y0263582D01*
X0223154Y0263872D01*
X0223716Y0264265D01*
X0224201Y0264751D01*
X0224595Y0265313D01*
X0224885Y0265935D01*
X0225062Y0266598D01*
X0225122Y0267281D01*
X0225062Y0267965D01*
X0224885Y0268628D01*
X0224595Y0269250D01*
X0224201Y0269812D01*
X0223716Y0270297D01*
X0223154Y0270691D01*
X0222532Y0270981D01*
X0221869Y0271159D01*
X0221185Y0271218D01*
X0220501Y0271159D01*
X0219839Y0270981D01*
X0219217Y0270691D01*
X0218654Y0270297D01*
X0218169Y0269812D01*
X0217775Y0269250D01*
X0217485Y0268628D01*
X0217308Y0267965D01*
X0217300Y0267876D02*
X0225070Y0267876D01*
X0225114Y0267378D02*
X0217256Y0267378D01*
X0217283Y0266879D02*
X0225087Y0266879D01*
X0225004Y0266381D02*
X0217366Y0266381D01*
X0217510Y0265882D02*
X0224860Y0265882D01*
X0224628Y0265384D02*
X0217742Y0265384D01*
X0218075Y0264885D02*
X0224295Y0264885D01*
X0223837Y0264387D02*
X0218533Y0264387D01*
X0219193Y0263888D02*
X0223177Y0263888D01*
X0221704Y0263390D02*
X0220666Y0263390D01*
X0217418Y0268375D02*
X0224952Y0268375D01*
X0224770Y0268873D02*
X0217600Y0268873D01*
X0217861Y0269372D02*
X0224509Y0269372D01*
X0224143Y0269870D02*
X0218227Y0269870D01*
X0218757Y0270369D02*
X0223613Y0270369D01*
X0222775Y0270867D02*
X0219595Y0270867D01*
X0050609Y0060988D02*
X0050047Y0061382D01*
X0049425Y0061672D01*
X0048762Y0061849D01*
X0048079Y0061909D01*
X0047395Y0061849D01*
X0046732Y0061672D01*
X0046110Y0061382D01*
X0045548Y0060988D01*
X0045063Y0060503D01*
X0044669Y0059941D01*
X0044379Y0059319D01*
X0044202Y0058656D01*
X0044142Y0057972D01*
X0044202Y0057289D01*
X0044379Y0056626D01*
X0044669Y0056004D01*
X0045063Y0055442D01*
X0045548Y0054956D01*
X0046110Y0054563D01*
X0046732Y0054273D01*
X0047395Y0054095D01*
X0048079Y0054035D01*
X0048762Y0054095D01*
X0049425Y0054273D01*
X0050047Y0054563D01*
X0050609Y0054956D01*
X0051095Y0055442D01*
X0051488Y0056004D01*
X0051778Y0056626D01*
X0051956Y0057289D01*
X0052016Y0057972D01*
X0051956Y0058656D01*
X0051778Y0059319D01*
X0051488Y0059941D01*
X0051095Y0060503D01*
X0050609Y0060988D01*
X0050601Y0060994D02*
X0045557Y0060994D01*
X0045058Y0060496D02*
X0051100Y0060496D01*
X0051449Y0059997D02*
X0044709Y0059997D01*
X0044463Y0059499D02*
X0051695Y0059499D01*
X0051864Y0059000D02*
X0044294Y0059000D01*
X0044188Y0058502D02*
X0051969Y0058502D01*
X0052013Y0058003D02*
X0044144Y0058003D01*
X0044183Y0057505D02*
X0051975Y0057505D01*
X0051880Y0057006D02*
X0044277Y0057006D01*
X0044434Y0056508D02*
X0051723Y0056508D01*
X0051491Y0056009D02*
X0044667Y0056009D01*
X0045015Y0055510D02*
X0051143Y0055510D01*
X0050665Y0055012D02*
X0045492Y0055012D01*
X0046216Y0054513D02*
X0049942Y0054513D01*
X0049810Y0061493D02*
X0046348Y0061493D01*
X0033528Y0273266D02*
X0034211Y0273325D01*
X0034874Y0273503D01*
X0035496Y0273793D01*
X0036058Y0274187D01*
X0036543Y0274672D01*
X0036937Y0275234D01*
X0037227Y0275856D01*
X0037405Y0276519D01*
X0037465Y0277203D01*
X0037405Y0277886D01*
X0037227Y0278549D01*
X0036937Y0279171D01*
X0036543Y0279733D01*
X0036058Y0280219D01*
X0035496Y0280612D01*
X0034874Y0280902D01*
X0034211Y0281080D01*
X0033528Y0281140D01*
X0032844Y0281080D01*
X0032181Y0280902D01*
X0031559Y0280612D01*
X0030997Y0280219D01*
X0030512Y0279733D01*
X0030118Y0279171D01*
X0029828Y0278549D01*
X0029650Y0277886D01*
X0029591Y0277203D01*
X0029650Y0276519D01*
X0029828Y0275856D01*
X0030118Y0275234D01*
X0030512Y0274672D01*
X0030997Y0274187D01*
X0031559Y0273793D01*
X0032181Y0273503D01*
X0032844Y0273325D01*
X0033528Y0273266D01*
X0034340Y0273360D02*
X0032715Y0273360D01*
X0031466Y0273858D02*
X0035589Y0273858D01*
X0036229Y0274357D02*
X0030827Y0274357D01*
X0030383Y0274855D02*
X0036672Y0274855D01*
X0036993Y0275354D02*
X0030062Y0275354D01*
X0029830Y0275852D02*
X0037225Y0275852D01*
X0037360Y0276351D02*
X0029695Y0276351D01*
X0029621Y0276850D02*
X0037434Y0276850D01*
X0037452Y0277348D02*
X0029603Y0277348D01*
X0029647Y0277847D02*
X0037408Y0277847D01*
X0037282Y0278345D02*
X0029773Y0278345D01*
X0029965Y0278844D02*
X0037090Y0278844D01*
X0036817Y0279342D02*
X0030238Y0279342D01*
X0030619Y0279841D02*
X0036436Y0279841D01*
X0035886Y0280339D02*
X0031169Y0280339D01*
X0032043Y0280838D02*
X0035013Y0280838D01*
D23*
X0189846Y0275492D02*
X0194324Y0275492D01*
X0189846Y0275492D02*
X0189846Y0276770D01*
X0194324Y0276770D01*
X0194324Y0275492D01*
X0194324Y0276013D02*
X0189846Y0276013D01*
X0189846Y0276534D02*
X0194324Y0276534D01*
X0194324Y0272892D02*
X0189846Y0272892D01*
X0189846Y0274170D01*
X0194324Y0274170D01*
X0194324Y0272892D01*
X0194324Y0273413D02*
X0189846Y0273413D01*
X0189846Y0273934D02*
X0194324Y0273934D01*
X0194324Y0270292D02*
X0189846Y0270292D01*
X0189846Y0271570D01*
X0194324Y0271570D01*
X0194324Y0270292D01*
X0194324Y0270813D02*
X0189846Y0270813D01*
X0189846Y0271334D02*
X0194324Y0271334D01*
X0198046Y0270292D02*
X0202524Y0270292D01*
X0198046Y0270292D02*
X0198046Y0271570D01*
X0202524Y0271570D01*
X0202524Y0270292D01*
X0202524Y0270813D02*
X0198046Y0270813D01*
X0198046Y0271334D02*
X0202524Y0271334D01*
X0202524Y0272892D02*
X0198046Y0272892D01*
X0198046Y0274170D01*
X0202524Y0274170D01*
X0202524Y0272892D01*
X0202524Y0273413D02*
X0198046Y0273413D01*
X0198046Y0273934D02*
X0202524Y0273934D01*
X0202524Y0275492D02*
X0198046Y0275492D01*
X0198046Y0276770D01*
X0202524Y0276770D01*
X0202524Y0275492D01*
X0202524Y0276013D02*
X0198046Y0276013D01*
X0198046Y0276534D02*
X0202524Y0276534D01*
D24*
X0199175Y0258563D02*
X0196739Y0258563D01*
X0196739Y0263499D01*
X0199175Y0263499D01*
X0199175Y0258563D01*
X0199175Y0259026D02*
X0196739Y0259026D01*
X0196739Y0259489D02*
X0199175Y0259489D01*
X0199175Y0259952D02*
X0196739Y0259952D01*
X0196739Y0260415D02*
X0199175Y0260415D01*
X0199175Y0260878D02*
X0196739Y0260878D01*
X0196739Y0261341D02*
X0199175Y0261341D01*
X0199175Y0261804D02*
X0196739Y0261804D01*
X0196739Y0262267D02*
X0199175Y0262267D01*
X0199175Y0262730D02*
X0196739Y0262730D01*
X0196739Y0263193D02*
X0199175Y0263193D01*
X0195631Y0258563D02*
X0193195Y0258563D01*
X0193195Y0263499D01*
X0195631Y0263499D01*
X0195631Y0258563D01*
X0195631Y0259026D02*
X0193195Y0259026D01*
X0193195Y0259489D02*
X0195631Y0259489D01*
X0195631Y0259952D02*
X0193195Y0259952D01*
X0193195Y0260415D02*
X0195631Y0260415D01*
X0195631Y0260878D02*
X0193195Y0260878D01*
X0193195Y0261341D02*
X0195631Y0261341D01*
X0195631Y0261804D02*
X0193195Y0261804D01*
X0193195Y0262267D02*
X0195631Y0262267D01*
X0195631Y0262730D02*
X0193195Y0262730D01*
X0193195Y0263193D02*
X0195631Y0263193D01*
D25*
X0112985Y0147131D02*
X0092385Y0147131D01*
X0112985Y0147131D02*
X0112985Y0139931D01*
X0092385Y0139931D01*
X0092385Y0147131D01*
X0092385Y0140730D02*
X0112985Y0140730D01*
X0112985Y0141529D02*
X0092385Y0141529D01*
X0092385Y0142328D02*
X0112985Y0142328D01*
X0112985Y0143127D02*
X0092385Y0143127D01*
X0092385Y0143926D02*
X0112985Y0143926D01*
X0112985Y0144725D02*
X0092385Y0144725D01*
X0092385Y0145524D02*
X0112985Y0145524D01*
X0112985Y0146323D02*
X0092385Y0146323D01*
X0092385Y0147122D02*
X0112985Y0147122D01*
X0074985Y0147131D02*
X0054385Y0147131D01*
X0074985Y0147131D02*
X0074985Y0139931D01*
X0054385Y0139931D01*
X0054385Y0147131D01*
X0054385Y0140730D02*
X0074985Y0140730D01*
X0074985Y0141529D02*
X0054385Y0141529D01*
X0054385Y0142328D02*
X0074985Y0142328D01*
X0074985Y0143127D02*
X0054385Y0143127D01*
X0054385Y0143926D02*
X0074985Y0143926D01*
X0074985Y0144725D02*
X0054385Y0144725D01*
X0054385Y0145524D02*
X0074985Y0145524D01*
X0074985Y0146323D02*
X0054385Y0146323D01*
X0054385Y0147122D02*
X0074985Y0147122D01*
D26*
X0109319Y0176442D02*
X0114251Y0176442D01*
X0109319Y0176442D02*
X0109319Y0178574D01*
X0114251Y0178574D01*
X0114251Y0176442D01*
X0114251Y0176909D02*
X0109319Y0176909D01*
X0109319Y0177376D02*
X0114251Y0177376D01*
X0114251Y0177843D02*
X0109319Y0177843D01*
X0109319Y0178310D02*
X0114251Y0178310D01*
X0114251Y0179591D02*
X0109319Y0179591D01*
X0109319Y0181723D01*
X0114251Y0181723D01*
X0114251Y0179591D01*
X0114251Y0180058D02*
X0109319Y0180058D01*
X0109319Y0180525D02*
X0114251Y0180525D01*
X0114251Y0180992D02*
X0109319Y0180992D01*
X0109319Y0181459D02*
X0114251Y0181459D01*
X0114251Y0182741D02*
X0109319Y0182741D01*
X0109319Y0184873D01*
X0114251Y0184873D01*
X0114251Y0182741D01*
X0114251Y0183208D02*
X0109319Y0183208D01*
X0109319Y0183675D02*
X0114251Y0183675D01*
X0114251Y0184142D02*
X0109319Y0184142D01*
X0109319Y0184609D02*
X0114251Y0184609D01*
X0114251Y0185891D02*
X0109319Y0185891D01*
X0109319Y0188023D01*
X0114251Y0188023D01*
X0114251Y0185891D01*
X0114251Y0186358D02*
X0109319Y0186358D01*
X0109319Y0186825D02*
X0114251Y0186825D01*
X0114251Y0187292D02*
X0109319Y0187292D01*
X0109319Y0187759D02*
X0114251Y0187759D01*
X0114251Y0189040D02*
X0109319Y0189040D01*
X0109319Y0191172D01*
X0114251Y0191172D01*
X0114251Y0189040D01*
X0114251Y0189507D02*
X0109319Y0189507D01*
X0109319Y0189974D02*
X0114251Y0189974D01*
X0114251Y0190441D02*
X0109319Y0190441D01*
X0109319Y0190908D02*
X0114251Y0190908D01*
X0114251Y0192190D02*
X0109319Y0192190D01*
X0109319Y0194322D01*
X0114251Y0194322D01*
X0114251Y0192190D01*
X0114251Y0192657D02*
X0109319Y0192657D01*
X0109319Y0193124D02*
X0114251Y0193124D01*
X0114251Y0193591D02*
X0109319Y0193591D01*
X0109319Y0194058D02*
X0114251Y0194058D01*
X0114251Y0195339D02*
X0109319Y0195339D01*
X0109319Y0197471D01*
X0114251Y0197471D01*
X0114251Y0195339D01*
X0114251Y0195806D02*
X0109319Y0195806D01*
X0109319Y0196273D02*
X0114251Y0196273D01*
X0114251Y0196740D02*
X0109319Y0196740D01*
X0109319Y0197207D02*
X0114251Y0197207D01*
X0114251Y0198489D02*
X0109319Y0198489D01*
X0109319Y0200621D01*
X0114251Y0200621D01*
X0114251Y0198489D01*
X0114251Y0198956D02*
X0109319Y0198956D01*
X0109319Y0199423D02*
X0114251Y0199423D01*
X0114251Y0199890D02*
X0109319Y0199890D01*
X0109319Y0200357D02*
X0114251Y0200357D01*
X0116595Y0202965D02*
X0118727Y0202965D01*
X0116595Y0202965D02*
X0116595Y0207897D01*
X0118727Y0207897D01*
X0118727Y0202965D01*
X0118727Y0203432D02*
X0116595Y0203432D01*
X0116595Y0203899D02*
X0118727Y0203899D01*
X0118727Y0204366D02*
X0116595Y0204366D01*
X0116595Y0204833D02*
X0118727Y0204833D01*
X0118727Y0205300D02*
X0116595Y0205300D01*
X0116595Y0205767D02*
X0118727Y0205767D01*
X0118727Y0206234D02*
X0116595Y0206234D01*
X0116595Y0206701D02*
X0118727Y0206701D01*
X0118727Y0207168D02*
X0116595Y0207168D01*
X0116595Y0207635D02*
X0118727Y0207635D01*
X0119745Y0202965D02*
X0121877Y0202965D01*
X0119745Y0202965D02*
X0119745Y0207897D01*
X0121877Y0207897D01*
X0121877Y0202965D01*
X0121877Y0203432D02*
X0119745Y0203432D01*
X0119745Y0203899D02*
X0121877Y0203899D01*
X0121877Y0204366D02*
X0119745Y0204366D01*
X0119745Y0204833D02*
X0121877Y0204833D01*
X0121877Y0205300D02*
X0119745Y0205300D01*
X0119745Y0205767D02*
X0121877Y0205767D01*
X0121877Y0206234D02*
X0119745Y0206234D01*
X0119745Y0206701D02*
X0121877Y0206701D01*
X0121877Y0207168D02*
X0119745Y0207168D01*
X0119745Y0207635D02*
X0121877Y0207635D01*
X0122895Y0202965D02*
X0125027Y0202965D01*
X0122895Y0202965D02*
X0122895Y0207897D01*
X0125027Y0207897D01*
X0125027Y0202965D01*
X0125027Y0203432D02*
X0122895Y0203432D01*
X0122895Y0203899D02*
X0125027Y0203899D01*
X0125027Y0204366D02*
X0122895Y0204366D01*
X0122895Y0204833D02*
X0125027Y0204833D01*
X0125027Y0205300D02*
X0122895Y0205300D01*
X0122895Y0205767D02*
X0125027Y0205767D01*
X0125027Y0206234D02*
X0122895Y0206234D01*
X0122895Y0206701D02*
X0125027Y0206701D01*
X0125027Y0207168D02*
X0122895Y0207168D01*
X0122895Y0207635D02*
X0125027Y0207635D01*
X0126044Y0202965D02*
X0128176Y0202965D01*
X0126044Y0202965D02*
X0126044Y0207897D01*
X0128176Y0207897D01*
X0128176Y0202965D01*
X0128176Y0203432D02*
X0126044Y0203432D01*
X0126044Y0203899D02*
X0128176Y0203899D01*
X0128176Y0204366D02*
X0126044Y0204366D01*
X0126044Y0204833D02*
X0128176Y0204833D01*
X0128176Y0205300D02*
X0126044Y0205300D01*
X0126044Y0205767D02*
X0128176Y0205767D01*
X0128176Y0206234D02*
X0126044Y0206234D01*
X0126044Y0206701D02*
X0128176Y0206701D01*
X0128176Y0207168D02*
X0126044Y0207168D01*
X0126044Y0207635D02*
X0128176Y0207635D01*
X0129194Y0202965D02*
X0131326Y0202965D01*
X0129194Y0202965D02*
X0129194Y0207897D01*
X0131326Y0207897D01*
X0131326Y0202965D01*
X0131326Y0203432D02*
X0129194Y0203432D01*
X0129194Y0203899D02*
X0131326Y0203899D01*
X0131326Y0204366D02*
X0129194Y0204366D01*
X0129194Y0204833D02*
X0131326Y0204833D01*
X0131326Y0205300D02*
X0129194Y0205300D01*
X0129194Y0205767D02*
X0131326Y0205767D01*
X0131326Y0206234D02*
X0129194Y0206234D01*
X0129194Y0206701D02*
X0131326Y0206701D01*
X0131326Y0207168D02*
X0129194Y0207168D01*
X0129194Y0207635D02*
X0131326Y0207635D01*
X0132343Y0202965D02*
X0134475Y0202965D01*
X0132343Y0202965D02*
X0132343Y0207897D01*
X0134475Y0207897D01*
X0134475Y0202965D01*
X0134475Y0203432D02*
X0132343Y0203432D01*
X0132343Y0203899D02*
X0134475Y0203899D01*
X0134475Y0204366D02*
X0132343Y0204366D01*
X0132343Y0204833D02*
X0134475Y0204833D01*
X0134475Y0205300D02*
X0132343Y0205300D01*
X0132343Y0205767D02*
X0134475Y0205767D01*
X0134475Y0206234D02*
X0132343Y0206234D01*
X0132343Y0206701D02*
X0134475Y0206701D01*
X0134475Y0207168D02*
X0132343Y0207168D01*
X0132343Y0207635D02*
X0134475Y0207635D01*
X0135493Y0202965D02*
X0137625Y0202965D01*
X0135493Y0202965D02*
X0135493Y0207897D01*
X0137625Y0207897D01*
X0137625Y0202965D01*
X0137625Y0203432D02*
X0135493Y0203432D01*
X0135493Y0203899D02*
X0137625Y0203899D01*
X0137625Y0204366D02*
X0135493Y0204366D01*
X0135493Y0204833D02*
X0137625Y0204833D01*
X0137625Y0205300D02*
X0135493Y0205300D01*
X0135493Y0205767D02*
X0137625Y0205767D01*
X0137625Y0206234D02*
X0135493Y0206234D01*
X0135493Y0206701D02*
X0137625Y0206701D01*
X0137625Y0207168D02*
X0135493Y0207168D01*
X0135493Y0207635D02*
X0137625Y0207635D01*
X0138643Y0202965D02*
X0140775Y0202965D01*
X0138643Y0202965D02*
X0138643Y0207897D01*
X0140775Y0207897D01*
X0140775Y0202965D01*
X0140775Y0203432D02*
X0138643Y0203432D01*
X0138643Y0203899D02*
X0140775Y0203899D01*
X0140775Y0204366D02*
X0138643Y0204366D01*
X0138643Y0204833D02*
X0140775Y0204833D01*
X0140775Y0205300D02*
X0138643Y0205300D01*
X0138643Y0205767D02*
X0140775Y0205767D01*
X0140775Y0206234D02*
X0138643Y0206234D01*
X0138643Y0206701D02*
X0140775Y0206701D01*
X0140775Y0207168D02*
X0138643Y0207168D01*
X0138643Y0207635D02*
X0140775Y0207635D01*
X0143119Y0198489D02*
X0148051Y0198489D01*
X0143119Y0198489D02*
X0143119Y0200621D01*
X0148051Y0200621D01*
X0148051Y0198489D01*
X0148051Y0198956D02*
X0143119Y0198956D01*
X0143119Y0199423D02*
X0148051Y0199423D01*
X0148051Y0199890D02*
X0143119Y0199890D01*
X0143119Y0200357D02*
X0148051Y0200357D01*
X0148051Y0195339D02*
X0143119Y0195339D01*
X0143119Y0197471D01*
X0148051Y0197471D01*
X0148051Y0195339D01*
X0148051Y0195806D02*
X0143119Y0195806D01*
X0143119Y0196273D02*
X0148051Y0196273D01*
X0148051Y0196740D02*
X0143119Y0196740D01*
X0143119Y0197207D02*
X0148051Y0197207D01*
X0148051Y0192190D02*
X0143119Y0192190D01*
X0143119Y0194322D01*
X0148051Y0194322D01*
X0148051Y0192190D01*
X0148051Y0192657D02*
X0143119Y0192657D01*
X0143119Y0193124D02*
X0148051Y0193124D01*
X0148051Y0193591D02*
X0143119Y0193591D01*
X0143119Y0194058D02*
X0148051Y0194058D01*
X0148051Y0189040D02*
X0143119Y0189040D01*
X0143119Y0191172D01*
X0148051Y0191172D01*
X0148051Y0189040D01*
X0148051Y0189507D02*
X0143119Y0189507D01*
X0143119Y0189974D02*
X0148051Y0189974D01*
X0148051Y0190441D02*
X0143119Y0190441D01*
X0143119Y0190908D02*
X0148051Y0190908D01*
X0148051Y0185891D02*
X0143119Y0185891D01*
X0143119Y0188023D01*
X0148051Y0188023D01*
X0148051Y0185891D01*
X0148051Y0186358D02*
X0143119Y0186358D01*
X0143119Y0186825D02*
X0148051Y0186825D01*
X0148051Y0187292D02*
X0143119Y0187292D01*
X0143119Y0187759D02*
X0148051Y0187759D01*
X0148051Y0182741D02*
X0143119Y0182741D01*
X0143119Y0184873D01*
X0148051Y0184873D01*
X0148051Y0182741D01*
X0148051Y0183208D02*
X0143119Y0183208D01*
X0143119Y0183675D02*
X0148051Y0183675D01*
X0148051Y0184142D02*
X0143119Y0184142D01*
X0143119Y0184609D02*
X0148051Y0184609D01*
X0148051Y0179591D02*
X0143119Y0179591D01*
X0143119Y0181723D01*
X0148051Y0181723D01*
X0148051Y0179591D01*
X0148051Y0180058D02*
X0143119Y0180058D01*
X0143119Y0180525D02*
X0148051Y0180525D01*
X0148051Y0180992D02*
X0143119Y0180992D01*
X0143119Y0181459D02*
X0148051Y0181459D01*
X0148051Y0176442D02*
X0143119Y0176442D01*
X0143119Y0178574D01*
X0148051Y0178574D01*
X0148051Y0176442D01*
X0148051Y0176909D02*
X0143119Y0176909D01*
X0143119Y0177376D02*
X0148051Y0177376D01*
X0148051Y0177843D02*
X0143119Y0177843D01*
X0143119Y0178310D02*
X0148051Y0178310D01*
X0140775Y0169165D02*
X0138643Y0169165D01*
X0138643Y0174097D01*
X0140775Y0174097D01*
X0140775Y0169165D01*
X0140775Y0169632D02*
X0138643Y0169632D01*
X0138643Y0170099D02*
X0140775Y0170099D01*
X0140775Y0170566D02*
X0138643Y0170566D01*
X0138643Y0171033D02*
X0140775Y0171033D01*
X0140775Y0171500D02*
X0138643Y0171500D01*
X0138643Y0171967D02*
X0140775Y0171967D01*
X0140775Y0172434D02*
X0138643Y0172434D01*
X0138643Y0172901D02*
X0140775Y0172901D01*
X0140775Y0173368D02*
X0138643Y0173368D01*
X0138643Y0173835D02*
X0140775Y0173835D01*
X0137625Y0169165D02*
X0135493Y0169165D01*
X0135493Y0174097D01*
X0137625Y0174097D01*
X0137625Y0169165D01*
X0137625Y0169632D02*
X0135493Y0169632D01*
X0135493Y0170099D02*
X0137625Y0170099D01*
X0137625Y0170566D02*
X0135493Y0170566D01*
X0135493Y0171033D02*
X0137625Y0171033D01*
X0137625Y0171500D02*
X0135493Y0171500D01*
X0135493Y0171967D02*
X0137625Y0171967D01*
X0137625Y0172434D02*
X0135493Y0172434D01*
X0135493Y0172901D02*
X0137625Y0172901D01*
X0137625Y0173368D02*
X0135493Y0173368D01*
X0135493Y0173835D02*
X0137625Y0173835D01*
X0134475Y0169165D02*
X0132343Y0169165D01*
X0132343Y0174097D01*
X0134475Y0174097D01*
X0134475Y0169165D01*
X0134475Y0169632D02*
X0132343Y0169632D01*
X0132343Y0170099D02*
X0134475Y0170099D01*
X0134475Y0170566D02*
X0132343Y0170566D01*
X0132343Y0171033D02*
X0134475Y0171033D01*
X0134475Y0171500D02*
X0132343Y0171500D01*
X0132343Y0171967D02*
X0134475Y0171967D01*
X0134475Y0172434D02*
X0132343Y0172434D01*
X0132343Y0172901D02*
X0134475Y0172901D01*
X0134475Y0173368D02*
X0132343Y0173368D01*
X0132343Y0173835D02*
X0134475Y0173835D01*
X0131326Y0169165D02*
X0129194Y0169165D01*
X0129194Y0174097D01*
X0131326Y0174097D01*
X0131326Y0169165D01*
X0131326Y0169632D02*
X0129194Y0169632D01*
X0129194Y0170099D02*
X0131326Y0170099D01*
X0131326Y0170566D02*
X0129194Y0170566D01*
X0129194Y0171033D02*
X0131326Y0171033D01*
X0131326Y0171500D02*
X0129194Y0171500D01*
X0129194Y0171967D02*
X0131326Y0171967D01*
X0131326Y0172434D02*
X0129194Y0172434D01*
X0129194Y0172901D02*
X0131326Y0172901D01*
X0131326Y0173368D02*
X0129194Y0173368D01*
X0129194Y0173835D02*
X0131326Y0173835D01*
X0128176Y0169165D02*
X0126044Y0169165D01*
X0126044Y0174097D01*
X0128176Y0174097D01*
X0128176Y0169165D01*
X0128176Y0169632D02*
X0126044Y0169632D01*
X0126044Y0170099D02*
X0128176Y0170099D01*
X0128176Y0170566D02*
X0126044Y0170566D01*
X0126044Y0171033D02*
X0128176Y0171033D01*
X0128176Y0171500D02*
X0126044Y0171500D01*
X0126044Y0171967D02*
X0128176Y0171967D01*
X0128176Y0172434D02*
X0126044Y0172434D01*
X0126044Y0172901D02*
X0128176Y0172901D01*
X0128176Y0173368D02*
X0126044Y0173368D01*
X0126044Y0173835D02*
X0128176Y0173835D01*
X0125027Y0169165D02*
X0122895Y0169165D01*
X0122895Y0174097D01*
X0125027Y0174097D01*
X0125027Y0169165D01*
X0125027Y0169632D02*
X0122895Y0169632D01*
X0122895Y0170099D02*
X0125027Y0170099D01*
X0125027Y0170566D02*
X0122895Y0170566D01*
X0122895Y0171033D02*
X0125027Y0171033D01*
X0125027Y0171500D02*
X0122895Y0171500D01*
X0122895Y0171967D02*
X0125027Y0171967D01*
X0125027Y0172434D02*
X0122895Y0172434D01*
X0122895Y0172901D02*
X0125027Y0172901D01*
X0125027Y0173368D02*
X0122895Y0173368D01*
X0122895Y0173835D02*
X0125027Y0173835D01*
X0121877Y0169165D02*
X0119745Y0169165D01*
X0119745Y0174097D01*
X0121877Y0174097D01*
X0121877Y0169165D01*
X0121877Y0169632D02*
X0119745Y0169632D01*
X0119745Y0170099D02*
X0121877Y0170099D01*
X0121877Y0170566D02*
X0119745Y0170566D01*
X0119745Y0171033D02*
X0121877Y0171033D01*
X0121877Y0171500D02*
X0119745Y0171500D01*
X0119745Y0171967D02*
X0121877Y0171967D01*
X0121877Y0172434D02*
X0119745Y0172434D01*
X0119745Y0172901D02*
X0121877Y0172901D01*
X0121877Y0173368D02*
X0119745Y0173368D01*
X0119745Y0173835D02*
X0121877Y0173835D01*
X0118727Y0169165D02*
X0116595Y0169165D01*
X0116595Y0174097D01*
X0118727Y0174097D01*
X0118727Y0169165D01*
X0118727Y0169632D02*
X0116595Y0169632D01*
X0116595Y0170099D02*
X0118727Y0170099D01*
X0118727Y0170566D02*
X0116595Y0170566D01*
X0116595Y0171033D02*
X0118727Y0171033D01*
X0118727Y0171500D02*
X0116595Y0171500D01*
X0116595Y0171967D02*
X0118727Y0171967D01*
X0118727Y0172434D02*
X0116595Y0172434D01*
X0116595Y0172901D02*
X0118727Y0172901D01*
X0118727Y0173368D02*
X0116595Y0173368D01*
X0116595Y0173835D02*
X0118727Y0173835D01*
D27*
X0121400Y0178096D02*
X0122190Y0178096D01*
X0121400Y0178096D02*
X0121400Y0180462D01*
X0122190Y0180462D01*
X0122190Y0178096D01*
X0122190Y0178886D02*
X0121400Y0178886D01*
X0121400Y0179676D02*
X0122190Y0179676D01*
X0123369Y0178096D02*
X0124159Y0178096D01*
X0123369Y0178096D02*
X0123369Y0180462D01*
X0124159Y0180462D01*
X0124159Y0178096D01*
X0124159Y0178886D02*
X0123369Y0178886D01*
X0123369Y0179676D02*
X0124159Y0179676D01*
X0125337Y0178096D02*
X0126127Y0178096D01*
X0125337Y0178096D02*
X0125337Y0180462D01*
X0126127Y0180462D01*
X0126127Y0178096D01*
X0126127Y0178886D02*
X0125337Y0178886D01*
X0125337Y0179676D02*
X0126127Y0179676D01*
X0127306Y0178096D02*
X0128096Y0178096D01*
X0127306Y0178096D02*
X0127306Y0180462D01*
X0128096Y0180462D01*
X0128096Y0178096D01*
X0128096Y0178886D02*
X0127306Y0178886D01*
X0127306Y0179676D02*
X0128096Y0179676D01*
X0129274Y0178096D02*
X0130064Y0178096D01*
X0129274Y0178096D02*
X0129274Y0180462D01*
X0130064Y0180462D01*
X0130064Y0178096D01*
X0130064Y0178886D02*
X0129274Y0178886D01*
X0129274Y0179676D02*
X0130064Y0179676D01*
X0131243Y0178096D02*
X0132033Y0178096D01*
X0131243Y0178096D02*
X0131243Y0180462D01*
X0132033Y0180462D01*
X0132033Y0178096D01*
X0132033Y0178886D02*
X0131243Y0178886D01*
X0131243Y0179676D02*
X0132033Y0179676D01*
X0133211Y0178096D02*
X0134001Y0178096D01*
X0133211Y0178096D02*
X0133211Y0180462D01*
X0134001Y0180462D01*
X0134001Y0178096D01*
X0134001Y0178886D02*
X0133211Y0178886D01*
X0133211Y0179676D02*
X0134001Y0179676D01*
X0135180Y0178096D02*
X0135970Y0178096D01*
X0135180Y0178096D02*
X0135180Y0180462D01*
X0135970Y0180462D01*
X0135970Y0178096D01*
X0135970Y0178886D02*
X0135180Y0178886D01*
X0135180Y0179676D02*
X0135970Y0179676D01*
X0136754Y0181247D02*
X0139120Y0181247D01*
X0136754Y0181247D02*
X0136754Y0182037D01*
X0139120Y0182037D01*
X0139120Y0181247D01*
X0139120Y0182037D02*
X0136754Y0182037D01*
X0136754Y0183215D02*
X0139120Y0183215D01*
X0136754Y0183215D02*
X0136754Y0184005D01*
X0139120Y0184005D01*
X0139120Y0183215D01*
X0139120Y0184005D02*
X0136754Y0184005D01*
X0136754Y0185184D02*
X0139120Y0185184D01*
X0136754Y0185184D02*
X0136754Y0185974D01*
X0139120Y0185974D01*
X0139120Y0185184D01*
X0139120Y0185974D02*
X0136754Y0185974D01*
X0136754Y0187152D02*
X0139120Y0187152D01*
X0136754Y0187152D02*
X0136754Y0187942D01*
X0139120Y0187942D01*
X0139120Y0187152D01*
X0139120Y0187942D02*
X0136754Y0187942D01*
X0136754Y0189121D02*
X0139120Y0189121D01*
X0136754Y0189121D02*
X0136754Y0189911D01*
X0139120Y0189911D01*
X0139120Y0189121D01*
X0139120Y0189911D02*
X0136754Y0189911D01*
X0136754Y0191089D02*
X0139120Y0191089D01*
X0136754Y0191089D02*
X0136754Y0191879D01*
X0139120Y0191879D01*
X0139120Y0191089D01*
X0139120Y0191879D02*
X0136754Y0191879D01*
X0136754Y0193058D02*
X0139120Y0193058D01*
X0136754Y0193058D02*
X0136754Y0193848D01*
X0139120Y0193848D01*
X0139120Y0193058D01*
X0139120Y0193848D02*
X0136754Y0193848D01*
X0136754Y0195026D02*
X0139120Y0195026D01*
X0136754Y0195026D02*
X0136754Y0195816D01*
X0139120Y0195816D01*
X0139120Y0195026D01*
X0139120Y0195816D02*
X0136754Y0195816D01*
X0135970Y0196600D02*
X0135180Y0196600D01*
X0135180Y0198966D01*
X0135970Y0198966D01*
X0135970Y0196600D01*
X0135970Y0197390D02*
X0135180Y0197390D01*
X0135180Y0198180D02*
X0135970Y0198180D01*
X0134001Y0196600D02*
X0133211Y0196600D01*
X0133211Y0198966D01*
X0134001Y0198966D01*
X0134001Y0196600D01*
X0134001Y0197390D02*
X0133211Y0197390D01*
X0133211Y0198180D02*
X0134001Y0198180D01*
X0132033Y0196600D02*
X0131243Y0196600D01*
X0131243Y0198966D01*
X0132033Y0198966D01*
X0132033Y0196600D01*
X0132033Y0197390D02*
X0131243Y0197390D01*
X0131243Y0198180D02*
X0132033Y0198180D01*
X0130064Y0196600D02*
X0129274Y0196600D01*
X0129274Y0198966D01*
X0130064Y0198966D01*
X0130064Y0196600D01*
X0130064Y0197390D02*
X0129274Y0197390D01*
X0129274Y0198180D02*
X0130064Y0198180D01*
X0128096Y0196600D02*
X0127306Y0196600D01*
X0127306Y0198966D01*
X0128096Y0198966D01*
X0128096Y0196600D01*
X0128096Y0197390D02*
X0127306Y0197390D01*
X0127306Y0198180D02*
X0128096Y0198180D01*
X0126127Y0196600D02*
X0125337Y0196600D01*
X0125337Y0198966D01*
X0126127Y0198966D01*
X0126127Y0196600D01*
X0126127Y0197390D02*
X0125337Y0197390D01*
X0125337Y0198180D02*
X0126127Y0198180D01*
X0124159Y0196600D02*
X0123369Y0196600D01*
X0123369Y0198966D01*
X0124159Y0198966D01*
X0124159Y0196600D01*
X0124159Y0197390D02*
X0123369Y0197390D01*
X0123369Y0198180D02*
X0124159Y0198180D01*
X0122190Y0196600D02*
X0121400Y0196600D01*
X0121400Y0198966D01*
X0122190Y0198966D01*
X0122190Y0196600D01*
X0122190Y0197390D02*
X0121400Y0197390D01*
X0121400Y0198180D02*
X0122190Y0198180D01*
X0120616Y0195026D02*
X0118250Y0195026D01*
X0118250Y0195816D01*
X0120616Y0195816D01*
X0120616Y0195026D01*
X0120616Y0195816D02*
X0118250Y0195816D01*
X0118250Y0193058D02*
X0120616Y0193058D01*
X0118250Y0193058D02*
X0118250Y0193848D01*
X0120616Y0193848D01*
X0120616Y0193058D01*
X0120616Y0193848D02*
X0118250Y0193848D01*
X0118250Y0191089D02*
X0120616Y0191089D01*
X0118250Y0191089D02*
X0118250Y0191879D01*
X0120616Y0191879D01*
X0120616Y0191089D01*
X0120616Y0191879D02*
X0118250Y0191879D01*
X0118250Y0189121D02*
X0120616Y0189121D01*
X0118250Y0189121D02*
X0118250Y0189911D01*
X0120616Y0189911D01*
X0120616Y0189121D01*
X0120616Y0189911D02*
X0118250Y0189911D01*
X0118250Y0187152D02*
X0120616Y0187152D01*
X0118250Y0187152D02*
X0118250Y0187942D01*
X0120616Y0187942D01*
X0120616Y0187152D01*
X0120616Y0187942D02*
X0118250Y0187942D01*
X0118250Y0185184D02*
X0120616Y0185184D01*
X0118250Y0185184D02*
X0118250Y0185974D01*
X0120616Y0185974D01*
X0120616Y0185184D01*
X0120616Y0185974D02*
X0118250Y0185974D01*
X0118250Y0183215D02*
X0120616Y0183215D01*
X0118250Y0183215D02*
X0118250Y0184005D01*
X0120616Y0184005D01*
X0120616Y0183215D01*
X0120616Y0184005D02*
X0118250Y0184005D01*
X0118250Y0181247D02*
X0120616Y0181247D01*
X0118250Y0181247D02*
X0118250Y0182037D01*
X0120616Y0182037D01*
X0120616Y0181247D01*
X0120616Y0182037D02*
X0118250Y0182037D01*
D28*
X0158872Y0058531D03*
D29*
X0169742Y0066411D02*
X0175502Y0066411D01*
X0175502Y0050651D01*
X0169742Y0050651D01*
X0169742Y0066411D01*
X0169742Y0051290D02*
X0175502Y0051290D01*
X0175502Y0051929D02*
X0169742Y0051929D01*
X0169742Y0052568D02*
X0175502Y0052568D01*
X0175502Y0053207D02*
X0169742Y0053207D01*
X0169742Y0053846D02*
X0175502Y0053846D01*
X0175502Y0054485D02*
X0169742Y0054485D01*
X0169742Y0055124D02*
X0175502Y0055124D01*
X0175502Y0055763D02*
X0169742Y0055763D01*
X0169742Y0056402D02*
X0175502Y0056402D01*
X0175502Y0057041D02*
X0169742Y0057041D01*
X0169742Y0057680D02*
X0175502Y0057680D01*
X0175502Y0058319D02*
X0169742Y0058319D01*
X0169742Y0058958D02*
X0175502Y0058958D01*
X0175502Y0059597D02*
X0169742Y0059597D01*
X0169742Y0060236D02*
X0175502Y0060236D01*
X0175502Y0060875D02*
X0169742Y0060875D01*
X0169742Y0061514D02*
X0175502Y0061514D01*
X0175502Y0062153D02*
X0169742Y0062153D01*
X0169742Y0062792D02*
X0175502Y0062792D01*
X0175502Y0063431D02*
X0169742Y0063431D01*
X0169742Y0064070D02*
X0175502Y0064070D01*
X0175502Y0064709D02*
X0169742Y0064709D01*
X0169742Y0065348D02*
X0175502Y0065348D01*
X0175502Y0065987D02*
X0169742Y0065987D01*
X0179742Y0066411D02*
X0185502Y0066411D01*
X0185502Y0050651D01*
X0179742Y0050651D01*
X0179742Y0066411D01*
X0179742Y0051290D02*
X0185502Y0051290D01*
X0185502Y0051929D02*
X0179742Y0051929D01*
X0179742Y0052568D02*
X0185502Y0052568D01*
X0185502Y0053207D02*
X0179742Y0053207D01*
X0179742Y0053846D02*
X0185502Y0053846D01*
X0185502Y0054485D02*
X0179742Y0054485D01*
X0179742Y0055124D02*
X0185502Y0055124D01*
X0185502Y0055763D02*
X0179742Y0055763D01*
X0179742Y0056402D02*
X0185502Y0056402D01*
X0185502Y0057041D02*
X0179742Y0057041D01*
X0179742Y0057680D02*
X0185502Y0057680D01*
X0185502Y0058319D02*
X0179742Y0058319D01*
X0179742Y0058958D02*
X0185502Y0058958D01*
X0185502Y0059597D02*
X0179742Y0059597D01*
X0179742Y0060236D02*
X0185502Y0060236D01*
X0185502Y0060875D02*
X0179742Y0060875D01*
X0179742Y0061514D02*
X0185502Y0061514D01*
X0185502Y0062153D02*
X0179742Y0062153D01*
X0179742Y0062792D02*
X0185502Y0062792D01*
X0185502Y0063431D02*
X0179742Y0063431D01*
X0179742Y0064070D02*
X0185502Y0064070D01*
X0185502Y0064709D02*
X0179742Y0064709D01*
X0179742Y0065348D02*
X0185502Y0065348D01*
X0185502Y0065987D02*
X0179742Y0065987D01*
X0189742Y0066411D02*
X0195502Y0066411D01*
X0195502Y0050651D01*
X0189742Y0050651D01*
X0189742Y0066411D01*
X0189742Y0051290D02*
X0195502Y0051290D01*
X0195502Y0051929D02*
X0189742Y0051929D01*
X0189742Y0052568D02*
X0195502Y0052568D01*
X0195502Y0053207D02*
X0189742Y0053207D01*
X0189742Y0053846D02*
X0195502Y0053846D01*
X0195502Y0054485D02*
X0189742Y0054485D01*
X0189742Y0055124D02*
X0195502Y0055124D01*
X0195502Y0055763D02*
X0189742Y0055763D01*
X0189742Y0056402D02*
X0195502Y0056402D01*
X0195502Y0057041D02*
X0189742Y0057041D01*
X0189742Y0057680D02*
X0195502Y0057680D01*
X0195502Y0058319D02*
X0189742Y0058319D01*
X0189742Y0058958D02*
X0195502Y0058958D01*
X0195502Y0059597D02*
X0189742Y0059597D01*
X0189742Y0060236D02*
X0195502Y0060236D01*
X0195502Y0060875D02*
X0189742Y0060875D01*
X0189742Y0061514D02*
X0195502Y0061514D01*
X0195502Y0062153D02*
X0189742Y0062153D01*
X0189742Y0062792D02*
X0195502Y0062792D01*
X0195502Y0063431D02*
X0189742Y0063431D01*
X0189742Y0064070D02*
X0195502Y0064070D01*
X0195502Y0064709D02*
X0189742Y0064709D01*
X0189742Y0065348D02*
X0195502Y0065348D01*
X0195502Y0065987D02*
X0189742Y0065987D01*
D30*
X0185881Y0080668D02*
X0185881Y0090528D01*
X0190741Y0090528D01*
X0190741Y0080668D01*
X0185881Y0080668D01*
X0185881Y0081207D02*
X0190741Y0081207D01*
X0190741Y0081746D02*
X0185881Y0081746D01*
X0185881Y0082285D02*
X0190741Y0082285D01*
X0190741Y0082824D02*
X0185881Y0082824D01*
X0185881Y0083363D02*
X0190741Y0083363D01*
X0190741Y0083902D02*
X0185881Y0083902D01*
X0185881Y0084441D02*
X0190741Y0084441D01*
X0190741Y0084980D02*
X0185881Y0084980D01*
X0185881Y0085519D02*
X0190741Y0085519D01*
X0190741Y0086058D02*
X0185881Y0086058D01*
X0185881Y0086597D02*
X0190741Y0086597D01*
X0190741Y0087136D02*
X0185881Y0087136D01*
X0185881Y0087675D02*
X0190741Y0087675D01*
X0190741Y0088214D02*
X0185881Y0088214D01*
X0185881Y0088753D02*
X0190741Y0088753D01*
X0190741Y0089292D02*
X0185881Y0089292D01*
X0185881Y0089831D02*
X0190741Y0089831D01*
X0190741Y0090370D02*
X0185881Y0090370D01*
X0178007Y0090528D02*
X0178007Y0080668D01*
X0178007Y0090528D02*
X0182867Y0090528D01*
X0182867Y0080668D01*
X0178007Y0080668D01*
X0178007Y0081207D02*
X0182867Y0081207D01*
X0182867Y0081746D02*
X0178007Y0081746D01*
X0178007Y0082285D02*
X0182867Y0082285D01*
X0182867Y0082824D02*
X0178007Y0082824D01*
X0178007Y0083363D02*
X0182867Y0083363D01*
X0182867Y0083902D02*
X0178007Y0083902D01*
X0178007Y0084441D02*
X0182867Y0084441D01*
X0182867Y0084980D02*
X0178007Y0084980D01*
X0178007Y0085519D02*
X0182867Y0085519D01*
X0182867Y0086058D02*
X0178007Y0086058D01*
X0178007Y0086597D02*
X0182867Y0086597D01*
X0182867Y0087136D02*
X0178007Y0087136D01*
X0178007Y0087675D02*
X0182867Y0087675D01*
X0182867Y0088214D02*
X0178007Y0088214D01*
X0178007Y0088753D02*
X0182867Y0088753D01*
X0182867Y0089292D02*
X0178007Y0089292D01*
X0178007Y0089831D02*
X0182867Y0089831D01*
X0182867Y0090370D02*
X0178007Y0090370D01*
X0170133Y0090528D02*
X0170133Y0080668D01*
X0170133Y0090528D02*
X0174993Y0090528D01*
X0174993Y0080668D01*
X0170133Y0080668D01*
X0170133Y0081207D02*
X0174993Y0081207D01*
X0174993Y0081746D02*
X0170133Y0081746D01*
X0170133Y0082285D02*
X0174993Y0082285D01*
X0174993Y0082824D02*
X0170133Y0082824D01*
X0170133Y0083363D02*
X0174993Y0083363D01*
X0174993Y0083902D02*
X0170133Y0083902D01*
X0170133Y0084441D02*
X0174993Y0084441D01*
X0174993Y0084980D02*
X0170133Y0084980D01*
X0170133Y0085519D02*
X0174993Y0085519D01*
X0174993Y0086058D02*
X0170133Y0086058D01*
X0170133Y0086597D02*
X0174993Y0086597D01*
X0174993Y0087136D02*
X0170133Y0087136D01*
X0170133Y0087675D02*
X0174993Y0087675D01*
X0174993Y0088214D02*
X0170133Y0088214D01*
X0170133Y0088753D02*
X0174993Y0088753D01*
X0174993Y0089292D02*
X0170133Y0089292D01*
X0170133Y0089831D02*
X0174993Y0089831D01*
X0174993Y0090370D02*
X0170133Y0090370D01*
X0193755Y0090528D02*
X0193755Y0080668D01*
X0193755Y0090528D02*
X0198615Y0090528D01*
X0198615Y0080668D01*
X0193755Y0080668D01*
X0193755Y0081207D02*
X0198615Y0081207D01*
X0198615Y0081746D02*
X0193755Y0081746D01*
X0193755Y0082285D02*
X0198615Y0082285D01*
X0198615Y0082824D02*
X0193755Y0082824D01*
X0193755Y0083363D02*
X0198615Y0083363D01*
X0198615Y0083902D02*
X0193755Y0083902D01*
X0193755Y0084441D02*
X0198615Y0084441D01*
X0198615Y0084980D02*
X0193755Y0084980D01*
X0193755Y0085519D02*
X0198615Y0085519D01*
X0198615Y0086058D02*
X0193755Y0086058D01*
X0193755Y0086597D02*
X0198615Y0086597D01*
X0198615Y0087136D02*
X0193755Y0087136D01*
X0193755Y0087675D02*
X0198615Y0087675D01*
X0198615Y0088214D02*
X0193755Y0088214D01*
X0193755Y0088753D02*
X0198615Y0088753D01*
X0198615Y0089292D02*
X0193755Y0089292D01*
X0193755Y0089831D02*
X0198615Y0089831D01*
X0198615Y0090370D02*
X0193755Y0090370D01*
X0201629Y0090528D02*
X0201629Y0080668D01*
X0201629Y0090528D02*
X0206489Y0090528D01*
X0206489Y0080668D01*
X0201629Y0080668D01*
X0201629Y0081207D02*
X0206489Y0081207D01*
X0206489Y0081746D02*
X0201629Y0081746D01*
X0201629Y0082285D02*
X0206489Y0082285D01*
X0206489Y0082824D02*
X0201629Y0082824D01*
X0201629Y0083363D02*
X0206489Y0083363D01*
X0206489Y0083902D02*
X0201629Y0083902D01*
X0201629Y0084441D02*
X0206489Y0084441D01*
X0206489Y0084980D02*
X0201629Y0084980D01*
X0201629Y0085519D02*
X0206489Y0085519D01*
X0206489Y0086058D02*
X0201629Y0086058D01*
X0201629Y0086597D02*
X0206489Y0086597D01*
X0206489Y0087136D02*
X0201629Y0087136D01*
X0201629Y0087675D02*
X0206489Y0087675D01*
X0206489Y0088214D02*
X0201629Y0088214D01*
X0201629Y0088753D02*
X0206489Y0088753D01*
X0206489Y0089292D02*
X0201629Y0089292D01*
X0201629Y0089831D02*
X0206489Y0089831D01*
X0206489Y0090370D02*
X0201629Y0090370D01*
X0209503Y0090528D02*
X0209503Y0080668D01*
X0209503Y0090528D02*
X0214363Y0090528D01*
X0214363Y0080668D01*
X0209503Y0080668D01*
X0209503Y0081207D02*
X0214363Y0081207D01*
X0214363Y0081746D02*
X0209503Y0081746D01*
X0209503Y0082285D02*
X0214363Y0082285D01*
X0214363Y0082824D02*
X0209503Y0082824D01*
X0209503Y0083363D02*
X0214363Y0083363D01*
X0214363Y0083902D02*
X0209503Y0083902D01*
X0209503Y0084441D02*
X0214363Y0084441D01*
X0214363Y0084980D02*
X0209503Y0084980D01*
X0209503Y0085519D02*
X0214363Y0085519D01*
X0214363Y0086058D02*
X0209503Y0086058D01*
X0209503Y0086597D02*
X0214363Y0086597D01*
X0214363Y0087136D02*
X0209503Y0087136D01*
X0209503Y0087675D02*
X0214363Y0087675D01*
X0214363Y0088214D02*
X0209503Y0088214D01*
X0209503Y0088753D02*
X0214363Y0088753D01*
X0214363Y0089292D02*
X0209503Y0089292D01*
X0209503Y0089831D02*
X0214363Y0089831D01*
X0214363Y0090370D02*
X0209503Y0090370D01*
X0217377Y0090528D02*
X0217377Y0080668D01*
X0217377Y0090528D02*
X0222237Y0090528D01*
X0222237Y0080668D01*
X0217377Y0080668D01*
X0217377Y0081207D02*
X0222237Y0081207D01*
X0222237Y0081746D02*
X0217377Y0081746D01*
X0217377Y0082285D02*
X0222237Y0082285D01*
X0222237Y0082824D02*
X0217377Y0082824D01*
X0217377Y0083363D02*
X0222237Y0083363D01*
X0222237Y0083902D02*
X0217377Y0083902D01*
X0217377Y0084441D02*
X0222237Y0084441D01*
X0222237Y0084980D02*
X0217377Y0084980D01*
X0217377Y0085519D02*
X0222237Y0085519D01*
X0222237Y0086058D02*
X0217377Y0086058D01*
X0217377Y0086597D02*
X0222237Y0086597D01*
X0222237Y0087136D02*
X0217377Y0087136D01*
X0217377Y0087675D02*
X0222237Y0087675D01*
X0222237Y0088214D02*
X0217377Y0088214D01*
X0217377Y0088753D02*
X0222237Y0088753D01*
X0222237Y0089292D02*
X0217377Y0089292D01*
X0217377Y0089831D02*
X0222237Y0089831D01*
X0222237Y0090370D02*
X0217377Y0090370D01*
X0217377Y0143660D02*
X0217377Y0153520D01*
X0222237Y0153520D01*
X0222237Y0143660D01*
X0217377Y0143660D01*
X0217377Y0144199D02*
X0222237Y0144199D01*
X0222237Y0144738D02*
X0217377Y0144738D01*
X0217377Y0145277D02*
X0222237Y0145277D01*
X0222237Y0145816D02*
X0217377Y0145816D01*
X0217377Y0146355D02*
X0222237Y0146355D01*
X0222237Y0146894D02*
X0217377Y0146894D01*
X0217377Y0147433D02*
X0222237Y0147433D01*
X0222237Y0147972D02*
X0217377Y0147972D01*
X0217377Y0148511D02*
X0222237Y0148511D01*
X0222237Y0149050D02*
X0217377Y0149050D01*
X0217377Y0149589D02*
X0222237Y0149589D01*
X0222237Y0150128D02*
X0217377Y0150128D01*
X0217377Y0150667D02*
X0222237Y0150667D01*
X0222237Y0151206D02*
X0217377Y0151206D01*
X0217377Y0151745D02*
X0222237Y0151745D01*
X0222237Y0152284D02*
X0217377Y0152284D01*
X0217377Y0152823D02*
X0222237Y0152823D01*
X0222237Y0153362D02*
X0217377Y0153362D01*
X0209503Y0153520D02*
X0209503Y0143660D01*
X0209503Y0153520D02*
X0214363Y0153520D01*
X0214363Y0143660D01*
X0209503Y0143660D01*
X0209503Y0144199D02*
X0214363Y0144199D01*
X0214363Y0144738D02*
X0209503Y0144738D01*
X0209503Y0145277D02*
X0214363Y0145277D01*
X0214363Y0145816D02*
X0209503Y0145816D01*
X0209503Y0146355D02*
X0214363Y0146355D01*
X0214363Y0146894D02*
X0209503Y0146894D01*
X0209503Y0147433D02*
X0214363Y0147433D01*
X0214363Y0147972D02*
X0209503Y0147972D01*
X0209503Y0148511D02*
X0214363Y0148511D01*
X0214363Y0149050D02*
X0209503Y0149050D01*
X0209503Y0149589D02*
X0214363Y0149589D01*
X0214363Y0150128D02*
X0209503Y0150128D01*
X0209503Y0150667D02*
X0214363Y0150667D01*
X0214363Y0151206D02*
X0209503Y0151206D01*
X0209503Y0151745D02*
X0214363Y0151745D01*
X0214363Y0152284D02*
X0209503Y0152284D01*
X0209503Y0152823D02*
X0214363Y0152823D01*
X0214363Y0153362D02*
X0209503Y0153362D01*
X0201629Y0153520D02*
X0201629Y0143660D01*
X0201629Y0153520D02*
X0206489Y0153520D01*
X0206489Y0143660D01*
X0201629Y0143660D01*
X0201629Y0144199D02*
X0206489Y0144199D01*
X0206489Y0144738D02*
X0201629Y0144738D01*
X0201629Y0145277D02*
X0206489Y0145277D01*
X0206489Y0145816D02*
X0201629Y0145816D01*
X0201629Y0146355D02*
X0206489Y0146355D01*
X0206489Y0146894D02*
X0201629Y0146894D01*
X0201629Y0147433D02*
X0206489Y0147433D01*
X0206489Y0147972D02*
X0201629Y0147972D01*
X0201629Y0148511D02*
X0206489Y0148511D01*
X0206489Y0149050D02*
X0201629Y0149050D01*
X0201629Y0149589D02*
X0206489Y0149589D01*
X0206489Y0150128D02*
X0201629Y0150128D01*
X0201629Y0150667D02*
X0206489Y0150667D01*
X0206489Y0151206D02*
X0201629Y0151206D01*
X0201629Y0151745D02*
X0206489Y0151745D01*
X0206489Y0152284D02*
X0201629Y0152284D01*
X0201629Y0152823D02*
X0206489Y0152823D01*
X0206489Y0153362D02*
X0201629Y0153362D01*
X0193755Y0153520D02*
X0193755Y0143660D01*
X0193755Y0153520D02*
X0198615Y0153520D01*
X0198615Y0143660D01*
X0193755Y0143660D01*
X0193755Y0144199D02*
X0198615Y0144199D01*
X0198615Y0144738D02*
X0193755Y0144738D01*
X0193755Y0145277D02*
X0198615Y0145277D01*
X0198615Y0145816D02*
X0193755Y0145816D01*
X0193755Y0146355D02*
X0198615Y0146355D01*
X0198615Y0146894D02*
X0193755Y0146894D01*
X0193755Y0147433D02*
X0198615Y0147433D01*
X0198615Y0147972D02*
X0193755Y0147972D01*
X0193755Y0148511D02*
X0198615Y0148511D01*
X0198615Y0149050D02*
X0193755Y0149050D01*
X0193755Y0149589D02*
X0198615Y0149589D01*
X0198615Y0150128D02*
X0193755Y0150128D01*
X0193755Y0150667D02*
X0198615Y0150667D01*
X0198615Y0151206D02*
X0193755Y0151206D01*
X0193755Y0151745D02*
X0198615Y0151745D01*
X0198615Y0152284D02*
X0193755Y0152284D01*
X0193755Y0152823D02*
X0198615Y0152823D01*
X0198615Y0153362D02*
X0193755Y0153362D01*
X0185881Y0153520D02*
X0185881Y0143660D01*
X0185881Y0153520D02*
X0190741Y0153520D01*
X0190741Y0143660D01*
X0185881Y0143660D01*
X0185881Y0144199D02*
X0190741Y0144199D01*
X0190741Y0144738D02*
X0185881Y0144738D01*
X0185881Y0145277D02*
X0190741Y0145277D01*
X0190741Y0145816D02*
X0185881Y0145816D01*
X0185881Y0146355D02*
X0190741Y0146355D01*
X0190741Y0146894D02*
X0185881Y0146894D01*
X0185881Y0147433D02*
X0190741Y0147433D01*
X0190741Y0147972D02*
X0185881Y0147972D01*
X0185881Y0148511D02*
X0190741Y0148511D01*
X0190741Y0149050D02*
X0185881Y0149050D01*
X0185881Y0149589D02*
X0190741Y0149589D01*
X0190741Y0150128D02*
X0185881Y0150128D01*
X0185881Y0150667D02*
X0190741Y0150667D01*
X0190741Y0151206D02*
X0185881Y0151206D01*
X0185881Y0151745D02*
X0190741Y0151745D01*
X0190741Y0152284D02*
X0185881Y0152284D01*
X0185881Y0152823D02*
X0190741Y0152823D01*
X0190741Y0153362D02*
X0185881Y0153362D01*
X0178007Y0153520D02*
X0178007Y0143660D01*
X0178007Y0153520D02*
X0182867Y0153520D01*
X0182867Y0143660D01*
X0178007Y0143660D01*
X0178007Y0144199D02*
X0182867Y0144199D01*
X0182867Y0144738D02*
X0178007Y0144738D01*
X0178007Y0145277D02*
X0182867Y0145277D01*
X0182867Y0145816D02*
X0178007Y0145816D01*
X0178007Y0146355D02*
X0182867Y0146355D01*
X0182867Y0146894D02*
X0178007Y0146894D01*
X0178007Y0147433D02*
X0182867Y0147433D01*
X0182867Y0147972D02*
X0178007Y0147972D01*
X0178007Y0148511D02*
X0182867Y0148511D01*
X0182867Y0149050D02*
X0178007Y0149050D01*
X0178007Y0149589D02*
X0182867Y0149589D01*
X0182867Y0150128D02*
X0178007Y0150128D01*
X0178007Y0150667D02*
X0182867Y0150667D01*
X0182867Y0151206D02*
X0178007Y0151206D01*
X0178007Y0151745D02*
X0182867Y0151745D01*
X0182867Y0152284D02*
X0178007Y0152284D01*
X0178007Y0152823D02*
X0182867Y0152823D01*
X0182867Y0153362D02*
X0178007Y0153362D01*
X0170133Y0153520D02*
X0170133Y0143660D01*
X0170133Y0153520D02*
X0174993Y0153520D01*
X0174993Y0143660D01*
X0170133Y0143660D01*
X0170133Y0144199D02*
X0174993Y0144199D01*
X0174993Y0144738D02*
X0170133Y0144738D01*
X0170133Y0145277D02*
X0174993Y0145277D01*
X0174993Y0145816D02*
X0170133Y0145816D01*
X0170133Y0146355D02*
X0174993Y0146355D01*
X0174993Y0146894D02*
X0170133Y0146894D01*
X0170133Y0147433D02*
X0174993Y0147433D01*
X0174993Y0147972D02*
X0170133Y0147972D01*
X0170133Y0148511D02*
X0174993Y0148511D01*
X0174993Y0149050D02*
X0170133Y0149050D01*
X0170133Y0149589D02*
X0174993Y0149589D01*
X0174993Y0150128D02*
X0170133Y0150128D01*
X0170133Y0150667D02*
X0174993Y0150667D01*
X0174993Y0151206D02*
X0170133Y0151206D01*
X0170133Y0151745D02*
X0174993Y0151745D01*
X0174993Y0152284D02*
X0170133Y0152284D01*
X0170133Y0152823D02*
X0174993Y0152823D01*
X0174993Y0153362D02*
X0170133Y0153362D01*
D31*
X0154935Y0146844D03*
X0154935Y0136844D03*
X0154935Y0126844D03*
X0144935Y0126844D03*
X0144935Y0136844D03*
X0144935Y0146844D03*
D32*
X0118255Y0120660D02*
X0118255Y0116402D01*
X0110453Y0116402D01*
X0110453Y0120660D01*
X0118255Y0120660D01*
X0118255Y0116874D02*
X0110453Y0116874D01*
X0110453Y0117346D02*
X0118255Y0117346D01*
X0118255Y0117818D02*
X0110453Y0117818D01*
X0110453Y0118290D02*
X0118255Y0118290D01*
X0118255Y0118762D02*
X0110453Y0118762D01*
X0110453Y0119234D02*
X0118255Y0119234D01*
X0118255Y0119706D02*
X0110453Y0119706D01*
X0110453Y0120178D02*
X0118255Y0120178D01*
X0118255Y0120650D02*
X0110453Y0120650D01*
X0118255Y0110660D02*
X0118255Y0106402D01*
X0110453Y0106402D01*
X0110453Y0110660D01*
X0118255Y0110660D01*
X0118255Y0106874D02*
X0110453Y0106874D01*
X0110453Y0107346D02*
X0118255Y0107346D01*
X0118255Y0107818D02*
X0110453Y0107818D01*
X0110453Y0108290D02*
X0118255Y0108290D01*
X0118255Y0108762D02*
X0110453Y0108762D01*
X0110453Y0109234D02*
X0118255Y0109234D01*
X0118255Y0109706D02*
X0110453Y0109706D01*
X0110453Y0110178D02*
X0118255Y0110178D01*
X0118255Y0110650D02*
X0110453Y0110650D01*
X0075690Y0110660D02*
X0075690Y0106402D01*
X0075690Y0110660D02*
X0083492Y0110660D01*
X0083492Y0106402D01*
X0075690Y0106402D01*
X0075690Y0106874D02*
X0083492Y0106874D01*
X0083492Y0107346D02*
X0075690Y0107346D01*
X0075690Y0107818D02*
X0083492Y0107818D01*
X0083492Y0108290D02*
X0075690Y0108290D01*
X0075690Y0108762D02*
X0083492Y0108762D01*
X0083492Y0109234D02*
X0075690Y0109234D01*
X0075690Y0109706D02*
X0083492Y0109706D01*
X0083492Y0110178D02*
X0075690Y0110178D01*
X0075690Y0110650D02*
X0083492Y0110650D01*
X0075690Y0116402D02*
X0075690Y0120660D01*
X0083492Y0120660D01*
X0083492Y0116402D01*
X0075690Y0116402D01*
X0075690Y0116874D02*
X0083492Y0116874D01*
X0083492Y0117346D02*
X0075690Y0117346D01*
X0075690Y0117818D02*
X0083492Y0117818D01*
X0083492Y0118290D02*
X0075690Y0118290D01*
X0075690Y0118762D02*
X0083492Y0118762D01*
X0083492Y0119234D02*
X0075690Y0119234D01*
X0075690Y0119706D02*
X0083492Y0119706D01*
X0083492Y0120178D02*
X0075690Y0120178D01*
X0075690Y0120650D02*
X0083492Y0120650D01*
D33*
X0070255Y0091541D03*
M02*
