%
M48
M72
T01C0.0236
T02C0.0360
T03C0.0400
T04C0.0551
%
T01
X5300Y6050
X6090Y5320
X4239Y6992
X4981Y8299
X5570Y8240
X6310Y8680
X6130Y9730
X5095Y9622
X4340Y10220
X6980Y10930
X9160Y11270
X11240Y7140
T02
X10730Y7780
X10730Y8780
X10730Y9780
X10730Y10780
X10730Y11780
X9730Y11780
X9730Y10780
X9730Y9780
X9730Y8780
X9730Y7780
T03
X2480Y7280
X2480Y8280
X2480Y9280
X1480Y9280
X1480Y8280
X1480Y7280
T04
X11130Y1330
M30
