G75*
G70*
%OFA0B0*%
%FSLAX24Y24*%
%IPPOS*%
%LPD*%
%AMOC8*
5,1,8,0,0,1.08239X$1,22.5*
%
%ADD10OC8,0.0740*%
%ADD11C,0.0600*%
%ADD12OC8,0.0600*%
%ADD13OC8,0.0827*%
%ADD14C,0.0120*%
%ADD15C,0.0396*%
%ADD16C,0.0100*%
%ADD17C,0.0160*%
%ADD18C,0.0080*%
D10*
X001480Y007280D03*
X001480Y008280D03*
X001480Y009280D03*
X002480Y009280D03*
X002480Y008280D03*
X002480Y007280D03*
D11*
X010730Y011780D03*
D12*
X010730Y010780D03*
X010730Y009780D03*
X010730Y008780D03*
X010730Y007780D03*
X009730Y007780D03*
X009730Y008780D03*
X009730Y009780D03*
X009730Y010780D03*
X009730Y011780D03*
D13*
X011130Y001330D03*
D14*
X004981Y007199D02*
X004981Y008299D01*
X005493Y008811D01*
X005493Y009773D01*
X006300Y010580D01*
X006300Y011290D01*
X006780Y011770D01*
X007583Y011770D01*
X007593Y011780D02*
X009730Y011780D01*
X007610Y010930D02*
X006980Y010930D01*
X004981Y007199D02*
X003412Y005630D01*
X002980Y005630D01*
X001480Y007130D01*
D15*
X004239Y006992D03*
X005300Y006050D03*
X006090Y005320D03*
X005570Y008240D03*
X004981Y008299D03*
X005095Y009622D03*
X004340Y010220D03*
X006130Y009730D03*
X006310Y008680D03*
X006980Y010930D03*
X009160Y011270D03*
X011240Y007140D03*
D16*
X007583Y011770D02*
X007593Y011780D01*
X005095Y009622D02*
X003302Y009622D01*
X002960Y009280D01*
X002480Y009280D01*
X002480Y008280D02*
X002960Y008280D01*
X002960Y008271D01*
X004239Y006992D01*
X006070Y007560D02*
X006090Y005320D01*
X006070Y007560D02*
X006070Y008440D01*
X006310Y008680D01*
X001480Y007280D02*
X001480Y007130D01*
D17*
X000930Y007024D02*
X000930Y000980D01*
X010613Y000980D01*
X010517Y001076D01*
X010517Y001584D01*
X010876Y001943D01*
X011384Y001943D01*
X011491Y001837D01*
X011491Y008201D01*
X011230Y007941D01*
X011230Y007573D01*
X010937Y007280D01*
X010523Y007280D01*
X010230Y007573D01*
X010230Y007987D01*
X010287Y008044D01*
X010278Y008040D01*
X010121Y008040D01*
X010190Y007971D01*
X010190Y007790D01*
X009740Y007790D01*
X009740Y007770D01*
X010190Y007770D01*
X010190Y007589D01*
X009921Y007320D01*
X009740Y007320D01*
X009740Y007770D01*
X009720Y007770D01*
X009720Y007320D01*
X009539Y007320D01*
X009270Y007589D01*
X009270Y007770D01*
X009720Y007770D01*
X009720Y007790D01*
X009270Y007790D01*
X009270Y007971D01*
X009339Y008040D01*
X007366Y008040D01*
X007355Y008037D01*
X007319Y008040D01*
X007282Y008040D01*
X007272Y008044D01*
X007260Y008046D01*
X007228Y008063D01*
X007194Y008077D01*
X007186Y008085D01*
X007176Y008090D01*
X007152Y008118D01*
X007127Y008144D01*
X007122Y008155D01*
X006708Y008655D01*
X006708Y008601D01*
X006648Y008454D01*
X006536Y008342D01*
X006389Y008282D01*
X006320Y008282D01*
X006320Y007561D01*
X006337Y005636D01*
X006428Y005546D01*
X006488Y005399D01*
X006488Y005241D01*
X006428Y005094D01*
X006316Y004982D01*
X006169Y004922D01*
X006011Y004922D01*
X005864Y004982D01*
X005752Y005094D01*
X005692Y005241D01*
X005692Y005399D01*
X005752Y005546D01*
X005837Y005630D01*
X005820Y007509D01*
X005820Y007510D01*
X005820Y007559D01*
X005820Y007607D01*
X005820Y007609D01*
X005820Y008490D01*
X005858Y008582D01*
X005912Y008635D01*
X005912Y008759D01*
X005972Y008906D01*
X006084Y009018D01*
X006231Y009078D01*
X006358Y009078D01*
X006148Y009332D01*
X006051Y009332D01*
X005904Y009392D01*
X005792Y009504D01*
X005753Y009599D01*
X005753Y008759D01*
X005714Y008663D01*
X005641Y008590D01*
X005380Y008329D01*
X005380Y008220D01*
X005319Y008073D01*
X005241Y007996D01*
X005241Y007148D01*
X005202Y007052D01*
X005129Y006979D01*
X005129Y006979D01*
X003633Y005483D01*
X003633Y005483D01*
X003559Y005410D01*
X003464Y005370D01*
X002928Y005370D01*
X002833Y005410D01*
X002760Y005483D01*
X001532Y006710D01*
X001244Y006710D01*
X000930Y007024D01*
X000930Y006937D02*
X001017Y006937D01*
X000930Y006779D02*
X001175Y006779D01*
X000930Y006620D02*
X001622Y006620D01*
X001781Y006462D02*
X000930Y006462D01*
X000930Y006303D02*
X001939Y006303D01*
X002098Y006145D02*
X000930Y006145D01*
X000930Y005986D02*
X002256Y005986D01*
X002415Y005828D02*
X000930Y005828D01*
X000930Y005669D02*
X002573Y005669D01*
X002732Y005511D02*
X000930Y005511D01*
X000930Y005352D02*
X005692Y005352D01*
X005711Y005194D02*
X000930Y005194D01*
X000930Y005035D02*
X005812Y005035D01*
X005738Y005511D02*
X003660Y005511D01*
X003819Y005669D02*
X005837Y005669D01*
X005835Y005828D02*
X003977Y005828D01*
X004136Y005986D02*
X005834Y005986D01*
X005833Y006145D02*
X004294Y006145D01*
X004453Y006303D02*
X005831Y006303D01*
X005830Y006462D02*
X004611Y006462D01*
X004770Y006620D02*
X005828Y006620D01*
X005827Y006779D02*
X004928Y006779D01*
X005087Y006937D02*
X005826Y006937D01*
X005824Y007096D02*
X005220Y007096D01*
X005241Y007254D02*
X005823Y007254D01*
X005821Y007413D02*
X005241Y007413D01*
X005241Y007571D02*
X005820Y007571D01*
X005820Y007730D02*
X005241Y007730D01*
X005241Y007888D02*
X005820Y007888D01*
X005820Y008047D02*
X005292Y008047D01*
X005374Y008205D02*
X005820Y008205D01*
X005820Y008364D02*
X005414Y008364D01*
X005572Y008522D02*
X005833Y008522D01*
X005912Y008681D02*
X005721Y008681D01*
X005753Y008839D02*
X005945Y008839D01*
X006065Y008998D02*
X005753Y008998D01*
X005753Y009156D02*
X006293Y009156D01*
X006162Y009315D02*
X005753Y009315D01*
X005753Y009473D02*
X005824Y009473D01*
X005315Y009962D02*
X005174Y010021D01*
X005016Y010021D01*
X004869Y009960D01*
X004782Y009872D01*
X003253Y009872D01*
X003161Y009834D01*
X003091Y009764D01*
X002946Y009620D01*
X002716Y009850D01*
X002244Y009850D01*
X001952Y009558D01*
X001700Y009810D01*
X001500Y009810D01*
X001500Y009300D01*
X001460Y009300D01*
X001460Y009810D01*
X001260Y009810D01*
X000950Y009500D01*
X000950Y009300D01*
X001460Y009300D01*
X001460Y009260D01*
X000950Y009260D01*
X000950Y009060D01*
X001202Y008808D01*
X000930Y008536D01*
X000930Y012482D01*
X011491Y012482D01*
X011491Y010319D01*
X011403Y010406D01*
X011336Y010473D01*
X011248Y010510D01*
X011167Y010510D01*
X011230Y010573D01*
X011230Y010987D01*
X010937Y011280D01*
X010523Y011280D01*
X010230Y010987D01*
X009937Y011280D01*
X009523Y011280D01*
X009230Y010987D01*
X009230Y010573D01*
X009293Y010510D01*
X008369Y010510D01*
X007850Y011029D01*
X007830Y011077D01*
X007757Y011150D01*
X007662Y011190D01*
X007283Y011190D01*
X007206Y011268D01*
X007059Y011328D01*
X006901Y011328D01*
X006754Y011268D01*
X006642Y011156D01*
X006582Y011009D01*
X006582Y010851D01*
X006642Y010704D01*
X006754Y010592D01*
X006901Y010532D01*
X007059Y010532D01*
X007206Y010592D01*
X007283Y010670D01*
X007531Y010670D01*
X008134Y010067D01*
X008222Y010030D01*
X009273Y010030D01*
X009230Y009987D01*
X009230Y009573D01*
X009523Y009280D01*
X009230Y008987D01*
X009230Y008573D01*
X009283Y008520D01*
X007443Y008520D01*
X006521Y009634D01*
X006528Y009651D01*
X006528Y009809D01*
X006468Y009956D01*
X006356Y010068D01*
X006214Y010126D01*
X006447Y010360D01*
X006520Y010433D01*
X006560Y010528D01*
X006560Y011182D01*
X006888Y011510D01*
X007635Y011510D01*
X007659Y011520D01*
X009283Y011520D01*
X009523Y011280D01*
X009937Y011280D01*
X010230Y011573D01*
X010230Y011987D01*
X009937Y012280D01*
X009523Y012280D01*
X009283Y012040D01*
X007542Y012040D01*
X007517Y012030D01*
X006728Y012030D01*
X006633Y011990D01*
X006560Y011917D01*
X006080Y011437D01*
X006040Y011342D01*
X006040Y010688D01*
X005346Y009994D01*
X005315Y009962D01*
X005346Y009994D02*
X005346Y009994D01*
X005459Y010107D02*
X000930Y010107D01*
X000930Y010266D02*
X005618Y010266D01*
X005776Y010424D02*
X000930Y010424D01*
X000930Y010583D02*
X005935Y010583D01*
X006040Y010741D02*
X000930Y010741D01*
X000930Y010900D02*
X006040Y010900D01*
X006040Y011058D02*
X000930Y011058D01*
X000930Y011217D02*
X006040Y011217D01*
X006054Y011375D02*
X000930Y011375D01*
X000930Y011534D02*
X006176Y011534D01*
X006334Y011692D02*
X000930Y011692D01*
X000930Y011851D02*
X006493Y011851D01*
X006678Y012009D02*
X000930Y012009D01*
X000930Y012168D02*
X009410Y012168D01*
X010050Y012168D02*
X010410Y012168D01*
X010447Y012204D02*
X010306Y012063D01*
X010230Y011879D01*
X010230Y011681D01*
X010306Y011497D01*
X010447Y011356D01*
X010631Y011280D01*
X010829Y011280D01*
X011013Y011356D01*
X011154Y011497D01*
X011230Y011681D01*
X011230Y011879D01*
X011154Y012063D01*
X011013Y012204D01*
X010829Y012280D01*
X010631Y012280D01*
X010447Y012204D01*
X010284Y012009D02*
X010208Y012009D01*
X010230Y011851D02*
X010230Y011851D01*
X010230Y011692D02*
X010230Y011692D01*
X010191Y011534D02*
X010291Y011534D01*
X010428Y011375D02*
X010032Y011375D01*
X010001Y011217D02*
X010459Y011217D01*
X010301Y011058D02*
X010159Y011058D01*
X010230Y010987D02*
X010230Y010573D01*
X010167Y010510D01*
X010293Y010510D01*
X010230Y010573D01*
X010230Y010987D01*
X010230Y010900D02*
X010230Y010900D01*
X010230Y010741D02*
X010230Y010741D01*
X010230Y010583D02*
X010230Y010583D01*
X010187Y010030D02*
X010329Y010030D01*
X010270Y009971D01*
X010270Y009790D01*
X010720Y009790D01*
X010720Y009770D01*
X010740Y009770D01*
X010740Y009320D01*
X010921Y009320D01*
X011080Y009479D01*
X011080Y009137D01*
X010937Y009280D01*
X010523Y009280D01*
X010230Y008987D01*
X009937Y009280D01*
X009523Y009280D01*
X009937Y009280D01*
X010230Y009573D01*
X010230Y009987D01*
X010187Y010030D01*
X010230Y009949D02*
X010270Y009949D01*
X010270Y009790D02*
X010230Y009790D01*
X010270Y009770D02*
X010270Y009589D01*
X010539Y009320D01*
X010720Y009320D01*
X010720Y009770D01*
X010270Y009770D01*
X010270Y009632D02*
X010230Y009632D01*
X010130Y009473D02*
X010386Y009473D01*
X010399Y009156D02*
X010061Y009156D01*
X009972Y009315D02*
X011080Y009315D01*
X011074Y009473D02*
X011080Y009473D01*
X011061Y009156D02*
X011080Y009156D01*
X010740Y009473D02*
X010720Y009473D01*
X010720Y009632D02*
X010740Y009632D01*
X010240Y008998D02*
X010220Y008998D01*
X010230Y008987D02*
X010230Y008619D01*
X010230Y008619D01*
X010230Y008987D01*
X010230Y008839D02*
X010230Y008839D01*
X010230Y008681D02*
X010230Y008681D01*
X010230Y007888D02*
X010190Y007888D01*
X010190Y007730D02*
X010230Y007730D01*
X010232Y007571D02*
X010172Y007571D01*
X010013Y007413D02*
X010390Y007413D01*
X009740Y007413D02*
X009720Y007413D01*
X009720Y007571D02*
X009740Y007571D01*
X009740Y007730D02*
X009720Y007730D01*
X009447Y007413D02*
X006321Y007413D01*
X006320Y007571D02*
X009288Y007571D01*
X009270Y007730D02*
X006320Y007730D01*
X006320Y007888D02*
X009270Y007888D01*
X009281Y008522D02*
X007441Y008522D01*
X007310Y008681D02*
X009230Y008681D01*
X009230Y008839D02*
X007179Y008839D01*
X007048Y008998D02*
X009240Y008998D01*
X009399Y009156D02*
X006917Y009156D01*
X006785Y009315D02*
X009488Y009315D01*
X009330Y009473D02*
X006654Y009473D01*
X006523Y009632D02*
X009230Y009632D01*
X009230Y009790D02*
X006528Y009790D01*
X006470Y009949D02*
X009230Y009949D01*
X009230Y010583D02*
X008297Y010583D01*
X008138Y010741D02*
X009230Y010741D01*
X009230Y010900D02*
X007980Y010900D01*
X007838Y011058D02*
X009301Y011058D01*
X009459Y011217D02*
X007256Y011217D01*
X006753Y011375D02*
X009428Y011375D01*
X008094Y010107D02*
X006260Y010107D01*
X006353Y010266D02*
X007935Y010266D01*
X007777Y010424D02*
X006512Y010424D01*
X006447Y010360D02*
X006447Y010360D01*
X006560Y010583D02*
X006779Y010583D01*
X006627Y010741D02*
X006560Y010741D01*
X006560Y010900D02*
X006582Y010900D01*
X006560Y011058D02*
X006602Y011058D01*
X006594Y011217D02*
X006704Y011217D01*
X007181Y010583D02*
X007618Y010583D01*
X006818Y008522D02*
X006675Y008522D01*
X006557Y008364D02*
X006949Y008364D01*
X007081Y008205D02*
X006320Y008205D01*
X006320Y008047D02*
X007258Y008047D01*
X006323Y007254D02*
X011491Y007254D01*
X011491Y007096D02*
X006324Y007096D01*
X006326Y006937D02*
X011491Y006937D01*
X011491Y006779D02*
X006327Y006779D01*
X006328Y006620D02*
X011491Y006620D01*
X011491Y006462D02*
X006330Y006462D01*
X006331Y006303D02*
X011491Y006303D01*
X011491Y006145D02*
X006333Y006145D01*
X006334Y005986D02*
X011491Y005986D01*
X011491Y005828D02*
X006335Y005828D01*
X006337Y005669D02*
X011491Y005669D01*
X011491Y005511D02*
X006442Y005511D01*
X006488Y005352D02*
X011491Y005352D01*
X011491Y005194D02*
X006469Y005194D01*
X006368Y005035D02*
X011491Y005035D01*
X011491Y004877D02*
X000930Y004877D01*
X000930Y004718D02*
X011491Y004718D01*
X011491Y004560D02*
X000930Y004560D01*
X000930Y004401D02*
X011491Y004401D01*
X011491Y004243D02*
X000930Y004243D01*
X000930Y004084D02*
X011491Y004084D01*
X011491Y003926D02*
X000930Y003926D01*
X000930Y003767D02*
X011491Y003767D01*
X011491Y003609D02*
X000930Y003609D01*
X000930Y003450D02*
X011491Y003450D01*
X011491Y003292D02*
X000930Y003292D01*
X000930Y003133D02*
X011491Y003133D01*
X011491Y002975D02*
X000930Y002975D01*
X000930Y002816D02*
X011491Y002816D01*
X011491Y002658D02*
X000930Y002658D01*
X000930Y002499D02*
X011491Y002499D01*
X011491Y002341D02*
X000930Y002341D01*
X000930Y002182D02*
X011491Y002182D01*
X011491Y002024D02*
X000930Y002024D01*
X000930Y001865D02*
X010798Y001865D01*
X010639Y001707D02*
X000930Y001707D01*
X000930Y001548D02*
X010517Y001548D01*
X010517Y001390D02*
X000930Y001390D01*
X000930Y001231D02*
X010517Y001231D01*
X010520Y001073D02*
X000930Y001073D01*
X000930Y008681D02*
X001074Y008681D01*
X001171Y008839D02*
X000930Y008839D01*
X000930Y008998D02*
X001013Y008998D01*
X000950Y009156D02*
X000930Y009156D01*
X000930Y009315D02*
X000950Y009315D01*
X000950Y009473D02*
X000930Y009473D01*
X000930Y009632D02*
X001082Y009632D01*
X000930Y009790D02*
X001240Y009790D01*
X001460Y009790D02*
X001500Y009790D01*
X001500Y009632D02*
X001460Y009632D01*
X001460Y009473D02*
X001500Y009473D01*
X001500Y009315D02*
X001460Y009315D01*
X001878Y009632D02*
X002025Y009632D01*
X002184Y009790D02*
X001720Y009790D01*
X000930Y009949D02*
X004858Y009949D01*
X003116Y009790D02*
X002776Y009790D01*
X002935Y009632D02*
X002958Y009632D01*
X000930Y012326D02*
X011491Y012326D01*
X011491Y012168D02*
X011050Y012168D01*
X011176Y012009D02*
X011491Y012009D01*
X011491Y011851D02*
X011230Y011851D01*
X011230Y011692D02*
X011491Y011692D01*
X011491Y011534D02*
X011169Y011534D01*
X011032Y011375D02*
X011491Y011375D01*
X011491Y011217D02*
X011001Y011217D01*
X011159Y011058D02*
X011491Y011058D01*
X011491Y010900D02*
X011230Y010900D01*
X011230Y010741D02*
X011491Y010741D01*
X011491Y010583D02*
X011230Y010583D01*
X011385Y010424D02*
X011491Y010424D01*
X011491Y008047D02*
X011336Y008047D01*
X011230Y007888D02*
X011491Y007888D01*
X011491Y007730D02*
X011230Y007730D01*
X011228Y007571D02*
X011491Y007571D01*
X011491Y007413D02*
X011070Y007413D01*
X011462Y001865D02*
X011491Y001865D01*
D18*
X010730Y007780D02*
X011320Y008370D01*
X011320Y009170D01*
X011320Y010150D01*
X011200Y010270D01*
X008270Y010270D01*
X007610Y010930D01*
X006130Y009730D02*
X007330Y008280D01*
X010230Y008280D01*
X010730Y008780D01*
M02*
