G75*
G70*
%OFA0B0*%
%FSLAX24Y24*%
%IPPOS*%
%LPD*%
%AMOC8*
5,1,8,0,0,1.08239X$1,22.5*
%
%ADD10C,0.0080*%
%ADD11R,0.1000X0.0500*%
%ADD12OC8,0.0740*%
%ADD13C,0.0600*%
%ADD14OC8,0.0600*%
%ADD15R,0.0315X0.0315*%
%ADD16R,0.0394X0.0433*%
%ADD17R,0.0433X0.0394*%
%ADD18R,0.0220X0.0500*%
%ADD19R,0.0500X0.0220*%
%ADD20C,0.0394*%
%ADD21OC8,0.0827*%
%ADD22C,0.0100*%
%ADD23C,0.0120*%
%ADD24C,0.0396*%
%ADD25C,0.0160*%
%ADD26C,0.0400*%
D10*
X000730Y000780D02*
X011691Y000780D01*
X011691Y012682D01*
X000730Y012682D01*
X000730Y000780D01*
X002480Y007280D02*
X002480Y007380D01*
X002880Y007780D01*
X002880Y007878D01*
X003180Y008178D01*
X003540Y008178D01*
X003180Y008480D02*
X002880Y008780D01*
X001730Y008780D01*
X001480Y008530D01*
X003540Y008808D02*
X005652Y008808D01*
X006380Y008080D01*
X006430Y008080D01*
X007280Y007230D01*
X008682Y007230D01*
X009770Y006142D01*
X010380Y006142D01*
X011160Y006494D02*
X010230Y007303D01*
X010230Y007943D01*
X010063Y008280D01*
X010230Y008577D01*
X010230Y011100D01*
X009730Y011580D01*
X009730Y011780D01*
X006920Y009752D02*
X006898Y009730D01*
X006130Y009730D01*
X011160Y006494D02*
X011160Y002580D01*
X010785Y002205D01*
X010380Y002205D01*
D11*
X010380Y002205D03*
X010380Y001418D03*
X010380Y002993D03*
X010380Y003780D03*
X010380Y004567D03*
X010380Y005355D03*
X010380Y006142D03*
X004080Y006142D03*
X004080Y005355D03*
X004080Y004567D03*
X004080Y003780D03*
X004080Y002993D03*
X004080Y002205D03*
X004080Y001418D03*
D12*
X002480Y007280D03*
X002480Y008280D03*
X002480Y009280D03*
X001480Y009280D03*
X001480Y008280D03*
X001480Y007280D03*
D13*
X010730Y011780D03*
D14*
X010730Y010780D03*
X010730Y009780D03*
X010730Y008780D03*
X010730Y007780D03*
X009730Y007780D03*
X009730Y008780D03*
X009730Y009780D03*
X009730Y010780D03*
X009730Y011780D03*
D15*
X002525Y010780D03*
X001935Y010780D03*
D16*
X001895Y011780D03*
X002565Y011780D03*
X007895Y010280D03*
X008565Y010280D03*
D17*
X008565Y011280D03*
X007895Y011280D03*
X007895Y009280D03*
X008565Y009280D03*
X008565Y007780D03*
X007895Y007780D03*
D18*
X006332Y007590D03*
X006017Y007590D03*
X005702Y007590D03*
X005387Y007590D03*
X005073Y007590D03*
X004758Y007590D03*
X004443Y007590D03*
X004128Y007590D03*
X004128Y010970D03*
X004443Y010970D03*
X004758Y010970D03*
X005073Y010970D03*
X005387Y010970D03*
X005702Y010970D03*
X006017Y010970D03*
X006332Y010970D03*
D19*
X006920Y010382D03*
X006920Y010067D03*
X006920Y009752D03*
X006920Y009437D03*
X006920Y009123D03*
X006920Y008808D03*
X006920Y008493D03*
X006920Y008178D03*
X003540Y008178D03*
X003540Y008493D03*
X003540Y008808D03*
X003540Y009123D03*
X003540Y009437D03*
X003540Y009752D03*
X003540Y010067D03*
X003540Y010382D03*
D20*
X007230Y011780D03*
X001730Y001780D03*
D21*
X011130Y001330D03*
D22*
X010380Y004567D02*
X008517Y004567D01*
X006495Y006590D01*
X003740Y006590D01*
X003400Y006930D01*
X003400Y007470D01*
X004130Y008200D01*
X004130Y008320D01*
X003957Y008493D01*
X003540Y008493D01*
X003527Y008480D01*
X003180Y008480D01*
X003137Y009123D02*
X003030Y009230D01*
X003030Y009530D01*
X002880Y009680D01*
X002880Y010425D01*
X002525Y010780D01*
X001935Y010780D02*
X001935Y011414D01*
X001895Y011453D01*
X001895Y011780D01*
X003137Y009123D02*
X003540Y009123D01*
X004690Y009380D02*
X004700Y009380D01*
X004970Y009110D01*
X005880Y009110D01*
X005910Y009080D01*
X006310Y008680D01*
X006454Y009332D02*
X005385Y009332D01*
X005095Y009622D01*
X005270Y009960D02*
X005190Y010040D01*
X004950Y010040D01*
X004710Y009800D01*
X004690Y009800D01*
X004690Y009380D01*
X005270Y009960D02*
X005590Y009960D01*
X005990Y010360D01*
X006870Y010360D01*
X006920Y010382D01*
X006920Y009437D02*
X006560Y009437D01*
X006454Y009332D01*
X006920Y009437D02*
X007280Y009437D01*
X007437Y009280D01*
X007569Y009280D01*
X007895Y009280D01*
X007895Y009611D01*
X008565Y010280D01*
X007895Y010280D02*
X007895Y011280D01*
X007900Y011285D01*
X007900Y012040D01*
X007630Y012310D01*
X005940Y012310D01*
X005387Y011757D01*
X005387Y010970D01*
X005400Y010983D01*
X005400Y011460D01*
X005300Y011560D01*
X004840Y011560D01*
X004758Y011478D01*
X004758Y010970D01*
X007895Y011280D02*
X007895Y011647D01*
X008028Y011780D01*
X009730Y011780D01*
X008565Y009280D02*
X008565Y008973D01*
X008758Y008780D01*
X009730Y008780D01*
X010063Y008280D02*
X008018Y008280D01*
X007938Y006992D02*
X009575Y005355D01*
X010380Y005355D01*
X007938Y006992D02*
X004239Y006992D01*
X004239Y007118D01*
X004128Y007230D01*
X004128Y007590D01*
X003470Y006290D02*
X003780Y005980D01*
X003918Y005980D01*
X004080Y006142D01*
X003470Y006290D02*
X002480Y007280D01*
X001480Y008280D02*
X001480Y008530D01*
X003830Y005320D02*
X004070Y005320D01*
X004080Y005355D01*
X003830Y005320D02*
X006090Y005320D01*
D23*
X004443Y007590D02*
X004443Y008020D01*
X004721Y008299D01*
X004981Y008299D01*
X006920Y010067D02*
X007347Y010067D01*
X007410Y010130D01*
X007410Y010500D01*
X006980Y010930D01*
X008018Y008280D02*
X007895Y008157D01*
X007895Y007780D01*
X010380Y001418D02*
X010485Y001312D01*
X010485Y001280D01*
D24*
X006090Y005320D03*
X005300Y006050D03*
X004239Y006992D03*
X004981Y008299D03*
X005570Y008240D03*
X006310Y008680D03*
X006130Y009730D03*
X005095Y009622D03*
X004340Y010220D03*
X006980Y010930D03*
X009160Y011270D03*
X011240Y007140D03*
D25*
X011491Y007096D02*
X010834Y007096D01*
X011016Y006937D02*
X011491Y006937D01*
X011491Y006779D02*
X011198Y006779D01*
X011288Y006700D02*
X010622Y007280D01*
X010937Y007280D01*
X011230Y007573D01*
X011230Y007987D01*
X010937Y008280D01*
X011230Y008573D01*
X011230Y008987D01*
X010937Y009280D01*
X010523Y009280D01*
X010470Y009227D01*
X010470Y009389D01*
X010539Y009320D01*
X010720Y009320D01*
X010720Y009770D01*
X010740Y009770D01*
X010740Y009790D01*
X010720Y009790D01*
X010720Y010240D01*
X010539Y010240D01*
X010470Y010171D01*
X010470Y010333D01*
X010523Y010280D01*
X010937Y010280D01*
X011230Y010573D01*
X011230Y010987D01*
X010937Y011280D01*
X010523Y011280D01*
X010447Y011204D01*
X010434Y011236D01*
X010432Y011238D01*
X010431Y011240D01*
X010398Y011271D01*
X010366Y011303D01*
X010364Y011304D01*
X010158Y011501D01*
X010230Y011573D01*
X010230Y011987D01*
X009937Y012280D01*
X009523Y012280D01*
X009273Y012030D01*
X008150Y012030D01*
X008150Y012090D01*
X008112Y012182D01*
X008042Y012252D01*
X007812Y012482D01*
X011491Y012482D01*
X011491Y001837D01*
X011384Y001943D01*
X011080Y001943D01*
X011080Y002161D01*
X011296Y002377D01*
X011363Y002444D01*
X011400Y002532D01*
X011400Y006454D01*
X011402Y006463D01*
X011400Y006502D01*
X011400Y006541D01*
X011396Y006549D01*
X011396Y006558D01*
X011378Y006593D01*
X011363Y006630D01*
X011357Y006636D01*
X011353Y006643D01*
X011324Y006669D01*
X011296Y006697D01*
X011288Y006700D01*
X011367Y006620D02*
X011491Y006620D01*
X011491Y006462D02*
X011402Y006462D01*
X011400Y006303D02*
X011491Y006303D01*
X011491Y006145D02*
X011400Y006145D01*
X011400Y005986D02*
X011491Y005986D01*
X011491Y005828D02*
X011400Y005828D01*
X011400Y005669D02*
X011491Y005669D01*
X011491Y005511D02*
X011400Y005511D01*
X011400Y005352D02*
X011491Y005352D01*
X011491Y005194D02*
X011400Y005194D01*
X011400Y005035D02*
X011491Y005035D01*
X011491Y004877D02*
X011400Y004877D01*
X011400Y004718D02*
X011491Y004718D01*
X011491Y004560D02*
X011400Y004560D01*
X011400Y004401D02*
X011491Y004401D01*
X011491Y004243D02*
X011400Y004243D01*
X011400Y004084D02*
X011491Y004084D01*
X011491Y003926D02*
X011400Y003926D01*
X011400Y003767D02*
X011491Y003767D01*
X011491Y003609D02*
X011400Y003609D01*
X011400Y003450D02*
X011491Y003450D01*
X011491Y003292D02*
X011400Y003292D01*
X011400Y003133D02*
X011491Y003133D01*
X011491Y002975D02*
X011400Y002975D01*
X011400Y002816D02*
X011491Y002816D01*
X011491Y002658D02*
X011400Y002658D01*
X011386Y002499D02*
X011491Y002499D01*
X011491Y002341D02*
X011260Y002341D01*
X011296Y002377D02*
X011296Y002377D01*
X011101Y002182D02*
X011491Y002182D01*
X011491Y002024D02*
X011080Y002024D01*
X011462Y001865D02*
X011491Y001865D01*
X010335Y002948D02*
X010335Y003038D01*
X009720Y003038D01*
X009720Y003264D01*
X009731Y003304D01*
X009752Y003341D01*
X009769Y003358D01*
X009680Y003447D01*
X009680Y004113D01*
X009740Y004174D01*
X009680Y004235D01*
X009680Y004317D01*
X008467Y004317D01*
X008376Y004355D01*
X008305Y004426D01*
X006391Y006340D01*
X004780Y006340D01*
X004780Y005809D01*
X004720Y005749D01*
X004780Y005688D01*
X004780Y005570D01*
X005777Y005570D01*
X005864Y005658D01*
X006011Y005718D01*
X006169Y005718D01*
X006316Y005658D01*
X006428Y005546D01*
X006488Y005399D01*
X006488Y005241D01*
X006428Y005094D01*
X006316Y004982D01*
X006169Y004922D01*
X006011Y004922D01*
X005864Y004982D01*
X005777Y005070D01*
X004780Y005070D01*
X004780Y005022D01*
X004720Y004961D01*
X004780Y004900D01*
X004780Y004235D01*
X004720Y004174D01*
X004780Y004113D01*
X004780Y003447D01*
X004720Y003386D01*
X004780Y003325D01*
X004780Y002660D01*
X004720Y002599D01*
X004780Y002538D01*
X004780Y001872D01*
X004720Y001811D01*
X004780Y001751D01*
X004780Y001085D01*
X004675Y000980D01*
X009785Y000980D01*
X009680Y001085D01*
X009680Y001751D01*
X009740Y001811D01*
X009680Y001872D01*
X009680Y002538D01*
X009769Y002627D01*
X009752Y002644D01*
X009731Y002681D01*
X009720Y002722D01*
X009720Y002948D01*
X010335Y002948D01*
X010335Y002975D02*
X004780Y002975D01*
X004780Y003133D02*
X009720Y003133D01*
X009727Y003292D02*
X004780Y003292D01*
X004780Y003450D02*
X009680Y003450D01*
X009680Y003609D02*
X004780Y003609D01*
X004780Y003767D02*
X009680Y003767D01*
X009680Y003926D02*
X004780Y003926D01*
X004780Y004084D02*
X009680Y004084D01*
X009680Y004243D02*
X004780Y004243D01*
X004780Y004401D02*
X008330Y004401D01*
X008172Y004560D02*
X004780Y004560D01*
X004780Y004718D02*
X008013Y004718D01*
X007855Y004877D02*
X004780Y004877D01*
X004780Y005035D02*
X005812Y005035D01*
X006368Y005035D02*
X007696Y005035D01*
X007538Y005194D02*
X006469Y005194D01*
X006488Y005352D02*
X007379Y005352D01*
X007221Y005511D02*
X006442Y005511D01*
X006288Y005669D02*
X007062Y005669D01*
X006904Y005828D02*
X004780Y005828D01*
X004780Y005986D02*
X006745Y005986D01*
X006587Y006145D02*
X004780Y006145D01*
X004780Y006303D02*
X006428Y006303D01*
X005892Y005669D02*
X004780Y005669D01*
X005387Y007590D02*
X005387Y008000D01*
X005305Y008000D01*
X005276Y008030D01*
X005319Y008073D01*
X005380Y008220D01*
X005380Y008378D01*
X005319Y008524D01*
X005276Y008568D01*
X005553Y008568D01*
X006081Y008040D01*
X005510Y008040D01*
X005470Y008000D01*
X005387Y008000D01*
X005387Y007590D01*
X005387Y007590D01*
X005387Y007730D02*
X005387Y007730D01*
X005387Y007888D02*
X005387Y007888D01*
X005292Y008047D02*
X006074Y008047D01*
X005916Y008205D02*
X005374Y008205D01*
X005380Y008364D02*
X005757Y008364D01*
X005599Y008522D02*
X005320Y008522D01*
X004679Y009048D02*
X003990Y009048D01*
X003990Y009315D01*
X003990Y010520D01*
X004950Y010520D01*
X004990Y010560D01*
X005073Y010560D01*
X005155Y010560D01*
X005195Y010520D01*
X005580Y010520D01*
X005620Y010560D01*
X005702Y010560D01*
X005702Y010970D01*
X005702Y011380D01*
X005650Y011380D01*
X005650Y011510D01*
X005637Y011540D01*
X005637Y011654D01*
X006044Y012060D01*
X006812Y012060D01*
X006798Y012030D01*
X006778Y012001D01*
X006780Y011991D01*
X006779Y011989D01*
X006770Y011984D01*
X006761Y011951D01*
X006746Y011920D01*
X006750Y011910D01*
X006749Y011908D01*
X006741Y011901D01*
X006738Y011867D01*
X006729Y011834D01*
X006735Y011825D01*
X006734Y011822D01*
X006728Y011814D01*
X006731Y011780D01*
X006728Y011746D01*
X006734Y011738D01*
X006735Y011735D01*
X006729Y011726D01*
X006738Y011693D01*
X006741Y011659D01*
X006749Y011652D01*
X006750Y011650D01*
X006746Y011640D01*
X006761Y011609D01*
X006770Y011576D01*
X006779Y011571D01*
X006780Y011569D01*
X006778Y011559D01*
X006798Y011530D01*
X006812Y011499D01*
X006822Y011496D01*
X006823Y011494D01*
X006823Y011483D01*
X006848Y011459D01*
X006867Y011431D01*
X006878Y011429D01*
X006879Y011428D01*
X006881Y011417D01*
X006909Y011398D01*
X006933Y011373D01*
X006944Y011373D01*
X006946Y011372D01*
X006949Y011362D01*
X006980Y011348D01*
X007008Y011328D01*
X006901Y011328D01*
X006754Y011268D01*
X006642Y011156D01*
X006642Y011155D01*
X006642Y011303D01*
X006525Y011420D01*
X005825Y011420D01*
X005785Y011380D01*
X005702Y011380D01*
X005702Y010970D01*
X005702Y010970D01*
X005702Y010970D01*
X005702Y010560D01*
X005785Y010560D01*
X005811Y010534D01*
X005486Y010210D01*
X005374Y010210D01*
X005332Y010252D01*
X005240Y010290D01*
X004900Y010290D01*
X004808Y010252D01*
X004583Y010026D01*
X004548Y010012D01*
X004478Y009942D01*
X004440Y009850D01*
X004440Y009330D01*
X004478Y009238D01*
X004548Y009168D01*
X004565Y009161D01*
X004679Y009048D01*
X004570Y009156D02*
X003990Y009156D01*
X003990Y009315D02*
X004447Y009315D01*
X004440Y009473D02*
X003990Y009473D01*
X003990Y009632D02*
X004440Y009632D01*
X004440Y009790D02*
X003990Y009790D01*
X003990Y009949D02*
X004485Y009949D01*
X004663Y010107D02*
X003990Y010107D01*
X003990Y010266D02*
X004841Y010266D01*
X005073Y010560D02*
X005073Y010970D01*
X005073Y010560D01*
X005073Y010583D02*
X005073Y010583D01*
X005073Y010741D02*
X005073Y010741D01*
X005073Y010900D02*
X005073Y010900D01*
X005073Y010970D02*
X005073Y010970D01*
X004508Y011420D02*
X004508Y011527D01*
X004546Y011619D01*
X004628Y011702D01*
X004698Y011772D01*
X004790Y011810D01*
X005139Y011810D01*
X005176Y011899D01*
X005728Y012452D01*
X005728Y012452D01*
X005758Y012482D01*
X000930Y012482D01*
X000930Y008536D01*
X001202Y008808D01*
X000950Y009060D01*
X000950Y009260D01*
X001460Y009260D01*
X001460Y009300D01*
X001460Y009810D01*
X001260Y009810D01*
X000950Y009500D01*
X000950Y009300D01*
X001460Y009300D01*
X001500Y009300D01*
X001500Y009810D01*
X001700Y009810D01*
X001952Y009558D01*
X002244Y009850D01*
X002630Y009850D01*
X002630Y010322D01*
X002529Y010423D01*
X002285Y010423D01*
X002230Y010477D01*
X002175Y010423D01*
X001694Y010423D01*
X001577Y010540D01*
X001577Y011020D01*
X001685Y011128D01*
X001685Y011311D01*
X001683Y011312D01*
X001662Y011363D01*
X001616Y011363D01*
X001499Y011481D01*
X001499Y012079D01*
X001616Y012197D01*
X002175Y012197D01*
X002258Y012113D01*
X002270Y012125D01*
X002306Y012146D01*
X002347Y012157D01*
X002546Y012157D01*
X002546Y011798D01*
X002583Y011798D01*
X002921Y011798D01*
X002921Y012018D01*
X002911Y012058D01*
X002890Y012095D01*
X002860Y012125D01*
X002823Y012146D01*
X002783Y012157D01*
X002583Y012157D01*
X002583Y011798D01*
X002583Y011762D01*
X002921Y011762D01*
X002921Y011542D01*
X002911Y011502D01*
X002890Y011465D01*
X002860Y011435D01*
X002823Y011414D01*
X002783Y011403D01*
X002583Y011403D01*
X002583Y011762D01*
X002546Y011762D01*
X002546Y011403D01*
X002347Y011403D01*
X002306Y011414D01*
X002270Y011435D01*
X002258Y011447D01*
X002185Y011373D01*
X002185Y011128D01*
X002230Y011083D01*
X002285Y011137D01*
X002766Y011137D01*
X002883Y011020D01*
X002883Y010776D01*
X003090Y010569D01*
X003090Y010575D01*
X003207Y010692D01*
X003818Y010692D01*
X003818Y011303D01*
X003935Y011420D01*
X004508Y011420D01*
X004510Y011534D02*
X002919Y011534D01*
X002921Y011692D02*
X004618Y011692D01*
X005155Y011851D02*
X002921Y011851D01*
X002921Y012009D02*
X005285Y012009D01*
X005444Y012168D02*
X002204Y012168D01*
X002546Y012009D02*
X002583Y012009D01*
X002583Y011851D02*
X002546Y011851D01*
X002546Y011692D02*
X002583Y011692D01*
X002583Y011534D02*
X002546Y011534D01*
X002187Y011375D02*
X003890Y011375D01*
X003818Y011217D02*
X002185Y011217D01*
X001685Y011217D02*
X000930Y011217D01*
X000930Y011375D02*
X001604Y011375D01*
X001499Y011534D02*
X000930Y011534D01*
X000930Y011692D02*
X001499Y011692D01*
X001499Y011851D02*
X000930Y011851D01*
X000930Y012009D02*
X001499Y012009D01*
X001587Y012168D02*
X000930Y012168D01*
X000930Y012326D02*
X005602Y012326D01*
X005993Y012009D02*
X006783Y012009D01*
X006734Y011851D02*
X005834Y011851D01*
X005676Y011692D02*
X006738Y011692D01*
X006795Y011534D02*
X005640Y011534D01*
X005702Y011375D02*
X005702Y011375D01*
X005702Y011217D02*
X005702Y011217D01*
X005702Y011058D02*
X005702Y011058D01*
X005702Y010900D02*
X005702Y010900D01*
X005702Y010741D02*
X005702Y010741D01*
X005702Y010583D02*
X005702Y010583D01*
X005700Y010424D02*
X003990Y010424D01*
X003818Y010741D02*
X002918Y010741D01*
X002883Y010900D02*
X003818Y010900D01*
X003818Y011058D02*
X002845Y011058D01*
X003076Y010583D02*
X003097Y010583D01*
X002630Y010266D02*
X000930Y010266D01*
X000930Y010424D02*
X001693Y010424D01*
X001577Y010583D02*
X000930Y010583D01*
X000930Y010741D02*
X001577Y010741D01*
X001577Y010900D02*
X000930Y010900D01*
X000930Y011058D02*
X001615Y011058D01*
X002177Y010424D02*
X002283Y010424D01*
X002630Y010107D02*
X000930Y010107D01*
X000930Y009949D02*
X002630Y009949D01*
X002184Y009790D02*
X001720Y009790D01*
X001878Y009632D02*
X002025Y009632D01*
X001500Y009632D02*
X001460Y009632D01*
X001460Y009790D02*
X001500Y009790D01*
X001240Y009790D02*
X000930Y009790D01*
X000930Y009632D02*
X001082Y009632D01*
X000950Y009473D02*
X000930Y009473D01*
X000930Y009315D02*
X000950Y009315D01*
X000950Y009156D02*
X000930Y009156D01*
X000930Y008998D02*
X001013Y008998D01*
X000930Y008839D02*
X001171Y008839D01*
X001074Y008681D02*
X000930Y008681D01*
X001460Y009315D02*
X001500Y009315D01*
X001500Y009473D02*
X001460Y009473D01*
X005299Y010266D02*
X005542Y010266D01*
X006570Y011375D02*
X006932Y011375D01*
X006704Y011217D02*
X006642Y011217D01*
X007968Y012326D02*
X011491Y012326D01*
X011491Y012168D02*
X011050Y012168D01*
X011013Y012204D02*
X010829Y012280D01*
X010631Y012280D01*
X010447Y012204D01*
X010306Y012063D01*
X010230Y011879D01*
X010230Y011681D01*
X010306Y011497D01*
X010447Y011356D01*
X010631Y011280D01*
X010829Y011280D01*
X011013Y011356D01*
X011154Y011497D01*
X011230Y011681D01*
X011230Y011879D01*
X011154Y012063D01*
X011013Y012204D01*
X011176Y012009D02*
X011491Y012009D01*
X011491Y011851D02*
X011230Y011851D01*
X011230Y011692D02*
X011491Y011692D01*
X011491Y011534D02*
X011169Y011534D01*
X011032Y011375D02*
X011491Y011375D01*
X011491Y011217D02*
X011001Y011217D01*
X011159Y011058D02*
X011491Y011058D01*
X011491Y010900D02*
X011230Y010900D01*
X011230Y010741D02*
X011491Y010741D01*
X011491Y010583D02*
X011230Y010583D01*
X011081Y010424D02*
X011491Y010424D01*
X011491Y010266D02*
X010470Y010266D01*
X010740Y010240D02*
X010740Y009790D01*
X011190Y009790D01*
X011190Y009971D01*
X010921Y010240D01*
X010740Y010240D01*
X010740Y010107D02*
X010720Y010107D01*
X010720Y009949D02*
X010740Y009949D01*
X010740Y009790D02*
X010720Y009790D01*
X010740Y009770D02*
X010740Y009320D01*
X010921Y009320D01*
X011190Y009589D01*
X011190Y009770D01*
X010740Y009770D01*
X010740Y009632D02*
X010720Y009632D01*
X010720Y009473D02*
X010740Y009473D01*
X010470Y009315D02*
X011491Y009315D01*
X011491Y009473D02*
X011074Y009473D01*
X011190Y009632D02*
X011491Y009632D01*
X011491Y009790D02*
X011190Y009790D01*
X011190Y009949D02*
X011491Y009949D01*
X011491Y010107D02*
X011054Y010107D01*
X011061Y009156D02*
X011491Y009156D01*
X011491Y008998D02*
X011220Y008998D01*
X011230Y008839D02*
X011491Y008839D01*
X011491Y008681D02*
X011230Y008681D01*
X011179Y008522D02*
X011491Y008522D01*
X011491Y008364D02*
X011021Y008364D01*
X010937Y008280D02*
X010523Y008280D01*
X010405Y008398D01*
X010334Y008273D01*
X010394Y008152D01*
X010523Y008280D01*
X010937Y008280D01*
X011012Y008205D02*
X011491Y008205D01*
X011491Y008047D02*
X011171Y008047D01*
X011230Y007888D02*
X011491Y007888D01*
X011491Y007730D02*
X011230Y007730D01*
X011228Y007571D02*
X011491Y007571D01*
X011491Y007413D02*
X011070Y007413D01*
X010652Y007254D02*
X011491Y007254D01*
X010681Y006592D02*
X009797Y006592D01*
X009728Y006523D01*
X008823Y007429D01*
X008843Y007434D01*
X008879Y007455D01*
X008909Y007485D01*
X008930Y007521D01*
X008941Y007562D01*
X008941Y007762D01*
X008583Y007762D01*
X008583Y007798D01*
X008941Y007798D01*
X008941Y007998D01*
X008933Y008030D01*
X009329Y008030D01*
X009270Y007971D01*
X009270Y007790D01*
X009720Y007790D01*
X009720Y007770D01*
X009740Y007770D01*
X009740Y007320D01*
X009921Y007320D01*
X009990Y007389D01*
X009990Y007343D01*
X009987Y007334D01*
X009990Y007295D01*
X009990Y007256D01*
X009993Y007248D01*
X009994Y007239D01*
X010011Y007204D01*
X010026Y007167D01*
X010032Y007161D01*
X010036Y007154D01*
X010066Y007128D01*
X010094Y007100D01*
X010102Y007097D01*
X010681Y006592D01*
X010649Y006620D02*
X009631Y006620D01*
X009473Y006779D02*
X010467Y006779D01*
X010285Y006937D02*
X009314Y006937D01*
X009156Y007096D02*
X010103Y007096D01*
X009991Y007254D02*
X008997Y007254D01*
X008839Y007413D02*
X009447Y007413D01*
X009539Y007320D02*
X009720Y007320D01*
X009720Y007770D01*
X009270Y007770D01*
X009270Y007589D01*
X009539Y007320D01*
X009720Y007413D02*
X009740Y007413D01*
X009740Y007571D02*
X009720Y007571D01*
X009720Y007730D02*
X009740Y007730D01*
X009270Y007730D02*
X008941Y007730D01*
X008941Y007888D02*
X009270Y007888D01*
X009288Y007571D02*
X008941Y007571D01*
X008981Y009030D02*
X008981Y009560D01*
X008864Y009677D01*
X008315Y009677D01*
X008502Y009863D01*
X008844Y009863D01*
X008961Y009981D01*
X008961Y010579D01*
X008844Y010697D01*
X008285Y010697D01*
X008230Y010642D01*
X008175Y010697D01*
X008145Y010697D01*
X008145Y010883D01*
X008195Y010883D01*
X008261Y010949D01*
X008286Y010934D01*
X008327Y010923D01*
X008546Y010923D01*
X008546Y011262D01*
X008583Y011262D01*
X008583Y011298D01*
X008941Y011298D01*
X008941Y011498D01*
X008933Y011530D01*
X009273Y011530D01*
X009523Y011280D01*
X009230Y010987D01*
X009230Y010573D01*
X009523Y010280D01*
X009230Y009987D01*
X009230Y009573D01*
X009523Y009280D01*
X009273Y009030D01*
X008981Y009030D01*
X008981Y009156D02*
X009399Y009156D01*
X009523Y009280D02*
X009937Y009280D01*
X009990Y009227D01*
X009990Y009333D01*
X009937Y009280D01*
X009523Y009280D01*
X009488Y009315D02*
X008981Y009315D01*
X008981Y009473D02*
X009330Y009473D01*
X009230Y009632D02*
X008909Y009632D01*
X008929Y009949D02*
X009230Y009949D01*
X009230Y009790D02*
X008428Y009790D01*
X008961Y010107D02*
X009350Y010107D01*
X009508Y010266D02*
X008961Y010266D01*
X008961Y010424D02*
X009379Y010424D01*
X009523Y010280D02*
X009937Y010280D01*
X009523Y010280D01*
X009230Y010583D02*
X008958Y010583D01*
X009230Y010741D02*
X008145Y010741D01*
X008211Y010900D02*
X009230Y010900D01*
X009301Y011058D02*
X008940Y011058D01*
X008941Y011062D02*
X008941Y011262D01*
X008583Y011262D01*
X008583Y010923D01*
X008802Y010923D01*
X008843Y010934D01*
X008879Y010955D01*
X008909Y010985D01*
X008930Y011021D01*
X008941Y011062D01*
X008941Y011217D02*
X009459Y011217D01*
X009523Y011280D02*
X009696Y011280D01*
X009696Y011280D01*
X009523Y011280D01*
X009428Y011375D02*
X008941Y011375D01*
X008583Y011217D02*
X008546Y011217D01*
X008546Y011058D02*
X008583Y011058D01*
X008118Y012168D02*
X009410Y012168D01*
X010050Y012168D02*
X010410Y012168D01*
X010284Y012009D02*
X010208Y012009D01*
X010230Y011851D02*
X010230Y011851D01*
X010230Y011692D02*
X010230Y011692D01*
X010191Y011534D02*
X010291Y011534D01*
X010290Y011375D02*
X010428Y011375D01*
X010442Y011217D02*
X010459Y011217D01*
X009990Y010333D02*
X009990Y010227D01*
X009937Y010280D01*
X009990Y010333D01*
X009990Y010266D02*
X009952Y010266D01*
X009972Y009315D02*
X009990Y009315D01*
X010385Y008364D02*
X010439Y008364D01*
X010448Y008205D02*
X010368Y008205D01*
X009720Y002816D02*
X004780Y002816D01*
X004778Y002658D02*
X009744Y002658D01*
X009680Y002499D02*
X004780Y002499D01*
X004780Y002341D02*
X009680Y002341D01*
X009680Y002182D02*
X004780Y002182D01*
X004780Y002024D02*
X009680Y002024D01*
X009687Y001865D02*
X004773Y001865D01*
X004780Y001707D02*
X009680Y001707D01*
X009680Y001548D02*
X004780Y001548D01*
X004780Y001390D02*
X009680Y001390D01*
X009680Y001231D02*
X004780Y001231D01*
X004768Y001073D02*
X009692Y001073D01*
D26*
X010380Y001330D02*
X010380Y001418D01*
X010380Y001330D02*
X011130Y001330D01*
M02*
