G75*
G70*
%OFA0B0*%
%FSLAX24Y24*%
%IPPOS*%
%LPD*%
%AMOC8*
5,1,8,0,0,1.08239X$1,22.5*
%
%ADD10C,0.0020*%
%ADD11C,0.0040*%
%ADD12C,0.0050*%
%ADD13C,0.0060*%
%ADD14C,0.0080*%
%ADD15R,0.0098X0.0089*%
D10*
X001080Y002290D02*
X001080Y002425D01*
X001125Y002470D01*
X001215Y002470D01*
X001260Y002425D01*
X001260Y002290D01*
X001350Y002290D02*
X001080Y002290D01*
X001260Y002380D02*
X001350Y002470D01*
X001350Y002557D02*
X001080Y002557D01*
X001080Y002737D01*
X001080Y002824D02*
X001170Y002914D01*
X001080Y003004D01*
X001350Y003004D01*
X001350Y003091D02*
X001350Y003271D01*
X001350Y003358D02*
X001170Y003538D01*
X001125Y003538D01*
X001080Y003493D01*
X001080Y003403D01*
X001125Y003358D01*
X001080Y003181D02*
X001350Y003181D01*
X001350Y003358D02*
X001350Y003538D01*
X001350Y003625D02*
X001350Y003760D01*
X001305Y003805D01*
X001260Y003805D01*
X001215Y003760D01*
X001215Y003625D01*
X001350Y003625D02*
X001080Y003625D01*
X001080Y003760D01*
X001125Y003805D01*
X001170Y003805D01*
X001215Y003760D01*
X001605Y003760D02*
X001650Y003805D01*
X001695Y003805D01*
X001695Y003625D01*
X001740Y003625D02*
X001650Y003625D01*
X001605Y003670D01*
X001605Y003760D01*
X001605Y003892D02*
X001785Y003892D01*
X001695Y003892D02*
X001605Y003982D01*
X001605Y004027D01*
X001605Y004115D02*
X001785Y004115D01*
X001695Y004115D02*
X001605Y004205D01*
X001605Y004250D01*
X001605Y004337D02*
X001740Y004337D01*
X001785Y004382D01*
X001785Y004517D01*
X001830Y004517D02*
X001875Y004472D01*
X001875Y004427D01*
X001830Y004517D02*
X001605Y004517D01*
X001695Y004604D02*
X001695Y004739D01*
X001650Y004784D01*
X001560Y004784D01*
X001515Y004739D01*
X001515Y004604D01*
X001785Y004604D01*
X001785Y004871D02*
X001785Y004961D01*
X001785Y004916D02*
X001605Y004916D01*
X001605Y004871D01*
X001515Y004916D02*
X001470Y004916D01*
X002040Y004472D02*
X002040Y004337D01*
X002220Y004337D01*
X002175Y004250D02*
X002085Y004250D01*
X002040Y004205D01*
X002040Y004115D01*
X002085Y004070D01*
X002175Y004070D01*
X002220Y004115D01*
X002220Y004205D01*
X002175Y004250D01*
X002040Y004472D02*
X002085Y004517D01*
X002220Y004517D01*
X002220Y003982D02*
X002220Y003892D01*
X002220Y003937D02*
X002040Y003937D01*
X002040Y003892D01*
X002040Y003805D02*
X002040Y003670D01*
X002085Y003625D01*
X002130Y003670D01*
X002130Y003760D01*
X002175Y003805D01*
X002220Y003760D01*
X002220Y003625D01*
X002220Y003538D02*
X002085Y003538D01*
X002040Y003493D01*
X002040Y003358D01*
X002220Y003358D01*
X002220Y003271D02*
X002220Y003136D01*
X002175Y003091D01*
X002130Y003136D01*
X002130Y003271D01*
X002085Y003271D02*
X002220Y003271D01*
X002085Y003271D02*
X002040Y003226D01*
X002040Y003136D01*
X002085Y003004D02*
X002175Y003004D01*
X002220Y002959D01*
X002220Y002824D01*
X002220Y002737D02*
X002040Y002557D01*
X001950Y002470D02*
X001950Y002290D01*
X002220Y002290D01*
X002220Y002470D01*
X002220Y002557D02*
X002040Y002737D01*
X002040Y002824D02*
X002040Y002959D01*
X002085Y003004D01*
X002040Y002824D02*
X002310Y002824D01*
X002705Y002871D02*
X002750Y002826D01*
X002840Y002826D01*
X002885Y002871D01*
X002885Y002961D01*
X002840Y003006D01*
X002750Y003006D01*
X002705Y002961D01*
X002705Y002871D01*
X002750Y002739D02*
X002885Y002739D01*
X002750Y002739D02*
X002705Y002694D01*
X002705Y002559D01*
X002885Y002559D01*
X002885Y002472D02*
X002750Y002472D01*
X002705Y002427D01*
X002705Y002337D01*
X002795Y002337D02*
X002795Y002472D01*
X002885Y002472D02*
X002885Y002337D01*
X002840Y002292D01*
X002795Y002337D01*
X002885Y002205D02*
X002885Y002025D01*
X002705Y002205D01*
X002705Y002025D01*
X002705Y001892D02*
X002885Y001892D01*
X002885Y001847D02*
X002885Y001937D01*
X002705Y001892D02*
X002705Y001847D01*
X002705Y001759D02*
X002705Y001714D01*
X002795Y001624D01*
X002795Y001537D02*
X002795Y001402D01*
X002840Y001357D01*
X002885Y001402D01*
X002885Y001537D01*
X002750Y001537D01*
X002705Y001492D01*
X002705Y001402D01*
X002750Y001270D02*
X002885Y001270D01*
X002750Y001270D02*
X002705Y001225D01*
X002705Y001135D01*
X002750Y001090D01*
X002615Y001090D02*
X002885Y001090D01*
X003050Y001135D02*
X003050Y001225D01*
X003095Y001270D01*
X003275Y001270D01*
X003320Y001225D01*
X003320Y001135D01*
X003275Y001090D01*
X003095Y001090D01*
X003050Y001135D01*
X003140Y001357D02*
X003140Y001492D01*
X003185Y001537D01*
X003275Y001537D01*
X003320Y001492D01*
X003320Y001357D01*
X003410Y001357D02*
X003140Y001357D01*
X003185Y001624D02*
X003140Y001669D01*
X003140Y001759D01*
X003185Y001804D01*
X003230Y001804D01*
X003230Y001624D01*
X003275Y001624D02*
X003185Y001624D01*
X003275Y001624D02*
X003320Y001669D01*
X003320Y001759D01*
X003320Y001891D02*
X003140Y001891D01*
X003140Y002026D01*
X003185Y002071D01*
X003320Y002071D01*
X003320Y002158D02*
X003320Y002338D01*
X003320Y002425D02*
X003140Y002425D01*
X003140Y002560D01*
X003185Y002605D01*
X003320Y002605D01*
X003275Y002692D02*
X003185Y002692D01*
X003140Y002737D01*
X003140Y002827D01*
X003185Y002872D01*
X003230Y002872D01*
X003230Y002692D01*
X003275Y002692D02*
X003320Y002737D01*
X003320Y002827D01*
X003320Y002959D02*
X003140Y002959D01*
X003230Y002959D02*
X003140Y003049D01*
X003140Y003094D01*
X003185Y003182D02*
X003140Y003227D01*
X003140Y003362D01*
X003365Y003362D01*
X003410Y003317D01*
X003410Y003272D01*
X003320Y003227D02*
X003320Y003362D01*
X003275Y003449D02*
X003320Y003494D01*
X003320Y003629D01*
X003365Y003629D02*
X003410Y003584D01*
X003410Y003539D01*
X003365Y003629D02*
X003140Y003629D01*
X003050Y003716D02*
X003140Y003806D01*
X003050Y003896D01*
X003320Y003896D01*
X003275Y003983D02*
X003320Y004028D01*
X003320Y004118D01*
X003275Y004163D01*
X003185Y004163D01*
X003140Y004118D01*
X003140Y004028D01*
X003185Y003983D01*
X003275Y003983D01*
X003320Y004250D02*
X003140Y004250D01*
X003140Y004385D01*
X003185Y004430D01*
X003320Y004430D01*
X003320Y004517D02*
X003320Y004607D01*
X003320Y004562D02*
X003140Y004562D01*
X003140Y004517D01*
X003050Y004562D02*
X003005Y004562D01*
X003140Y004695D02*
X003140Y004785D01*
X003095Y004740D02*
X003275Y004740D01*
X003320Y004785D01*
X003275Y004873D02*
X003320Y004918D01*
X003320Y005008D01*
X003275Y005053D01*
X003185Y005053D01*
X003140Y005008D01*
X003140Y004918D01*
X003185Y004873D01*
X003275Y004873D01*
X003320Y005140D02*
X003140Y005140D01*
X003230Y005140D02*
X003140Y005230D01*
X003140Y005275D01*
X003275Y005362D02*
X003275Y005407D01*
X003320Y005407D01*
X003320Y005362D01*
X003275Y005362D01*
X003275Y005496D02*
X003320Y005541D01*
X003320Y005631D01*
X003275Y005676D01*
X003185Y005676D01*
X003140Y005631D01*
X003140Y005541D01*
X003185Y005496D01*
X003275Y005496D01*
X003320Y005763D02*
X003140Y005763D01*
X003230Y005763D02*
X003140Y005853D01*
X003140Y005898D01*
X003185Y005986D02*
X003140Y006031D01*
X003140Y006166D01*
X003365Y006166D01*
X003410Y006121D01*
X003410Y006076D01*
X003320Y006031D02*
X003320Y006166D01*
X003310Y006290D02*
X003384Y006363D01*
X003384Y006510D01*
X003237Y006510D02*
X003237Y006363D01*
X003310Y006290D01*
X003163Y006327D02*
X003126Y006290D01*
X003052Y006290D01*
X003016Y006327D01*
X002942Y006327D02*
X002942Y006290D01*
X002905Y006290D01*
X002905Y006327D01*
X002942Y006327D01*
X002831Y006327D02*
X002794Y006290D01*
X002721Y006290D01*
X002684Y006327D01*
X002758Y006400D02*
X002794Y006400D01*
X002831Y006363D01*
X002831Y006327D01*
X002794Y006400D02*
X002831Y006437D01*
X002831Y006473D01*
X002794Y006510D01*
X002721Y006510D01*
X002684Y006473D01*
X003016Y006473D02*
X003052Y006510D01*
X003126Y006510D01*
X003163Y006473D01*
X003163Y006437D01*
X003126Y006400D01*
X003163Y006363D01*
X003163Y006327D01*
X003126Y006400D02*
X003089Y006400D01*
X003185Y005986D02*
X003275Y005986D01*
X003320Y006031D01*
X002389Y006290D02*
X002316Y006363D01*
X002352Y006363D02*
X002242Y006363D01*
X002242Y006290D02*
X002242Y006510D01*
X002352Y006510D01*
X002389Y006473D01*
X002389Y006400D01*
X002352Y006363D01*
X002168Y006290D02*
X002168Y006510D01*
X002095Y006363D02*
X002168Y006290D01*
X002095Y006363D02*
X002021Y006290D01*
X002021Y006510D01*
X001947Y006473D02*
X001947Y006400D01*
X001910Y006363D01*
X001800Y006363D01*
X001800Y006290D02*
X001800Y006510D01*
X001910Y006510D01*
X001947Y006473D01*
X001505Y006473D02*
X001505Y006400D01*
X001468Y006363D01*
X001358Y006363D01*
X001358Y006290D02*
X001358Y006510D01*
X001468Y006510D01*
X001505Y006473D01*
X001284Y006473D02*
X001247Y006510D01*
X001174Y006510D01*
X001137Y006473D01*
X001137Y006437D01*
X001174Y006400D01*
X001247Y006400D01*
X001284Y006363D01*
X001284Y006327D01*
X001247Y006290D01*
X001174Y006290D01*
X001137Y006327D01*
X001063Y006290D02*
X000990Y006290D01*
X001027Y006290D02*
X001027Y006510D01*
X001063Y006510D02*
X000990Y006510D01*
X002750Y004207D02*
X002885Y004207D01*
X002885Y004117D02*
X002750Y004117D01*
X002705Y004162D01*
X002750Y004207D01*
X002750Y004117D02*
X002705Y004072D01*
X002705Y004027D01*
X002885Y004027D01*
X002840Y003940D02*
X002750Y003940D01*
X002705Y003895D01*
X002705Y003805D01*
X002750Y003760D01*
X002840Y003760D01*
X002885Y003805D01*
X002885Y003895D01*
X002840Y003940D01*
X002885Y003673D02*
X002885Y003538D01*
X002840Y003493D01*
X002750Y003493D01*
X002705Y003538D01*
X002705Y003673D01*
X002840Y003405D02*
X002885Y003405D01*
X002885Y003360D01*
X002840Y003360D01*
X002840Y003405D01*
X002705Y003273D02*
X002885Y003183D01*
X002705Y003093D01*
X003140Y003449D02*
X003275Y003449D01*
X003320Y003227D02*
X003275Y003182D01*
X003185Y003182D01*
X003320Y003716D02*
X003050Y003716D01*
X001950Y003937D02*
X001905Y003937D01*
X001785Y003760D02*
X001785Y003670D01*
X001740Y003625D01*
X001740Y003538D02*
X001650Y003538D01*
X001605Y003493D01*
X001605Y003358D01*
X001515Y003358D02*
X001785Y003358D01*
X001785Y003493D01*
X001740Y003538D01*
X001740Y003271D02*
X001650Y003271D01*
X001605Y003226D01*
X001605Y003091D01*
X001875Y003091D01*
X001785Y003091D02*
X001785Y003226D01*
X001740Y003271D01*
X001740Y003004D02*
X001695Y002959D01*
X001695Y002869D01*
X001650Y002824D01*
X001605Y002869D01*
X001605Y003004D01*
X001740Y003004D02*
X001785Y002959D01*
X001785Y002824D01*
X001785Y002737D02*
X001785Y002602D01*
X001740Y002557D01*
X001695Y002602D01*
X001695Y002737D01*
X001650Y002737D02*
X001785Y002737D01*
X001650Y002737D02*
X001605Y002692D01*
X001605Y002602D01*
X001650Y002470D02*
X001695Y002425D01*
X001695Y002290D01*
X001785Y002290D02*
X001515Y002290D01*
X001515Y002425D01*
X001560Y002470D01*
X001650Y002470D01*
X001695Y002380D02*
X001785Y002470D01*
X002085Y002380D02*
X002085Y002290D01*
X002570Y001892D02*
X002615Y001892D01*
X002705Y001624D02*
X002885Y001624D01*
X003050Y002158D02*
X003320Y002158D01*
X003185Y002158D02*
X003185Y002248D01*
X003050Y002338D02*
X003050Y002158D01*
X001350Y002824D02*
X001080Y002824D01*
X001215Y002647D02*
X001215Y002557D01*
X001170Y003091D02*
X001080Y003181D01*
X004640Y006850D02*
X004640Y006997D01*
X004713Y007070D01*
X004787Y006997D01*
X004787Y006850D01*
X004787Y006960D02*
X004640Y006960D01*
X004861Y007070D02*
X005008Y007070D01*
X004934Y007070D02*
X004934Y006850D01*
X005082Y006850D02*
X005082Y007070D01*
X005155Y006997D01*
X005229Y007070D01*
X005229Y006850D01*
X005303Y006850D02*
X005450Y006850D01*
X005524Y006887D02*
X005561Y006850D01*
X005634Y006850D01*
X005671Y006887D01*
X005671Y006960D01*
X005597Y006960D01*
X005524Y007033D02*
X005524Y006887D01*
X005524Y007033D02*
X005561Y007070D01*
X005634Y007070D01*
X005671Y007033D01*
X005745Y006997D02*
X005818Y007070D01*
X005892Y006997D01*
X005892Y006850D01*
X005966Y006887D02*
X006003Y006850D01*
X006076Y006850D01*
X006113Y006887D01*
X006113Y006923D01*
X006076Y006960D01*
X006039Y006960D01*
X006076Y006960D02*
X006113Y006997D01*
X006113Y007033D01*
X006076Y007070D01*
X006003Y007070D01*
X005966Y007033D01*
X005892Y006960D02*
X005745Y006960D01*
X005745Y006997D02*
X005745Y006850D01*
X005450Y007070D02*
X005303Y007070D01*
X005303Y006850D01*
X005303Y006960D02*
X005376Y006960D01*
X006187Y007033D02*
X006224Y007070D01*
X006297Y007070D01*
X006334Y007033D01*
X006334Y006997D01*
X006187Y006850D01*
X006334Y006850D01*
X006408Y006887D02*
X006408Y006923D01*
X006445Y006960D01*
X006518Y006960D01*
X006555Y006923D01*
X006555Y006887D01*
X006518Y006850D01*
X006445Y006850D01*
X006408Y006887D01*
X006445Y006960D02*
X006408Y006997D01*
X006408Y007033D01*
X006445Y007070D01*
X006518Y007070D01*
X006555Y007033D01*
X006555Y006997D01*
X006518Y006960D01*
X007300Y007677D02*
X007337Y007640D01*
X007483Y007640D01*
X007520Y007677D01*
X007520Y007750D01*
X007483Y007787D01*
X007410Y007861D02*
X007410Y008008D01*
X007520Y007971D02*
X007300Y007971D01*
X007410Y007861D01*
X007337Y007787D02*
X007300Y007750D01*
X007300Y007677D01*
X007427Y009048D02*
X007573Y009048D01*
X007610Y009085D01*
X007610Y009158D01*
X007573Y009195D01*
X007573Y009269D02*
X007610Y009306D01*
X007610Y009379D01*
X007573Y009416D01*
X007500Y009416D01*
X007463Y009379D01*
X007463Y009342D01*
X007500Y009269D01*
X007390Y009269D01*
X007390Y009416D01*
X007427Y009195D02*
X007390Y009158D01*
X007390Y009085D01*
X007427Y009048D01*
X007487Y009998D02*
X007487Y010108D01*
X007450Y010145D01*
X007377Y010145D01*
X007340Y010108D01*
X007340Y009998D01*
X007560Y009998D01*
X007487Y010071D02*
X007560Y010145D01*
X007560Y010219D02*
X007560Y010366D01*
X007560Y010292D02*
X007340Y010292D01*
X007413Y010219D01*
X007387Y010890D02*
X007533Y010890D01*
X007570Y010927D01*
X007570Y011000D01*
X007533Y011037D01*
X007533Y011111D02*
X007570Y011111D01*
X007533Y011111D02*
X007387Y011258D01*
X007350Y011258D01*
X007350Y011111D01*
X007387Y011037D02*
X007350Y011000D01*
X007350Y010927D01*
X007387Y010890D01*
X007382Y012290D02*
X007455Y012290D01*
X007419Y012290D02*
X007419Y012510D01*
X007455Y012510D02*
X007382Y012510D01*
X007308Y012473D02*
X007308Y012400D01*
X007271Y012363D01*
X007161Y012363D01*
X007161Y012290D02*
X007161Y012510D01*
X007271Y012510D01*
X007308Y012473D01*
X007087Y012473D02*
X007050Y012510D01*
X006977Y012510D01*
X006940Y012473D01*
X006940Y012327D01*
X006977Y012290D01*
X007050Y012290D01*
X007087Y012327D01*
X007087Y012400D01*
X007013Y012400D01*
X007529Y012327D02*
X007566Y012290D01*
X007639Y012290D01*
X007676Y012327D01*
X007676Y012473D01*
X007639Y012510D01*
X007566Y012510D01*
X007529Y012473D01*
X007529Y012327D01*
X007971Y012363D02*
X008081Y012363D01*
X008118Y012400D01*
X008118Y012473D01*
X008081Y012510D01*
X007971Y012510D01*
X007971Y012290D01*
X008192Y012290D02*
X008266Y012290D01*
X008229Y012290D02*
X008229Y012437D01*
X008192Y012437D01*
X008229Y012510D02*
X008229Y012547D01*
X008340Y012437D02*
X008450Y012437D01*
X008486Y012400D01*
X008486Y012290D01*
X008340Y012290D02*
X008340Y012437D01*
X008782Y012437D02*
X008855Y012510D01*
X008855Y012290D01*
X008782Y012290D02*
X008928Y012290D01*
X003808Y011650D02*
X003721Y011607D01*
X003635Y011520D01*
X003765Y011520D01*
X003808Y011477D01*
X003808Y011433D01*
X003765Y011390D01*
X003678Y011390D01*
X003635Y011433D01*
X003635Y011520D01*
X003549Y011433D02*
X003549Y011390D01*
X003506Y011390D01*
X003506Y011433D01*
X003549Y011433D01*
X003421Y011390D02*
X003248Y011390D01*
X003421Y011563D01*
X003421Y011607D01*
X003378Y011650D01*
X003291Y011650D01*
X003248Y011607D01*
X003163Y011650D02*
X003163Y011477D01*
X003077Y011390D01*
X002990Y011477D01*
X002990Y011650D01*
X002416Y012200D02*
X002269Y012200D01*
X002416Y012347D01*
X002416Y012383D01*
X002379Y012420D01*
X002306Y012420D01*
X002269Y012383D01*
X002195Y012383D02*
X002195Y012310D01*
X002158Y012273D01*
X002048Y012273D01*
X002048Y012200D02*
X002048Y012420D01*
X002158Y012420D01*
X002195Y012383D01*
X002121Y012273D02*
X002195Y012200D01*
X001433Y011070D02*
X001280Y011070D01*
X001280Y010840D01*
X001203Y010840D02*
X001126Y010917D01*
X001165Y010917D02*
X001049Y010917D01*
X001049Y010840D02*
X001049Y011070D01*
X001165Y011070D01*
X001203Y011032D01*
X001203Y010955D01*
X001165Y010917D01*
X001280Y010955D02*
X001356Y010955D01*
X001126Y010695D02*
X001203Y010618D01*
X001203Y010465D01*
X001280Y010503D02*
X001318Y010465D01*
X001433Y010465D01*
X001548Y010503D02*
X001587Y010465D01*
X001548Y010503D02*
X001548Y010657D01*
X001510Y010618D02*
X001587Y010618D01*
X001433Y010618D02*
X001318Y010618D01*
X001280Y010580D01*
X001280Y010503D01*
X001203Y010580D02*
X001049Y010580D01*
X001049Y010618D02*
X001126Y010695D01*
X001049Y010618D02*
X001049Y010465D01*
X001049Y010320D02*
X001049Y010090D01*
X001203Y010090D01*
X001280Y010090D02*
X001433Y010090D01*
X001510Y010090D02*
X001625Y010090D01*
X001663Y010128D01*
X001663Y010282D01*
X001625Y010320D01*
X001510Y010320D01*
X001510Y010090D01*
X001356Y010205D02*
X001280Y010205D01*
X001280Y010320D02*
X001280Y010090D01*
X001280Y010320D02*
X001433Y010320D01*
X001701Y010070D02*
X001774Y010070D01*
X001737Y010070D02*
X001737Y009850D01*
X001701Y009850D02*
X001774Y009850D01*
X001848Y009887D02*
X001885Y009850D01*
X001958Y009850D01*
X001995Y009887D01*
X001995Y009923D01*
X001958Y009960D01*
X001885Y009960D01*
X001848Y009997D01*
X001848Y010033D01*
X001885Y010070D01*
X001958Y010070D01*
X001995Y010033D01*
X002069Y010070D02*
X002069Y009850D01*
X002069Y009923D02*
X002179Y009923D01*
X002216Y009960D01*
X002216Y010033D01*
X002179Y010070D01*
X002069Y010070D01*
D11*
X002151Y010642D02*
X002309Y010642D01*
X002309Y010918D02*
X002151Y010918D01*
X003050Y011800D02*
X003050Y012300D01*
X003300Y012300D01*
X003384Y012217D01*
X003384Y012050D01*
X003300Y011967D01*
X003050Y011967D01*
X003217Y011967D02*
X003384Y011800D01*
X003547Y011800D02*
X003547Y012300D01*
X003881Y012300D01*
X004044Y012300D02*
X004211Y012134D01*
X004378Y012300D01*
X004378Y011800D01*
X004542Y011800D02*
X004875Y011800D01*
X005039Y011800D02*
X005373Y012134D01*
X005373Y012217D01*
X005289Y012300D01*
X005122Y012300D01*
X005039Y012217D01*
X004708Y012300D02*
X004708Y011800D01*
X005039Y011800D02*
X005373Y011800D01*
X005536Y011800D02*
X005536Y012300D01*
X005786Y012300D01*
X005870Y012217D01*
X005870Y012050D01*
X005786Y011967D01*
X005536Y011967D01*
X006033Y012134D02*
X006117Y012134D01*
X006117Y011800D01*
X006200Y011800D02*
X006033Y011800D01*
X006117Y012300D02*
X006117Y012384D01*
X004708Y012300D02*
X004542Y012134D01*
X004044Y012300D02*
X004044Y011800D01*
X003714Y012050D02*
X003547Y012050D01*
D12*
X004277Y006536D02*
X010183Y006536D01*
X010805Y003005D02*
X010955Y002855D01*
X010955Y002555D01*
X011115Y002555D02*
X011115Y003005D01*
X011416Y002555D01*
X011416Y003005D01*
X011576Y003005D02*
X011876Y003005D01*
X011726Y003005D02*
X011726Y002555D01*
X012036Y002555D02*
X012336Y002555D01*
X012186Y002555D02*
X012186Y003005D01*
X012036Y002855D01*
X010955Y002780D02*
X010655Y002780D01*
X010655Y002855D02*
X010805Y003005D01*
X010655Y002855D02*
X010655Y002555D01*
X010183Y001024D02*
X004277Y001024D01*
X004980Y003280D02*
X004974Y003222D01*
X004971Y003164D01*
X004972Y003106D01*
X004978Y003048D01*
X004986Y002990D01*
X004999Y002933D01*
X005016Y002878D01*
X005036Y002823D01*
X005059Y002770D01*
X005086Y002718D01*
X005117Y002669D01*
X005151Y002621D01*
X005187Y002576D01*
X005227Y002533D01*
X005269Y002493D01*
X005314Y002456D01*
X005361Y002422D01*
X005410Y002391D01*
X005462Y002363D01*
X005515Y002339D01*
X005569Y002319D01*
X005625Y002302D01*
X005681Y002288D01*
X005739Y002279D01*
X005797Y002273D01*
X005855Y002271D01*
X005913Y002273D01*
X005971Y002279D01*
X006029Y002288D01*
X006085Y002302D01*
X006141Y002319D01*
X006195Y002339D01*
X006248Y002363D01*
X006300Y002391D01*
X006349Y002422D01*
X006396Y002456D01*
X006441Y002493D01*
X006483Y002533D01*
X006523Y002576D01*
X006559Y002621D01*
X006593Y002669D01*
X006624Y002718D01*
X006651Y002770D01*
X006674Y002823D01*
X006694Y002878D01*
X006711Y002933D01*
X006724Y002990D01*
X006732Y003048D01*
X006738Y003106D01*
X006739Y003164D01*
X006736Y003222D01*
X006730Y003280D01*
X006730Y005280D01*
X006728Y005338D01*
X006722Y005397D01*
X006712Y005454D01*
X006699Y005511D01*
X006682Y005567D01*
X006661Y005622D01*
X006636Y005675D01*
X006608Y005726D01*
X006576Y005775D01*
X006542Y005822D01*
X006504Y005867D01*
X006463Y005909D01*
X006420Y005948D01*
X006374Y005984D01*
X006326Y006018D01*
X006276Y006047D01*
X006223Y006074D01*
X006169Y006097D01*
X006114Y006116D01*
X006058Y006131D01*
X006001Y006143D01*
X005943Y006151D01*
X005884Y006155D01*
X005826Y006155D01*
X005767Y006151D01*
X005709Y006143D01*
X005652Y006131D01*
X005596Y006116D01*
X005541Y006097D01*
X005487Y006074D01*
X005434Y006047D01*
X005384Y006018D01*
X005336Y005984D01*
X005290Y005948D01*
X005247Y005909D01*
X005206Y005867D01*
X005168Y005822D01*
X005134Y005775D01*
X005102Y005726D01*
X005074Y005675D01*
X005049Y005622D01*
X005028Y005567D01*
X005011Y005511D01*
X004998Y005454D01*
X004988Y005397D01*
X004982Y005338D01*
X004980Y005280D01*
X004980Y003280D01*
D13*
X008760Y003094D02*
X008760Y002867D01*
X008817Y002810D01*
X008930Y002810D01*
X008987Y002867D01*
X008987Y002980D01*
X008873Y002980D01*
X008760Y003094D02*
X008817Y003150D01*
X008930Y003150D01*
X008987Y003094D01*
X009128Y003150D02*
X009355Y002810D01*
X009355Y003150D01*
X009497Y003150D02*
X009667Y003150D01*
X009723Y003094D01*
X009723Y002867D01*
X009667Y002810D01*
X009497Y002810D01*
X009497Y003150D01*
X009128Y003150D02*
X009128Y002810D01*
X009185Y002400D02*
X009128Y002344D01*
X009128Y002117D01*
X009185Y002060D01*
X009298Y002060D01*
X009355Y002117D01*
X009497Y002117D02*
X009553Y002060D01*
X009667Y002060D01*
X009723Y002117D01*
X009497Y002117D02*
X009497Y002344D01*
X009553Y002400D01*
X009667Y002400D01*
X009723Y002344D01*
X009355Y002344D02*
X009298Y002400D01*
X009185Y002400D01*
X008987Y002400D02*
X008987Y002173D01*
X008873Y002060D01*
X008760Y002173D01*
X008760Y002400D01*
X008873Y001650D02*
X008987Y001537D01*
X008987Y001310D01*
X009128Y001310D02*
X009128Y001537D01*
X009298Y001537D01*
X009355Y001480D01*
X009355Y001310D01*
X009553Y001367D02*
X009553Y001594D01*
X009497Y001537D02*
X009610Y001537D01*
X009553Y001367D02*
X009610Y001310D01*
X009742Y001310D02*
X009742Y001367D01*
X009799Y001367D01*
X009799Y001310D01*
X009742Y001310D01*
X008987Y001480D02*
X008760Y001480D01*
X008760Y001537D02*
X008760Y001310D01*
X008760Y001537D02*
X008873Y001650D01*
X009280Y007280D02*
X011180Y007280D01*
X011210Y007282D01*
X011240Y007287D01*
X011269Y007296D01*
X011296Y007309D01*
X011322Y007324D01*
X011346Y007343D01*
X011367Y007364D01*
X011386Y007388D01*
X011401Y007414D01*
X011414Y007441D01*
X011423Y007470D01*
X011428Y007500D01*
X011430Y007530D01*
X011430Y012030D01*
X011428Y012060D01*
X011423Y012090D01*
X011414Y012119D01*
X011401Y012146D01*
X011386Y012172D01*
X011367Y012196D01*
X011346Y012217D01*
X011322Y012236D01*
X011296Y012251D01*
X011269Y012264D01*
X011240Y012273D01*
X011210Y012278D01*
X011180Y012280D01*
X009280Y012280D01*
X009250Y012278D01*
X009220Y012273D01*
X009191Y012264D01*
X009164Y012251D01*
X009138Y012236D01*
X009114Y012217D01*
X009093Y012196D01*
X009074Y012172D01*
X009059Y012146D01*
X009046Y012119D01*
X009037Y012090D01*
X009032Y012060D01*
X009030Y012030D01*
X009030Y007530D01*
X009032Y007500D01*
X009037Y007470D01*
X009046Y007441D01*
X009059Y007414D01*
X009074Y007388D01*
X009093Y007364D01*
X009114Y007343D01*
X009138Y007324D01*
X009164Y007309D01*
X009191Y007296D01*
X009220Y007287D01*
X009250Y007282D01*
X009280Y007280D01*
X006610Y007900D02*
X006610Y010520D01*
X006470Y010660D01*
X003850Y010660D01*
X003850Y007900D01*
X006610Y007900D01*
X006169Y010360D02*
X006171Y010383D01*
X006177Y010406D01*
X006186Y010427D01*
X006199Y010447D01*
X006215Y010464D01*
X006233Y010478D01*
X006253Y010489D01*
X006275Y010497D01*
X006298Y010501D01*
X006322Y010501D01*
X006345Y010497D01*
X006367Y010489D01*
X006387Y010478D01*
X006405Y010464D01*
X006421Y010447D01*
X006434Y010427D01*
X006443Y010406D01*
X006449Y010383D01*
X006451Y010360D01*
X006449Y010337D01*
X006443Y010314D01*
X006434Y010293D01*
X006421Y010273D01*
X006405Y010256D01*
X006387Y010242D01*
X006367Y010231D01*
X006345Y010223D01*
X006322Y010219D01*
X006298Y010219D01*
X006275Y010223D01*
X006253Y010231D01*
X006233Y010242D01*
X006215Y010256D01*
X006199Y010273D01*
X006186Y010293D01*
X006177Y010314D01*
X006171Y010337D01*
X006169Y010360D01*
D14*
X003112Y007530D02*
X003112Y007030D01*
X002980Y007030D02*
X002980Y007530D01*
X002730Y007780D01*
X001230Y007780D01*
X000980Y008030D01*
X000980Y008530D01*
X001230Y008780D01*
X002730Y008780D01*
X002980Y009030D01*
X002980Y009530D01*
X002730Y009780D01*
X001230Y009780D01*
X000980Y009530D01*
X000980Y009030D01*
X001230Y008780D01*
X001230Y007780D02*
X000980Y007530D01*
X000980Y007030D01*
X001230Y006780D01*
X002730Y006780D01*
X002980Y007030D01*
X002730Y007780D02*
X002980Y008030D01*
X002980Y008530D01*
X002730Y008780D01*
X005370Y001840D02*
X005580Y001840D01*
X005650Y001770D01*
X005650Y001630D01*
X005580Y001560D01*
X005370Y001560D01*
X005370Y001420D02*
X005370Y001840D01*
X005510Y001560D02*
X005650Y001420D01*
X005830Y001420D02*
X005830Y001840D01*
X006111Y001840D01*
X006291Y001840D02*
X006431Y001700D01*
X006571Y001840D01*
X006571Y001420D01*
X006751Y001420D02*
X007031Y001420D01*
X006891Y001420D02*
X006891Y001840D01*
X006751Y001700D01*
X007212Y001770D02*
X007282Y001840D01*
X007422Y001840D01*
X007492Y001770D01*
X007492Y001700D01*
X007212Y001420D01*
X007492Y001420D01*
X007672Y001420D02*
X007882Y001420D01*
X007952Y001490D01*
X007952Y001560D01*
X007882Y001630D01*
X007672Y001630D01*
X007672Y001420D02*
X007672Y001840D01*
X007882Y001840D01*
X007952Y001770D01*
X007952Y001700D01*
X007882Y001630D01*
X006291Y001420D02*
X006291Y001840D01*
X005971Y001630D02*
X005830Y001630D01*
D15*
X002181Y010893D03*
M02*
