%
M48
M72
T01C0.0197
T02C0.0276
T03C0.0354
T04C0.0360
T05C0.0400
%
T01
X2150Y4350
X2425Y5910
X3200Y6900
X2300Y7200
X2425Y8350
X4410Y7715
X4825Y7225
X5175Y8125
X5800Y7550
X6150Y8050
X5800Y9225
X5225Y9175
X4475Y8400
X4875Y6025
X5412Y6012
X5870Y5795
X6200Y6125
X6930Y5655
X7100Y6350
X7065Y6800
X7500Y7425
X7500Y8175
X7850Y8475
X8292Y8617
X8325Y9350
X7950Y9725
X7510Y9450
X6870Y9965
X6975Y10450
X7125Y11850
X5215Y10770
X7925Y6525
X7870Y6030
X8725Y4475
X8325Y3675
X8655Y1325
X10900Y1300
X10350Y5250
X9875Y6500
X10375Y7470
X10375Y12305
X9325Y12565
X3900Y5700
X3975Y1850
X4000Y1325
T02
X4325Y11925
X6325Y11925
T03
X10300Y550
T04
X9825Y7850
X9825Y8850
X9825Y9850
X9825Y10850
X9825Y11850
X8825Y11850
X8825Y10850
X8825Y9850
X8825Y8850
X8825Y7850
T05
X825Y850
X825Y1850
X825Y2850
X825Y3850
X825Y4850
X825Y5850
X825Y6850
X825Y7850
X825Y8850
X825Y9850
X825Y10850
X825Y11850
X1825Y11850
X1825Y10850
X1825Y9850
X1825Y8850
X1825Y7850
X1825Y6850
X1825Y5850
X1825Y4850
X1825Y3850
X1825Y2850
X1825Y1850
X1825Y850
M30
