G75*
%MOIN*%
%OFA0B0*%
%FSLAX24Y24*%
%IPPOS*%
%LPD*%
%AMOC8*
5,1,8,0,0,1.08239X$1,22.5*
%
%ADD10R,0.1080X0.0580*%
%ADD11OC8,0.0710*%
%ADD12C,0.0640*%
%ADD13OC8,0.0640*%
%ADD14R,0.0395X0.0395*%
%ADD15R,0.0474X0.0513*%
%ADD16R,0.0513X0.0474*%
%ADD17R,0.0300X0.0580*%
%ADD18R,0.0580X0.0300*%
%ADD19C,0.0050*%
%ADD20OC8,0.0680*%
%ADD21C,0.0730*%
D10*
X003175Y000538D03*
X003175Y001325D03*
X003175Y002113D03*
X003175Y002900D03*
X003175Y003687D03*
X003175Y004475D03*
X003175Y005262D03*
X009475Y005262D03*
X009475Y004475D03*
X009475Y003687D03*
X009475Y002900D03*
X009475Y002113D03*
X009475Y001325D03*
X009475Y000538D03*
D11*
X010300Y000550D03*
D12*
X009825Y011850D03*
D13*
X009825Y010850D03*
X009825Y009850D03*
X009825Y008850D03*
X009825Y007850D03*
X008825Y007850D03*
X008825Y008850D03*
X008825Y009850D03*
X008825Y010850D03*
X008825Y011850D03*
D14*
X010675Y006820D03*
X010675Y006230D03*
D15*
X010210Y006100D03*
X009540Y006100D03*
X009010Y006100D03*
X008340Y006100D03*
X008340Y006900D03*
X009010Y006900D03*
X010675Y004235D03*
X010675Y003565D03*
X010500Y001985D03*
X010500Y001315D03*
X007450Y010040D03*
X007450Y010710D03*
D16*
X006510Y010750D03*
X005840Y010750D03*
X004185Y010750D03*
X003515Y010750D03*
X009540Y006900D03*
X010210Y006900D03*
D17*
X006402Y006635D03*
X006087Y006635D03*
X005772Y006635D03*
X005457Y006635D03*
X005143Y006635D03*
X004828Y006635D03*
X004513Y006635D03*
X004198Y006635D03*
X004198Y010015D03*
X004513Y010015D03*
X004828Y010015D03*
X005143Y010015D03*
X005457Y010015D03*
X005772Y010015D03*
X006087Y010015D03*
X006402Y010015D03*
D18*
X006990Y009427D03*
X006990Y009112D03*
X006990Y008797D03*
X006990Y008482D03*
X006990Y008168D03*
X006990Y007853D03*
X006990Y007538D03*
X006990Y007223D03*
X003610Y007223D03*
X003610Y007538D03*
X003610Y007853D03*
X003610Y008168D03*
X003610Y008482D03*
X003610Y008797D03*
X003610Y009112D03*
X003610Y009427D03*
D19*
X002860Y011480D02*
X002922Y011509D01*
X002978Y011548D01*
X003027Y011597D01*
X003066Y011653D01*
X003095Y011715D01*
X003113Y011782D01*
X003119Y011850D01*
X003113Y011918D01*
X003095Y011985D01*
X003066Y012047D01*
X003027Y012103D01*
X002978Y012152D01*
X002922Y012191D01*
X002860Y012220D01*
X002793Y012238D01*
X002725Y012244D01*
X002657Y012238D01*
X002590Y012220D01*
X002528Y012191D01*
X002472Y012152D01*
X002423Y012103D01*
X002384Y012047D01*
X002355Y011985D01*
X002337Y011918D01*
X002331Y011850D01*
X002337Y011782D01*
X002355Y011715D01*
X002384Y011653D01*
X002423Y011597D01*
X002472Y011548D01*
X002528Y011509D01*
X002590Y011480D01*
X002657Y011462D01*
X002725Y011456D01*
X002793Y011462D01*
X002860Y011480D01*
X002900Y011499D02*
X002550Y011499D01*
X002473Y011548D02*
X002977Y011548D01*
X003026Y011596D02*
X002424Y011596D01*
X002390Y011645D02*
X003060Y011645D01*
X003085Y011693D02*
X002365Y011693D01*
X002348Y011742D02*
X003102Y011742D01*
X003113Y011790D02*
X002337Y011790D01*
X002332Y011839D02*
X003118Y011839D01*
X003115Y011887D02*
X002335Y011887D01*
X002342Y011936D02*
X003108Y011936D01*
X003095Y011984D02*
X002355Y011984D01*
X002377Y012033D02*
X003073Y012033D01*
X003042Y012081D02*
X002408Y012081D01*
X002450Y012130D02*
X003000Y012130D01*
X002940Y012178D02*
X002510Y012178D01*
X002615Y012227D02*
X002835Y012227D01*
X007090Y001650D02*
X007028Y001621D01*
X006972Y001582D01*
X006923Y001533D01*
X006884Y001477D01*
X006855Y001415D01*
X006837Y001348D01*
X006831Y001280D01*
X006837Y001212D01*
X006855Y001145D01*
X006884Y001083D01*
X006923Y001027D01*
X006972Y000978D01*
X007028Y000939D01*
X007090Y000910D01*
X007157Y000892D01*
X007225Y000886D01*
X007293Y000892D01*
X007360Y000910D01*
X007422Y000939D01*
X007478Y000978D01*
X007527Y001027D01*
X007566Y001083D01*
X007595Y001145D01*
X007613Y001212D01*
X007619Y001280D01*
X007613Y001348D01*
X007595Y001415D01*
X007566Y001477D01*
X007527Y001533D01*
X007478Y001582D01*
X007422Y001621D01*
X007360Y001650D01*
X007293Y001668D01*
X007225Y001674D01*
X007157Y001668D01*
X007090Y001650D01*
X007104Y001654D02*
X007346Y001654D01*
X007445Y001605D02*
X007005Y001605D01*
X006947Y001557D02*
X007503Y001557D01*
X007544Y001508D02*
X006906Y001508D01*
X006876Y001460D02*
X007574Y001460D01*
X007596Y001411D02*
X006854Y001411D01*
X006841Y001363D02*
X007609Y001363D01*
X007616Y001314D02*
X006834Y001314D01*
X006833Y001266D02*
X007617Y001266D01*
X007613Y001217D02*
X006837Y001217D01*
X006849Y001169D02*
X007601Y001169D01*
X007583Y001120D02*
X006867Y001120D01*
X006892Y001072D02*
X007558Y001072D01*
X007523Y001023D02*
X006927Y001023D01*
X006978Y000975D02*
X007472Y000975D01*
X007394Y000926D02*
X007056Y000926D01*
D20*
X000825Y000850D03*
X000825Y001850D03*
X000825Y002850D03*
X000825Y003850D03*
X000825Y004850D03*
X000825Y005850D03*
X000825Y006850D03*
X000825Y007850D03*
X000825Y008850D03*
X000825Y009850D03*
X000825Y010850D03*
X000825Y011850D03*
X001825Y011850D03*
X001825Y010850D03*
X001825Y009850D03*
X001825Y008850D03*
X001825Y007850D03*
X001825Y006850D03*
X001825Y005850D03*
X001825Y004850D03*
X001825Y003850D03*
X001825Y002850D03*
X001825Y001850D03*
X001825Y000850D03*
D21*
X004325Y011925D03*
X006325Y011925D03*
M02*
