M48
;DRILL file {kicad (2014-jul-16 BZR unknown)-product} date Tue 28 Oct 2014 21:03:29 GMT
;FORMAT={-:-/ absolute / inch / decimal}
FMAT,2
INCH,TZ
T1C0.020
T2C0.025
T3C0.040
%
G90
G05
M72
T1
X5.4985Y-4.2804
X5.5485Y-3.9104
X5.5535Y-3.7604
X5.6385Y-4.1504
X5.6682Y-4.2512
X5.7635Y-4.6904
X5.8085Y-3.9204
X5.85Y-3.95
X5.9585Y-4.3104
X6.0185Y-4.2004
X6.0285Y-3.7654
X6.0885Y-4.1154
X6.1285Y-3.7204
X6.1385Y-3.8104
X6.1585Y-3.9104
X6.1885Y-4.1804
X6.2485Y-4.1804
X6.3285Y-3.8404
X6.3285Y-4.2504
X6.3385Y-3.7404
X6.3535Y-3.9854
X6.3835Y-3.7183
X6.3885Y-3.8304
X6.3885Y-4.1754
X6.4535Y-4.1954
T2
X6.6Y-4.8
T3
X5.6Y-4.35
X5.6Y-4.45
X5.6Y-4.55
X5.7Y-4.35
X5.7Y-4.45
X5.7Y-4.55
X6.475Y-3.725
X6.475Y-3.825
X6.475Y-3.925
X6.475Y-4.025
X6.475Y-4.125
X6.575Y-3.725
X6.575Y-3.825
X6.575Y-3.925
X6.575Y-4.025
X6.575Y-4.125
T0
M30
