%FSLAX46Y46*%
G04 Gerber Fmt 4.6, Leading zero omitted, Abs format (unit mm)*
G04 Created by KiCad (PCBNEW (2014-jul-16 BZR unknown)-product) date Wed 29 Oct 2014 15:34:50 GMT*
%MOMM*%
G01*
G04 APERTURE LIST*
%ADD10C,0.100000*%
%ADD11R,1.998980X1.399540*%
%ADD12R,0.635000X1.143000*%
%ADD13R,0.797560X0.797560*%
%ADD14R,0.449580X1.998980*%
%ADD15R,1.998980X0.449580*%
%ADD16R,0.248920X0.599440*%
%ADD17R,0.599440X0.248920*%
%ADD18R,3.299460X3.299460*%
%ADD19R,1.727200X1.727200*%
%ADD20O,1.727200X1.727200*%
%ADD21R,0.900000X0.500000*%
%ADD22R,0.500000X0.900000*%
%ADD23C,1.143000*%
%ADD24C,0.906400*%
%ADD25C,0.203200*%
%ADD26C,0.254000*%
G04 APERTURE END LIST*
D10*
D11*
X148894800Y-109618780D03*
X148866860Y-111620300D03*
X148866860Y-113619280D03*
X148866860Y-115570000D03*
X148866860Y-117520720D03*
X148866860Y-119519700D03*
X148866860Y-121521220D03*
X164767260Y-121521220D03*
X164767260Y-119519700D03*
X164767260Y-117520720D03*
X164767260Y-115570000D03*
X164767260Y-113619280D03*
X164767260Y-111620300D03*
X164767260Y-109618780D03*
D12*
X159512000Y-98425000D03*
X157988000Y-98425000D03*
X157988000Y-100330000D03*
X159512000Y-100330000D03*
X157950000Y-102372000D03*
X159474000Y-102372000D03*
X157988000Y-94615000D03*
X159512000Y-94615000D03*
D13*
X140970000Y-100850700D03*
X140970000Y-102349300D03*
D14*
X145813780Y-95514160D03*
X146613880Y-95514160D03*
X147413980Y-95514160D03*
X148214080Y-95514160D03*
X149014180Y-95514160D03*
X149814280Y-95514160D03*
X150614380Y-95514160D03*
X151414480Y-95514160D03*
X151409400Y-105079800D03*
X145796000Y-105079800D03*
X146608800Y-105079800D03*
X147421600Y-105079800D03*
X148209000Y-105079800D03*
X149021800Y-105079800D03*
X149809200Y-105079800D03*
X150622000Y-105079800D03*
D15*
X153416000Y-97505520D03*
X153416000Y-98303080D03*
X153416000Y-99105720D03*
X153416000Y-99903280D03*
X153416000Y-100705920D03*
X153416000Y-101503480D03*
X153416000Y-102306120D03*
X153416000Y-103103680D03*
X143814800Y-97510600D03*
X143814800Y-98298000D03*
X143814800Y-99110800D03*
X143814800Y-99898200D03*
X143814800Y-100685600D03*
X143814800Y-101498400D03*
X143814800Y-102311200D03*
X143814800Y-103124000D03*
D16*
X150337520Y-97932240D03*
X149837140Y-97932240D03*
X149336760Y-97932240D03*
X148836380Y-97932240D03*
X148338540Y-97932240D03*
X147838160Y-97932240D03*
X147337780Y-97932240D03*
X146837400Y-97932240D03*
D17*
X146187160Y-100578920D03*
X146187160Y-101076760D03*
X146187160Y-101577140D03*
X146187160Y-102077520D03*
D18*
X148590000Y-100330000D03*
D17*
X146187160Y-98579940D03*
X146187160Y-99080320D03*
X146187160Y-99580700D03*
X146187160Y-100078540D03*
D16*
X146842480Y-102727760D03*
X147342860Y-102730300D03*
X147840700Y-102730300D03*
X148341080Y-102730300D03*
X148841460Y-102730300D03*
X149341840Y-102730300D03*
X149842220Y-102730300D03*
X150342600Y-102730300D03*
D17*
X150990300Y-102080060D03*
X150990300Y-101579680D03*
X150990300Y-101079300D03*
X150990300Y-100581460D03*
X150990300Y-100081080D03*
X150990300Y-99580700D03*
X150990300Y-99080320D03*
X150990300Y-98579940D03*
D19*
X167005000Y-94615000D03*
D20*
X164465000Y-94615000D03*
X167005000Y-97155000D03*
X164465000Y-97155000D03*
X167005000Y-99695000D03*
X164465000Y-99695000D03*
X167005000Y-102235000D03*
X164465000Y-102235000D03*
X167005000Y-104775000D03*
X164465000Y-104775000D03*
D21*
X140970000Y-104025000D03*
X140970000Y-105525000D03*
D22*
X157962000Y-104404000D03*
X159462000Y-104404000D03*
X158000000Y-96520000D03*
X159500000Y-96520000D03*
D19*
X144780000Y-115570000D03*
D20*
X142240000Y-115570000D03*
X144780000Y-113030000D03*
X142240000Y-113030000D03*
X144780000Y-110490000D03*
X142240000Y-110490000D03*
D23*
X167640000Y-121920000D03*
D24*
X153124000Y-95641000D03*
X160744000Y-97546000D03*
X163919000Y-106563000D03*
X146393000Y-119136000D03*
X162268000Y-106055000D03*
X154648000Y-104531000D03*
X141059000Y-95514000D03*
X147536000Y-99578000D03*
X148590000Y-100330000D03*
X152870000Y-106690000D03*
X161379000Y-101229000D03*
X162141000Y-94445909D03*
X140932000Y-99324000D03*
X155664000Y-94498000D03*
X158712000Y-106182000D03*
X143972528Y-107981420D03*
X155918000Y-96784000D03*
X151346000Y-109484000D03*
X160998000Y-95006000D03*
X162268000Y-97292000D03*
X156426000Y-99324000D03*
X157188000Y-106182000D03*
X160744000Y-107960000D03*
X143218000Y-105420000D03*
X139662000Y-108722000D03*
D25*
X160744000Y-97546000D02*
X160617000Y-97419000D01*
D26*
X159512000Y-98425000D02*
X160655000Y-98425000D01*
X160655000Y-98425000D02*
X164465000Y-102235000D01*
X151858920Y-100081080D02*
X152036720Y-99903280D01*
X152036720Y-99903280D02*
X153416000Y-99903280D01*
X150990300Y-100081080D02*
X151858920Y-100081080D01*
X154873611Y-100107401D02*
X154669490Y-99903280D01*
X154669490Y-99903280D02*
X153416000Y-99903280D01*
X158000000Y-97224000D02*
X157209401Y-98014599D01*
X156802033Y-100107401D02*
X154873611Y-100107401D01*
X158000000Y-96520000D02*
X158000000Y-97224000D01*
X157209401Y-99700033D02*
X156802033Y-100107401D01*
X157209401Y-98014599D02*
X157209401Y-99700033D01*
X157988000Y-98425000D02*
X157988000Y-96532000D01*
X157988000Y-96532000D02*
X158000000Y-96520000D01*
D25*
X147342860Y-102730300D02*
X147342860Y-103200140D01*
X146608800Y-103934200D02*
X146608800Y-105079800D01*
X147342860Y-103200140D02*
X146608800Y-103934200D01*
D26*
X148836380Y-97932240D02*
X148836380Y-96955450D01*
X148836380Y-96955450D02*
X149014180Y-96777650D01*
X149014180Y-96777650D02*
X149014180Y-95514160D01*
X147838160Y-97340160D02*
X147413980Y-96915980D01*
X147413980Y-96915980D02*
X147413980Y-95514160D01*
X147838160Y-97932240D02*
X147838160Y-97340160D01*
X149014180Y-95514160D02*
X149014180Y-96321820D01*
X164767260Y-119519700D02*
X166020750Y-119519700D01*
X166020750Y-119519700D02*
X168249601Y-117290849D01*
X168249601Y-117290849D02*
X168249601Y-93446599D01*
X168249601Y-93446599D02*
X168173401Y-93370399D01*
X168173401Y-93370399D02*
X165709601Y-93370399D01*
X165328599Y-93751401D02*
X164465000Y-94615000D01*
X165709601Y-93370399D02*
X165328599Y-93751401D01*
X142240000Y-115570000D02*
X143103599Y-116433599D01*
X143103599Y-116433599D02*
X143103599Y-118143021D01*
X143103599Y-118143021D02*
X147562569Y-122601991D01*
X163513770Y-119519700D02*
X164767260Y-119519700D01*
X147562569Y-122601991D02*
X160431479Y-122601991D01*
X160431479Y-122601991D02*
X163513770Y-119519700D01*
X147981510Y-107706000D02*
X154156000Y-107706000D01*
X154156000Y-107706000D02*
X157458000Y-104404000D01*
X157458000Y-104404000D02*
X157962000Y-104404000D01*
X146608800Y-105079800D02*
X146608800Y-106333290D01*
X146608800Y-106333290D02*
X147981510Y-107706000D01*
X157988000Y-100330000D02*
X157988000Y-100076000D01*
X157988000Y-100076000D02*
X158813499Y-99250501D01*
X158813499Y-99250501D02*
X158813499Y-97406501D01*
X158813499Y-97406501D02*
X159500000Y-96720000D01*
X159500000Y-96720000D02*
X159500000Y-96520000D01*
X147540981Y-94133669D02*
X148128777Y-94133669D01*
X148128777Y-94133669D02*
X148887179Y-94133669D01*
X164465000Y-94615000D02*
X163512499Y-93662499D01*
X163512499Y-93662499D02*
X148599947Y-93662499D01*
X148599947Y-93662499D02*
X148128777Y-94133669D01*
X147413980Y-95514160D02*
X147413980Y-94260670D01*
X147413980Y-94260670D02*
X147540981Y-94133669D01*
X148887179Y-94133669D02*
X149014180Y-94260670D01*
X149014180Y-94260670D02*
X149014180Y-95514160D01*
X157962000Y-104404000D02*
X157962000Y-102384000D01*
X157962000Y-102384000D02*
X157950000Y-102372000D01*
X157950000Y-102372000D02*
X157950000Y-100368000D01*
X157950000Y-100368000D02*
X157988000Y-100330000D01*
X163167000Y-94615000D02*
X161262000Y-96520000D01*
X161262000Y-96520000D02*
X159500000Y-96520000D01*
X164465000Y-94615000D02*
X163167000Y-94615000D01*
D10*
X146608800Y-105079800D02*
X146608800Y-104305100D01*
D25*
X147536000Y-99578000D02*
X148288000Y-100330000D01*
X148288000Y-100330000D02*
X148590000Y-100330000D01*
D26*
X148866860Y-121521220D02*
X160467040Y-121521220D01*
X164467540Y-117520720D02*
X164767260Y-117520720D01*
X160467040Y-121521220D02*
X164467540Y-117520720D01*
X164767260Y-117520720D02*
X166020750Y-117520720D01*
X148338540Y-97078540D02*
X148214080Y-96954080D01*
X148214080Y-96954080D02*
X148214080Y-95514160D01*
X148338540Y-97932240D02*
X148338540Y-97078540D01*
X149814280Y-95514160D02*
X149814280Y-96624142D01*
X149814280Y-96624142D02*
X149341841Y-97096581D01*
X149341841Y-97096581D02*
X149341841Y-97327719D01*
X149341841Y-97327719D02*
X149341841Y-97932240D01*
X148841460Y-102730300D02*
X148841460Y-102309931D01*
X149021800Y-104111800D02*
X148841460Y-103931460D01*
X148841460Y-103931460D02*
X148841460Y-102730300D01*
X149021800Y-105079800D02*
X149021800Y-104111800D01*
X166840000Y-116701470D02*
X166840000Y-107150000D01*
X166840000Y-107150000D02*
X164465000Y-104775000D01*
X166020750Y-117520720D02*
X166840000Y-116701470D01*
X149021800Y-105079800D02*
X149021800Y-106333290D01*
X149021800Y-106333290D02*
X149378510Y-106690000D01*
X149378510Y-106690000D02*
X152870000Y-106690000D01*
X159512000Y-100330000D02*
X159512000Y-102334000D01*
X159512000Y-102334000D02*
X159474000Y-102372000D01*
X159474000Y-102372000D02*
X162062000Y-102372000D01*
X162062000Y-102372000D02*
X164465000Y-104775000D01*
D25*
X149336760Y-99583240D02*
X148590000Y-100330000D01*
X149336760Y-97932240D02*
X149336760Y-99583240D01*
X148338540Y-100078540D02*
X148590000Y-100330000D01*
X148338540Y-97932240D02*
X148338540Y-100078540D01*
X148841460Y-100581460D02*
X148590000Y-100330000D01*
X148841460Y-102730300D02*
X148841460Y-100581460D01*
D26*
X140970000Y-105525000D02*
X140970000Y-109220000D01*
X140970000Y-109220000D02*
X142240000Y-110490000D01*
D25*
X160157000Y-101229000D02*
X161379000Y-101229000D01*
X159512000Y-100584000D02*
X160157000Y-101229000D01*
X159512000Y-100330000D02*
X159512000Y-100584000D01*
X161943090Y-94247999D02*
X162141000Y-94445909D01*
X160399701Y-94247999D02*
X161943090Y-94247999D01*
X160032700Y-94615000D02*
X160399701Y-94247999D01*
X159512000Y-94615000D02*
X160032700Y-94615000D01*
D26*
X143814800Y-101498400D02*
X145065588Y-101498400D01*
X145065588Y-101498400D02*
X145487228Y-101076760D01*
X145487228Y-101076760D02*
X145633440Y-101076760D01*
X145633440Y-101076760D02*
X146187160Y-101076760D01*
X140561848Y-99694152D02*
X140678000Y-99578000D01*
X139916000Y-100340000D02*
X140561848Y-99694152D01*
X140561848Y-99694152D02*
X140932000Y-99324000D01*
X139916000Y-101102000D02*
X139916000Y-100340000D01*
X140393681Y-101579681D02*
X139916000Y-101102000D01*
X143814800Y-101498400D02*
X142561310Y-101498400D01*
X142480029Y-101579681D02*
X140393681Y-101579681D01*
X142561310Y-101498400D02*
X142480029Y-101579681D01*
X157988000Y-94615000D02*
X155781000Y-94615000D01*
X155781000Y-94615000D02*
X155664000Y-94498000D01*
D25*
X159462000Y-104404000D02*
X159462000Y-105432000D01*
X159462000Y-105432000D02*
X158712000Y-106182000D01*
X164767260Y-109618780D02*
X164467540Y-109618780D01*
X164467540Y-109618780D02*
X159462000Y-104613240D01*
X159462000Y-104613240D02*
X159462000Y-104404000D01*
D26*
X143814800Y-100685600D02*
X143921480Y-100578920D01*
X143921480Y-100578920D02*
X146187160Y-100578920D01*
X143814800Y-100685600D02*
X142561310Y-100685600D01*
X142561310Y-100685600D02*
X142396210Y-100850700D01*
X142396210Y-100850700D02*
X140970000Y-100850700D01*
X140970000Y-102349300D02*
X140970000Y-104025000D01*
X146837400Y-97932240D02*
X146837400Y-97756980D01*
X146837400Y-97756980D02*
X145813780Y-96733360D01*
X145813780Y-96733360D02*
X145813780Y-95514160D01*
X146613880Y-95514160D02*
X146613880Y-96767650D01*
X146613880Y-96767650D02*
X147294610Y-97448380D01*
X147294610Y-97448380D02*
X147294610Y-97889070D01*
X147294610Y-97889070D02*
X147332699Y-97927159D01*
X147332699Y-97927159D02*
X147332699Y-97932240D01*
X149837140Y-97932240D02*
X149837140Y-97378520D01*
X149837140Y-97378520D02*
X150614380Y-96601280D01*
X150614380Y-96601280D02*
X150614380Y-95514160D01*
X150337520Y-97932240D02*
X150337520Y-97756980D01*
X150337520Y-97756980D02*
X151414480Y-96680020D01*
X151414480Y-96680020D02*
X151414480Y-95514160D01*
X150342600Y-102730300D02*
X150721060Y-102730300D01*
X150721060Y-102730300D02*
X151409400Y-103418640D01*
X151409400Y-103418640D02*
X151409400Y-103826310D01*
X151409400Y-103826310D02*
X151409400Y-105079800D01*
X145796000Y-105079800D02*
X145796000Y-105854500D01*
X145796000Y-105854500D02*
X143972528Y-107677972D01*
X143972528Y-107677972D02*
X143972528Y-107981420D01*
X145796000Y-105079800D02*
X145796000Y-103826310D01*
X145796000Y-103826310D02*
X146837399Y-102784911D01*
X146837399Y-102784911D02*
X146837399Y-102727760D01*
D25*
X145796000Y-107490000D02*
X145796000Y-105079800D01*
X146513799Y-108207799D02*
X145796000Y-107490000D01*
X158727839Y-108207799D02*
X146513799Y-108207799D01*
X164767260Y-111620300D02*
X162140340Y-111620300D01*
X162140340Y-111620300D02*
X158727839Y-108207799D01*
D26*
X147840700Y-102730300D02*
X147840700Y-103106606D01*
X147840700Y-103106606D02*
X147855950Y-103121856D01*
X147855950Y-103121856D02*
X147855950Y-103614208D01*
X147855950Y-103614208D02*
X147421600Y-104048558D01*
X147421600Y-104048558D02*
X147421600Y-105079800D01*
X148209000Y-103985000D02*
X148341080Y-103852920D01*
X148341080Y-103852920D02*
X148341080Y-102730300D01*
X148209000Y-105079800D02*
X148209000Y-103985000D01*
X149809200Y-103908800D02*
X149341840Y-103441440D01*
X149341840Y-103441440D02*
X149341840Y-102730300D01*
X149809200Y-105079800D02*
X149809200Y-103908800D01*
X150188992Y-103642000D02*
X149842220Y-103295228D01*
X149842220Y-103295228D02*
X149842220Y-102730300D01*
X150622000Y-105079800D02*
X150622000Y-103826310D01*
X150622000Y-103826310D02*
X150437690Y-103642000D01*
X150437690Y-103642000D02*
X150188992Y-103642000D01*
X150990300Y-98579940D02*
X151165560Y-98579940D01*
X151165560Y-98579940D02*
X152239980Y-97505520D01*
X152239980Y-97505520D02*
X153416000Y-97505520D01*
X155918000Y-96784000D02*
X153658730Y-96784000D01*
X153658730Y-96784000D02*
X153416000Y-97026730D01*
X153416000Y-97026730D02*
X153416000Y-97505520D01*
X148866860Y-111620300D02*
X149166580Y-111620300D01*
X149166580Y-111620300D02*
X151302880Y-109484000D01*
X151302880Y-109484000D02*
X151346000Y-109484000D01*
X150990300Y-99080320D02*
X151566496Y-99080320D01*
X151566496Y-99080320D02*
X152343736Y-98303080D01*
X152343736Y-98303080D02*
X153416000Y-98303080D01*
X160998000Y-95006000D02*
X160487299Y-95516701D01*
X160487299Y-95516701D02*
X157592667Y-95516701D01*
X157592667Y-95516701D02*
X156701401Y-96407967D01*
X154669490Y-98303080D02*
X153416000Y-98303080D01*
X156701401Y-96407967D02*
X156701401Y-97160033D01*
X156701401Y-97160033D02*
X155558354Y-98303080D01*
X155558354Y-98303080D02*
X154669490Y-98303080D01*
X167005000Y-104775000D02*
X165658801Y-103428801D01*
X165658801Y-103428801D02*
X165658801Y-99121975D01*
X165658801Y-99121975D02*
X164885627Y-98348801D01*
X164885627Y-98348801D02*
X163324801Y-98348801D01*
X163324801Y-98348801D02*
X162268000Y-97292000D01*
X152223408Y-99070000D02*
X153380280Y-99070000D01*
X153380280Y-99070000D02*
X153416000Y-99105720D01*
X150990300Y-99580700D02*
X151712708Y-99580700D01*
X151712708Y-99580700D02*
X152223408Y-99070000D01*
X153416000Y-99105720D02*
X154669490Y-99105720D01*
X154669490Y-99105720D02*
X154887770Y-99324000D01*
X154887770Y-99324000D02*
X156426000Y-99324000D01*
X158512801Y-107506801D02*
X157188000Y-106182000D01*
X160744000Y-107960000D02*
X160290801Y-107506801D01*
X160290801Y-107506801D02*
X158512801Y-107506801D01*
X153416000Y-100705920D02*
X153291540Y-100581460D01*
X153291540Y-100581460D02*
X150990300Y-100581460D01*
X153416000Y-101503480D02*
X152162510Y-101503480D01*
X152162510Y-101503480D02*
X151738330Y-101079300D01*
X151738330Y-101079300D02*
X151544020Y-101079300D01*
X151544020Y-101079300D02*
X150990300Y-101079300D01*
X153416000Y-102306120D02*
X152162510Y-102306120D01*
X152162510Y-102306120D02*
X151436070Y-101579680D01*
X151436070Y-101579680D02*
X150990300Y-101579680D01*
X153416000Y-103103680D02*
X152013920Y-103103680D01*
X152013920Y-103103680D02*
X151544020Y-102633780D01*
X151544020Y-102633780D02*
X151544020Y-102458520D01*
X151544020Y-102458520D02*
X151165560Y-102080060D01*
X151165560Y-102080060D02*
X150990300Y-102080060D01*
X143814800Y-97510600D02*
X145496280Y-97510600D01*
X145496280Y-97510600D02*
X146187160Y-98201480D01*
X146187160Y-98201480D02*
X146187160Y-98579940D01*
X145257673Y-98569673D02*
X145768320Y-99080320D01*
X145768320Y-99080320D02*
X146187160Y-99080320D01*
X143814800Y-98298000D02*
X145068290Y-98298000D01*
X145068290Y-98298000D02*
X145257673Y-98487383D01*
X145257673Y-98487383D02*
X145257673Y-98569673D01*
X143814800Y-99110800D02*
X145068290Y-99110800D01*
X145068290Y-99110800D02*
X145538190Y-99580700D01*
X145538190Y-99580700D02*
X146187160Y-99580700D01*
X145250000Y-100079910D02*
X145251370Y-100078540D01*
X145251370Y-100078540D02*
X146187160Y-100078540D01*
X143814800Y-99898200D02*
X145068290Y-99898200D01*
X145068290Y-99898200D02*
X145250000Y-100079910D01*
X143814800Y-102311200D02*
X144899380Y-102311200D01*
X144899380Y-102311200D02*
X145633440Y-101577140D01*
X145633440Y-101577140D02*
X146187160Y-101577140D01*
X143814800Y-102311200D02*
X142561310Y-102311200D01*
X142561310Y-102311200D02*
X141750201Y-103122309D01*
X141750201Y-103122309D02*
X141750201Y-106887799D01*
X143103599Y-112166401D02*
X142240000Y-113030000D01*
X141750201Y-106887799D02*
X143433801Y-108571399D01*
X143433801Y-108571399D02*
X143433801Y-111836199D01*
X143433801Y-111836199D02*
X143103599Y-112166401D01*
D25*
X164767260Y-113619280D02*
X163564570Y-113619280D01*
X163564570Y-113619280D02*
X158559499Y-108614209D01*
X158559499Y-108614209D02*
X144926557Y-108614209D01*
X144926557Y-108614209D02*
X143408401Y-110132365D01*
X143408401Y-110132365D02*
X143408401Y-111861599D01*
X143408401Y-111861599D02*
X143103599Y-112166401D01*
X164767260Y-113619280D02*
X164625280Y-113619280D01*
D26*
X144780000Y-114452400D02*
X144551401Y-114223801D01*
X144551401Y-114223801D02*
X141666975Y-114223801D01*
X141666975Y-114223801D02*
X139662000Y-112218826D01*
X143218000Y-105420000D02*
X143218000Y-103720800D01*
X143218000Y-103720800D02*
X143814800Y-103124000D01*
X139662000Y-112218826D02*
X139662000Y-108722000D01*
X144780000Y-115570000D02*
X144780000Y-114452400D01*
X143814800Y-103124000D02*
X145519140Y-103124000D01*
X145519140Y-103124000D02*
X146187160Y-102455980D01*
X146187160Y-102455980D02*
X146187160Y-102077520D01*
D25*
X145846800Y-115570000D02*
X144780000Y-115570000D01*
X146520000Y-110790890D02*
X146520000Y-114896800D01*
X146520000Y-114896800D02*
X145846800Y-115570000D01*
X148894800Y-109618780D02*
X147692110Y-109618780D01*
X147692110Y-109618780D02*
X146520000Y-110790890D01*
D26*
X164767260Y-121521220D02*
X167241220Y-121521220D01*
X167241220Y-121521220D02*
X167640000Y-121920000D01*
G36*
X142875001Y-109381021D02*
X142517649Y-109224702D01*
X142467694Y-109214768D01*
X142265400Y-109302822D01*
X142265400Y-110464600D01*
X142285400Y-110464600D01*
X142285400Y-110515400D01*
X142265400Y-110515400D01*
X142265400Y-110535400D01*
X142214600Y-110535400D01*
X142214600Y-110515400D01*
X142214600Y-110464600D01*
X142214600Y-109302822D01*
X142012306Y-109214768D01*
X141962351Y-109224702D01*
X141499277Y-109427269D01*
X141148972Y-109791627D01*
X140964766Y-110262306D01*
X141052797Y-110464600D01*
X142214600Y-110464600D01*
X142214600Y-110515400D01*
X141052797Y-110515400D01*
X140964766Y-110717694D01*
X141148972Y-111188373D01*
X141499277Y-111552731D01*
X141962351Y-111755298D01*
X141985358Y-111759873D01*
X141744272Y-111807828D01*
X141324014Y-112088636D01*
X141043206Y-112508894D01*
X140993287Y-112759851D01*
X140944600Y-112711164D01*
X140944600Y-106098850D01*
X140944600Y-105550400D01*
X140944600Y-105499600D01*
X140944600Y-104951150D01*
X140836650Y-104843200D01*
X140605890Y-104843200D01*
X140434109Y-104843200D01*
X140275405Y-104908938D01*
X140153937Y-105030405D01*
X140088200Y-105189110D01*
X140088200Y-105391650D01*
X140196150Y-105499600D01*
X140944600Y-105499600D01*
X140944600Y-105550400D01*
X140196150Y-105550400D01*
X140088200Y-105658350D01*
X140088200Y-105860890D01*
X140153937Y-106019595D01*
X140275405Y-106141062D01*
X140434109Y-106206800D01*
X140605890Y-106206800D01*
X140836650Y-106206800D01*
X140944600Y-106098850D01*
X140944600Y-112711164D01*
X140220800Y-111987364D01*
X140220800Y-109414662D01*
X140411829Y-109223967D01*
X140546846Y-108898810D01*
X140547153Y-108546735D01*
X140412704Y-108221343D01*
X140163967Y-107972171D01*
X139838810Y-107837154D01*
X139486735Y-107836847D01*
X139441800Y-107855413D01*
X139441800Y-101378796D01*
X139520869Y-101497131D01*
X139998550Y-101974812D01*
X140139420Y-102068939D01*
X140139420Y-102833970D01*
X140205157Y-102992675D01*
X140326625Y-103114142D01*
X140411200Y-103149174D01*
X140411200Y-103352689D01*
X140275405Y-103408937D01*
X140153938Y-103530405D01*
X140088200Y-103689109D01*
X140088200Y-103860890D01*
X140088200Y-104360890D01*
X140153937Y-104519595D01*
X140275405Y-104641062D01*
X140434109Y-104706800D01*
X140605890Y-104706800D01*
X141191401Y-104706800D01*
X141191401Y-104843200D01*
X141103350Y-104843200D01*
X140995400Y-104951150D01*
X140995400Y-105499600D01*
X141015400Y-105499600D01*
X141015400Y-105550400D01*
X140995400Y-105550400D01*
X140995400Y-106098850D01*
X141103350Y-106206800D01*
X141191401Y-106206800D01*
X141191401Y-106887799D01*
X141233937Y-107101643D01*
X141355070Y-107282930D01*
X142875001Y-108802861D01*
X142875001Y-109381021D01*
X142875001Y-109381021D01*
G37*
X142875001Y-109381021D02*
X142517649Y-109224702D01*
X142467694Y-109214768D01*
X142265400Y-109302822D01*
X142265400Y-110464600D01*
X142285400Y-110464600D01*
X142285400Y-110515400D01*
X142265400Y-110515400D01*
X142265400Y-110535400D01*
X142214600Y-110535400D01*
X142214600Y-110515400D01*
X142214600Y-110464600D01*
X142214600Y-109302822D01*
X142012306Y-109214768D01*
X141962351Y-109224702D01*
X141499277Y-109427269D01*
X141148972Y-109791627D01*
X140964766Y-110262306D01*
X141052797Y-110464600D01*
X142214600Y-110464600D01*
X142214600Y-110515400D01*
X141052797Y-110515400D01*
X140964766Y-110717694D01*
X141148972Y-111188373D01*
X141499277Y-111552731D01*
X141962351Y-111755298D01*
X141985358Y-111759873D01*
X141744272Y-111807828D01*
X141324014Y-112088636D01*
X141043206Y-112508894D01*
X140993287Y-112759851D01*
X140944600Y-112711164D01*
X140944600Y-106098850D01*
X140944600Y-105550400D01*
X140944600Y-105499600D01*
X140944600Y-104951150D01*
X140836650Y-104843200D01*
X140605890Y-104843200D01*
X140434109Y-104843200D01*
X140275405Y-104908938D01*
X140153937Y-105030405D01*
X140088200Y-105189110D01*
X140088200Y-105391650D01*
X140196150Y-105499600D01*
X140944600Y-105499600D01*
X140944600Y-105550400D01*
X140196150Y-105550400D01*
X140088200Y-105658350D01*
X140088200Y-105860890D01*
X140153937Y-106019595D01*
X140275405Y-106141062D01*
X140434109Y-106206800D01*
X140605890Y-106206800D01*
X140836650Y-106206800D01*
X140944600Y-106098850D01*
X140944600Y-112711164D01*
X140220800Y-111987364D01*
X140220800Y-109414662D01*
X140411829Y-109223967D01*
X140546846Y-108898810D01*
X140547153Y-108546735D01*
X140412704Y-108221343D01*
X140163967Y-107972171D01*
X139838810Y-107837154D01*
X139486735Y-107836847D01*
X139441800Y-107855413D01*
X139441800Y-101378796D01*
X139520869Y-101497131D01*
X139998550Y-101974812D01*
X140139420Y-102068939D01*
X140139420Y-102833970D01*
X140205157Y-102992675D01*
X140326625Y-103114142D01*
X140411200Y-103149174D01*
X140411200Y-103352689D01*
X140275405Y-103408937D01*
X140153938Y-103530405D01*
X140088200Y-103689109D01*
X140088200Y-103860890D01*
X140088200Y-104360890D01*
X140153937Y-104519595D01*
X140275405Y-104641062D01*
X140434109Y-104706800D01*
X140605890Y-104706800D01*
X141191401Y-104706800D01*
X141191401Y-104843200D01*
X141103350Y-104843200D01*
X140995400Y-104951150D01*
X140995400Y-105499600D01*
X141015400Y-105499600D01*
X141015400Y-105550400D01*
X140995400Y-105550400D01*
X140995400Y-106098850D01*
X141103350Y-106206800D01*
X141191401Y-106206800D01*
X141191401Y-106887799D01*
X141233937Y-107101643D01*
X141355070Y-107282930D01*
X142875001Y-108802861D01*
X142875001Y-109381021D01*
G36*
X148259480Y-95539560D02*
X148239480Y-95539560D01*
X148239480Y-95559560D01*
X148188680Y-95559560D01*
X148188680Y-95539560D01*
X148168680Y-95539560D01*
X148168680Y-95488760D01*
X148188680Y-95488760D01*
X148188680Y-95468760D01*
X148239480Y-95468760D01*
X148239480Y-95488760D01*
X148259480Y-95488760D01*
X148259480Y-95539560D01*
X148259480Y-95539560D01*
G37*
X148259480Y-95539560D02*
X148239480Y-95539560D01*
X148239480Y-95559560D01*
X148188680Y-95559560D01*
X148188680Y-95539560D01*
X148168680Y-95539560D01*
X148168680Y-95488760D01*
X148188680Y-95488760D01*
X148188680Y-95468760D01*
X148239480Y-95468760D01*
X148239480Y-95488760D01*
X148259480Y-95488760D01*
X148259480Y-95539560D01*
G36*
X148635400Y-100355400D02*
X148615400Y-100355400D01*
X148615400Y-100375400D01*
X148564600Y-100375400D01*
X148564600Y-100355400D01*
X148544600Y-100355400D01*
X148544600Y-100304600D01*
X148564600Y-100304600D01*
X148564600Y-100284600D01*
X148615400Y-100284600D01*
X148615400Y-100304600D01*
X148635400Y-100304600D01*
X148635400Y-100355400D01*
X148635400Y-100355400D01*
G37*
X148635400Y-100355400D02*
X148615400Y-100355400D01*
X148615400Y-100375400D01*
X148564600Y-100375400D01*
X148564600Y-100355400D01*
X148544600Y-100355400D01*
X148544600Y-100304600D01*
X148564600Y-100304600D01*
X148564600Y-100284600D01*
X148615400Y-100284600D01*
X148615400Y-100304600D01*
X148635400Y-100304600D01*
X148635400Y-100355400D01*
G36*
X149859680Y-95539560D02*
X149839680Y-95539560D01*
X149839680Y-95559560D01*
X149788880Y-95559560D01*
X149788880Y-95539560D01*
X149768880Y-95539560D01*
X149768880Y-95488760D01*
X149788880Y-95488760D01*
X149788880Y-95468760D01*
X149839680Y-95468760D01*
X149839680Y-95488760D01*
X149859680Y-95488760D01*
X149859680Y-95539560D01*
X149859680Y-95539560D01*
G37*
X149859680Y-95539560D02*
X149839680Y-95539560D01*
X149839680Y-95559560D01*
X149788880Y-95559560D01*
X149788880Y-95539560D01*
X149768880Y-95539560D01*
X149768880Y-95488760D01*
X149788880Y-95488760D01*
X149788880Y-95468760D01*
X149839680Y-95468760D01*
X149839680Y-95488760D01*
X149859680Y-95488760D01*
X149859680Y-95539560D01*
G36*
X157403200Y-103652142D02*
X157345938Y-103709405D01*
X157280200Y-103868109D01*
X157280200Y-103880566D01*
X157244156Y-103887736D01*
X157062869Y-104008869D01*
X153924538Y-107147200D01*
X148212971Y-107147200D01*
X147576861Y-106511090D01*
X147732280Y-106511090D01*
X147815300Y-106476702D01*
X147898319Y-106511090D01*
X148070100Y-106511090D01*
X148519680Y-106511090D01*
X148615400Y-106471441D01*
X148711119Y-106511090D01*
X148882900Y-106511090D01*
X148888450Y-106511090D01*
X148996400Y-106403140D01*
X148996400Y-105105200D01*
X148976400Y-105105200D01*
X148976400Y-105054400D01*
X148996400Y-105054400D01*
X148996400Y-105034400D01*
X149047200Y-105034400D01*
X149047200Y-105054400D01*
X149067200Y-105054400D01*
X149067200Y-105105200D01*
X149047200Y-105105200D01*
X149047200Y-106403140D01*
X149155150Y-106511090D01*
X149160700Y-106511090D01*
X149332481Y-106511090D01*
X149415500Y-106476702D01*
X149498519Y-106511090D01*
X149670300Y-106511090D01*
X150119880Y-106511090D01*
X150215600Y-106471441D01*
X150311319Y-106511090D01*
X150483100Y-106511090D01*
X150932680Y-106511090D01*
X151015700Y-106476702D01*
X151098719Y-106511090D01*
X151270500Y-106511090D01*
X151720080Y-106511090D01*
X151878785Y-106445353D01*
X152000252Y-106323885D01*
X152065990Y-106165181D01*
X152065990Y-105993400D01*
X152065990Y-103994420D01*
X152000253Y-103835715D01*
X151968200Y-103803662D01*
X151968200Y-103653385D01*
X152013920Y-103662480D01*
X152139862Y-103662480D01*
X152171915Y-103694532D01*
X152330619Y-103760270D01*
X152502400Y-103760270D01*
X154501380Y-103760270D01*
X154660085Y-103694533D01*
X154781552Y-103573065D01*
X154847290Y-103414361D01*
X154847290Y-103242580D01*
X154847290Y-102793000D01*
X154810798Y-102704899D01*
X154847290Y-102616801D01*
X154847290Y-102445020D01*
X154847290Y-101995440D01*
X154809745Y-101904799D01*
X154847290Y-101814161D01*
X154847290Y-101642380D01*
X154847290Y-101192800D01*
X154810798Y-101104699D01*
X154847290Y-101016601D01*
X154847290Y-100844820D01*
X154847290Y-100660965D01*
X154873611Y-100666201D01*
X156802033Y-100666201D01*
X157015876Y-100623665D01*
X157015877Y-100623665D01*
X157197164Y-100502532D01*
X157238700Y-100460996D01*
X157238700Y-100987390D01*
X157304437Y-101146095D01*
X157391200Y-101232857D01*
X157391200Y-101433072D01*
X157387905Y-101434437D01*
X157266438Y-101555905D01*
X157200700Y-101714609D01*
X157200700Y-101886390D01*
X157200700Y-103029390D01*
X157266437Y-103188095D01*
X157387905Y-103309562D01*
X157403200Y-103315897D01*
X157403200Y-103652142D01*
X157403200Y-103652142D01*
G37*
X157403200Y-103652142D02*
X157345938Y-103709405D01*
X157280200Y-103868109D01*
X157280200Y-103880566D01*
X157244156Y-103887736D01*
X157062869Y-104008869D01*
X153924538Y-107147200D01*
X148212971Y-107147200D01*
X147576861Y-106511090D01*
X147732280Y-106511090D01*
X147815300Y-106476702D01*
X147898319Y-106511090D01*
X148070100Y-106511090D01*
X148519680Y-106511090D01*
X148615400Y-106471441D01*
X148711119Y-106511090D01*
X148882900Y-106511090D01*
X148888450Y-106511090D01*
X148996400Y-106403140D01*
X148996400Y-105105200D01*
X148976400Y-105105200D01*
X148976400Y-105054400D01*
X148996400Y-105054400D01*
X148996400Y-105034400D01*
X149047200Y-105034400D01*
X149047200Y-105054400D01*
X149067200Y-105054400D01*
X149067200Y-105105200D01*
X149047200Y-105105200D01*
X149047200Y-106403140D01*
X149155150Y-106511090D01*
X149160700Y-106511090D01*
X149332481Y-106511090D01*
X149415500Y-106476702D01*
X149498519Y-106511090D01*
X149670300Y-106511090D01*
X150119880Y-106511090D01*
X150215600Y-106471441D01*
X150311319Y-106511090D01*
X150483100Y-106511090D01*
X150932680Y-106511090D01*
X151015700Y-106476702D01*
X151098719Y-106511090D01*
X151270500Y-106511090D01*
X151720080Y-106511090D01*
X151878785Y-106445353D01*
X152000252Y-106323885D01*
X152065990Y-106165181D01*
X152065990Y-105993400D01*
X152065990Y-103994420D01*
X152000253Y-103835715D01*
X151968200Y-103803662D01*
X151968200Y-103653385D01*
X152013920Y-103662480D01*
X152139862Y-103662480D01*
X152171915Y-103694532D01*
X152330619Y-103760270D01*
X152502400Y-103760270D01*
X154501380Y-103760270D01*
X154660085Y-103694533D01*
X154781552Y-103573065D01*
X154847290Y-103414361D01*
X154847290Y-103242580D01*
X154847290Y-102793000D01*
X154810798Y-102704899D01*
X154847290Y-102616801D01*
X154847290Y-102445020D01*
X154847290Y-101995440D01*
X154809745Y-101904799D01*
X154847290Y-101814161D01*
X154847290Y-101642380D01*
X154847290Y-101192800D01*
X154810798Y-101104699D01*
X154847290Y-101016601D01*
X154847290Y-100844820D01*
X154847290Y-100660965D01*
X154873611Y-100666201D01*
X156802033Y-100666201D01*
X157015876Y-100623665D01*
X157015877Y-100623665D01*
X157197164Y-100502532D01*
X157238700Y-100460996D01*
X157238700Y-100987390D01*
X157304437Y-101146095D01*
X157391200Y-101232857D01*
X157391200Y-101433072D01*
X157387905Y-101434437D01*
X157266438Y-101555905D01*
X157200700Y-101714609D01*
X157200700Y-101886390D01*
X157200700Y-103029390D01*
X157266437Y-103188095D01*
X157387905Y-103309562D01*
X157403200Y-103315897D01*
X157403200Y-103652142D01*
G36*
X159557400Y-94640400D02*
X159537400Y-94640400D01*
X159537400Y-94660400D01*
X159486600Y-94660400D01*
X159486600Y-94640400D01*
X158870650Y-94640400D01*
X158762700Y-94748350D01*
X158762700Y-94957901D01*
X158737300Y-94957901D01*
X158737300Y-94221299D01*
X158762700Y-94221299D01*
X158762700Y-94481650D01*
X158870650Y-94589600D01*
X159486600Y-94589600D01*
X159486600Y-94569600D01*
X159537400Y-94569600D01*
X159537400Y-94589600D01*
X159557400Y-94589600D01*
X159557400Y-94640400D01*
X159557400Y-94640400D01*
G37*
X159557400Y-94640400D02*
X159537400Y-94640400D01*
X159537400Y-94660400D01*
X159486600Y-94660400D01*
X159486600Y-94640400D01*
X158870650Y-94640400D01*
X158762700Y-94748350D01*
X158762700Y-94957901D01*
X158737300Y-94957901D01*
X158737300Y-94221299D01*
X158762700Y-94221299D01*
X158762700Y-94481650D01*
X158870650Y-94589600D01*
X159486600Y-94589600D01*
X159486600Y-94569600D01*
X159537400Y-94569600D01*
X159537400Y-94589600D01*
X159557400Y-94589600D01*
X159557400Y-94640400D01*
G36*
X160579622Y-94221299D02*
X160497343Y-94255296D01*
X160248171Y-94504033D01*
X160212640Y-94589598D01*
X160153352Y-94589598D01*
X160261300Y-94481650D01*
X160261300Y-94221299D01*
X160579622Y-94221299D01*
X160579622Y-94221299D01*
G37*
X160579622Y-94221299D02*
X160497343Y-94255296D01*
X160248171Y-94504033D01*
X160212640Y-94589598D01*
X160153352Y-94589598D01*
X160261300Y-94481650D01*
X160261300Y-94221299D01*
X160579622Y-94221299D01*
G36*
X162770439Y-94221299D02*
X161882910Y-95108827D01*
X161883153Y-94830735D01*
X161748704Y-94505343D01*
X161499967Y-94256171D01*
X161415985Y-94221299D01*
X162770439Y-94221299D01*
X162770439Y-94221299D01*
G37*
X162770439Y-94221299D02*
X161882910Y-95108827D01*
X161883153Y-94830735D01*
X161748704Y-94505343D01*
X161499967Y-94256171D01*
X161415985Y-94221299D01*
X162770439Y-94221299D01*
G36*
X167050400Y-99720400D02*
X167030400Y-99720400D01*
X167030400Y-99740400D01*
X166979600Y-99740400D01*
X166979600Y-99720400D01*
X166959600Y-99720400D01*
X166959600Y-99669600D01*
X166979600Y-99669600D01*
X166979600Y-99649600D01*
X167030400Y-99649600D01*
X167030400Y-99669600D01*
X167050400Y-99669600D01*
X167050400Y-99720400D01*
X167050400Y-99720400D01*
G37*
X167050400Y-99720400D02*
X167030400Y-99720400D01*
X167030400Y-99740400D01*
X166979600Y-99740400D01*
X166979600Y-99720400D01*
X166959600Y-99720400D01*
X166959600Y-99669600D01*
X166979600Y-99669600D01*
X166979600Y-99649600D01*
X167030400Y-99649600D01*
X167030400Y-99669600D01*
X167050400Y-99669600D01*
X167050400Y-99720400D01*
G36*
X167690801Y-117059387D02*
X166145126Y-118605061D01*
X166132813Y-118575335D01*
X166077687Y-118520209D01*
X166132812Y-118465085D01*
X166198550Y-118306381D01*
X166198550Y-118134600D01*
X166198550Y-117654070D01*
X166090600Y-117546120D01*
X164792660Y-117546120D01*
X164792660Y-117566120D01*
X164741860Y-117566120D01*
X164741860Y-117546120D01*
X163443920Y-117546120D01*
X163335970Y-117654070D01*
X163335970Y-118134600D01*
X163335970Y-118306381D01*
X163401708Y-118465085D01*
X163456832Y-118520210D01*
X163401708Y-118575335D01*
X163335970Y-118734039D01*
X163335970Y-118905820D01*
X163335970Y-118996265D01*
X163299927Y-119003435D01*
X163118639Y-119124569D01*
X160200017Y-122043191D01*
X150298150Y-122043191D01*
X150298150Y-121654570D01*
X150190200Y-121546620D01*
X148892260Y-121546620D01*
X148892260Y-121566620D01*
X148841460Y-121566620D01*
X148841460Y-121546620D01*
X147543520Y-121546620D01*
X147435570Y-121654570D01*
X147435570Y-121684730D01*
X143662399Y-117911559D01*
X143662399Y-116790256D01*
X143671805Y-116799662D01*
X143830509Y-116865400D01*
X144002290Y-116865400D01*
X145729490Y-116865400D01*
X145888195Y-116799663D01*
X146009662Y-116678195D01*
X146075400Y-116519491D01*
X146075400Y-116347710D01*
X146075400Y-116046442D01*
X146223971Y-115947171D01*
X146897167Y-115273973D01*
X146897171Y-115273971D01*
X146897171Y-115273970D01*
X147012797Y-115100923D01*
X147053400Y-114896800D01*
X147053401Y-114896800D01*
X147053400Y-114896794D01*
X147053400Y-111011832D01*
X147521292Y-110543939D01*
X147529247Y-110563145D01*
X147571672Y-110605570D01*
X147501308Y-110675935D01*
X147435570Y-110834639D01*
X147435570Y-111006420D01*
X147435570Y-112405960D01*
X147501307Y-112564665D01*
X147556432Y-112619790D01*
X147501308Y-112674915D01*
X147435570Y-112833619D01*
X147435570Y-113005400D01*
X147435570Y-114404940D01*
X147501307Y-114563645D01*
X147532302Y-114594640D01*
X147501308Y-114625635D01*
X147435570Y-114784339D01*
X147435570Y-114956120D01*
X147435570Y-116355660D01*
X147501307Y-116514365D01*
X147532302Y-116545360D01*
X147501308Y-116576355D01*
X147435570Y-116735059D01*
X147435570Y-116906840D01*
X147435570Y-118306380D01*
X147501307Y-118465085D01*
X147556432Y-118520210D01*
X147501308Y-118575335D01*
X147435570Y-118734039D01*
X147435570Y-118905820D01*
X147435570Y-120305360D01*
X147501307Y-120464065D01*
X147557702Y-120520460D01*
X147501308Y-120576855D01*
X147435570Y-120735559D01*
X147435570Y-120907340D01*
X147435570Y-121387870D01*
X147543520Y-121495820D01*
X148841460Y-121495820D01*
X148841460Y-121475820D01*
X148892260Y-121475820D01*
X148892260Y-121495820D01*
X150190200Y-121495820D01*
X150298150Y-121387870D01*
X150298150Y-120907340D01*
X150298150Y-120735559D01*
X150232412Y-120576855D01*
X150176017Y-120520460D01*
X150232412Y-120464065D01*
X150298150Y-120305361D01*
X150298150Y-120133580D01*
X150298150Y-118734040D01*
X150232413Y-118575335D01*
X150177287Y-118520209D01*
X150232412Y-118465085D01*
X150298150Y-118306381D01*
X150298150Y-118134600D01*
X150298150Y-116735060D01*
X150232413Y-116576355D01*
X150201417Y-116545359D01*
X150232412Y-116514365D01*
X150298150Y-116355661D01*
X150298150Y-116183880D01*
X150298150Y-114784340D01*
X150232413Y-114625635D01*
X150201417Y-114594639D01*
X150232412Y-114563645D01*
X150298150Y-114404941D01*
X150298150Y-114233160D01*
X150298150Y-112833620D01*
X150232413Y-112674915D01*
X150177287Y-112619789D01*
X150232412Y-112564665D01*
X150298150Y-112405961D01*
X150298150Y-112234180D01*
X150298150Y-111278992D01*
X151208262Y-110368880D01*
X151521265Y-110369153D01*
X151846657Y-110234704D01*
X152095829Y-109985967D01*
X152230846Y-109660810D01*
X152231153Y-109308735D01*
X152164577Y-109147609D01*
X158338557Y-109147609D01*
X163187399Y-113996451D01*
X163335970Y-114095722D01*
X163335970Y-114404940D01*
X163401707Y-114563645D01*
X163432702Y-114594640D01*
X163401708Y-114625635D01*
X163335970Y-114784339D01*
X163335970Y-114956120D01*
X163335970Y-116355660D01*
X163401707Y-116514365D01*
X163432702Y-116545360D01*
X163401708Y-116576355D01*
X163335970Y-116735059D01*
X163335970Y-116906840D01*
X163335970Y-117387370D01*
X163443920Y-117495320D01*
X164741860Y-117495320D01*
X164741860Y-117475320D01*
X164792660Y-117475320D01*
X164792660Y-117495320D01*
X166090600Y-117495320D01*
X166198550Y-117387370D01*
X166198550Y-116906840D01*
X166198550Y-116735059D01*
X166132812Y-116576355D01*
X166101817Y-116545360D01*
X166132812Y-116514365D01*
X166198550Y-116355661D01*
X166198550Y-116183880D01*
X166198550Y-114784340D01*
X166132813Y-114625635D01*
X166101817Y-114594639D01*
X166132812Y-114563645D01*
X166198550Y-114404941D01*
X166198550Y-114233160D01*
X166198550Y-112833620D01*
X166132813Y-112674915D01*
X166077687Y-112619789D01*
X166132812Y-112564665D01*
X166198550Y-112405961D01*
X166198550Y-112234180D01*
X166198550Y-110834640D01*
X166132813Y-110675935D01*
X166076417Y-110619539D01*
X166132812Y-110563145D01*
X166198550Y-110404441D01*
X166198550Y-110232660D01*
X166198550Y-108833120D01*
X166132813Y-108674415D01*
X166011345Y-108552948D01*
X165852641Y-108487210D01*
X165740234Y-108487210D01*
X165680860Y-108487210D01*
X164439600Y-108487210D01*
X164439600Y-105962178D01*
X164439600Y-104800400D01*
X163277797Y-104800400D01*
X163189766Y-105002694D01*
X163373972Y-105473373D01*
X163724277Y-105837731D01*
X164187351Y-106040298D01*
X164237306Y-106050232D01*
X164439600Y-105962178D01*
X164439600Y-108487210D01*
X164090311Y-108487210D01*
X160261300Y-104658198D01*
X160261300Y-100987391D01*
X160261300Y-100815610D01*
X160261300Y-100463350D01*
X160153350Y-100355400D01*
X159537400Y-100355400D01*
X159537400Y-101225350D01*
X159645350Y-101333300D01*
X159915390Y-101333300D01*
X160074095Y-101267563D01*
X160195562Y-101146095D01*
X160261300Y-100987391D01*
X160261300Y-104658198D01*
X160223300Y-104620198D01*
X160223300Y-103029391D01*
X160223300Y-102857610D01*
X160223300Y-102505350D01*
X160223300Y-102238650D01*
X160223300Y-101886390D01*
X160223300Y-101714609D01*
X160157562Y-101555905D01*
X160036095Y-101434437D01*
X159877390Y-101368700D01*
X159607350Y-101368700D01*
X159499400Y-101476650D01*
X159499400Y-102346600D01*
X160115350Y-102346600D01*
X160223300Y-102238650D01*
X160223300Y-102505350D01*
X160115350Y-102397400D01*
X159499400Y-102397400D01*
X159499400Y-103267350D01*
X159607350Y-103375300D01*
X159877390Y-103375300D01*
X160036095Y-103309563D01*
X160157562Y-103188095D01*
X160223300Y-103029391D01*
X160223300Y-104620198D01*
X160143800Y-104540698D01*
X160143800Y-103868110D01*
X160078063Y-103709405D01*
X159956595Y-103587938D01*
X159797891Y-103522200D01*
X159626110Y-103522200D01*
X159486600Y-103522200D01*
X159486600Y-101225350D01*
X159486600Y-100355400D01*
X158870650Y-100355400D01*
X158762700Y-100463350D01*
X158762700Y-100815610D01*
X158762700Y-100987391D01*
X158828438Y-101146095D01*
X158949905Y-101267563D01*
X159108610Y-101333300D01*
X159378650Y-101333300D01*
X159486600Y-101225350D01*
X159486600Y-103522200D01*
X159448600Y-103522200D01*
X159448600Y-103267350D01*
X159448600Y-102397400D01*
X159448600Y-102346600D01*
X159448600Y-101476650D01*
X159340650Y-101368700D01*
X159070610Y-101368700D01*
X158911905Y-101434437D01*
X158790438Y-101555905D01*
X158724700Y-101714609D01*
X158724700Y-101886390D01*
X158724700Y-102238650D01*
X158832650Y-102346600D01*
X159448600Y-102346600D01*
X159448600Y-102397400D01*
X158832650Y-102397400D01*
X158724700Y-102505350D01*
X158724700Y-102857610D01*
X158724700Y-103029391D01*
X158790438Y-103188095D01*
X158911905Y-103309563D01*
X159070610Y-103375300D01*
X159340650Y-103375300D01*
X159448600Y-103267350D01*
X159448600Y-103522200D01*
X159126110Y-103522200D01*
X158967405Y-103587937D01*
X158845938Y-103709405D01*
X158780200Y-103868109D01*
X158780200Y-104039890D01*
X158780200Y-104939890D01*
X158845937Y-105098595D01*
X158928600Y-105181257D01*
X158928600Y-105211058D01*
X158842544Y-105297113D01*
X158536735Y-105296847D01*
X158211343Y-105431296D01*
X157962171Y-105680033D01*
X157950137Y-105709013D01*
X157938704Y-105681343D01*
X157689967Y-105432171D01*
X157364810Y-105297154D01*
X157355116Y-105297145D01*
X157449802Y-105202459D01*
X157467405Y-105220062D01*
X157626109Y-105285800D01*
X157797890Y-105285800D01*
X158297890Y-105285800D01*
X158456595Y-105220063D01*
X158578062Y-105098595D01*
X158643800Y-104939891D01*
X158643800Y-104768110D01*
X158643800Y-103868110D01*
X158578063Y-103709405D01*
X158520800Y-103652142D01*
X158520800Y-103300857D01*
X158633562Y-103188095D01*
X158699300Y-103029391D01*
X158699300Y-102857610D01*
X158699300Y-101714610D01*
X158633563Y-101555905D01*
X158512095Y-101434438D01*
X158508800Y-101433073D01*
X158508800Y-101284667D01*
X158550095Y-101267563D01*
X158671562Y-101146095D01*
X158737300Y-100987391D01*
X158737300Y-100815610D01*
X158737300Y-100116962D01*
X158762700Y-100091562D01*
X158762700Y-100196650D01*
X158870650Y-100304600D01*
X159486600Y-100304600D01*
X159486600Y-100284600D01*
X159537400Y-100284600D01*
X159537400Y-100304600D01*
X160153350Y-100304600D01*
X160261300Y-100196650D01*
X160261300Y-99844390D01*
X160261300Y-99672609D01*
X160195562Y-99513905D01*
X160074095Y-99392437D01*
X160038033Y-99377500D01*
X160074095Y-99362563D01*
X160195562Y-99241095D01*
X160261300Y-99082391D01*
X160261300Y-98983800D01*
X160423537Y-98983800D01*
X163249196Y-101809459D01*
X163169600Y-102209622D01*
X163169600Y-102260378D01*
X163268206Y-102756106D01*
X163549014Y-103176364D01*
X163969272Y-103457172D01*
X164210358Y-103505126D01*
X164187351Y-103509702D01*
X163724277Y-103712269D01*
X163373972Y-104076627D01*
X163189766Y-104547306D01*
X163277797Y-104749600D01*
X164439600Y-104749600D01*
X164439600Y-104729600D01*
X164490400Y-104729600D01*
X164490400Y-104749600D01*
X164510400Y-104749600D01*
X164510400Y-104800400D01*
X164490400Y-104800400D01*
X164490400Y-105962178D01*
X164692694Y-106050232D01*
X164742649Y-106040298D01*
X165205723Y-105837731D01*
X165556028Y-105473373D01*
X165740234Y-105002694D01*
X165652203Y-104800402D01*
X165709604Y-104800402D01*
X165808206Y-105296106D01*
X166089014Y-105716364D01*
X166509272Y-105997172D01*
X167005000Y-106095778D01*
X167500728Y-105997172D01*
X167690801Y-105870169D01*
X167690801Y-117059387D01*
X167690801Y-117059387D01*
G37*
X167690801Y-117059387D02*
X166145126Y-118605061D01*
X166132813Y-118575335D01*
X166077687Y-118520209D01*
X166132812Y-118465085D01*
X166198550Y-118306381D01*
X166198550Y-118134600D01*
X166198550Y-117654070D01*
X166090600Y-117546120D01*
X164792660Y-117546120D01*
X164792660Y-117566120D01*
X164741860Y-117566120D01*
X164741860Y-117546120D01*
X163443920Y-117546120D01*
X163335970Y-117654070D01*
X163335970Y-118134600D01*
X163335970Y-118306381D01*
X163401708Y-118465085D01*
X163456832Y-118520210D01*
X163401708Y-118575335D01*
X163335970Y-118734039D01*
X163335970Y-118905820D01*
X163335970Y-118996265D01*
X163299927Y-119003435D01*
X163118639Y-119124569D01*
X160200017Y-122043191D01*
X150298150Y-122043191D01*
X150298150Y-121654570D01*
X150190200Y-121546620D01*
X148892260Y-121546620D01*
X148892260Y-121566620D01*
X148841460Y-121566620D01*
X148841460Y-121546620D01*
X147543520Y-121546620D01*
X147435570Y-121654570D01*
X147435570Y-121684730D01*
X143662399Y-117911559D01*
X143662399Y-116790256D01*
X143671805Y-116799662D01*
X143830509Y-116865400D01*
X144002290Y-116865400D01*
X145729490Y-116865400D01*
X145888195Y-116799663D01*
X146009662Y-116678195D01*
X146075400Y-116519491D01*
X146075400Y-116347710D01*
X146075400Y-116046442D01*
X146223971Y-115947171D01*
X146897167Y-115273973D01*
X146897171Y-115273971D01*
X146897171Y-115273970D01*
X147012797Y-115100923D01*
X147053400Y-114896800D01*
X147053401Y-114896800D01*
X147053400Y-114896794D01*
X147053400Y-111011832D01*
X147521292Y-110543939D01*
X147529247Y-110563145D01*
X147571672Y-110605570D01*
X147501308Y-110675935D01*
X147435570Y-110834639D01*
X147435570Y-111006420D01*
X147435570Y-112405960D01*
X147501307Y-112564665D01*
X147556432Y-112619790D01*
X147501308Y-112674915D01*
X147435570Y-112833619D01*
X147435570Y-113005400D01*
X147435570Y-114404940D01*
X147501307Y-114563645D01*
X147532302Y-114594640D01*
X147501308Y-114625635D01*
X147435570Y-114784339D01*
X147435570Y-114956120D01*
X147435570Y-116355660D01*
X147501307Y-116514365D01*
X147532302Y-116545360D01*
X147501308Y-116576355D01*
X147435570Y-116735059D01*
X147435570Y-116906840D01*
X147435570Y-118306380D01*
X147501307Y-118465085D01*
X147556432Y-118520210D01*
X147501308Y-118575335D01*
X147435570Y-118734039D01*
X147435570Y-118905820D01*
X147435570Y-120305360D01*
X147501307Y-120464065D01*
X147557702Y-120520460D01*
X147501308Y-120576855D01*
X147435570Y-120735559D01*
X147435570Y-120907340D01*
X147435570Y-121387870D01*
X147543520Y-121495820D01*
X148841460Y-121495820D01*
X148841460Y-121475820D01*
X148892260Y-121475820D01*
X148892260Y-121495820D01*
X150190200Y-121495820D01*
X150298150Y-121387870D01*
X150298150Y-120907340D01*
X150298150Y-120735559D01*
X150232412Y-120576855D01*
X150176017Y-120520460D01*
X150232412Y-120464065D01*
X150298150Y-120305361D01*
X150298150Y-120133580D01*
X150298150Y-118734040D01*
X150232413Y-118575335D01*
X150177287Y-118520209D01*
X150232412Y-118465085D01*
X150298150Y-118306381D01*
X150298150Y-118134600D01*
X150298150Y-116735060D01*
X150232413Y-116576355D01*
X150201417Y-116545359D01*
X150232412Y-116514365D01*
X150298150Y-116355661D01*
X150298150Y-116183880D01*
X150298150Y-114784340D01*
X150232413Y-114625635D01*
X150201417Y-114594639D01*
X150232412Y-114563645D01*
X150298150Y-114404941D01*
X150298150Y-114233160D01*
X150298150Y-112833620D01*
X150232413Y-112674915D01*
X150177287Y-112619789D01*
X150232412Y-112564665D01*
X150298150Y-112405961D01*
X150298150Y-112234180D01*
X150298150Y-111278992D01*
X151208262Y-110368880D01*
X151521265Y-110369153D01*
X151846657Y-110234704D01*
X152095829Y-109985967D01*
X152230846Y-109660810D01*
X152231153Y-109308735D01*
X152164577Y-109147609D01*
X158338557Y-109147609D01*
X163187399Y-113996451D01*
X163335970Y-114095722D01*
X163335970Y-114404940D01*
X163401707Y-114563645D01*
X163432702Y-114594640D01*
X163401708Y-114625635D01*
X163335970Y-114784339D01*
X163335970Y-114956120D01*
X163335970Y-116355660D01*
X163401707Y-116514365D01*
X163432702Y-116545360D01*
X163401708Y-116576355D01*
X163335970Y-116735059D01*
X163335970Y-116906840D01*
X163335970Y-117387370D01*
X163443920Y-117495320D01*
X164741860Y-117495320D01*
X164741860Y-117475320D01*
X164792660Y-117475320D01*
X164792660Y-117495320D01*
X166090600Y-117495320D01*
X166198550Y-117387370D01*
X166198550Y-116906840D01*
X166198550Y-116735059D01*
X166132812Y-116576355D01*
X166101817Y-116545360D01*
X166132812Y-116514365D01*
X166198550Y-116355661D01*
X166198550Y-116183880D01*
X166198550Y-114784340D01*
X166132813Y-114625635D01*
X166101817Y-114594639D01*
X166132812Y-114563645D01*
X166198550Y-114404941D01*
X166198550Y-114233160D01*
X166198550Y-112833620D01*
X166132813Y-112674915D01*
X166077687Y-112619789D01*
X166132812Y-112564665D01*
X166198550Y-112405961D01*
X166198550Y-112234180D01*
X166198550Y-110834640D01*
X166132813Y-110675935D01*
X166076417Y-110619539D01*
X166132812Y-110563145D01*
X166198550Y-110404441D01*
X166198550Y-110232660D01*
X166198550Y-108833120D01*
X166132813Y-108674415D01*
X166011345Y-108552948D01*
X165852641Y-108487210D01*
X165740234Y-108487210D01*
X165680860Y-108487210D01*
X164439600Y-108487210D01*
X164439600Y-105962178D01*
X164439600Y-104800400D01*
X163277797Y-104800400D01*
X163189766Y-105002694D01*
X163373972Y-105473373D01*
X163724277Y-105837731D01*
X164187351Y-106040298D01*
X164237306Y-106050232D01*
X164439600Y-105962178D01*
X164439600Y-108487210D01*
X164090311Y-108487210D01*
X160261300Y-104658198D01*
X160261300Y-100987391D01*
X160261300Y-100815610D01*
X160261300Y-100463350D01*
X160153350Y-100355400D01*
X159537400Y-100355400D01*
X159537400Y-101225350D01*
X159645350Y-101333300D01*
X159915390Y-101333300D01*
X160074095Y-101267563D01*
X160195562Y-101146095D01*
X160261300Y-100987391D01*
X160261300Y-104658198D01*
X160223300Y-104620198D01*
X160223300Y-103029391D01*
X160223300Y-102857610D01*
X160223300Y-102505350D01*
X160223300Y-102238650D01*
X160223300Y-101886390D01*
X160223300Y-101714609D01*
X160157562Y-101555905D01*
X160036095Y-101434437D01*
X159877390Y-101368700D01*
X159607350Y-101368700D01*
X159499400Y-101476650D01*
X159499400Y-102346600D01*
X160115350Y-102346600D01*
X160223300Y-102238650D01*
X160223300Y-102505350D01*
X160115350Y-102397400D01*
X159499400Y-102397400D01*
X159499400Y-103267350D01*
X159607350Y-103375300D01*
X159877390Y-103375300D01*
X160036095Y-103309563D01*
X160157562Y-103188095D01*
X160223300Y-103029391D01*
X160223300Y-104620198D01*
X160143800Y-104540698D01*
X160143800Y-103868110D01*
X160078063Y-103709405D01*
X159956595Y-103587938D01*
X159797891Y-103522200D01*
X159626110Y-103522200D01*
X159486600Y-103522200D01*
X159486600Y-101225350D01*
X159486600Y-100355400D01*
X158870650Y-100355400D01*
X158762700Y-100463350D01*
X158762700Y-100815610D01*
X158762700Y-100987391D01*
X158828438Y-101146095D01*
X158949905Y-101267563D01*
X159108610Y-101333300D01*
X159378650Y-101333300D01*
X159486600Y-101225350D01*
X159486600Y-103522200D01*
X159448600Y-103522200D01*
X159448600Y-103267350D01*
X159448600Y-102397400D01*
X159448600Y-102346600D01*
X159448600Y-101476650D01*
X159340650Y-101368700D01*
X159070610Y-101368700D01*
X158911905Y-101434437D01*
X158790438Y-101555905D01*
X158724700Y-101714609D01*
X158724700Y-101886390D01*
X158724700Y-102238650D01*
X158832650Y-102346600D01*
X159448600Y-102346600D01*
X159448600Y-102397400D01*
X158832650Y-102397400D01*
X158724700Y-102505350D01*
X158724700Y-102857610D01*
X158724700Y-103029391D01*
X158790438Y-103188095D01*
X158911905Y-103309563D01*
X159070610Y-103375300D01*
X159340650Y-103375300D01*
X159448600Y-103267350D01*
X159448600Y-103522200D01*
X159126110Y-103522200D01*
X158967405Y-103587937D01*
X158845938Y-103709405D01*
X158780200Y-103868109D01*
X158780200Y-104039890D01*
X158780200Y-104939890D01*
X158845937Y-105098595D01*
X158928600Y-105181257D01*
X158928600Y-105211058D01*
X158842544Y-105297113D01*
X158536735Y-105296847D01*
X158211343Y-105431296D01*
X157962171Y-105680033D01*
X157950137Y-105709013D01*
X157938704Y-105681343D01*
X157689967Y-105432171D01*
X157364810Y-105297154D01*
X157355116Y-105297145D01*
X157449802Y-105202459D01*
X157467405Y-105220062D01*
X157626109Y-105285800D01*
X157797890Y-105285800D01*
X158297890Y-105285800D01*
X158456595Y-105220063D01*
X158578062Y-105098595D01*
X158643800Y-104939891D01*
X158643800Y-104768110D01*
X158643800Y-103868110D01*
X158578063Y-103709405D01*
X158520800Y-103652142D01*
X158520800Y-103300857D01*
X158633562Y-103188095D01*
X158699300Y-103029391D01*
X158699300Y-102857610D01*
X158699300Y-101714610D01*
X158633563Y-101555905D01*
X158512095Y-101434438D01*
X158508800Y-101433073D01*
X158508800Y-101284667D01*
X158550095Y-101267563D01*
X158671562Y-101146095D01*
X158737300Y-100987391D01*
X158737300Y-100815610D01*
X158737300Y-100116962D01*
X158762700Y-100091562D01*
X158762700Y-100196650D01*
X158870650Y-100304600D01*
X159486600Y-100304600D01*
X159486600Y-100284600D01*
X159537400Y-100284600D01*
X159537400Y-100304600D01*
X160153350Y-100304600D01*
X160261300Y-100196650D01*
X160261300Y-99844390D01*
X160261300Y-99672609D01*
X160195562Y-99513905D01*
X160074095Y-99392437D01*
X160038033Y-99377500D01*
X160074095Y-99362563D01*
X160195562Y-99241095D01*
X160261300Y-99082391D01*
X160261300Y-98983800D01*
X160423537Y-98983800D01*
X163249196Y-101809459D01*
X163169600Y-102209622D01*
X163169600Y-102260378D01*
X163268206Y-102756106D01*
X163549014Y-103176364D01*
X163969272Y-103457172D01*
X164210358Y-103505126D01*
X164187351Y-103509702D01*
X163724277Y-103712269D01*
X163373972Y-104076627D01*
X163189766Y-104547306D01*
X163277797Y-104749600D01*
X164439600Y-104749600D01*
X164439600Y-104729600D01*
X164490400Y-104729600D01*
X164490400Y-104749600D01*
X164510400Y-104749600D01*
X164510400Y-104800400D01*
X164490400Y-104800400D01*
X164490400Y-105962178D01*
X164692694Y-106050232D01*
X164742649Y-106040298D01*
X165205723Y-105837731D01*
X165556028Y-105473373D01*
X165740234Y-105002694D01*
X165652203Y-104800402D01*
X165709604Y-104800402D01*
X165808206Y-105296106D01*
X166089014Y-105716364D01*
X166509272Y-105997172D01*
X167005000Y-106095778D01*
X167500728Y-105997172D01*
X167690801Y-105870169D01*
X167690801Y-117059387D01*
M02*
