%FSLAX46Y46*%
G04 Gerber Fmt 4.6, Leading zero omitted, Abs format (unit mm)*
G04 Created by KiCad (PCBNEW (2014-jul-16 BZR unknown)-product) date Wed 29 Oct 2014 15:34:50 GMT*
%MOMM*%
G01*
G04 APERTURE LIST*
%ADD10C,0.100000*%
%ADD11C,0.250000*%
%ADD12R,1.727200X1.727200*%
%ADD13O,1.727200X1.727200*%
%ADD14C,1.143000*%
%ADD15C,0.906400*%
%ADD16C,0.254000*%
%ADD17C,0.203200*%
G04 APERTURE END LIST*
D10*
D11*
X165660855Y-120854571D02*
X165432284Y-120854571D01*
X165317998Y-120926000D01*
X165203712Y-121068857D01*
X165146570Y-121354571D01*
X165146570Y-121854571D01*
X165203712Y-122140286D01*
X165317998Y-122283143D01*
X165432284Y-122354571D01*
X165660855Y-122354571D01*
X165775141Y-122283143D01*
X165889427Y-122140286D01*
X165946570Y-121854571D01*
X165946570Y-121354571D01*
X165889427Y-121068857D01*
X165775141Y-120926000D01*
X165660855Y-120854571D01*
X164632284Y-121354571D02*
X164632284Y-122854571D01*
X164632284Y-121426000D02*
X164517998Y-121354571D01*
X164289427Y-121354571D01*
X164175141Y-121426000D01*
X164117998Y-121497429D01*
X164060855Y-121640286D01*
X164060855Y-122068857D01*
X164117998Y-122211714D01*
X164175141Y-122283143D01*
X164289427Y-122354571D01*
X164517998Y-122354571D01*
X164632284Y-122283143D01*
X163089427Y-122283143D02*
X163203713Y-122354571D01*
X163432284Y-122354571D01*
X163546570Y-122283143D01*
X163603713Y-122140286D01*
X163603713Y-121568857D01*
X163546570Y-121426000D01*
X163432284Y-121354571D01*
X163203713Y-121354571D01*
X163089427Y-121426000D01*
X163032284Y-121568857D01*
X163032284Y-121711714D01*
X163603713Y-121854571D01*
X162517999Y-121354571D02*
X162517999Y-122354571D01*
X162517999Y-121497429D02*
X162460856Y-121426000D01*
X162346570Y-121354571D01*
X162175142Y-121354571D01*
X162060856Y-121426000D01*
X162003713Y-121568857D01*
X162003713Y-122354571D01*
X161432285Y-121568857D02*
X161032285Y-121568857D01*
X160860856Y-122354571D02*
X161432285Y-122354571D01*
X161432285Y-120854571D01*
X160860856Y-120854571D01*
X160346571Y-121354571D02*
X160346571Y-122354571D01*
X160346571Y-121497429D02*
X160289428Y-121426000D01*
X160175142Y-121354571D01*
X160003714Y-121354571D01*
X159889428Y-121426000D01*
X159832285Y-121568857D01*
X159832285Y-122354571D01*
X158803714Y-122283143D02*
X158918000Y-122354571D01*
X159146571Y-122354571D01*
X159260857Y-122283143D01*
X159318000Y-122140286D01*
X159318000Y-121568857D01*
X159260857Y-121426000D01*
X159146571Y-121354571D01*
X158918000Y-121354571D01*
X158803714Y-121426000D01*
X158746571Y-121568857D01*
X158746571Y-121711714D01*
X159318000Y-121854571D01*
X158232286Y-122354571D02*
X158232286Y-121354571D01*
X158232286Y-121640286D02*
X158175143Y-121497429D01*
X158118000Y-121426000D01*
X158003714Y-121354571D01*
X157889429Y-121354571D01*
X156975143Y-121354571D02*
X156975143Y-122568857D01*
X157032286Y-122711714D01*
X157089429Y-122783143D01*
X157203714Y-122854571D01*
X157375143Y-122854571D01*
X157489429Y-122783143D01*
X156975143Y-122283143D02*
X157089429Y-122354571D01*
X157318000Y-122354571D01*
X157432286Y-122283143D01*
X157489429Y-122211714D01*
X157546572Y-122068857D01*
X157546572Y-121640286D01*
X157489429Y-121497429D01*
X157432286Y-121426000D01*
X157318000Y-121354571D01*
X157089429Y-121354571D01*
X156975143Y-121426000D01*
X156518000Y-121354571D02*
X156232286Y-122354571D01*
X155946572Y-121354571D02*
X156232286Y-122354571D01*
X156346572Y-122711714D01*
X156403715Y-122783143D01*
X156518000Y-122854571D01*
X155489429Y-122354571D02*
X155489429Y-120854571D01*
X155089429Y-121926000D01*
X154689429Y-120854571D01*
X154689429Y-122354571D01*
X153946571Y-122354571D02*
X154060857Y-122283143D01*
X154118000Y-122211714D01*
X154175143Y-122068857D01*
X154175143Y-121640286D01*
X154118000Y-121497429D01*
X154060857Y-121426000D01*
X153946571Y-121354571D01*
X153775143Y-121354571D01*
X153660857Y-121426000D01*
X153603714Y-121497429D01*
X153546571Y-121640286D01*
X153546571Y-122068857D01*
X153603714Y-122211714D01*
X153660857Y-122283143D01*
X153775143Y-122354571D01*
X153946571Y-122354571D01*
X153032286Y-121354571D02*
X153032286Y-122354571D01*
X153032286Y-121497429D02*
X152975143Y-121426000D01*
X152860857Y-121354571D01*
X152689429Y-121354571D01*
X152575143Y-121426000D01*
X152518000Y-121568857D01*
X152518000Y-122354571D01*
X151946572Y-122354571D02*
X151946572Y-121354571D01*
X151946572Y-120854571D02*
X152003715Y-120926000D01*
X151946572Y-120997429D01*
X151889429Y-120926000D01*
X151946572Y-120854571D01*
X151946572Y-120997429D01*
X151546571Y-121354571D02*
X151089428Y-121354571D01*
X151375143Y-120854571D02*
X151375143Y-122140286D01*
X151318000Y-122283143D01*
X151203714Y-122354571D01*
X151089428Y-122354571D01*
X150518000Y-122354571D02*
X150632286Y-122283143D01*
X150689429Y-122211714D01*
X150746572Y-122068857D01*
X150746572Y-121640286D01*
X150689429Y-121497429D01*
X150632286Y-121426000D01*
X150518000Y-121354571D01*
X150346572Y-121354571D01*
X150232286Y-121426000D01*
X150175143Y-121497429D01*
X150118000Y-121640286D01*
X150118000Y-122068857D01*
X150175143Y-122211714D01*
X150232286Y-122283143D01*
X150346572Y-122354571D01*
X150518000Y-122354571D01*
X149603715Y-122354571D02*
X149603715Y-121354571D01*
X149603715Y-121640286D02*
X149546572Y-121497429D01*
X149489429Y-121426000D01*
X149375143Y-121354571D01*
X149260858Y-121354571D01*
X148860858Y-122211714D02*
X148803715Y-122283143D01*
X148860858Y-122354571D01*
X148918001Y-122283143D01*
X148860858Y-122211714D01*
X148860858Y-122354571D01*
X148118000Y-122354571D02*
X148232286Y-122283143D01*
X148289429Y-122211714D01*
X148346572Y-122068857D01*
X148346572Y-121640286D01*
X148289429Y-121497429D01*
X148232286Y-121426000D01*
X148118000Y-121354571D01*
X147946572Y-121354571D01*
X147832286Y-121426000D01*
X147775143Y-121497429D01*
X147718000Y-121640286D01*
X147718000Y-122068857D01*
X147775143Y-122211714D01*
X147832286Y-122283143D01*
X147946572Y-122354571D01*
X148118000Y-122354571D01*
X147203715Y-122354571D02*
X147203715Y-121354571D01*
X147203715Y-121640286D02*
X147146572Y-121497429D01*
X147089429Y-121426000D01*
X146975143Y-121354571D01*
X146860858Y-121354571D01*
X145946572Y-121354571D02*
X145946572Y-122568857D01*
X146003715Y-122711714D01*
X146060858Y-122783143D01*
X146175143Y-122854571D01*
X146346572Y-122854571D01*
X146460858Y-122783143D01*
X145946572Y-122283143D02*
X146060858Y-122354571D01*
X146289429Y-122354571D01*
X146403715Y-122283143D01*
X146460858Y-122211714D01*
X146518001Y-122068857D01*
X146518001Y-121640286D01*
X146460858Y-121497429D01*
X146403715Y-121426000D01*
X146289429Y-121354571D01*
X146060858Y-121354571D01*
X145946572Y-121426000D01*
D12*
X167005000Y-94615000D03*
D13*
X164465000Y-94615000D03*
X167005000Y-97155000D03*
X164465000Y-97155000D03*
X167005000Y-99695000D03*
X164465000Y-99695000D03*
X167005000Y-102235000D03*
X164465000Y-102235000D03*
X167005000Y-104775000D03*
X164465000Y-104775000D03*
D12*
X144780000Y-115570000D03*
D13*
X142240000Y-115570000D03*
X144780000Y-113030000D03*
X142240000Y-113030000D03*
X144780000Y-110490000D03*
X142240000Y-110490000D03*
D14*
X167640000Y-121920000D03*
D15*
X153124000Y-95641000D03*
X160744000Y-97546000D03*
X163919000Y-106563000D03*
X146393000Y-119136000D03*
X162268000Y-106055000D03*
X154648000Y-104531000D03*
X141059000Y-95514000D03*
X147536000Y-99578000D03*
X148590000Y-100330000D03*
X152870000Y-106690000D03*
X161379000Y-101229000D03*
X162141000Y-94445909D03*
X140932000Y-99324000D03*
X155664000Y-94498000D03*
X158712000Y-106182000D03*
X143972528Y-107981420D03*
X155918000Y-96784000D03*
X151346000Y-109484000D03*
X160998000Y-95006000D03*
X162268000Y-97292000D03*
X156426000Y-99324000D03*
X157188000Y-106182000D03*
X160744000Y-107960000D03*
X143218000Y-105420000D03*
X139662000Y-108722000D03*
D16*
X155346401Y-111353599D02*
X163601401Y-103098599D01*
X145643599Y-111353599D02*
X155346401Y-111353599D01*
X163601401Y-103098599D02*
X164465000Y-102235000D01*
X144780000Y-110490000D02*
X145643599Y-111353599D01*
D17*
X148552000Y-100340000D02*
X148580000Y-100340000D01*
X148580000Y-100340000D02*
X148590000Y-100330000D01*
D16*
X152108000Y-110754000D02*
X152870000Y-109992000D01*
X152870000Y-109992000D02*
X152870000Y-106690000D01*
X151346000Y-110754000D02*
X152108000Y-110754000D01*
X147790000Y-107198000D02*
X151346000Y-110754000D01*
X142964000Y-107198000D02*
X147790000Y-107198000D01*
X142240000Y-107922000D02*
X142964000Y-107198000D01*
X142240000Y-110490000D02*
X142240000Y-107922000D01*
X165038025Y-101041199D02*
X165404466Y-101407640D01*
X165404466Y-101407640D02*
X165811199Y-101814373D01*
X167005000Y-99695000D02*
X165404466Y-101295534D01*
X165404466Y-101295534D02*
X165404466Y-101407640D01*
X152870000Y-106690000D02*
X153323199Y-107143199D01*
X153323199Y-107143199D02*
X158910209Y-107143199D01*
X158910209Y-107143199D02*
X163271199Y-102782209D01*
X163271199Y-102782209D02*
X163271199Y-101661975D01*
X163891975Y-101041199D02*
X165038025Y-101041199D01*
X165811199Y-101814373D02*
X165811199Y-103428801D01*
X165811199Y-103428801D02*
X165328599Y-103911401D01*
X165328599Y-103911401D02*
X164465000Y-104775000D01*
D17*
X163704174Y-101229000D02*
X163709297Y-101223877D01*
D16*
X163709297Y-101223877D02*
X163891975Y-101041199D01*
X163271199Y-101661975D02*
X163709297Y-101223877D01*
D17*
X165836599Y-98526599D02*
X166141401Y-98831401D01*
X165836599Y-96797365D02*
X165836599Y-98526599D01*
X163040769Y-95986599D02*
X165025833Y-95986599D01*
X166141401Y-98831401D02*
X167005000Y-99695000D01*
X162141000Y-95086830D02*
X163040769Y-95986599D01*
X165025833Y-95986599D02*
X165836599Y-96797365D01*
X162141000Y-94445909D02*
X162141000Y-95086830D01*
X163040769Y-101214821D02*
X163054948Y-101229000D01*
X163040769Y-95986599D02*
X163040769Y-101214821D01*
X163054948Y-101229000D02*
X163704174Y-101229000D01*
X161379000Y-101229000D02*
X163054948Y-101229000D01*
D16*
X155664000Y-94498000D02*
X145758000Y-94498000D01*
X145758000Y-94498000D02*
X140932000Y-99324000D01*
X158712000Y-106182000D02*
X158712000Y-97546000D01*
X158712000Y-97546000D02*
X155664000Y-94498000D01*
X143519329Y-108434619D02*
X143972528Y-107981420D01*
X143519329Y-111769329D02*
X143519329Y-108434619D01*
X144780000Y-113030000D02*
X143519329Y-111769329D01*
X155464801Y-97237199D02*
X155918000Y-96784000D01*
X151346000Y-109484000D02*
X151346000Y-101356000D01*
X151346000Y-101356000D02*
X155464801Y-97237199D01*
X162268000Y-97292000D02*
X162268000Y-96651079D01*
X162268000Y-96651079D02*
X160998000Y-95381079D01*
X160998000Y-95381079D02*
X160998000Y-95006000D01*
X156426000Y-99324000D02*
X156426000Y-105420000D01*
X156426000Y-105420000D02*
X157188000Y-106182000D01*
X167005000Y-102235000D02*
X168198801Y-103428801D01*
X168198801Y-103428801D02*
X168198801Y-105348025D01*
X168198801Y-105348025D02*
X165586826Y-107960000D01*
X165586826Y-107960000D02*
X160744000Y-107960000D01*
X139662000Y-108722000D02*
X142964000Y-105420000D01*
X142964000Y-105420000D02*
X143218000Y-105420000D01*
G36*
X163676172Y-100965000D02*
X163405330Y-101145971D01*
X163080474Y-101632152D01*
X162966400Y-102205641D01*
X162966400Y-102264359D01*
X163031372Y-102590997D01*
X159758135Y-105864234D01*
X159635069Y-105566390D01*
X159474000Y-105405039D01*
X159474000Y-97546000D01*
X159415996Y-97254396D01*
X159415996Y-97254395D01*
X159250815Y-97007185D01*
X156752191Y-94508561D01*
X156752388Y-94282493D01*
X156587069Y-93882390D01*
X156549744Y-93845000D01*
X163192161Y-93845000D01*
X163080474Y-94012152D01*
X162966400Y-94585641D01*
X162966400Y-94644359D01*
X163080474Y-95217848D01*
X163405330Y-95704029D01*
X163676172Y-95885000D01*
X163405330Y-96065971D01*
X163080474Y-96552152D01*
X163078243Y-96563366D01*
X162996206Y-96481186D01*
X162996205Y-96481185D01*
X162971996Y-96359474D01*
X162806815Y-96112264D01*
X162806815Y-96112263D01*
X162036703Y-95342151D01*
X162086011Y-95223406D01*
X162086388Y-94790493D01*
X161921069Y-94390390D01*
X161615221Y-94084007D01*
X161215406Y-93917989D01*
X160782493Y-93917612D01*
X160382390Y-94082931D01*
X160076007Y-94388779D01*
X159909989Y-94788594D01*
X159909612Y-95221507D01*
X160074931Y-95621610D01*
X160380779Y-95927993D01*
X160528710Y-95989419D01*
X161307295Y-96768005D01*
X161179989Y-97074594D01*
X161179612Y-97507507D01*
X161344931Y-97907610D01*
X161650779Y-98213993D01*
X162050594Y-98380011D01*
X162483507Y-98380388D01*
X162883610Y-98215069D01*
X163184969Y-97914236D01*
X163405330Y-98244029D01*
X163676172Y-98425000D01*
X163405330Y-98605971D01*
X163080474Y-99092152D01*
X162966400Y-99665641D01*
X162966400Y-99724359D01*
X163080474Y-100297848D01*
X163405330Y-100784029D01*
X163676172Y-100965000D01*
X163676172Y-100965000D01*
G37*
X163676172Y-100965000D02*
X163405330Y-101145971D01*
X163080474Y-101632152D01*
X162966400Y-102205641D01*
X162966400Y-102264359D01*
X163031372Y-102590997D01*
X159758135Y-105864234D01*
X159635069Y-105566390D01*
X159474000Y-105405039D01*
X159474000Y-97546000D01*
X159415996Y-97254396D01*
X159415996Y-97254395D01*
X159250815Y-97007185D01*
X156752191Y-94508561D01*
X156752388Y-94282493D01*
X156587069Y-93882390D01*
X156549744Y-93845000D01*
X163192161Y-93845000D01*
X163080474Y-94012152D01*
X162966400Y-94585641D01*
X162966400Y-94644359D01*
X163080474Y-95217848D01*
X163405330Y-95704029D01*
X163676172Y-95885000D01*
X163405330Y-96065971D01*
X163080474Y-96552152D01*
X163078243Y-96563366D01*
X162996206Y-96481186D01*
X162996205Y-96481185D01*
X162971996Y-96359474D01*
X162806815Y-96112264D01*
X162806815Y-96112263D01*
X162036703Y-95342151D01*
X162086011Y-95223406D01*
X162086388Y-94790493D01*
X161921069Y-94390390D01*
X161615221Y-94084007D01*
X161215406Y-93917989D01*
X160782493Y-93917612D01*
X160382390Y-94082931D01*
X160076007Y-94388779D01*
X159909989Y-94788594D01*
X159909612Y-95221507D01*
X160074931Y-95621610D01*
X160380779Y-95927993D01*
X160528710Y-95989419D01*
X161307295Y-96768005D01*
X161179989Y-97074594D01*
X161179612Y-97507507D01*
X161344931Y-97907610D01*
X161650779Y-98213993D01*
X162050594Y-98380011D01*
X162483507Y-98380388D01*
X162883610Y-98215069D01*
X163184969Y-97914236D01*
X163405330Y-98244029D01*
X163676172Y-98425000D01*
X163405330Y-98605971D01*
X163080474Y-99092152D01*
X162966400Y-99665641D01*
X162966400Y-99724359D01*
X163080474Y-100297848D01*
X163405330Y-100784029D01*
X163676172Y-100965000D01*
G36*
X166216160Y-98424992D02*
X165798179Y-98806510D01*
X165740663Y-98929228D01*
X165524670Y-98605971D01*
X165253827Y-98425000D01*
X165524670Y-98244029D01*
X165735000Y-97929248D01*
X165945330Y-98244029D01*
X166216160Y-98424992D01*
X166216160Y-98424992D01*
G37*
X166216160Y-98424992D02*
X165798179Y-98806510D01*
X165740663Y-98929228D01*
X165524670Y-98605971D01*
X165253827Y-98425000D01*
X165524670Y-98244029D01*
X165735000Y-97929248D01*
X165945330Y-98244029D01*
X166216160Y-98424992D01*
G36*
X166216172Y-103505000D02*
X165945330Y-103685971D01*
X165729336Y-104009228D01*
X165671821Y-103886510D01*
X165253839Y-103504992D01*
X165524670Y-103324029D01*
X165735000Y-103009248D01*
X165945330Y-103324029D01*
X166216172Y-103505000D01*
X166216172Y-103505000D01*
G37*
X166216172Y-103505000D02*
X165945330Y-103685971D01*
X165729336Y-104009228D01*
X165671821Y-103886510D01*
X165253839Y-103504992D01*
X165524670Y-103324029D01*
X165735000Y-103009248D01*
X165945330Y-103324029D01*
X166216172Y-103505000D01*
G36*
X166340872Y-106128322D02*
X165271195Y-107198000D01*
X164338000Y-107198000D01*
X161520934Y-107198000D01*
X161361221Y-107038007D01*
X160961406Y-106871989D01*
X160905689Y-106871940D01*
X162966400Y-104811229D01*
X162966400Y-104902002D01*
X163130529Y-104902002D01*
X163010032Y-105134027D01*
X163258179Y-105663490D01*
X163690053Y-106057688D01*
X164105974Y-106229958D01*
X164338000Y-106108817D01*
X164338000Y-104902000D01*
X164318000Y-104902000D01*
X164318000Y-104648000D01*
X164338000Y-104648000D01*
X164338000Y-104628000D01*
X164592000Y-104628000D01*
X164592000Y-104648000D01*
X164612000Y-104648000D01*
X164612000Y-104902000D01*
X164592000Y-104902000D01*
X164592000Y-106108817D01*
X164824026Y-106229958D01*
X165239947Y-106057688D01*
X165671821Y-105663490D01*
X165729336Y-105540771D01*
X165945330Y-105864029D01*
X166340872Y-106128322D01*
X166340872Y-106128322D01*
G37*
X166340872Y-106128322D02*
X165271195Y-107198000D01*
X164338000Y-107198000D01*
X161520934Y-107198000D01*
X161361221Y-107038007D01*
X160961406Y-106871989D01*
X160905689Y-106871940D01*
X162966400Y-104811229D01*
X162966400Y-104902002D01*
X163130529Y-104902002D01*
X163010032Y-105134027D01*
X163258179Y-105663490D01*
X163690053Y-106057688D01*
X164105974Y-106229958D01*
X164338000Y-106108817D01*
X164338000Y-104902000D01*
X164318000Y-104902000D01*
X164318000Y-104648000D01*
X164338000Y-104648000D01*
X164338000Y-104628000D01*
X164592000Y-104628000D01*
X164592000Y-104648000D01*
X164612000Y-104648000D01*
X164612000Y-104902000D01*
X164592000Y-104902000D01*
X164592000Y-106108817D01*
X164824026Y-106229958D01*
X165239947Y-106057688D01*
X165671821Y-105663490D01*
X165729336Y-105540771D01*
X165945330Y-105864029D01*
X166340872Y-106128322D01*
G36*
X167152000Y-99822000D02*
X167132000Y-99822000D01*
X167132000Y-99842000D01*
X166878000Y-99842000D01*
X166878000Y-99822000D01*
X166858000Y-99822000D01*
X166858000Y-99568000D01*
X166878000Y-99568000D01*
X166878000Y-99548000D01*
X167132000Y-99548000D01*
X167132000Y-99568000D01*
X167152000Y-99568000D01*
X167152000Y-99822000D01*
X167152000Y-99822000D01*
G37*
X167152000Y-99822000D02*
X167132000Y-99822000D01*
X167132000Y-99842000D01*
X166878000Y-99842000D01*
X166878000Y-99822000D01*
X166858000Y-99822000D01*
X166858000Y-99568000D01*
X166878000Y-99568000D01*
X166878000Y-99548000D01*
X167132000Y-99548000D01*
X167132000Y-99568000D01*
X167152000Y-99568000D01*
X167152000Y-99822000D01*
G36*
X168275000Y-120877295D02*
X167881041Y-120713710D01*
X167401065Y-120713291D01*
X166957465Y-120896582D01*
X166935142Y-120918866D01*
X166935142Y-119616000D01*
X144900859Y-119616000D01*
X144900859Y-122475000D01*
X139645000Y-122475000D01*
X139645000Y-109810185D01*
X139877507Y-109810388D01*
X140277610Y-109645069D01*
X140583993Y-109339221D01*
X140750011Y-108939406D01*
X140750209Y-108711420D01*
X142967401Y-106494228D01*
X143000594Y-106508011D01*
X143433507Y-106508388D01*
X143833610Y-106343069D01*
X144139993Y-106037221D01*
X144306011Y-105637406D01*
X144306388Y-105204493D01*
X144141069Y-104804390D01*
X143835221Y-104498007D01*
X143435406Y-104331989D01*
X143002493Y-104331612D01*
X142602390Y-104496931D01*
X142296007Y-104802779D01*
X142148602Y-105157767D01*
X139672561Y-107633808D01*
X139645000Y-107633784D01*
X139645000Y-93845000D01*
X145390074Y-93845000D01*
X145367376Y-93860165D01*
X145219185Y-93959184D01*
X140942561Y-98235808D01*
X140716493Y-98235612D01*
X140316390Y-98400931D01*
X140010007Y-98706779D01*
X139843989Y-99106594D01*
X139843612Y-99539507D01*
X140008931Y-99939610D01*
X140314779Y-100245993D01*
X140714594Y-100412011D01*
X141147507Y-100412388D01*
X141547610Y-100247069D01*
X141853993Y-99941221D01*
X142020011Y-99541406D01*
X142020209Y-99313420D01*
X146073630Y-95260000D01*
X154887065Y-95260000D01*
X155046779Y-95419993D01*
X155446594Y-95586011D01*
X155674579Y-95586209D01*
X155784053Y-95695683D01*
X155702493Y-95695612D01*
X155302390Y-95860931D01*
X154996007Y-96166779D01*
X154829989Y-96566594D01*
X154829790Y-96794578D01*
X150807185Y-100817185D01*
X150642004Y-101064395D01*
X150584000Y-101356000D01*
X150584000Y-108707065D01*
X150424007Y-108866779D01*
X150257989Y-109266594D01*
X150257612Y-109699507D01*
X150422931Y-110099610D01*
X150728779Y-110405993D01*
X151128594Y-110572011D01*
X151561507Y-110572388D01*
X151961610Y-110407069D01*
X152267993Y-110101221D01*
X152434011Y-109701406D01*
X152434388Y-109268493D01*
X152269069Y-108868390D01*
X152108000Y-108707039D01*
X152108000Y-101671630D01*
X155907439Y-97872191D01*
X156133507Y-97872388D01*
X156533610Y-97707069D01*
X156839993Y-97401221D01*
X157006011Y-97001406D01*
X157006083Y-96917713D01*
X157950000Y-97861630D01*
X157950000Y-105405039D01*
X157805221Y-105260007D01*
X157405406Y-105093989D01*
X157188000Y-105093799D01*
X157188000Y-100100934D01*
X157347993Y-99941221D01*
X157514011Y-99541406D01*
X157514388Y-99108493D01*
X157349069Y-98708390D01*
X157043221Y-98402007D01*
X156643406Y-98235989D01*
X156210493Y-98235612D01*
X155810390Y-98400931D01*
X155504007Y-98706779D01*
X155337989Y-99106594D01*
X155337612Y-99539507D01*
X155502931Y-99939610D01*
X155664000Y-100100960D01*
X155664000Y-105420000D01*
X155722004Y-105711605D01*
X155887185Y-105958815D01*
X156099808Y-106171439D01*
X156099612Y-106397507D01*
X156264931Y-106797610D01*
X156570779Y-107103993D01*
X156970594Y-107270011D01*
X157403507Y-107270388D01*
X157803610Y-107105069D01*
X157949986Y-106958947D01*
X158094779Y-107103993D01*
X158394091Y-107228278D01*
X155030770Y-110591599D01*
X146264230Y-110591599D01*
X146278600Y-110519359D01*
X146278600Y-110460641D01*
X146164526Y-109887152D01*
X145839670Y-109400971D01*
X145353489Y-109076115D01*
X144780000Y-108962041D01*
X144281329Y-109061232D01*
X144281329Y-109031259D01*
X144588138Y-108904489D01*
X144894521Y-108598641D01*
X145060539Y-108198826D01*
X145060916Y-107765913D01*
X144895597Y-107365810D01*
X144589749Y-107059427D01*
X144189934Y-106893409D01*
X143757021Y-106893032D01*
X143356918Y-107058351D01*
X143050535Y-107364199D01*
X142884517Y-107764014D01*
X142884276Y-108039832D01*
X142884276Y-108039833D01*
X142815333Y-108143014D01*
X142757329Y-108434619D01*
X142757329Y-109100609D01*
X142599026Y-109035042D01*
X142367000Y-109156183D01*
X142367000Y-110363000D01*
X142387000Y-110363000D01*
X142387000Y-110617000D01*
X142367000Y-110617000D01*
X142367000Y-110637000D01*
X142113000Y-110637000D01*
X142113000Y-110617000D01*
X142113000Y-110363000D01*
X142113000Y-109156183D01*
X141880974Y-109035042D01*
X141465053Y-109207312D01*
X141033179Y-109601510D01*
X140785032Y-110130973D01*
X140905531Y-110363000D01*
X142113000Y-110363000D01*
X142113000Y-110617000D01*
X140905531Y-110617000D01*
X140785032Y-110849027D01*
X141033179Y-111378490D01*
X141451160Y-111760007D01*
X141180330Y-111940971D01*
X140855474Y-112427152D01*
X140741400Y-113000641D01*
X140741400Y-113059359D01*
X140855474Y-113632848D01*
X141180330Y-114119029D01*
X141451172Y-114300000D01*
X141180330Y-114480971D01*
X140855474Y-114967152D01*
X140741400Y-115540641D01*
X140741400Y-115599359D01*
X140855474Y-116172848D01*
X141180330Y-116659029D01*
X141666511Y-116983885D01*
X142240000Y-117097959D01*
X142813489Y-116983885D01*
X143299670Y-116659029D01*
X143313736Y-116637976D01*
X143378073Y-116793298D01*
X143556701Y-116971927D01*
X143790090Y-117068600D01*
X144042709Y-117068600D01*
X145769909Y-117068600D01*
X146003298Y-116971927D01*
X146181927Y-116793299D01*
X146278600Y-116559910D01*
X146278600Y-116307291D01*
X146278600Y-114580091D01*
X146181927Y-114346702D01*
X146003299Y-114168073D01*
X145849473Y-114104356D01*
X146164526Y-113632848D01*
X146278600Y-113059359D01*
X146278600Y-113000641D01*
X146164526Y-112427152D01*
X145956352Y-112115599D01*
X155346401Y-112115599D01*
X155346401Y-112115598D01*
X155638005Y-112057595D01*
X155638006Y-112057595D01*
X155885216Y-111892414D01*
X159655658Y-108121971D01*
X159655612Y-108175507D01*
X159820931Y-108575610D01*
X160126779Y-108881993D01*
X160526594Y-109048011D01*
X160959507Y-109048388D01*
X161359610Y-108883069D01*
X161520960Y-108722000D01*
X165586826Y-108722000D01*
X165586826Y-108721999D01*
X165878430Y-108663996D01*
X165878431Y-108663996D01*
X166125641Y-108498815D01*
X168275000Y-106349456D01*
X168275000Y-120877295D01*
X168275000Y-120877295D01*
G37*
X168275000Y-120877295D02*
X167881041Y-120713710D01*
X167401065Y-120713291D01*
X166957465Y-120896582D01*
X166935142Y-120918866D01*
X166935142Y-119616000D01*
X144900859Y-119616000D01*
X144900859Y-122475000D01*
X139645000Y-122475000D01*
X139645000Y-109810185D01*
X139877507Y-109810388D01*
X140277610Y-109645069D01*
X140583993Y-109339221D01*
X140750011Y-108939406D01*
X140750209Y-108711420D01*
X142967401Y-106494228D01*
X143000594Y-106508011D01*
X143433507Y-106508388D01*
X143833610Y-106343069D01*
X144139993Y-106037221D01*
X144306011Y-105637406D01*
X144306388Y-105204493D01*
X144141069Y-104804390D01*
X143835221Y-104498007D01*
X143435406Y-104331989D01*
X143002493Y-104331612D01*
X142602390Y-104496931D01*
X142296007Y-104802779D01*
X142148602Y-105157767D01*
X139672561Y-107633808D01*
X139645000Y-107633784D01*
X139645000Y-93845000D01*
X145390074Y-93845000D01*
X145367376Y-93860165D01*
X145219185Y-93959184D01*
X140942561Y-98235808D01*
X140716493Y-98235612D01*
X140316390Y-98400931D01*
X140010007Y-98706779D01*
X139843989Y-99106594D01*
X139843612Y-99539507D01*
X140008931Y-99939610D01*
X140314779Y-100245993D01*
X140714594Y-100412011D01*
X141147507Y-100412388D01*
X141547610Y-100247069D01*
X141853993Y-99941221D01*
X142020011Y-99541406D01*
X142020209Y-99313420D01*
X146073630Y-95260000D01*
X154887065Y-95260000D01*
X155046779Y-95419993D01*
X155446594Y-95586011D01*
X155674579Y-95586209D01*
X155784053Y-95695683D01*
X155702493Y-95695612D01*
X155302390Y-95860931D01*
X154996007Y-96166779D01*
X154829989Y-96566594D01*
X154829790Y-96794578D01*
X150807185Y-100817185D01*
X150642004Y-101064395D01*
X150584000Y-101356000D01*
X150584000Y-108707065D01*
X150424007Y-108866779D01*
X150257989Y-109266594D01*
X150257612Y-109699507D01*
X150422931Y-110099610D01*
X150728779Y-110405993D01*
X151128594Y-110572011D01*
X151561507Y-110572388D01*
X151961610Y-110407069D01*
X152267993Y-110101221D01*
X152434011Y-109701406D01*
X152434388Y-109268493D01*
X152269069Y-108868390D01*
X152108000Y-108707039D01*
X152108000Y-101671630D01*
X155907439Y-97872191D01*
X156133507Y-97872388D01*
X156533610Y-97707069D01*
X156839993Y-97401221D01*
X157006011Y-97001406D01*
X157006083Y-96917713D01*
X157950000Y-97861630D01*
X157950000Y-105405039D01*
X157805221Y-105260007D01*
X157405406Y-105093989D01*
X157188000Y-105093799D01*
X157188000Y-100100934D01*
X157347993Y-99941221D01*
X157514011Y-99541406D01*
X157514388Y-99108493D01*
X157349069Y-98708390D01*
X157043221Y-98402007D01*
X156643406Y-98235989D01*
X156210493Y-98235612D01*
X155810390Y-98400931D01*
X155504007Y-98706779D01*
X155337989Y-99106594D01*
X155337612Y-99539507D01*
X155502931Y-99939610D01*
X155664000Y-100100960D01*
X155664000Y-105420000D01*
X155722004Y-105711605D01*
X155887185Y-105958815D01*
X156099808Y-106171439D01*
X156099612Y-106397507D01*
X156264931Y-106797610D01*
X156570779Y-107103993D01*
X156970594Y-107270011D01*
X157403507Y-107270388D01*
X157803610Y-107105069D01*
X157949986Y-106958947D01*
X158094779Y-107103993D01*
X158394091Y-107228278D01*
X155030770Y-110591599D01*
X146264230Y-110591599D01*
X146278600Y-110519359D01*
X146278600Y-110460641D01*
X146164526Y-109887152D01*
X145839670Y-109400971D01*
X145353489Y-109076115D01*
X144780000Y-108962041D01*
X144281329Y-109061232D01*
X144281329Y-109031259D01*
X144588138Y-108904489D01*
X144894521Y-108598641D01*
X145060539Y-108198826D01*
X145060916Y-107765913D01*
X144895597Y-107365810D01*
X144589749Y-107059427D01*
X144189934Y-106893409D01*
X143757021Y-106893032D01*
X143356918Y-107058351D01*
X143050535Y-107364199D01*
X142884517Y-107764014D01*
X142884276Y-108039832D01*
X142884276Y-108039833D01*
X142815333Y-108143014D01*
X142757329Y-108434619D01*
X142757329Y-109100609D01*
X142599026Y-109035042D01*
X142367000Y-109156183D01*
X142367000Y-110363000D01*
X142387000Y-110363000D01*
X142387000Y-110617000D01*
X142367000Y-110617000D01*
X142367000Y-110637000D01*
X142113000Y-110637000D01*
X142113000Y-110617000D01*
X142113000Y-110363000D01*
X142113000Y-109156183D01*
X141880974Y-109035042D01*
X141465053Y-109207312D01*
X141033179Y-109601510D01*
X140785032Y-110130973D01*
X140905531Y-110363000D01*
X142113000Y-110363000D01*
X142113000Y-110617000D01*
X140905531Y-110617000D01*
X140785032Y-110849027D01*
X141033179Y-111378490D01*
X141451160Y-111760007D01*
X141180330Y-111940971D01*
X140855474Y-112427152D01*
X140741400Y-113000641D01*
X140741400Y-113059359D01*
X140855474Y-113632848D01*
X141180330Y-114119029D01*
X141451172Y-114300000D01*
X141180330Y-114480971D01*
X140855474Y-114967152D01*
X140741400Y-115540641D01*
X140741400Y-115599359D01*
X140855474Y-116172848D01*
X141180330Y-116659029D01*
X141666511Y-116983885D01*
X142240000Y-117097959D01*
X142813489Y-116983885D01*
X143299670Y-116659029D01*
X143313736Y-116637976D01*
X143378073Y-116793298D01*
X143556701Y-116971927D01*
X143790090Y-117068600D01*
X144042709Y-117068600D01*
X145769909Y-117068600D01*
X146003298Y-116971927D01*
X146181927Y-116793299D01*
X146278600Y-116559910D01*
X146278600Y-116307291D01*
X146278600Y-114580091D01*
X146181927Y-114346702D01*
X146003299Y-114168073D01*
X145849473Y-114104356D01*
X146164526Y-113632848D01*
X146278600Y-113059359D01*
X146278600Y-113000641D01*
X146164526Y-112427152D01*
X145956352Y-112115599D01*
X155346401Y-112115599D01*
X155346401Y-112115598D01*
X155638005Y-112057595D01*
X155638006Y-112057595D01*
X155885216Y-111892414D01*
X159655658Y-108121971D01*
X159655612Y-108175507D01*
X159820931Y-108575610D01*
X160126779Y-108881993D01*
X160526594Y-109048011D01*
X160959507Y-109048388D01*
X161359610Y-108883069D01*
X161520960Y-108722000D01*
X165586826Y-108722000D01*
X165586826Y-108721999D01*
X165878430Y-108663996D01*
X165878431Y-108663996D01*
X166125641Y-108498815D01*
X168275000Y-106349456D01*
X168275000Y-120877295D01*
M02*
